G04 #@! TF.GenerationSoftware,KiCad,Pcbnew,7.0.10*
G04 #@! TF.CreationDate,2025-03-10T14:08:10+08:00*
G04 #@! TF.ProjectId,line_sensor,6c696e65-5f73-4656-9e73-6f722e6b6963,rev?*
G04 #@! TF.SameCoordinates,Original*
G04 #@! TF.FileFunction,Soldermask,Top*
G04 #@! TF.FilePolarity,Negative*
%FSLAX46Y46*%
G04 Gerber Fmt 4.6, Leading zero omitted, Abs format (unit mm)*
G04 Created by KiCad (PCBNEW 7.0.10) date 2025-03-10 14:08:10*
%MOMM*%
%LPD*%
G01*
G04 APERTURE LIST*
G04 Aperture macros list*
%AMRoundRect*
0 Rectangle with rounded corners*
0 $1 Rounding radius*
0 $2 $3 $4 $5 $6 $7 $8 $9 X,Y pos of 4 corners*
0 Add a 4 corners polygon primitive as box body*
4,1,4,$2,$3,$4,$5,$6,$7,$8,$9,$2,$3,0*
0 Add four circle primitives for the rounded corners*
1,1,$1+$1,$2,$3*
1,1,$1+$1,$4,$5*
1,1,$1+$1,$6,$7*
1,1,$1+$1,$8,$9*
0 Add four rect primitives between the rounded corners*
20,1,$1+$1,$2,$3,$4,$5,0*
20,1,$1+$1,$4,$5,$6,$7,0*
20,1,$1+$1,$6,$7,$8,$9,0*
20,1,$1+$1,$8,$9,$2,$3,0*%
%AMHorizOval*
0 Thick line with rounded ends*
0 $1 width*
0 $2 $3 position (X,Y) of the first rounded end (center of the circle)*
0 $4 $5 position (X,Y) of the second rounded end (center of the circle)*
0 Add line between two ends*
20,1,$1,$2,$3,$4,$5,0*
0 Add two circle primitives to create the rounded ends*
1,1,$1,$2,$3*
1,1,$1,$4,$5*%
%AMRotRect*
0 Rectangle, with rotation*
0 The origin of the aperture is its center*
0 $1 length*
0 $2 width*
0 $3 Rotation angle, in degrees counterclockwise*
0 Add horizontal line*
21,1,$1,$2,0,0,$3*%
G04 Aperture macros list end*
%ADD10C,0.010000*%
%ADD11RoundRect,0.140000X-0.170000X0.140000X-0.170000X-0.140000X0.170000X-0.140000X0.170000X0.140000X0*%
%ADD12RoundRect,0.200000X0.335876X0.053033X0.053033X0.335876X-0.335876X-0.053033X-0.053033X-0.335876X0*%
%ADD13RoundRect,0.102000X0.400000X0.200000X-0.400000X0.200000X-0.400000X-0.200000X0.400000X-0.200000X0*%
%ADD14RoundRect,0.102000X0.200000X0.400000X-0.200000X0.400000X-0.200000X-0.400000X0.200000X-0.400000X0*%
%ADD15RoundRect,0.102000X0.600000X0.600000X-0.600000X0.600000X-0.600000X-0.600000X0.600000X-0.600000X0*%
%ADD16RoundRect,0.102000X0.400000X0.400000X-0.400000X0.400000X-0.400000X-0.400000X0.400000X-0.400000X0*%
%ADD17RoundRect,0.225000X-0.225000X-0.250000X0.225000X-0.250000X0.225000X0.250000X-0.225000X0.250000X0*%
%ADD18RoundRect,0.200000X-0.053033X0.335876X-0.335876X0.053033X0.053033X-0.335876X0.335876X-0.053033X0*%
%ADD19RoundRect,0.200000X-0.200000X-0.275000X0.200000X-0.275000X0.200000X0.275000X-0.200000X0.275000X0*%
%ADD20RoundRect,0.200000X-0.177530X0.290014X-0.330604X-0.079538X0.177530X-0.290014X0.330604X0.079538X0*%
%ADD21RoundRect,0.200000X0.200000X0.275000X-0.200000X0.275000X-0.200000X-0.275000X0.200000X-0.275000X0*%
%ADD22C,6.400000*%
%ADD23RoundRect,0.200000X-0.275000X0.200000X-0.275000X-0.200000X0.275000X-0.200000X0.275000X0.200000X0*%
%ADD24RoundRect,0.225000X0.323899X-0.293836X0.411690X0.147518X-0.323899X0.293836X-0.411690X-0.147518X0*%
%ADD25RoundRect,0.200000X-0.330604X0.079538X-0.177530X-0.290014X0.330604X-0.079538X0.177530X0.290014X0*%
%ADD26RoundRect,0.200000X0.330604X-0.079538X0.177530X0.290014X-0.330604X0.079538X-0.177530X-0.290014X0*%
%ADD27RoundRect,0.200000X0.275000X-0.200000X0.275000X0.200000X-0.275000X0.200000X-0.275000X-0.200000X0*%
%ADD28RoundRect,0.200000X0.079538X0.330604X-0.290014X0.177530X-0.079538X-0.330604X0.290014X-0.177530X0*%
%ADD29RoundRect,0.200000X0.290014X0.177530X-0.079538X0.330604X-0.290014X-0.177530X0.079538X-0.330604X0*%
%ADD30RoundRect,0.200000X0.053033X-0.335876X0.335876X-0.053033X-0.053033X0.335876X-0.335876X0.053033X0*%
%ADD31RoundRect,0.200000X-0.079538X-0.330604X0.290014X-0.177530X0.079538X0.330604X-0.290014X0.177530X0*%
%ADD32RoundRect,0.200000X-0.335876X-0.053033X-0.053033X-0.335876X0.335876X0.053033X0.053033X0.335876X0*%
%ADD33RoundRect,0.250000X-0.922520X0.267315X-0.463300X-0.841340X0.922520X-0.267315X0.463300X0.841340X0*%
%ADD34HorizOval,1.700000X-0.138582X-0.057403X0.138582X0.057403X0*%
%ADD35RoundRect,0.140000X0.170000X-0.140000X0.170000X0.140000X-0.170000X0.140000X-0.170000X-0.140000X0*%
%ADD36RoundRect,0.225000X0.144866X-0.303544X0.317074X0.112202X-0.144866X0.303544X-0.317074X-0.112202X0*%
%ADD37RoundRect,0.200000X0.177530X-0.290014X0.330604X0.079538X-0.177530X0.290014X-0.330604X-0.079538X0*%
%ADD38RoundRect,0.102000X-0.274407X-0.149335X0.196370X-0.242979X0.274407X0.149335X-0.196370X0.242979X0*%
%ADD39RoundRect,0.200000X-0.290014X-0.177530X0.079538X-0.330604X0.290014X0.177530X-0.079538X0.330604X0*%
%ADD40RoundRect,0.102000X0.149335X-0.274407X0.242979X0.196370X-0.149335X0.274407X-0.242979X-0.196370X0*%
%ADD41RotRect,1.250000X0.400000X78.750000*%
%ADD42HorizOval,1.300000X0.087791X0.441353X-0.087791X-0.441353X0*%
%ADD43C,1.200000*%
%ADD44RoundRect,0.140000X0.103484X-0.194399X0.210635X0.064287X-0.103484X0.194399X-0.210635X-0.064287X0*%
%ADD45RoundRect,0.225000X0.250000X-0.225000X0.250000X0.225000X-0.250000X0.225000X-0.250000X-0.225000X0*%
%ADD46RoundRect,0.225000X-0.250000X0.225000X-0.250000X-0.225000X0.250000X-0.225000X0.250000X0.225000X0*%
%ADD47RoundRect,0.218750X-0.218750X-0.256250X0.218750X-0.256250X0.218750X0.256250X-0.218750X0.256250X0*%
%ADD48R,1.050000X0.650000*%
%ADD49RoundRect,0.218750X0.256250X-0.218750X0.256250X0.218750X-0.256250X0.218750X-0.256250X-0.218750X0*%
%ADD50R,2.000000X1.500000*%
%ADD51R,2.000000X3.800000*%
%ADD52RoundRect,0.250000X0.447031X0.828124X-0.729912X0.594015X-0.447031X-0.828124X0.729912X-0.594015X0*%
%ADD53HorizOval,1.700000X-0.024386X0.122598X0.024386X-0.122598X0*%
%ADD54C,0.990600*%
%ADD55C,2.489200*%
%ADD56C,1.498600*%
G04 APERTURE END LIST*
D10*
X79214100Y-28081400D02*
X78555500Y-28740000D01*
X77814100Y-28740000D01*
X77814100Y-27340000D01*
X79214100Y-27340000D01*
X79214100Y-28081400D01*
G36*
X79214100Y-28081400D02*
G01*
X78555500Y-28740000D01*
X77814100Y-28740000D01*
X77814100Y-27340000D01*
X79214100Y-27340000D01*
X79214100Y-28081400D01*
G37*
D11*
X87871200Y-31663600D03*
X87871200Y-32623600D03*
D12*
X35462867Y-28717016D03*
X34296141Y-27550290D03*
D13*
X83864100Y-32340000D03*
X83864100Y-31490000D03*
X83864100Y-30640000D03*
X83864100Y-29790000D03*
X83864100Y-28940000D03*
X83864100Y-28090000D03*
X83864100Y-27240000D03*
X83864100Y-26390000D03*
X83864100Y-25540000D03*
X83864100Y-24690000D03*
X83864100Y-23840000D03*
X83864100Y-22990000D03*
X83864100Y-22140000D03*
X83864100Y-21290000D03*
X83864100Y-20440000D03*
D14*
X82814100Y-19390000D03*
X81964100Y-19390000D03*
X81114100Y-19390000D03*
X80264100Y-19390000D03*
X79414100Y-19390000D03*
X78564100Y-19390000D03*
X77714100Y-19390000D03*
X76864100Y-19390000D03*
X76014100Y-19390000D03*
X75164100Y-19390000D03*
X74314100Y-19390000D03*
X73464100Y-19390000D03*
X72614100Y-19390000D03*
X71764100Y-19390000D03*
X70914100Y-19390000D03*
D13*
X69864100Y-20440000D03*
X69864100Y-21290000D03*
X69864100Y-22140000D03*
X69864100Y-22990000D03*
X69864100Y-23840000D03*
X69864100Y-24690000D03*
X69864100Y-25540000D03*
X69864100Y-26390000D03*
X69864100Y-27240000D03*
X69864100Y-28090000D03*
X69864100Y-28940000D03*
X69864100Y-29790000D03*
X69864100Y-30640000D03*
X69864100Y-31490000D03*
X69864100Y-32340000D03*
D14*
X70914100Y-33390000D03*
X71764100Y-33390000D03*
X72614100Y-33390000D03*
X73464100Y-33390000D03*
X74314100Y-33390000D03*
X75164100Y-33390000D03*
X76014100Y-33390000D03*
X76864100Y-33390000D03*
X77714100Y-33390000D03*
X78564100Y-33390000D03*
X79414100Y-33390000D03*
X80264100Y-33390000D03*
X81114100Y-33390000D03*
X81964100Y-33390000D03*
X82814100Y-33390000D03*
D15*
X76864100Y-28040000D03*
X75214100Y-28040000D03*
X78514100Y-26390000D03*
X76864100Y-26390000D03*
X75214100Y-26390000D03*
X78514100Y-24740000D03*
X76864100Y-24740000D03*
X75214100Y-24740000D03*
D16*
X83864100Y-33390000D03*
X83864100Y-19390000D03*
X69864100Y-19390000D03*
X69864100Y-33390000D03*
D17*
X46519800Y-27279600D03*
X48069800Y-27279600D03*
D18*
X131629267Y-29116585D03*
X130462541Y-30283311D03*
D19*
X70114100Y-17390000D03*
X71764100Y-17390000D03*
D12*
X124883415Y-131629267D03*
X123716689Y-130462541D03*
D19*
X140512500Y-81770000D03*
X142162500Y-81770000D03*
D20*
X109146719Y-11845699D03*
X108515291Y-13370101D03*
D21*
X13487500Y-72230000D03*
X11837500Y-72230000D03*
D22*
X116391000Y-111017000D03*
D23*
X67864100Y-18790000D03*
X67864100Y-20440000D03*
D24*
X94521701Y-12083096D03*
X95165499Y-8846504D03*
D25*
X96898281Y-137513298D03*
X97529709Y-139037700D03*
D26*
X100332865Y-145805117D03*
X99701437Y-144280715D03*
D27*
X71272400Y-13728200D03*
X71272400Y-12078200D03*
D28*
X16486702Y-96898281D03*
X14962300Y-97529709D03*
D29*
X142154301Y-109146719D03*
X140629899Y-108515291D03*
D30*
X125282984Y-35462867D03*
X126449710Y-34296141D03*
D29*
X20137518Y-48287865D03*
X18613116Y-47656437D03*
D31*
X8194883Y-100332865D03*
X9719285Y-99701437D03*
D20*
X48287865Y-133862482D03*
X47656437Y-135386884D03*
D23*
X72230000Y-140512500D03*
X72230000Y-142162500D03*
D27*
X81770000Y-13487500D03*
X81770000Y-11837500D03*
D23*
X66332000Y-30759800D03*
X66332000Y-32409800D03*
D32*
X29116585Y-22370733D03*
X30283311Y-23537459D03*
D33*
X44255291Y-15978301D03*
D34*
X45212000Y-18288000D03*
D19*
X4512501Y-72230000D03*
X6162501Y-72230000D03*
D25*
X53667135Y-8194883D03*
X54298563Y-9719285D03*
D26*
X57101719Y-16486702D03*
X56470291Y-14962300D03*
D22*
X37609000Y-111017000D03*
D27*
X72230000Y-149487499D03*
X72230000Y-147837499D03*
D35*
X89801600Y-32559800D03*
X89801600Y-31599800D03*
D32*
X118537133Y-125282984D03*
X119703859Y-126449710D03*
D18*
X28717016Y-118537133D03*
X27550290Y-119703859D03*
D11*
X87262000Y-19282400D03*
X87262000Y-20242400D03*
D36*
X96765162Y-11770395D03*
X97358322Y-10338381D03*
D37*
X44853281Y-142154301D03*
X45484709Y-140629899D03*
D38*
X86614282Y-8443640D03*
X87908918Y-8701160D03*
D31*
X137503298Y-57101719D03*
X139027700Y-56470291D03*
D22*
X116391000Y-42983000D03*
D39*
X11845699Y-44853281D03*
X13370101Y-45484709D03*
X133862482Y-105712135D03*
X135386884Y-106343563D03*
D40*
X92987640Y-9544785D03*
X93245160Y-8250149D03*
D41*
X93452738Y-6534996D03*
X92815228Y-6408187D03*
X92177717Y-6281378D03*
X91540207Y-6154570D03*
X90902696Y-6027761D03*
D42*
X96225534Y-4384623D03*
D43*
X94556122Y-6754473D03*
X89799313Y-5808284D03*
D42*
X89163880Y-2979972D03*
D38*
X86911615Y-7021240D03*
X88206251Y-7278760D03*
D28*
X145795117Y-53667135D03*
X144270715Y-54298563D03*
D11*
X57150000Y-30512800D03*
X57150000Y-31472800D03*
D21*
X149487499Y-81770000D03*
X147837499Y-81770000D03*
D37*
X105712135Y-20137518D03*
X106343563Y-18613116D03*
D44*
X98520712Y-12178262D03*
X98888088Y-11291338D03*
D45*
X87160400Y-16168600D03*
X87160400Y-14618600D03*
D46*
X86144000Y-31368600D03*
X86144000Y-32918600D03*
D47*
X51282500Y-27279600D03*
X52857500Y-27279600D03*
D35*
X68059200Y-32064800D03*
X68059200Y-31104800D03*
D48*
X58986600Y-30217800D03*
X63136600Y-30217800D03*
X58986600Y-32367800D03*
X63136600Y-32367800D03*
X96202400Y-32820400D03*
X92052400Y-32820400D03*
X96202400Y-30670400D03*
X92052400Y-30670400D03*
D49*
X69545200Y-13690700D03*
X69545200Y-12115700D03*
D23*
X81770000Y-4512501D03*
X81770000Y-6162501D03*
D30*
X22370733Y-124883415D03*
X23537459Y-123716689D03*
D22*
X37609000Y-42983000D03*
D50*
X95694800Y-19813200D03*
X95694800Y-17513200D03*
D51*
X89394800Y-17513200D03*
D50*
X95694800Y-15213200D03*
D52*
X67927967Y-6425324D03*
D53*
X65476004Y-6913050D03*
X63024041Y-7400776D03*
X60572077Y-7888501D03*
D54*
X103506527Y-134600185D03*
D55*
X101267130Y-140560898D03*
X104777870Y-139106702D03*
D56*
X102901552Y-142860476D03*
X100796794Y-137779139D03*
X103143448Y-136807123D03*
X105248206Y-141888460D03*
D54*
X19399815Y-103506527D03*
D55*
X13439102Y-101267130D03*
X14893298Y-104777870D03*
D56*
X11139524Y-102901552D03*
X16220861Y-100796794D03*
X17192877Y-103143448D03*
X12111540Y-105248206D03*
D54*
X120062741Y-30472436D03*
D55*
X126426702Y-30260302D03*
X123739698Y-27573298D03*
D56*
X127925769Y-27870283D03*
X124036682Y-31759369D03*
X122240631Y-29963318D03*
X126129717Y-26074231D03*
D54*
X13650001Y-79450000D03*
D55*
X9000000Y-75100001D03*
X9000000Y-78899999D03*
D56*
X6250001Y-75730000D03*
X11750000Y-75730000D03*
X11750000Y-78270000D03*
X6250001Y-78270000D03*
D54*
X136475334Y-98979517D03*
D55*
X139106702Y-104777870D03*
X140560898Y-101267130D03*
D56*
X141888460Y-105248206D03*
X136807123Y-103143448D03*
X137779139Y-100796794D03*
X142860476Y-102901552D03*
D54*
X140349999Y-74550000D03*
D55*
X145000000Y-78899999D03*
X145000000Y-75100001D03*
D56*
X147749999Y-78270000D03*
X142250000Y-78270000D03*
X142250000Y-75730000D03*
X147749999Y-75730000D03*
D54*
X50493473Y-19399815D03*
D55*
X52732870Y-13439102D03*
X49222130Y-14893298D03*
D56*
X51098448Y-11139524D03*
X53203206Y-16220861D03*
X50856552Y-17192877D03*
X48751794Y-12111540D03*
D54*
X134590185Y-50493473D03*
D55*
X140550898Y-52732870D03*
X139096702Y-49222130D03*
D56*
X142850476Y-51098448D03*
X137769139Y-53203206D03*
X136797123Y-50856552D03*
X141878460Y-48751794D03*
D54*
X74550000Y-13650001D03*
D55*
X78899999Y-9000000D03*
X75100001Y-9000000D03*
D56*
X78270000Y-6250001D03*
X78270000Y-11750000D03*
X75730000Y-11750000D03*
X75730000Y-6250001D03*
D54*
X30472436Y-33937259D03*
D55*
X30260302Y-27573298D03*
X27573298Y-30260302D03*
D56*
X27870283Y-26074231D03*
X31759369Y-29963318D03*
X29963318Y-31759369D03*
X26074231Y-27870283D03*
D54*
X55020483Y-136475334D03*
D55*
X49222130Y-139106702D03*
X52732870Y-140560898D03*
D56*
X48751794Y-141888460D03*
X50856552Y-136807123D03*
X53203206Y-137779139D03*
X51098448Y-142860476D03*
D54*
X17524666Y-55020483D03*
D55*
X14893298Y-49222130D03*
X13439102Y-52732870D03*
D56*
X12111540Y-48751794D03*
X17192877Y-50856552D03*
X16220861Y-53203206D03*
X11139524Y-51098448D03*
D54*
X98979517Y-17524666D03*
D55*
X104777870Y-14893298D03*
X101267130Y-13439102D03*
D56*
X105248206Y-12111540D03*
X103143448Y-17192877D03*
X100796794Y-16220861D03*
X102901552Y-11139524D03*
D54*
X33937259Y-123527564D03*
D55*
X27573298Y-123739698D03*
X30260302Y-126426702D03*
D56*
X26074231Y-126129717D03*
X29963318Y-122240631D03*
X31759369Y-124036682D03*
X27870283Y-127925769D03*
D54*
X79450000Y-140349999D03*
D55*
X75100001Y-145000000D03*
X78899999Y-145000000D03*
D56*
X75730000Y-147749999D03*
X75730000Y-142250000D03*
X78270000Y-142250000D03*
X78270000Y-147749999D03*
D54*
X123527564Y-120062741D03*
D55*
X123739698Y-126426702D03*
X126426702Y-123739698D03*
D56*
X126129717Y-127925769D03*
X122240631Y-124036682D03*
X124036682Y-122240631D03*
X127925769Y-126129717D03*
M02*
