G04 #@! TF.GenerationSoftware,KiCad,Pcbnew,7.0.10*
G04 #@! TF.CreationDate,2025-03-10T14:08:10+08:00*
G04 #@! TF.ProjectId,line_sensor,6c696e65-5f73-4656-9e73-6f722e6b6963,rev?*
G04 #@! TF.SameCoordinates,Original*
G04 #@! TF.FileFunction,Legend,Top*
G04 #@! TF.FilePolarity,Positive*
%FSLAX46Y46*%
G04 Gerber Fmt 4.6, Leading zero omitted, Abs format (unit mm)*
G04 Created by KiCad (PCBNEW 7.0.10) date 2025-03-10 14:08:10*
%MOMM*%
%LPD*%
G01*
G04 APERTURE LIST*
G04 Aperture macros list*
%AMRoundRect*
0 Rectangle with rounded corners*
0 $1 Rounding radius*
0 $2 $3 $4 $5 $6 $7 $8 $9 X,Y pos of 4 corners*
0 Add a 4 corners polygon primitive as box body*
4,1,4,$2,$3,$4,$5,$6,$7,$8,$9,$2,$3,0*
0 Add four circle primitives for the rounded corners*
1,1,$1+$1,$2,$3*
1,1,$1+$1,$4,$5*
1,1,$1+$1,$6,$7*
1,1,$1+$1,$8,$9*
0 Add four rect primitives between the rounded corners*
20,1,$1+$1,$2,$3,$4,$5,0*
20,1,$1+$1,$4,$5,$6,$7,0*
20,1,$1+$1,$6,$7,$8,$9,0*
20,1,$1+$1,$8,$9,$2,$3,0*%
%AMHorizOval*
0 Thick line with rounded ends*
0 $1 width*
0 $2 $3 position (X,Y) of the first rounded end (center of the circle)*
0 $4 $5 position (X,Y) of the second rounded end (center of the circle)*
0 Add line between two ends*
20,1,$1,$2,$3,$4,$5,0*
0 Add two circle primitives to create the rounded ends*
1,1,$1,$2,$3*
1,1,$1,$4,$5*%
%AMRotRect*
0 Rectangle, with rotation*
0 The origin of the aperture is its center*
0 $1 length*
0 $2 width*
0 $3 Rotation angle, in degrees counterclockwise*
0 Add horizontal line*
21,1,$1,$2,0,0,$3*%
G04 Aperture macros list end*
%ADD10C,0.150000*%
%ADD11C,0.120000*%
%ADD12C,0.127000*%
%ADD13C,0.200000*%
%ADD14C,0.100000*%
%ADD15C,0.010000*%
%ADD16RoundRect,0.140000X-0.170000X0.140000X-0.170000X-0.140000X0.170000X-0.140000X0.170000X0.140000X0*%
%ADD17RoundRect,0.200000X0.335876X0.053033X0.053033X0.335876X-0.335876X-0.053033X-0.053033X-0.335876X0*%
%ADD18RoundRect,0.102000X0.400000X0.200000X-0.400000X0.200000X-0.400000X-0.200000X0.400000X-0.200000X0*%
%ADD19RoundRect,0.102000X0.200000X0.400000X-0.200000X0.400000X-0.200000X-0.400000X0.200000X-0.400000X0*%
%ADD20RoundRect,0.102000X0.600000X0.600000X-0.600000X0.600000X-0.600000X-0.600000X0.600000X-0.600000X0*%
%ADD21RoundRect,0.102000X0.400000X0.400000X-0.400000X0.400000X-0.400000X-0.400000X0.400000X-0.400000X0*%
%ADD22RoundRect,0.225000X-0.225000X-0.250000X0.225000X-0.250000X0.225000X0.250000X-0.225000X0.250000X0*%
%ADD23RoundRect,0.200000X-0.053033X0.335876X-0.335876X0.053033X0.053033X-0.335876X0.335876X-0.053033X0*%
%ADD24RoundRect,0.200000X-0.200000X-0.275000X0.200000X-0.275000X0.200000X0.275000X-0.200000X0.275000X0*%
%ADD25RoundRect,0.200000X-0.177530X0.290014X-0.330604X-0.079538X0.177530X-0.290014X0.330604X0.079538X0*%
%ADD26RoundRect,0.200000X0.200000X0.275000X-0.200000X0.275000X-0.200000X-0.275000X0.200000X-0.275000X0*%
%ADD27C,6.400000*%
%ADD28RoundRect,0.200000X-0.275000X0.200000X-0.275000X-0.200000X0.275000X-0.200000X0.275000X0.200000X0*%
%ADD29RoundRect,0.225000X0.323899X-0.293836X0.411690X0.147518X-0.323899X0.293836X-0.411690X-0.147518X0*%
%ADD30RoundRect,0.200000X-0.330604X0.079538X-0.177530X-0.290014X0.330604X-0.079538X0.177530X0.290014X0*%
%ADD31RoundRect,0.200000X0.330604X-0.079538X0.177530X0.290014X-0.330604X0.079538X-0.177530X-0.290014X0*%
%ADD32RoundRect,0.200000X0.275000X-0.200000X0.275000X0.200000X-0.275000X0.200000X-0.275000X-0.200000X0*%
%ADD33RoundRect,0.200000X0.079538X0.330604X-0.290014X0.177530X-0.079538X-0.330604X0.290014X-0.177530X0*%
%ADD34RoundRect,0.200000X0.290014X0.177530X-0.079538X0.330604X-0.290014X-0.177530X0.079538X-0.330604X0*%
%ADD35RoundRect,0.200000X0.053033X-0.335876X0.335876X-0.053033X-0.053033X0.335876X-0.335876X0.053033X0*%
%ADD36RoundRect,0.200000X-0.079538X-0.330604X0.290014X-0.177530X0.079538X0.330604X-0.290014X0.177530X0*%
%ADD37RoundRect,0.200000X-0.335876X-0.053033X-0.053033X-0.335876X0.335876X0.053033X0.053033X0.335876X0*%
%ADD38RoundRect,0.250000X-0.922520X0.267315X-0.463300X-0.841340X0.922520X-0.267315X0.463300X0.841340X0*%
%ADD39HorizOval,1.700000X-0.138582X-0.057403X0.138582X0.057403X0*%
%ADD40RoundRect,0.140000X0.170000X-0.140000X0.170000X0.140000X-0.170000X0.140000X-0.170000X-0.140000X0*%
%ADD41RoundRect,0.225000X0.144866X-0.303544X0.317074X0.112202X-0.144866X0.303544X-0.317074X-0.112202X0*%
%ADD42RoundRect,0.200000X0.177530X-0.290014X0.330604X0.079538X-0.177530X0.290014X-0.330604X-0.079538X0*%
%ADD43RoundRect,0.102000X-0.274407X-0.149335X0.196370X-0.242979X0.274407X0.149335X-0.196370X0.242979X0*%
%ADD44RoundRect,0.200000X-0.290014X-0.177530X0.079538X-0.330604X0.290014X0.177530X-0.079538X0.330604X0*%
%ADD45RoundRect,0.102000X0.149335X-0.274407X0.242979X0.196370X-0.149335X0.274407X-0.242979X-0.196370X0*%
%ADD46RotRect,1.250000X0.400000X78.750000*%
%ADD47HorizOval,1.300000X0.087791X0.441353X-0.087791X-0.441353X0*%
%ADD48C,1.200000*%
%ADD49RoundRect,0.140000X0.103484X-0.194399X0.210635X0.064287X-0.103484X0.194399X-0.210635X-0.064287X0*%
%ADD50RoundRect,0.225000X0.250000X-0.225000X0.250000X0.225000X-0.250000X0.225000X-0.250000X-0.225000X0*%
%ADD51RoundRect,0.225000X-0.250000X0.225000X-0.250000X-0.225000X0.250000X-0.225000X0.250000X0.225000X0*%
%ADD52RoundRect,0.218750X-0.218750X-0.256250X0.218750X-0.256250X0.218750X0.256250X-0.218750X0.256250X0*%
%ADD53R,1.050000X0.650000*%
%ADD54RoundRect,0.218750X0.256250X-0.218750X0.256250X0.218750X-0.256250X0.218750X-0.256250X-0.218750X0*%
%ADD55R,2.000000X1.500000*%
%ADD56R,2.000000X3.800000*%
%ADD57RoundRect,0.250000X0.447031X0.828124X-0.729912X0.594015X-0.447031X-0.828124X0.729912X-0.594015X0*%
%ADD58HorizOval,1.700000X-0.024386X0.122598X0.024386X-0.122598X0*%
%ADD59C,0.990600*%
%ADD60C,2.489200*%
%ADD61C,1.498600*%
G04 APERTURE END LIST*
D10*
X7873238Y-107085740D02*
X7654561Y-106557809D01*
X8687779Y-106439091D02*
X7763900Y-106821775D01*
X8250427Y-105383229D02*
X8469103Y-105911160D01*
X8359765Y-105647194D02*
X7435885Y-106029878D01*
X7435885Y-106029878D02*
X7604314Y-106063197D01*
X7604314Y-106063197D02*
X7728748Y-106114740D01*
X7728748Y-106114740D02*
X7809189Y-106184505D01*
X7089648Y-105193987D02*
X7053202Y-105105998D01*
X7053202Y-105105998D02*
X7060750Y-104999787D01*
X7060750Y-104999787D02*
X7086521Y-104937569D01*
X7086521Y-104937569D02*
X7156287Y-104857129D01*
X7156287Y-104857129D02*
X7314041Y-104740243D01*
X7314041Y-104740243D02*
X7534012Y-104649128D01*
X7534012Y-104649128D02*
X7728212Y-104620230D01*
X7728212Y-104620230D02*
X7834424Y-104627778D01*
X7834424Y-104627778D02*
X7896641Y-104653549D01*
X7896641Y-104653549D02*
X7977081Y-104723315D01*
X7977081Y-104723315D02*
X8013527Y-104811303D01*
X8013527Y-104811303D02*
X8005979Y-104917515D01*
X8005979Y-104917515D02*
X7980208Y-104979732D01*
X7980208Y-104979732D02*
X7910442Y-105060172D01*
X7910442Y-105060172D02*
X7752688Y-105177059D01*
X7752688Y-105177059D02*
X7532717Y-105268174D01*
X7532717Y-105268174D02*
X7338517Y-105297072D01*
X7338517Y-105297072D02*
X7232305Y-105289524D01*
X7232305Y-105289524D02*
X7170088Y-105263752D01*
X7170088Y-105263752D02*
X7089648Y-105193987D01*
X41533477Y-21594091D02*
X41522802Y-21443886D01*
X41522802Y-21443886D02*
X41431687Y-21223914D01*
X41431687Y-21223914D02*
X41351247Y-21154149D01*
X41351247Y-21154149D02*
X41289029Y-21128378D01*
X41289029Y-21128378D02*
X41182818Y-21120829D01*
X41182818Y-21120829D02*
X41094829Y-21157275D01*
X41094829Y-21157275D02*
X41025064Y-21237716D01*
X41025064Y-21237716D02*
X40999293Y-21299933D01*
X40999293Y-21299933D02*
X40991744Y-21406145D01*
X40991744Y-21406145D02*
X41020642Y-21600345D01*
X41020642Y-21600345D02*
X41013094Y-21706556D01*
X41013094Y-21706556D02*
X40987323Y-21768773D01*
X40987323Y-21768773D02*
X40917557Y-21849214D01*
X40917557Y-21849214D02*
X40829569Y-21885660D01*
X40829569Y-21885660D02*
X40723357Y-21878112D01*
X40723357Y-21878112D02*
X40661140Y-21852340D01*
X40661140Y-21852340D02*
X40580700Y-21782575D01*
X40580700Y-21782575D02*
X40489584Y-21562603D01*
X40489584Y-21562603D02*
X40478910Y-21412398D01*
X41194788Y-20651989D02*
X40270908Y-21034672D01*
X40270908Y-21034672D02*
X40179793Y-20814701D01*
X40179793Y-20814701D02*
X40169118Y-20664495D01*
X40169118Y-20664495D02*
X40220661Y-20540061D01*
X40220661Y-20540061D02*
X40290426Y-20459620D01*
X40290426Y-20459620D02*
X40448180Y-20342734D01*
X40448180Y-20342734D02*
X40580163Y-20288065D01*
X40580163Y-20288065D02*
X40774363Y-20259167D01*
X40774363Y-20259167D02*
X40880575Y-20266715D01*
X40880575Y-20266715D02*
X41005009Y-20318258D01*
X41005009Y-20318258D02*
X41103673Y-20432018D01*
X41103673Y-20432018D02*
X41194788Y-20651989D01*
X40566362Y-19881442D02*
X40384132Y-19441499D01*
X40866773Y-19860092D02*
X39815333Y-19934816D01*
X39815333Y-19934816D02*
X40611651Y-19244172D01*
X24717717Y-130964034D02*
X24313656Y-130559973D01*
X25222794Y-130054897D02*
X24515687Y-130762004D01*
X24414671Y-129246775D02*
X24818732Y-129650836D01*
X24616702Y-129448806D02*
X23909595Y-130155912D01*
X23909595Y-130155912D02*
X24077954Y-130122241D01*
X24077954Y-130122241D02*
X24212641Y-130122241D01*
X24212641Y-130122241D02*
X24313656Y-130155912D01*
X23741236Y-128573340D02*
X24145297Y-128977401D01*
X23943267Y-128775370D02*
X23236160Y-129482477D01*
X23236160Y-129482477D02*
X23404519Y-129448805D01*
X23404519Y-129448805D02*
X23539206Y-129448805D01*
X23539206Y-129448805D02*
X23640221Y-129482477D01*
X131014834Y-129409482D02*
X130610773Y-129813543D01*
X130105697Y-128904405D02*
X130812804Y-129611512D01*
X129297575Y-129712528D02*
X129701636Y-129308467D01*
X129499606Y-129510497D02*
X130206712Y-130217604D01*
X130206712Y-130217604D02*
X130173041Y-130049245D01*
X130173041Y-130049245D02*
X130173041Y-129914558D01*
X130173041Y-129914558D02*
X130206712Y-129813543D01*
X129364918Y-131059398D02*
X129701636Y-130722680D01*
X129701636Y-130722680D02*
X129398590Y-130352291D01*
X129398590Y-130352291D02*
X129398590Y-130419634D01*
X129398590Y-130419634D02*
X129364918Y-130520650D01*
X129364918Y-130520650D02*
X129196560Y-130689009D01*
X129196560Y-130689009D02*
X129095544Y-130722680D01*
X129095544Y-130722680D02*
X129028201Y-130722680D01*
X129028201Y-130722680D02*
X128927186Y-130689009D01*
X128927186Y-130689009D02*
X128758827Y-130520650D01*
X128758827Y-130520650D02*
X128725155Y-130419634D01*
X128725155Y-130419634D02*
X128725155Y-130352291D01*
X128725155Y-130352291D02*
X128758827Y-130251276D01*
X128758827Y-130251276D02*
X128927186Y-130082917D01*
X128927186Y-130082917D02*
X129028201Y-130049245D01*
X129028201Y-130049245D02*
X129095544Y-130049245D01*
X129714282Y-23264765D02*
X130118343Y-23668826D01*
X129209205Y-24173902D02*
X129916312Y-23466795D01*
X130286702Y-23837184D02*
X130724434Y-24274917D01*
X130724434Y-24274917D02*
X130219358Y-24308589D01*
X130219358Y-24308589D02*
X130320373Y-24409604D01*
X130320373Y-24409604D02*
X130354045Y-24510619D01*
X130354045Y-24510619D02*
X130354045Y-24577963D01*
X130354045Y-24577963D02*
X130320373Y-24678978D01*
X130320373Y-24678978D02*
X130152015Y-24847337D01*
X130152015Y-24847337D02*
X130050999Y-24881009D01*
X130050999Y-24881009D02*
X129983656Y-24881009D01*
X129983656Y-24881009D02*
X129882641Y-24847337D01*
X129882641Y-24847337D02*
X129680610Y-24645306D01*
X129680610Y-24645306D02*
X129646938Y-24544291D01*
X129646938Y-24544291D02*
X129646938Y-24476948D01*
X59683807Y-28978219D02*
X59350474Y-28502028D01*
X59112379Y-28978219D02*
X59112379Y-27978219D01*
X59112379Y-27978219D02*
X59493331Y-27978219D01*
X59493331Y-27978219D02*
X59588569Y-28025838D01*
X59588569Y-28025838D02*
X59636188Y-28073457D01*
X59636188Y-28073457D02*
X59683807Y-28168695D01*
X59683807Y-28168695D02*
X59683807Y-28311552D01*
X59683807Y-28311552D02*
X59636188Y-28406790D01*
X59636188Y-28406790D02*
X59588569Y-28454409D01*
X59588569Y-28454409D02*
X59493331Y-28502028D01*
X59493331Y-28502028D02*
X59112379Y-28502028D01*
X60112379Y-28454409D02*
X60445712Y-28454409D01*
X60588569Y-28978219D02*
X60112379Y-28978219D01*
X60112379Y-28978219D02*
X60112379Y-27978219D01*
X60112379Y-27978219D02*
X60588569Y-27978219D01*
X60969522Y-28930600D02*
X61112379Y-28978219D01*
X61112379Y-28978219D02*
X61350474Y-28978219D01*
X61350474Y-28978219D02*
X61445712Y-28930600D01*
X61445712Y-28930600D02*
X61493331Y-28882980D01*
X61493331Y-28882980D02*
X61540950Y-28787742D01*
X61540950Y-28787742D02*
X61540950Y-28692504D01*
X61540950Y-28692504D02*
X61493331Y-28597266D01*
X61493331Y-28597266D02*
X61445712Y-28549647D01*
X61445712Y-28549647D02*
X61350474Y-28502028D01*
X61350474Y-28502028D02*
X61159998Y-28454409D01*
X61159998Y-28454409D02*
X61064760Y-28406790D01*
X61064760Y-28406790D02*
X61017141Y-28359171D01*
X61017141Y-28359171D02*
X60969522Y-28263933D01*
X60969522Y-28263933D02*
X60969522Y-28168695D01*
X60969522Y-28168695D02*
X61017141Y-28073457D01*
X61017141Y-28073457D02*
X61064760Y-28025838D01*
X61064760Y-28025838D02*
X61159998Y-27978219D01*
X61159998Y-27978219D02*
X61398093Y-27978219D01*
X61398093Y-27978219D02*
X61540950Y-28025838D01*
X61969522Y-28454409D02*
X62302855Y-28454409D01*
X62445712Y-28978219D02*
X61969522Y-28978219D01*
X61969522Y-28978219D02*
X61969522Y-27978219D01*
X61969522Y-27978219D02*
X62445712Y-27978219D01*
X62731427Y-27978219D02*
X63302855Y-27978219D01*
X63017141Y-28978219D02*
X63017141Y-27978219D01*
X43441325Y-12654048D02*
X43058641Y-11730169D01*
X43491035Y-11654150D02*
X43516807Y-11591933D01*
X43516807Y-11591933D02*
X43586572Y-11511493D01*
X43586572Y-11511493D02*
X43806543Y-11420377D01*
X43806543Y-11420377D02*
X43912755Y-11427926D01*
X43912755Y-11427926D02*
X43974972Y-11453697D01*
X43974972Y-11453697D02*
X44055413Y-11523462D01*
X44055413Y-11523462D02*
X44091859Y-11611451D01*
X44091859Y-11611451D02*
X44102533Y-11761657D01*
X44102533Y-11761657D02*
X43793279Y-12508264D01*
X43793279Y-12508264D02*
X44365204Y-12271365D01*
X45252637Y-11800693D02*
X45226866Y-11862910D01*
X45226866Y-11862910D02*
X45113106Y-11961574D01*
X45113106Y-11961574D02*
X45025118Y-11998020D01*
X45025118Y-11998020D02*
X44874912Y-12008694D01*
X44874912Y-12008694D02*
X44750478Y-11957152D01*
X44750478Y-11957152D02*
X44670037Y-11887386D01*
X44670037Y-11887386D02*
X44553151Y-11729632D01*
X44553151Y-11729632D02*
X44498482Y-11597650D01*
X44498482Y-11597650D02*
X44469584Y-11403449D01*
X44469584Y-11403449D02*
X44477132Y-11297238D01*
X44477132Y-11297238D02*
X44528675Y-11172803D01*
X44528675Y-11172803D02*
X44642435Y-11074140D01*
X44642435Y-11074140D02*
X44730423Y-11037694D01*
X44730423Y-11037694D02*
X44880629Y-11027019D01*
X44880629Y-11027019D02*
X44942846Y-11052790D01*
X63449262Y-11330159D02*
X63851272Y-10910331D01*
X63337781Y-10769711D02*
X64318567Y-10574620D01*
X64318567Y-10574620D02*
X64392887Y-10948253D01*
X64392887Y-10948253D02*
X64364763Y-11050951D01*
X64364763Y-11050951D02*
X64327349Y-11106945D01*
X64327349Y-11106945D02*
X64243231Y-11172229D01*
X64243231Y-11172229D02*
X64103118Y-11200099D01*
X64103118Y-11200099D02*
X64000420Y-11171975D01*
X64000420Y-11171975D02*
X63944426Y-11134561D01*
X63944426Y-11134561D02*
X63879142Y-11050443D01*
X63879142Y-11050443D02*
X63804822Y-10676810D01*
X64495077Y-11461997D02*
X63644352Y-12310945D01*
X64625137Y-12115854D02*
X63514292Y-11657088D01*
X146050761Y-47498659D02*
X146269438Y-48026590D01*
X145236220Y-48145308D02*
X146160099Y-47762624D01*
X146290787Y-48327002D02*
X146353005Y-48352773D01*
X146353005Y-48352773D02*
X146433445Y-48422538D01*
X146433445Y-48422538D02*
X146524560Y-48642510D01*
X146524560Y-48642510D02*
X146517012Y-48748721D01*
X146517012Y-48748721D02*
X146491240Y-48810939D01*
X146491240Y-48810939D02*
X146421475Y-48891379D01*
X146421475Y-48891379D02*
X146333486Y-48927825D01*
X146333486Y-48927825D02*
X146183281Y-48938500D01*
X146183281Y-48938500D02*
X145436673Y-48629245D01*
X145436673Y-48629245D02*
X145673572Y-49201170D01*
X76241522Y-1968619D02*
X76812950Y-1968619D01*
X76527236Y-2968619D02*
X76527236Y-1968619D01*
X77622474Y-1968619D02*
X77146284Y-1968619D01*
X77146284Y-1968619D02*
X77098665Y-2444809D01*
X77098665Y-2444809D02*
X77146284Y-2397190D01*
X77146284Y-2397190D02*
X77241522Y-2349571D01*
X77241522Y-2349571D02*
X77479617Y-2349571D01*
X77479617Y-2349571D02*
X77574855Y-2397190D01*
X77574855Y-2397190D02*
X77622474Y-2444809D01*
X77622474Y-2444809D02*
X77670093Y-2540047D01*
X77670093Y-2540047D02*
X77670093Y-2778142D01*
X77670093Y-2778142D02*
X77622474Y-2873380D01*
X77622474Y-2873380D02*
X77574855Y-2921000D01*
X77574855Y-2921000D02*
X77479617Y-2968619D01*
X77479617Y-2968619D02*
X77241522Y-2968619D01*
X77241522Y-2968619D02*
X77146284Y-2921000D01*
X77146284Y-2921000D02*
X77098665Y-2873380D01*
X71673032Y-7814979D02*
X72467001Y-7657048D01*
X72467001Y-7657048D02*
X72551119Y-7591764D01*
X72551119Y-7591764D02*
X72588533Y-7535770D01*
X72588533Y-7535770D02*
X72616658Y-7433072D01*
X72616658Y-7433072D02*
X72579497Y-7246256D01*
X72579497Y-7246256D02*
X72514213Y-7162138D01*
X72514213Y-7162138D02*
X72458219Y-7124724D01*
X72458219Y-7124724D02*
X72355521Y-7096600D01*
X72355521Y-7096600D02*
X71561552Y-7254530D01*
X72178503Y-6694843D02*
X72085603Y-6227803D01*
X72477307Y-6732511D02*
X71431492Y-6600673D01*
X71431492Y-6600673D02*
X72347247Y-6078654D01*
X72170737Y-5191277D02*
X71768726Y-5611106D01*
X72282217Y-5751726D02*
X71301432Y-5946816D01*
X71301432Y-5946816D02*
X71227112Y-5573184D01*
X71227112Y-5573184D02*
X71255236Y-5470486D01*
X71255236Y-5470486D02*
X71292650Y-5414492D01*
X71292650Y-5414492D02*
X71376768Y-5349207D01*
X71376768Y-5349207D02*
X71516880Y-5321337D01*
X71516880Y-5321337D02*
X71619578Y-5349461D01*
X71619578Y-5349461D02*
X71675572Y-5386875D01*
X71675572Y-5386875D02*
X71740856Y-5470994D01*
X71740856Y-5470994D02*
X71815176Y-5844626D01*
X71134211Y-5106143D02*
X71022731Y-4545694D01*
X72059257Y-4630828D02*
X71078471Y-4825919D01*
X78241277Y-152310980D02*
X77669849Y-152310980D01*
X77955563Y-151310980D02*
X77955563Y-152310980D01*
X76812706Y-151310980D02*
X77384134Y-151310980D01*
X77098420Y-151310980D02*
X77098420Y-152310980D01*
X77098420Y-152310980D02*
X77193658Y-152168123D01*
X77193658Y-152168123D02*
X77288896Y-152072885D01*
X77288896Y-152072885D02*
X77384134Y-152025266D01*
X76479372Y-152310980D02*
X75860325Y-152310980D01*
X75860325Y-152310980D02*
X76193658Y-151930028D01*
X76193658Y-151930028D02*
X76050801Y-151930028D01*
X76050801Y-151930028D02*
X75955563Y-151882409D01*
X75955563Y-151882409D02*
X75907944Y-151834790D01*
X75907944Y-151834790D02*
X75860325Y-151739552D01*
X75860325Y-151739552D02*
X75860325Y-151501457D01*
X75860325Y-151501457D02*
X75907944Y-151406219D01*
X75907944Y-151406219D02*
X75955563Y-151358600D01*
X75955563Y-151358600D02*
X76050801Y-151310980D01*
X76050801Y-151310980D02*
X76336515Y-151310980D01*
X76336515Y-151310980D02*
X76431753Y-151358600D01*
X76431753Y-151358600D02*
X76479372Y-151406219D01*
X152158580Y-76343122D02*
X152158580Y-76914550D01*
X151158580Y-76628836D02*
X152158580Y-76628836D01*
X151158580Y-77771693D02*
X151158580Y-77200265D01*
X151158580Y-77485979D02*
X152158580Y-77485979D01*
X152158580Y-77485979D02*
X152015723Y-77390741D01*
X152015723Y-77390741D02*
X151920485Y-77295503D01*
X151920485Y-77295503D02*
X151872866Y-77200265D01*
X40263477Y-18342891D02*
X40252802Y-18192686D01*
X40252802Y-18192686D02*
X40161687Y-17972714D01*
X40161687Y-17972714D02*
X40081247Y-17902949D01*
X40081247Y-17902949D02*
X40019029Y-17877178D01*
X40019029Y-17877178D02*
X39912818Y-17869629D01*
X39912818Y-17869629D02*
X39824829Y-17906075D01*
X39824829Y-17906075D02*
X39755064Y-17986516D01*
X39755064Y-17986516D02*
X39729293Y-18048733D01*
X39729293Y-18048733D02*
X39721744Y-18154945D01*
X39721744Y-18154945D02*
X39750642Y-18349145D01*
X39750642Y-18349145D02*
X39743094Y-18455356D01*
X39743094Y-18455356D02*
X39717323Y-18517573D01*
X39717323Y-18517573D02*
X39647557Y-18598014D01*
X39647557Y-18598014D02*
X39559569Y-18634460D01*
X39559569Y-18634460D02*
X39453357Y-18626912D01*
X39453357Y-18626912D02*
X39391140Y-18601140D01*
X39391140Y-18601140D02*
X39310700Y-18531375D01*
X39310700Y-18531375D02*
X39219584Y-18311403D01*
X39219584Y-18311403D02*
X39208910Y-18161198D01*
X39618123Y-16909304D02*
X39680340Y-16935075D01*
X39680340Y-16935075D02*
X39779004Y-17048835D01*
X39779004Y-17048835D02*
X39815450Y-17136823D01*
X39815450Y-17136823D02*
X39826124Y-17287029D01*
X39826124Y-17287029D02*
X39774582Y-17411464D01*
X39774582Y-17411464D02*
X39704816Y-17491904D01*
X39704816Y-17491904D02*
X39547062Y-17608790D01*
X39547062Y-17608790D02*
X39415080Y-17663459D01*
X39415080Y-17663459D02*
X39220880Y-17692357D01*
X39220880Y-17692357D02*
X39114668Y-17684809D01*
X39114668Y-17684809D02*
X38990233Y-17633266D01*
X38990233Y-17633266D02*
X38891570Y-17519507D01*
X38891570Y-17519507D02*
X38855124Y-17431518D01*
X38855124Y-17431518D02*
X38844449Y-17281312D01*
X38844449Y-17281312D02*
X38870220Y-17219095D01*
X39359874Y-16036967D02*
X39542104Y-16476909D01*
X39542104Y-16476909D02*
X38618225Y-16859593D01*
X69186667Y-10025661D02*
X69093767Y-9558620D01*
X69093767Y-9558620D02*
X68617436Y-9604816D01*
X68617436Y-9604816D02*
X68673430Y-9642230D01*
X68673430Y-9642230D02*
X68738714Y-9726348D01*
X68738714Y-9726348D02*
X68785164Y-9959869D01*
X68785164Y-9959869D02*
X68757040Y-10062567D01*
X68757040Y-10062567D02*
X68719626Y-10118561D01*
X68719626Y-10118561D02*
X68635508Y-10183845D01*
X68635508Y-10183845D02*
X68401988Y-10230295D01*
X68401988Y-10230295D02*
X68299290Y-10202171D01*
X68299290Y-10202171D02*
X68243296Y-10164757D01*
X68243296Y-10164757D02*
X68178012Y-10080639D01*
X68178012Y-10080639D02*
X68131561Y-9847119D01*
X68131561Y-9847119D02*
X68159685Y-9744421D01*
X68159685Y-9744421D02*
X68197100Y-9688426D01*
X69251697Y-10352589D02*
X68335942Y-10874608D01*
X68335942Y-10874608D02*
X69381757Y-11006446D01*
X61783253Y-11605655D02*
X61811377Y-11502957D01*
X61811377Y-11502957D02*
X61783507Y-11362845D01*
X61783507Y-11362845D02*
X61708933Y-11232022D01*
X61708933Y-11232022D02*
X61596945Y-11157194D01*
X61596945Y-11157194D02*
X61494246Y-11129070D01*
X61494246Y-11129070D02*
X61298140Y-11119526D01*
X61298140Y-11119526D02*
X61158028Y-11147396D01*
X61158028Y-11147396D02*
X60980502Y-11231260D01*
X60980502Y-11231260D02*
X60896384Y-11296545D01*
X60896384Y-11296545D02*
X60821556Y-11408533D01*
X60821556Y-11408533D02*
X60802722Y-11557935D01*
X60802722Y-11557935D02*
X60821302Y-11651343D01*
X60821302Y-11651343D02*
X60895876Y-11782165D01*
X60895876Y-11782165D02*
X60951870Y-11819579D01*
X60951870Y-11819579D02*
X61278798Y-11754549D01*
X61278798Y-11754549D02*
X61241638Y-11567733D01*
X60942072Y-12258496D02*
X61922857Y-12063406D01*
X61922857Y-12063406D02*
X61053552Y-12818945D01*
X61053552Y-12818945D02*
X62034337Y-12623854D01*
X61146452Y-13285985D02*
X62127237Y-13090895D01*
X62127237Y-13090895D02*
X62173687Y-13324415D01*
X62173687Y-13324415D02*
X62154853Y-13473817D01*
X62154853Y-13473817D02*
X62080025Y-13585805D01*
X62080025Y-13585805D02*
X61995907Y-13651090D01*
X61995907Y-13651090D02*
X61818381Y-13734954D01*
X61818381Y-13734954D02*
X61678269Y-13762824D01*
X61678269Y-13762824D02*
X61482163Y-13753280D01*
X61482163Y-13753280D02*
X61379464Y-13725156D01*
X61379464Y-13725156D02*
X61267476Y-13650328D01*
X61267476Y-13650328D02*
X61192902Y-13519505D01*
X61192902Y-13519505D02*
X61146452Y-13285985D01*
X7412059Y-48816737D02*
X7630735Y-48288806D01*
X8445277Y-48935455D02*
X7521397Y-48552772D01*
X8208914Y-48012870D02*
X8128474Y-48082636D01*
X8128474Y-48082636D02*
X8066257Y-48108407D01*
X8066257Y-48108407D02*
X7960045Y-48115955D01*
X7960045Y-48115955D02*
X7916051Y-48097732D01*
X7916051Y-48097732D02*
X7846285Y-48017292D01*
X7846285Y-48017292D02*
X7820514Y-47955075D01*
X7820514Y-47955075D02*
X7812966Y-47848863D01*
X7812966Y-47848863D02*
X7885858Y-47672886D01*
X7885858Y-47672886D02*
X7966298Y-47603121D01*
X7966298Y-47603121D02*
X8028515Y-47577350D01*
X8028515Y-47577350D02*
X8134727Y-47569801D01*
X8134727Y-47569801D02*
X8178721Y-47588024D01*
X8178721Y-47588024D02*
X8248487Y-47668465D01*
X8248487Y-47668465D02*
X8274258Y-47730682D01*
X8274258Y-47730682D02*
X8281806Y-47836893D01*
X8281806Y-47836893D02*
X8208914Y-48012870D01*
X8208914Y-48012870D02*
X8216462Y-48119082D01*
X8216462Y-48119082D02*
X8242234Y-48181299D01*
X8242234Y-48181299D02*
X8311999Y-48261740D01*
X8311999Y-48261740D02*
X8487976Y-48334632D01*
X8487976Y-48334632D02*
X8594188Y-48327083D01*
X8594188Y-48327083D02*
X8656405Y-48301312D01*
X8656405Y-48301312D02*
X8736845Y-48231547D01*
X8736845Y-48231547D02*
X8809737Y-48055570D01*
X8809737Y-48055570D02*
X8802189Y-47949358D01*
X8802189Y-47949358D02*
X8776418Y-47887141D01*
X8776418Y-47887141D02*
X8706652Y-47806701D01*
X8706652Y-47806701D02*
X8530675Y-47733808D01*
X8530675Y-47733808D02*
X8424464Y-47741357D01*
X8424464Y-47741357D02*
X8362247Y-47767128D01*
X8362247Y-47767128D02*
X8281806Y-47836893D01*
X105158062Y-7412059D02*
X105685993Y-7630735D01*
X105039344Y-8445277D02*
X105422027Y-7521397D01*
X106262340Y-8230264D02*
X106007218Y-8846183D01*
X106188153Y-7787195D02*
X105694836Y-8355993D01*
X105694836Y-8355993D02*
X106266762Y-8592893D01*
X23671165Y-24209717D02*
X24075226Y-23805656D01*
X24580302Y-24714794D02*
X23873195Y-24007687D01*
X24243584Y-23637297D02*
X24714989Y-23165893D01*
X24714989Y-23165893D02*
X25119050Y-24176045D01*
X49172337Y-146969140D02*
X48644406Y-146750464D01*
X49291055Y-145935922D02*
X48908372Y-146859802D01*
X48235193Y-145498570D02*
X48763124Y-145717246D01*
X48499158Y-145607908D02*
X48116475Y-146531787D01*
X48116475Y-146531787D02*
X48259132Y-146436250D01*
X48259132Y-146436250D02*
X48383567Y-146384708D01*
X48383567Y-146384708D02*
X48489778Y-146377160D01*
X47537001Y-146188676D02*
X47474784Y-146214448D01*
X47474784Y-146214448D02*
X47368572Y-146221996D01*
X47368572Y-146221996D02*
X47148601Y-146130881D01*
X47148601Y-146130881D02*
X47078835Y-146050440D01*
X47078835Y-146050440D02*
X47053064Y-145988223D01*
X47053064Y-145988223D02*
X47045516Y-145882012D01*
X47045516Y-145882012D02*
X47081962Y-145794023D01*
X47081962Y-145794023D02*
X47180625Y-145680263D01*
X47180625Y-145680263D02*
X47927233Y-145371008D01*
X47927233Y-145371008D02*
X47355307Y-145134109D01*
X97936009Y-32743487D02*
X97983628Y-32600630D01*
X97983628Y-32600630D02*
X98031247Y-32553011D01*
X98031247Y-32553011D02*
X98126485Y-32505392D01*
X98126485Y-32505392D02*
X98269342Y-32505392D01*
X98269342Y-32505392D02*
X98364580Y-32553011D01*
X98364580Y-32553011D02*
X98412200Y-32600630D01*
X98412200Y-32600630D02*
X98459819Y-32695868D01*
X98459819Y-32695868D02*
X98459819Y-33076820D01*
X98459819Y-33076820D02*
X97459819Y-33076820D01*
X97459819Y-33076820D02*
X97459819Y-32743487D01*
X97459819Y-32743487D02*
X97507438Y-32648249D01*
X97507438Y-32648249D02*
X97555057Y-32600630D01*
X97555057Y-32600630D02*
X97650295Y-32553011D01*
X97650295Y-32553011D02*
X97745533Y-32553011D01*
X97745533Y-32553011D02*
X97840771Y-32600630D01*
X97840771Y-32600630D02*
X97888390Y-32648249D01*
X97888390Y-32648249D02*
X97936009Y-32743487D01*
X97936009Y-32743487D02*
X97936009Y-33076820D01*
X97459819Y-31886344D02*
X97459819Y-31695868D01*
X97459819Y-31695868D02*
X97507438Y-31600630D01*
X97507438Y-31600630D02*
X97602676Y-31505392D01*
X97602676Y-31505392D02*
X97793152Y-31457773D01*
X97793152Y-31457773D02*
X98126485Y-31457773D01*
X98126485Y-31457773D02*
X98316961Y-31505392D01*
X98316961Y-31505392D02*
X98412200Y-31600630D01*
X98412200Y-31600630D02*
X98459819Y-31695868D01*
X98459819Y-31695868D02*
X98459819Y-31886344D01*
X98459819Y-31886344D02*
X98412200Y-31981582D01*
X98412200Y-31981582D02*
X98316961Y-32076820D01*
X98316961Y-32076820D02*
X98126485Y-32124439D01*
X98126485Y-32124439D02*
X97793152Y-32124439D01*
X97793152Y-32124439D02*
X97602676Y-32076820D01*
X97602676Y-32076820D02*
X97507438Y-31981582D01*
X97507438Y-31981582D02*
X97459819Y-31886344D01*
X97459819Y-30838725D02*
X97459819Y-30648249D01*
X97459819Y-30648249D02*
X97507438Y-30553011D01*
X97507438Y-30553011D02*
X97602676Y-30457773D01*
X97602676Y-30457773D02*
X97793152Y-30410154D01*
X97793152Y-30410154D02*
X98126485Y-30410154D01*
X98126485Y-30410154D02*
X98316961Y-30457773D01*
X98316961Y-30457773D02*
X98412200Y-30553011D01*
X98412200Y-30553011D02*
X98459819Y-30648249D01*
X98459819Y-30648249D02*
X98459819Y-30838725D01*
X98459819Y-30838725D02*
X98412200Y-30933963D01*
X98412200Y-30933963D02*
X98316961Y-31029201D01*
X98316961Y-31029201D02*
X98126485Y-31076820D01*
X98126485Y-31076820D02*
X97793152Y-31076820D01*
X97793152Y-31076820D02*
X97602676Y-31029201D01*
X97602676Y-31029201D02*
X97507438Y-30933963D01*
X97507438Y-30933963D02*
X97459819Y-30838725D01*
X97459819Y-30124439D02*
X97459819Y-29553011D01*
X98459819Y-29838725D02*
X97459819Y-29838725D01*
X47447859Y-7974838D02*
X47975790Y-7756161D01*
X48094508Y-8789379D02*
X47711824Y-7865500D01*
X48679698Y-7464593D02*
X48503721Y-7537485D01*
X48503721Y-7537485D02*
X48433956Y-7617925D01*
X48433956Y-7617925D02*
X48408184Y-7680143D01*
X48408184Y-7680143D02*
X48374865Y-7848572D01*
X48374865Y-7848572D02*
X48403763Y-8042772D01*
X48403763Y-8042772D02*
X48549547Y-8394726D01*
X48549547Y-8394726D02*
X48629987Y-8464491D01*
X48629987Y-8464491D02*
X48692205Y-8490262D01*
X48692205Y-8490262D02*
X48798416Y-8497811D01*
X48798416Y-8497811D02*
X48974393Y-8424919D01*
X48974393Y-8424919D02*
X49044159Y-8344478D01*
X49044159Y-8344478D02*
X49069930Y-8282261D01*
X49069930Y-8282261D02*
X49077478Y-8176049D01*
X49077478Y-8176049D02*
X48986363Y-7956078D01*
X48986363Y-7956078D02*
X48905923Y-7886313D01*
X48905923Y-7886313D02*
X48843705Y-7860541D01*
X48843705Y-7860541D02*
X48737494Y-7852993D01*
X48737494Y-7852993D02*
X48561517Y-7925885D01*
X48561517Y-7925885D02*
X48491751Y-8006326D01*
X48491751Y-8006326D02*
X48465980Y-8068543D01*
X48465980Y-8068543D02*
X48458432Y-8174754D01*
X147019940Y-104599262D02*
X146801264Y-105127193D01*
X145986722Y-104480544D02*
X146910602Y-104863227D01*
X145549370Y-105536406D02*
X145768046Y-105008475D01*
X145658708Y-105272441D02*
X146582587Y-105655124D01*
X146582587Y-105655124D02*
X146487050Y-105512467D01*
X146487050Y-105512467D02*
X146435508Y-105388032D01*
X146435508Y-105388032D02*
X146427960Y-105281821D01*
X146145235Y-106710987D02*
X146218127Y-106535010D01*
X146218127Y-106535010D02*
X146210579Y-106428798D01*
X146210579Y-106428798D02*
X146184807Y-106366581D01*
X146184807Y-106366581D02*
X146089271Y-106223923D01*
X146089271Y-106223923D02*
X145931517Y-106107037D01*
X145931517Y-106107037D02*
X145579562Y-105961253D01*
X145579562Y-105961253D02*
X145473351Y-105968801D01*
X145473351Y-105968801D02*
X145411134Y-105994572D01*
X145411134Y-105994572D02*
X145330693Y-106064338D01*
X145330693Y-106064338D02*
X145257801Y-106240315D01*
X145257801Y-106240315D02*
X145265349Y-106346526D01*
X145265349Y-106346526D02*
X145291121Y-106408743D01*
X145291121Y-106408743D02*
X145360886Y-106489184D01*
X145360886Y-106489184D02*
X145580857Y-106580299D01*
X145580857Y-106580299D02*
X145687069Y-106572751D01*
X145687069Y-106572751D02*
X145749286Y-106546979D01*
X145749286Y-106546979D02*
X145829727Y-106477214D01*
X145829727Y-106477214D02*
X145902619Y-106301237D01*
X145902619Y-106301237D02*
X145895070Y-106195025D01*
X145895070Y-106195025D02*
X145869299Y-106132808D01*
X145869299Y-106132808D02*
X145799534Y-106052368D01*
X69170779Y-15567019D02*
X69170779Y-14567019D01*
X69170779Y-14567019D02*
X69551731Y-14567019D01*
X69551731Y-14567019D02*
X69646969Y-14614638D01*
X69646969Y-14614638D02*
X69694588Y-14662257D01*
X69694588Y-14662257D02*
X69742207Y-14757495D01*
X69742207Y-14757495D02*
X69742207Y-14900352D01*
X69742207Y-14900352D02*
X69694588Y-14995590D01*
X69694588Y-14995590D02*
X69646969Y-15043209D01*
X69646969Y-15043209D02*
X69551731Y-15090828D01*
X69551731Y-15090828D02*
X69170779Y-15090828D01*
X70361255Y-14567019D02*
X70551731Y-14567019D01*
X70551731Y-14567019D02*
X70646969Y-14614638D01*
X70646969Y-14614638D02*
X70742207Y-14709876D01*
X70742207Y-14709876D02*
X70789826Y-14900352D01*
X70789826Y-14900352D02*
X70789826Y-15233685D01*
X70789826Y-15233685D02*
X70742207Y-15424161D01*
X70742207Y-15424161D02*
X70646969Y-15519400D01*
X70646969Y-15519400D02*
X70551731Y-15567019D01*
X70551731Y-15567019D02*
X70361255Y-15567019D01*
X70361255Y-15567019D02*
X70266017Y-15519400D01*
X70266017Y-15519400D02*
X70170779Y-15424161D01*
X70170779Y-15424161D02*
X70123160Y-15233685D01*
X70123160Y-15233685D02*
X70123160Y-14900352D01*
X70123160Y-14900352D02*
X70170779Y-14709876D01*
X70170779Y-14709876D02*
X70266017Y-14614638D01*
X70266017Y-14614638D02*
X70361255Y-14567019D01*
X71123160Y-14567019D02*
X71361255Y-15567019D01*
X71361255Y-15567019D02*
X71551731Y-14852733D01*
X71551731Y-14852733D02*
X71742207Y-15567019D01*
X71742207Y-15567019D02*
X71980303Y-14567019D01*
X72361255Y-15043209D02*
X72694588Y-15043209D01*
X72837445Y-15567019D02*
X72361255Y-15567019D01*
X72361255Y-15567019D02*
X72361255Y-14567019D01*
X72361255Y-14567019D02*
X72837445Y-14567019D01*
X73837445Y-15567019D02*
X73504112Y-15090828D01*
X73266017Y-15567019D02*
X73266017Y-14567019D01*
X73266017Y-14567019D02*
X73646969Y-14567019D01*
X73646969Y-14567019D02*
X73742207Y-14614638D01*
X73742207Y-14614638D02*
X73789826Y-14662257D01*
X73789826Y-14662257D02*
X73837445Y-14757495D01*
X73837445Y-14757495D02*
X73837445Y-14900352D01*
X73837445Y-14900352D02*
X73789826Y-14995590D01*
X73789826Y-14995590D02*
X73742207Y-15043209D01*
X73742207Y-15043209D02*
X73646969Y-15090828D01*
X73646969Y-15090828D02*
X73266017Y-15090828D01*
X106933340Y-146050761D02*
X106405409Y-146269438D01*
X106286691Y-145236220D02*
X106669375Y-146160099D01*
X105230829Y-145673572D02*
X105758760Y-145454896D01*
X105494794Y-145564234D02*
X105877478Y-146488114D01*
X105877478Y-146488114D02*
X105910797Y-146319685D01*
X105910797Y-146319685D02*
X105962340Y-146195251D01*
X105962340Y-146195251D02*
X106032105Y-146114810D01*
X104694054Y-146617507D02*
X104438932Y-146001587D01*
X105059810Y-146878346D02*
X105006436Y-146127317D01*
X105006436Y-146127317D02*
X104434510Y-146364216D01*
X66932297Y-9977308D02*
X67043777Y-10537757D01*
X66007251Y-10452623D02*
X66988037Y-10257532D01*
X67090227Y-10771277D02*
X66239502Y-11620225D01*
X67220287Y-11425134D02*
X66109442Y-10966368D01*
X1816219Y-77733277D02*
X1816219Y-77161849D01*
X2816219Y-77447563D02*
X1816219Y-77447563D01*
X2816219Y-76780896D02*
X2816219Y-76590420D01*
X2816219Y-76590420D02*
X2768600Y-76495182D01*
X2768600Y-76495182D02*
X2720980Y-76447563D01*
X2720980Y-76447563D02*
X2578123Y-76352325D01*
X2578123Y-76352325D02*
X2387647Y-76304706D01*
X2387647Y-76304706D02*
X2006695Y-76304706D01*
X2006695Y-76304706D02*
X1911457Y-76352325D01*
X1911457Y-76352325D02*
X1863838Y-76399944D01*
X1863838Y-76399944D02*
X1816219Y-76495182D01*
X1816219Y-76495182D02*
X1816219Y-76685658D01*
X1816219Y-76685658D02*
X1863838Y-76780896D01*
X1863838Y-76780896D02*
X1911457Y-76828515D01*
X1911457Y-76828515D02*
X2006695Y-76876134D01*
X2006695Y-76876134D02*
X2244790Y-76876134D01*
X2244790Y-76876134D02*
X2340028Y-76828515D01*
X2340028Y-76828515D02*
X2387647Y-76780896D01*
X2387647Y-76780896D02*
X2435266Y-76685658D01*
X2435266Y-76685658D02*
X2435266Y-76495182D01*
X2435266Y-76495182D02*
X2387647Y-76399944D01*
X2387647Y-76399944D02*
X2340028Y-76352325D01*
X2340028Y-76352325D02*
X2244790Y-76304706D01*
X87971333Y-30839580D02*
X87923714Y-30887200D01*
X87923714Y-30887200D02*
X87780857Y-30934819D01*
X87780857Y-30934819D02*
X87685619Y-30934819D01*
X87685619Y-30934819D02*
X87542762Y-30887200D01*
X87542762Y-30887200D02*
X87447524Y-30791961D01*
X87447524Y-30791961D02*
X87399905Y-30696723D01*
X87399905Y-30696723D02*
X87352286Y-30506247D01*
X87352286Y-30506247D02*
X87352286Y-30363390D01*
X87352286Y-30363390D02*
X87399905Y-30172914D01*
X87399905Y-30172914D02*
X87447524Y-30077676D01*
X87447524Y-30077676D02*
X87542762Y-29982438D01*
X87542762Y-29982438D02*
X87685619Y-29934819D01*
X87685619Y-29934819D02*
X87780857Y-29934819D01*
X87780857Y-29934819D02*
X87923714Y-29982438D01*
X87923714Y-29982438D02*
X87971333Y-30030057D01*
X88828476Y-30268152D02*
X88828476Y-30934819D01*
X88590381Y-29887200D02*
X88352286Y-30601485D01*
X88352286Y-30601485D02*
X88971333Y-30601485D01*
X35164825Y-27045036D02*
X35265840Y-26472617D01*
X34760764Y-26640975D02*
X35467871Y-25933869D01*
X35467871Y-25933869D02*
X35737245Y-26203243D01*
X35737245Y-26203243D02*
X35770917Y-26304258D01*
X35770917Y-26304258D02*
X35770917Y-26371601D01*
X35770917Y-26371601D02*
X35737245Y-26472617D01*
X35737245Y-26472617D02*
X35636230Y-26573632D01*
X35636230Y-26573632D02*
X35535214Y-26607304D01*
X35535214Y-26607304D02*
X35467871Y-26607304D01*
X35467871Y-26607304D02*
X35366856Y-26573632D01*
X35366856Y-26573632D02*
X35097482Y-26304258D01*
X35838260Y-27718471D02*
X35434199Y-27314410D01*
X35636230Y-27516441D02*
X36343336Y-26809334D01*
X36343336Y-26809334D02*
X36174978Y-26843006D01*
X36174978Y-26843006D02*
X36040291Y-26843006D01*
X36040291Y-26843006D02*
X35939275Y-26809334D01*
X37185130Y-27651128D02*
X36848413Y-27314410D01*
X36848413Y-27314410D02*
X36478024Y-27617456D01*
X36478024Y-27617456D02*
X36545367Y-27617456D01*
X36545367Y-27617456D02*
X36646382Y-27651128D01*
X36646382Y-27651128D02*
X36814741Y-27819487D01*
X36814741Y-27819487D02*
X36848413Y-27920502D01*
X36848413Y-27920502D02*
X36848413Y-27987846D01*
X36848413Y-27987846D02*
X36814741Y-28088861D01*
X36814741Y-28088861D02*
X36646382Y-28257220D01*
X36646382Y-28257220D02*
X36545367Y-28290891D01*
X36545367Y-28290891D02*
X36478024Y-28290891D01*
X36478024Y-28290891D02*
X36377008Y-28257220D01*
X36377008Y-28257220D02*
X36208650Y-28088861D01*
X36208650Y-28088861D02*
X36174978Y-27987846D01*
X36174978Y-27987846D02*
X36174978Y-27920502D01*
X81381695Y-17234819D02*
X81381695Y-18044342D01*
X81381695Y-18044342D02*
X81429314Y-18139580D01*
X81429314Y-18139580D02*
X81476933Y-18187200D01*
X81476933Y-18187200D02*
X81572171Y-18234819D01*
X81572171Y-18234819D02*
X81762647Y-18234819D01*
X81762647Y-18234819D02*
X81857885Y-18187200D01*
X81857885Y-18187200D02*
X81905504Y-18139580D01*
X81905504Y-18139580D02*
X81953123Y-18044342D01*
X81953123Y-18044342D02*
X81953123Y-17234819D01*
X82953123Y-18234819D02*
X82381695Y-18234819D01*
X82667409Y-18234819D02*
X82667409Y-17234819D01*
X82667409Y-17234819D02*
X82572171Y-17377676D01*
X82572171Y-17377676D02*
X82476933Y-17472914D01*
X82476933Y-17472914D02*
X82381695Y-17520533D01*
X46651942Y-26304419D02*
X46318609Y-25828228D01*
X46080514Y-26304419D02*
X46080514Y-25304419D01*
X46080514Y-25304419D02*
X46461466Y-25304419D01*
X46461466Y-25304419D02*
X46556704Y-25352038D01*
X46556704Y-25352038D02*
X46604323Y-25399657D01*
X46604323Y-25399657D02*
X46651942Y-25494895D01*
X46651942Y-25494895D02*
X46651942Y-25637752D01*
X46651942Y-25637752D02*
X46604323Y-25732990D01*
X46604323Y-25732990D02*
X46556704Y-25780609D01*
X46556704Y-25780609D02*
X46461466Y-25828228D01*
X46461466Y-25828228D02*
X46080514Y-25828228D01*
X46985276Y-25304419D02*
X47604323Y-25304419D01*
X47604323Y-25304419D02*
X47270990Y-25685371D01*
X47270990Y-25685371D02*
X47413847Y-25685371D01*
X47413847Y-25685371D02*
X47509085Y-25732990D01*
X47509085Y-25732990D02*
X47556704Y-25780609D01*
X47556704Y-25780609D02*
X47604323Y-25875847D01*
X47604323Y-25875847D02*
X47604323Y-26113942D01*
X47604323Y-26113942D02*
X47556704Y-26209180D01*
X47556704Y-26209180D02*
X47509085Y-26256800D01*
X47509085Y-26256800D02*
X47413847Y-26304419D01*
X47413847Y-26304419D02*
X47128133Y-26304419D01*
X47128133Y-26304419D02*
X47032895Y-26256800D01*
X47032895Y-26256800D02*
X46985276Y-26209180D01*
X47937657Y-25304419D02*
X48604323Y-25304419D01*
X48604323Y-25304419D02*
X48175752Y-26304419D01*
X132260821Y-31150567D02*
X131688402Y-31049552D01*
X131856760Y-31554628D02*
X131149654Y-30847521D01*
X131149654Y-30847521D02*
X131419028Y-30578147D01*
X131419028Y-30578147D02*
X131520043Y-30544475D01*
X131520043Y-30544475D02*
X131587386Y-30544475D01*
X131587386Y-30544475D02*
X131688402Y-30578147D01*
X131688402Y-30578147D02*
X131789417Y-30679162D01*
X131789417Y-30679162D02*
X131823089Y-30780178D01*
X131823089Y-30780178D02*
X131823089Y-30847521D01*
X131823089Y-30847521D02*
X131789417Y-30948536D01*
X131789417Y-30948536D02*
X131520043Y-31217910D01*
X131789417Y-30207758D02*
X132227150Y-29770025D01*
X132227150Y-29770025D02*
X132260821Y-30275101D01*
X132260821Y-30275101D02*
X132361837Y-30174086D01*
X132361837Y-30174086D02*
X132462852Y-30140414D01*
X132462852Y-30140414D02*
X132530195Y-30140414D01*
X132530195Y-30140414D02*
X132631211Y-30174086D01*
X132631211Y-30174086D02*
X132799569Y-30342445D01*
X132799569Y-30342445D02*
X132833241Y-30443460D01*
X132833241Y-30443460D02*
X132833241Y-30510804D01*
X132833241Y-30510804D02*
X132799569Y-30611819D01*
X132799569Y-30611819D02*
X132597539Y-30813849D01*
X132597539Y-30813849D02*
X132496524Y-30847521D01*
X132496524Y-30847521D02*
X132429180Y-30847521D01*
X67429142Y-17866419D02*
X67095809Y-17390228D01*
X66857714Y-17866419D02*
X66857714Y-16866419D01*
X66857714Y-16866419D02*
X67238666Y-16866419D01*
X67238666Y-16866419D02*
X67333904Y-16914038D01*
X67333904Y-16914038D02*
X67381523Y-16961657D01*
X67381523Y-16961657D02*
X67429142Y-17056895D01*
X67429142Y-17056895D02*
X67429142Y-17199752D01*
X67429142Y-17199752D02*
X67381523Y-17294990D01*
X67381523Y-17294990D02*
X67333904Y-17342609D01*
X67333904Y-17342609D02*
X67238666Y-17390228D01*
X67238666Y-17390228D02*
X66857714Y-17390228D01*
X67762476Y-16866419D02*
X68381523Y-16866419D01*
X68381523Y-16866419D02*
X68048190Y-17247371D01*
X68048190Y-17247371D02*
X68191047Y-17247371D01*
X68191047Y-17247371D02*
X68286285Y-17294990D01*
X68286285Y-17294990D02*
X68333904Y-17342609D01*
X68333904Y-17342609D02*
X68381523Y-17437847D01*
X68381523Y-17437847D02*
X68381523Y-17675942D01*
X68381523Y-17675942D02*
X68333904Y-17771180D01*
X68333904Y-17771180D02*
X68286285Y-17818800D01*
X68286285Y-17818800D02*
X68191047Y-17866419D01*
X68191047Y-17866419D02*
X67905333Y-17866419D01*
X67905333Y-17866419D02*
X67810095Y-17818800D01*
X67810095Y-17818800D02*
X67762476Y-17771180D01*
X68714857Y-16866419D02*
X69333904Y-16866419D01*
X69333904Y-16866419D02*
X69000571Y-17247371D01*
X69000571Y-17247371D02*
X69143428Y-17247371D01*
X69143428Y-17247371D02*
X69238666Y-17294990D01*
X69238666Y-17294990D02*
X69286285Y-17342609D01*
X69286285Y-17342609D02*
X69333904Y-17437847D01*
X69333904Y-17437847D02*
X69333904Y-17675942D01*
X69333904Y-17675942D02*
X69286285Y-17771180D01*
X69286285Y-17771180D02*
X69238666Y-17818800D01*
X69238666Y-17818800D02*
X69143428Y-17866419D01*
X69143428Y-17866419D02*
X68857714Y-17866419D01*
X68857714Y-17866419D02*
X68762476Y-17818800D01*
X68762476Y-17818800D02*
X68714857Y-17771180D01*
X122512714Y-131924103D02*
X122613729Y-131351684D01*
X122108653Y-131520042D02*
X122815760Y-130812936D01*
X122815760Y-130812936D02*
X123085134Y-131082310D01*
X123085134Y-131082310D02*
X123118806Y-131183325D01*
X123118806Y-131183325D02*
X123118806Y-131250668D01*
X123118806Y-131250668D02*
X123085134Y-131351684D01*
X123085134Y-131351684D02*
X122984119Y-131452699D01*
X122984119Y-131452699D02*
X122883103Y-131486371D01*
X122883103Y-131486371D02*
X122815760Y-131486371D01*
X122815760Y-131486371D02*
X122714745Y-131452699D01*
X122714745Y-131452699D02*
X122445371Y-131183325D01*
X123421851Y-131553714D02*
X123489195Y-131553714D01*
X123489195Y-131553714D02*
X123590210Y-131587386D01*
X123590210Y-131587386D02*
X123758569Y-131755745D01*
X123758569Y-131755745D02*
X123792241Y-131856760D01*
X123792241Y-131856760D02*
X123792241Y-131924103D01*
X123792241Y-131924103D02*
X123758569Y-132025119D01*
X123758569Y-132025119D02*
X123691225Y-132092462D01*
X123691225Y-132092462D02*
X123556538Y-132159806D01*
X123556538Y-132159806D02*
X122748416Y-132159806D01*
X122748416Y-132159806D02*
X123186149Y-132597538D01*
X124128958Y-132126134D02*
X124600363Y-132597539D01*
X124600363Y-132597539D02*
X123590210Y-133001600D01*
X141184333Y-83639819D02*
X140851000Y-83163628D01*
X140612905Y-83639819D02*
X140612905Y-82639819D01*
X140612905Y-82639819D02*
X140993857Y-82639819D01*
X140993857Y-82639819D02*
X141089095Y-82687438D01*
X141089095Y-82687438D02*
X141136714Y-82735057D01*
X141136714Y-82735057D02*
X141184333Y-82830295D01*
X141184333Y-82830295D02*
X141184333Y-82973152D01*
X141184333Y-82973152D02*
X141136714Y-83068390D01*
X141136714Y-83068390D02*
X141089095Y-83116009D01*
X141089095Y-83116009D02*
X140993857Y-83163628D01*
X140993857Y-83163628D02*
X140612905Y-83163628D01*
X142089095Y-82639819D02*
X141612905Y-82639819D01*
X141612905Y-82639819D02*
X141565286Y-83116009D01*
X141565286Y-83116009D02*
X141612905Y-83068390D01*
X141612905Y-83068390D02*
X141708143Y-83020771D01*
X141708143Y-83020771D02*
X141946238Y-83020771D01*
X141946238Y-83020771D02*
X142041476Y-83068390D01*
X142041476Y-83068390D02*
X142089095Y-83116009D01*
X142089095Y-83116009D02*
X142136714Y-83211247D01*
X142136714Y-83211247D02*
X142136714Y-83449342D01*
X142136714Y-83449342D02*
X142089095Y-83544580D01*
X142089095Y-83544580D02*
X142041476Y-83592200D01*
X142041476Y-83592200D02*
X141946238Y-83639819D01*
X141946238Y-83639819D02*
X141708143Y-83639819D01*
X141708143Y-83639819D02*
X141612905Y-83592200D01*
X141612905Y-83592200D02*
X141565286Y-83544580D01*
X110508570Y-13483168D02*
X109941066Y-13608897D01*
X110289894Y-14011099D02*
X109366014Y-13628415D01*
X109366014Y-13628415D02*
X109511799Y-13276461D01*
X109511799Y-13276461D02*
X109592239Y-13206696D01*
X109592239Y-13206696D02*
X109654456Y-13180925D01*
X109654456Y-13180925D02*
X109760668Y-13173376D01*
X109760668Y-13173376D02*
X109892650Y-13228045D01*
X109892650Y-13228045D02*
X109962416Y-13308486D01*
X109962416Y-13308486D02*
X109988187Y-13370703D01*
X109988187Y-13370703D02*
X109995735Y-13476915D01*
X109995735Y-13476915D02*
X109849951Y-13828869D01*
X110220665Y-12436149D02*
X110836584Y-12691271D01*
X109777596Y-12510336D02*
X110346394Y-13003652D01*
X110346394Y-13003652D02*
X110583294Y-12431727D01*
X12057142Y-71320819D02*
X11723809Y-70844628D01*
X11485714Y-71320819D02*
X11485714Y-70320819D01*
X11485714Y-70320819D02*
X11866666Y-70320819D01*
X11866666Y-70320819D02*
X11961904Y-70368438D01*
X11961904Y-70368438D02*
X12009523Y-70416057D01*
X12009523Y-70416057D02*
X12057142Y-70511295D01*
X12057142Y-70511295D02*
X12057142Y-70654152D01*
X12057142Y-70654152D02*
X12009523Y-70749390D01*
X12009523Y-70749390D02*
X11961904Y-70797009D01*
X11961904Y-70797009D02*
X11866666Y-70844628D01*
X11866666Y-70844628D02*
X11485714Y-70844628D01*
X12438095Y-70416057D02*
X12485714Y-70368438D01*
X12485714Y-70368438D02*
X12580952Y-70320819D01*
X12580952Y-70320819D02*
X12819047Y-70320819D01*
X12819047Y-70320819D02*
X12914285Y-70368438D01*
X12914285Y-70368438D02*
X12961904Y-70416057D01*
X12961904Y-70416057D02*
X13009523Y-70511295D01*
X13009523Y-70511295D02*
X13009523Y-70606533D01*
X13009523Y-70606533D02*
X12961904Y-70749390D01*
X12961904Y-70749390D02*
X12390476Y-71320819D01*
X12390476Y-71320819D02*
X13009523Y-71320819D01*
X13961904Y-71320819D02*
X13390476Y-71320819D01*
X13676190Y-71320819D02*
X13676190Y-70320819D01*
X13676190Y-70320819D02*
X13580952Y-70463676D01*
X13580952Y-70463676D02*
X13485714Y-70558914D01*
X13485714Y-70558914D02*
X13390476Y-70606533D01*
X66693319Y-20257857D02*
X66217128Y-20591190D01*
X66693319Y-20829285D02*
X65693319Y-20829285D01*
X65693319Y-20829285D02*
X65693319Y-20448333D01*
X65693319Y-20448333D02*
X65740938Y-20353095D01*
X65740938Y-20353095D02*
X65788557Y-20305476D01*
X65788557Y-20305476D02*
X65883795Y-20257857D01*
X65883795Y-20257857D02*
X66026652Y-20257857D01*
X66026652Y-20257857D02*
X66121890Y-20305476D01*
X66121890Y-20305476D02*
X66169509Y-20353095D01*
X66169509Y-20353095D02*
X66217128Y-20448333D01*
X66217128Y-20448333D02*
X66217128Y-20829285D01*
X65693319Y-19924523D02*
X65693319Y-19305476D01*
X65693319Y-19305476D02*
X66074271Y-19638809D01*
X66074271Y-19638809D02*
X66074271Y-19495952D01*
X66074271Y-19495952D02*
X66121890Y-19400714D01*
X66121890Y-19400714D02*
X66169509Y-19353095D01*
X66169509Y-19353095D02*
X66264747Y-19305476D01*
X66264747Y-19305476D02*
X66502842Y-19305476D01*
X66502842Y-19305476D02*
X66598080Y-19353095D01*
X66598080Y-19353095D02*
X66645700Y-19400714D01*
X66645700Y-19400714D02*
X66693319Y-19495952D01*
X66693319Y-19495952D02*
X66693319Y-19781666D01*
X66693319Y-19781666D02*
X66645700Y-19876904D01*
X66645700Y-19876904D02*
X66598080Y-19924523D01*
X66026652Y-18448333D02*
X66693319Y-18448333D01*
X65645700Y-18686428D02*
X66359985Y-18924523D01*
X66359985Y-18924523D02*
X66359985Y-18305476D01*
X93008195Y-12217454D02*
X92027410Y-12022363D01*
X92027410Y-12022363D02*
X92073860Y-11788843D01*
X92073860Y-11788843D02*
X92148434Y-11658021D01*
X92148434Y-11658021D02*
X92260422Y-11583193D01*
X92260422Y-11583193D02*
X92363120Y-11555069D01*
X92363120Y-11555069D02*
X92559227Y-11545525D01*
X92559227Y-11545525D02*
X92699339Y-11573395D01*
X92699339Y-11573395D02*
X92876865Y-11657259D01*
X92876865Y-11657259D02*
X92960983Y-11722543D01*
X92960983Y-11722543D02*
X93035811Y-11834531D01*
X93035811Y-11834531D02*
X93054645Y-11983933D01*
X93054645Y-11983933D02*
X93008195Y-12217454D01*
X92306110Y-10621242D02*
X92268950Y-10808058D01*
X92268950Y-10808058D02*
X92297074Y-10910756D01*
X92297074Y-10910756D02*
X92334488Y-10966750D01*
X92334488Y-10966750D02*
X92456021Y-11088028D01*
X92456021Y-11088028D02*
X92633547Y-11171892D01*
X92633547Y-11171892D02*
X93007179Y-11246212D01*
X93007179Y-11246212D02*
X93109877Y-11218088D01*
X93109877Y-11218088D02*
X93165871Y-11180674D01*
X93165871Y-11180674D02*
X93231156Y-11096556D01*
X93231156Y-11096556D02*
X93268316Y-10909740D01*
X93268316Y-10909740D02*
X93240192Y-10807042D01*
X93240192Y-10807042D02*
X93202778Y-10751048D01*
X93202778Y-10751048D02*
X93118659Y-10685764D01*
X93118659Y-10685764D02*
X92885139Y-10639314D01*
X92885139Y-10639314D02*
X92782441Y-10667438D01*
X92782441Y-10667438D02*
X92726447Y-10704852D01*
X92726447Y-10704852D02*
X92661163Y-10788970D01*
X92661163Y-10788970D02*
X92624003Y-10975786D01*
X92624003Y-10975786D02*
X92652127Y-11078484D01*
X92652127Y-11078484D02*
X92689541Y-11134478D01*
X92689541Y-11134478D02*
X92773659Y-11199762D01*
X95218791Y-138391129D02*
X95531172Y-137900939D01*
X95000114Y-137863197D02*
X95923994Y-137480514D01*
X95923994Y-137480514D02*
X96069778Y-137832468D01*
X96069778Y-137832468D02*
X96062230Y-137938680D01*
X96062230Y-137938680D02*
X96036459Y-138000897D01*
X96036459Y-138000897D02*
X95966693Y-138081337D01*
X95966693Y-138081337D02*
X95834710Y-138136006D01*
X95834710Y-138136006D02*
X95728499Y-138128458D01*
X95728499Y-138128458D02*
X95666282Y-138102687D01*
X95666282Y-138102687D02*
X95585841Y-138032921D01*
X95585841Y-138032921D02*
X95440057Y-137680967D01*
X96270231Y-138316405D02*
X96507131Y-138888330D01*
X96507131Y-138888330D02*
X96027615Y-138726155D01*
X96027615Y-138726155D02*
X96082284Y-138858138D01*
X96082284Y-138858138D02*
X96074736Y-138964349D01*
X96074736Y-138964349D02*
X96048965Y-139026566D01*
X96048965Y-139026566D02*
X95979199Y-139107007D01*
X95979199Y-139107007D02*
X95759228Y-139198122D01*
X95759228Y-139198122D02*
X95653017Y-139190574D01*
X95653017Y-139190574D02*
X95590799Y-139164802D01*
X95590799Y-139164802D02*
X95510359Y-139095037D01*
X95510359Y-139095037D02*
X95401021Y-138831071D01*
X95401021Y-138831071D02*
X95408569Y-138724860D01*
X95408569Y-138724860D02*
X95434340Y-138662642D01*
X96744030Y-139460256D02*
X96780476Y-139548244D01*
X96780476Y-139548244D02*
X96772928Y-139654456D01*
X96772928Y-139654456D02*
X96747157Y-139716673D01*
X96747157Y-139716673D02*
X96677391Y-139797114D01*
X96677391Y-139797114D02*
X96519637Y-139914000D01*
X96519637Y-139914000D02*
X96299666Y-140005115D01*
X96299666Y-140005115D02*
X96105466Y-140034013D01*
X96105466Y-140034013D02*
X95999254Y-140026465D01*
X95999254Y-140026465D02*
X95937037Y-140000693D01*
X95937037Y-140000693D02*
X95856596Y-139930928D01*
X95856596Y-139930928D02*
X95820150Y-139842939D01*
X95820150Y-139842939D02*
X95827699Y-139736728D01*
X95827699Y-139736728D02*
X95853470Y-139674511D01*
X95853470Y-139674511D02*
X95923235Y-139594070D01*
X95923235Y-139594070D02*
X96080989Y-139477184D01*
X96080989Y-139477184D02*
X96300961Y-139386069D01*
X96300961Y-139386069D02*
X96495161Y-139357171D01*
X96495161Y-139357171D02*
X96601372Y-139364719D01*
X96601372Y-139364719D02*
X96663590Y-139390490D01*
X96663590Y-139390490D02*
X96744030Y-139460256D01*
X98029794Y-145170282D02*
X98342175Y-144680092D01*
X97811117Y-144642350D02*
X98734997Y-144259667D01*
X98734997Y-144259667D02*
X98880781Y-144611621D01*
X98880781Y-144611621D02*
X98873233Y-144717833D01*
X98873233Y-144717833D02*
X98847462Y-144780050D01*
X98847462Y-144780050D02*
X98777696Y-144860490D01*
X98777696Y-144860490D02*
X98645713Y-144915159D01*
X98645713Y-144915159D02*
X98539502Y-144907611D01*
X98539502Y-144907611D02*
X98477285Y-144881840D01*
X98477285Y-144881840D02*
X98396844Y-144812074D01*
X98396844Y-144812074D02*
X98251060Y-144460120D01*
X99011469Y-145175998D02*
X99073686Y-145201770D01*
X99073686Y-145201770D02*
X99154126Y-145271535D01*
X99154126Y-145271535D02*
X99245242Y-145491506D01*
X99245242Y-145491506D02*
X99237693Y-145597718D01*
X99237693Y-145597718D02*
X99211922Y-145659935D01*
X99211922Y-145659935D02*
X99142157Y-145740376D01*
X99142157Y-145740376D02*
X99054168Y-145776822D01*
X99054168Y-145776822D02*
X98903962Y-145787496D01*
X98903962Y-145787496D02*
X98157355Y-145478241D01*
X98157355Y-145478241D02*
X98394254Y-146050167D01*
X99646148Y-146459380D02*
X99573256Y-146283403D01*
X99573256Y-146283403D02*
X99492816Y-146213638D01*
X99492816Y-146213638D02*
X99430598Y-146187866D01*
X99430598Y-146187866D02*
X99262170Y-146154547D01*
X99262170Y-146154547D02*
X99067969Y-146183445D01*
X99067969Y-146183445D02*
X98716015Y-146329229D01*
X98716015Y-146329229D02*
X98646250Y-146409669D01*
X98646250Y-146409669D02*
X98620479Y-146471887D01*
X98620479Y-146471887D02*
X98612930Y-146578098D01*
X98612930Y-146578098D02*
X98685822Y-146754075D01*
X98685822Y-146754075D02*
X98766263Y-146823841D01*
X98766263Y-146823841D02*
X98828480Y-146849612D01*
X98828480Y-146849612D02*
X98934692Y-146857160D01*
X98934692Y-146857160D02*
X99154663Y-146766045D01*
X99154663Y-146766045D02*
X99224428Y-146685605D01*
X99224428Y-146685605D02*
X99250200Y-146623387D01*
X99250200Y-146623387D02*
X99257748Y-146517176D01*
X99257748Y-146517176D02*
X99184856Y-146341199D01*
X99184856Y-146341199D02*
X99104415Y-146271433D01*
X99104415Y-146271433D02*
X99042198Y-146245662D01*
X99042198Y-146245662D02*
X98935987Y-146238114D01*
X73302019Y-13393657D02*
X72825828Y-13726990D01*
X73302019Y-13965085D02*
X72302019Y-13965085D01*
X72302019Y-13965085D02*
X72302019Y-13584133D01*
X72302019Y-13584133D02*
X72349638Y-13488895D01*
X72349638Y-13488895D02*
X72397257Y-13441276D01*
X72397257Y-13441276D02*
X72492495Y-13393657D01*
X72492495Y-13393657D02*
X72635352Y-13393657D01*
X72635352Y-13393657D02*
X72730590Y-13441276D01*
X72730590Y-13441276D02*
X72778209Y-13488895D01*
X72778209Y-13488895D02*
X72825828Y-13584133D01*
X72825828Y-13584133D02*
X72825828Y-13965085D01*
X72302019Y-13060323D02*
X72302019Y-12441276D01*
X72302019Y-12441276D02*
X72682971Y-12774609D01*
X72682971Y-12774609D02*
X72682971Y-12631752D01*
X72682971Y-12631752D02*
X72730590Y-12536514D01*
X72730590Y-12536514D02*
X72778209Y-12488895D01*
X72778209Y-12488895D02*
X72873447Y-12441276D01*
X72873447Y-12441276D02*
X73111542Y-12441276D01*
X73111542Y-12441276D02*
X73206780Y-12488895D01*
X73206780Y-12488895D02*
X73254400Y-12536514D01*
X73254400Y-12536514D02*
X73302019Y-12631752D01*
X73302019Y-12631752D02*
X73302019Y-12917466D01*
X73302019Y-12917466D02*
X73254400Y-13012704D01*
X73254400Y-13012704D02*
X73206780Y-13060323D01*
X72302019Y-11584133D02*
X72302019Y-11774609D01*
X72302019Y-11774609D02*
X72349638Y-11869847D01*
X72349638Y-11869847D02*
X72397257Y-11917466D01*
X72397257Y-11917466D02*
X72540114Y-12012704D01*
X72540114Y-12012704D02*
X72730590Y-12060323D01*
X72730590Y-12060323D02*
X73111542Y-12060323D01*
X73111542Y-12060323D02*
X73206780Y-12012704D01*
X73206780Y-12012704D02*
X73254400Y-11965085D01*
X73254400Y-11965085D02*
X73302019Y-11869847D01*
X73302019Y-11869847D02*
X73302019Y-11679371D01*
X73302019Y-11679371D02*
X73254400Y-11584133D01*
X73254400Y-11584133D02*
X73206780Y-11536514D01*
X73206780Y-11536514D02*
X73111542Y-11488895D01*
X73111542Y-11488895D02*
X72873447Y-11488895D01*
X72873447Y-11488895D02*
X72778209Y-11536514D01*
X72778209Y-11536514D02*
X72730590Y-11584133D01*
X72730590Y-11584133D02*
X72682971Y-11679371D01*
X72682971Y-11679371D02*
X72682971Y-11869847D01*
X72682971Y-11869847D02*
X72730590Y-11965085D01*
X72730590Y-11965085D02*
X72778209Y-12012704D01*
X72778209Y-12012704D02*
X72873447Y-12060323D01*
X14820129Y-96551208D02*
X14329939Y-96238827D01*
X14292197Y-96769885D02*
X13909514Y-95846005D01*
X13909514Y-95846005D02*
X14261468Y-95700221D01*
X14261468Y-95700221D02*
X14367680Y-95707769D01*
X14367680Y-95707769D02*
X14429897Y-95733540D01*
X14429897Y-95733540D02*
X14510337Y-95803306D01*
X14510337Y-95803306D02*
X14565006Y-95935289D01*
X14565006Y-95935289D02*
X14557458Y-96041500D01*
X14557458Y-96041500D02*
X14531687Y-96103717D01*
X14531687Y-96103717D02*
X14461921Y-96184158D01*
X14461921Y-96184158D02*
X14109967Y-96329942D01*
X14825845Y-95569533D02*
X14851617Y-95507316D01*
X14851617Y-95507316D02*
X14921382Y-95426876D01*
X14921382Y-95426876D02*
X15141353Y-95335760D01*
X15141353Y-95335760D02*
X15247565Y-95343309D01*
X15247565Y-95343309D02*
X15309782Y-95369080D01*
X15309782Y-95369080D02*
X15390223Y-95438845D01*
X15390223Y-95438845D02*
X15426669Y-95526834D01*
X15426669Y-95526834D02*
X15437343Y-95677040D01*
X15437343Y-95677040D02*
X15128088Y-96423647D01*
X15128088Y-96423647D02*
X15700014Y-96186748D01*
X15705731Y-95205073D02*
X15731502Y-95142855D01*
X15731502Y-95142855D02*
X15801267Y-95062415D01*
X15801267Y-95062415D02*
X16021239Y-94971300D01*
X16021239Y-94971300D02*
X16127450Y-94978848D01*
X16127450Y-94978848D02*
X16189668Y-95004619D01*
X16189668Y-95004619D02*
X16270108Y-95074385D01*
X16270108Y-95074385D02*
X16306554Y-95162374D01*
X16306554Y-95162374D02*
X16317229Y-95312579D01*
X16317229Y-95312579D02*
X16007974Y-96059187D01*
X16007974Y-96059187D02*
X16579899Y-95822287D01*
X140076888Y-110326340D02*
X139951159Y-109758836D01*
X139548957Y-110107663D02*
X139931640Y-109183784D01*
X139931640Y-109183784D02*
X140283595Y-109329568D01*
X140283595Y-109329568D02*
X140353360Y-109410008D01*
X140353360Y-109410008D02*
X140379131Y-109472226D01*
X140379131Y-109472226D02*
X140386680Y-109578437D01*
X140386680Y-109578437D02*
X140332010Y-109710420D01*
X140332010Y-109710420D02*
X140251570Y-109780186D01*
X140251570Y-109780186D02*
X140189353Y-109805957D01*
X140189353Y-109805957D02*
X140083141Y-109813505D01*
X140083141Y-109813505D02*
X139731187Y-109667721D01*
X140775080Y-109636233D02*
X140837297Y-109610462D01*
X140837297Y-109610462D02*
X140943509Y-109602913D01*
X140943509Y-109602913D02*
X141163480Y-109694029D01*
X141163480Y-109694029D02*
X141233245Y-109774469D01*
X141233245Y-109774469D02*
X141259017Y-109836686D01*
X141259017Y-109836686D02*
X141266565Y-109942898D01*
X141266565Y-109942898D02*
X141230119Y-110030886D01*
X141230119Y-110030886D02*
X141131455Y-110144646D01*
X141131455Y-110144646D02*
X140384848Y-110453901D01*
X140384848Y-110453901D02*
X140956773Y-110690800D01*
X141703381Y-110381545D02*
X141633615Y-110301105D01*
X141633615Y-110301105D02*
X141607844Y-110238888D01*
X141607844Y-110238888D02*
X141600296Y-110132676D01*
X141600296Y-110132676D02*
X141618519Y-110088682D01*
X141618519Y-110088682D02*
X141698959Y-110018916D01*
X141698959Y-110018916D02*
X141761177Y-109993145D01*
X141761177Y-109993145D02*
X141867388Y-109985597D01*
X141867388Y-109985597D02*
X142043365Y-110058489D01*
X142043365Y-110058489D02*
X142113131Y-110138929D01*
X142113131Y-110138929D02*
X142138902Y-110201147D01*
X142138902Y-110201147D02*
X142146450Y-110307358D01*
X142146450Y-110307358D02*
X142128227Y-110351352D01*
X142128227Y-110351352D02*
X142047787Y-110421118D01*
X142047787Y-110421118D02*
X141985570Y-110446889D01*
X141985570Y-110446889D02*
X141879358Y-110454437D01*
X141879358Y-110454437D02*
X141703381Y-110381545D01*
X141703381Y-110381545D02*
X141597169Y-110389093D01*
X141597169Y-110389093D02*
X141534952Y-110414865D01*
X141534952Y-110414865D02*
X141454512Y-110484630D01*
X141454512Y-110484630D02*
X141381620Y-110660607D01*
X141381620Y-110660607D02*
X141389168Y-110766819D01*
X141389168Y-110766819D02*
X141414939Y-110829036D01*
X141414939Y-110829036D02*
X141484705Y-110909476D01*
X141484705Y-110909476D02*
X141660682Y-110982368D01*
X141660682Y-110982368D02*
X141766893Y-110974820D01*
X141766893Y-110974820D02*
X141829111Y-110949049D01*
X141829111Y-110949049D02*
X141909551Y-110879284D01*
X141909551Y-110879284D02*
X141982443Y-110703306D01*
X141982443Y-110703306D02*
X141974895Y-110597095D01*
X141974895Y-110597095D02*
X141949123Y-110534878D01*
X141949123Y-110534878D02*
X141879358Y-110454437D01*
X127076754Y-36380456D02*
X126504335Y-36279441D01*
X126672693Y-36784517D02*
X125965587Y-36077410D01*
X125965587Y-36077410D02*
X126234961Y-35808036D01*
X126234961Y-35808036D02*
X126335976Y-35774364D01*
X126335976Y-35774364D02*
X126403319Y-35774364D01*
X126403319Y-35774364D02*
X126504335Y-35808036D01*
X126504335Y-35808036D02*
X126605350Y-35909051D01*
X126605350Y-35909051D02*
X126639022Y-36010067D01*
X126639022Y-36010067D02*
X126639022Y-36077410D01*
X126639022Y-36077410D02*
X126605350Y-36178425D01*
X126605350Y-36178425D02*
X126335976Y-36447799D01*
X126605350Y-35437647D02*
X127076754Y-34966242D01*
X127076754Y-34966242D02*
X127480815Y-35976395D01*
X19171025Y-46910187D02*
X19045296Y-46342683D01*
X18643094Y-46691510D02*
X19025777Y-45767631D01*
X19025777Y-45767631D02*
X19377732Y-45913415D01*
X19377732Y-45913415D02*
X19447497Y-45993855D01*
X19447497Y-45993855D02*
X19473268Y-46056073D01*
X19473268Y-46056073D02*
X19480817Y-46162284D01*
X19480817Y-46162284D02*
X19426147Y-46294267D01*
X19426147Y-46294267D02*
X19345707Y-46364033D01*
X19345707Y-46364033D02*
X19283490Y-46389804D01*
X19283490Y-46389804D02*
X19177278Y-46397352D01*
X19177278Y-46397352D02*
X18825324Y-46251568D01*
X20050910Y-47274647D02*
X19522979Y-47055971D01*
X19786945Y-47165309D02*
X20169628Y-46241429D01*
X20169628Y-46241429D02*
X20026971Y-46336966D01*
X20026971Y-46336966D02*
X19902536Y-46388509D01*
X19902536Y-46388509D02*
X19796325Y-46396057D01*
X21225491Y-46678782D02*
X21049514Y-46605890D01*
X21049514Y-46605890D02*
X20943302Y-46613438D01*
X20943302Y-46613438D02*
X20881085Y-46639209D01*
X20881085Y-46639209D02*
X20738427Y-46734746D01*
X20738427Y-46734746D02*
X20621541Y-46892500D01*
X20621541Y-46892500D02*
X20475757Y-47244454D01*
X20475757Y-47244454D02*
X20483305Y-47350666D01*
X20483305Y-47350666D02*
X20509076Y-47412883D01*
X20509076Y-47412883D02*
X20578842Y-47493323D01*
X20578842Y-47493323D02*
X20754819Y-47566215D01*
X20754819Y-47566215D02*
X20861030Y-47558667D01*
X20861030Y-47558667D02*
X20923248Y-47532896D01*
X20923248Y-47532896D02*
X21003688Y-47463131D01*
X21003688Y-47463131D02*
X21094803Y-47243159D01*
X21094803Y-47243159D02*
X21087255Y-47136948D01*
X21087255Y-47136948D02*
X21061483Y-47074730D01*
X21061483Y-47074730D02*
X20991718Y-46994290D01*
X20991718Y-46994290D02*
X20815741Y-46921398D01*
X20815741Y-46921398D02*
X20709529Y-46928946D01*
X20709529Y-46928946D02*
X20647312Y-46954717D01*
X20647312Y-46954717D02*
X20566872Y-47024483D01*
X7989976Y-99362211D02*
X7499786Y-99049830D01*
X7462044Y-99580888D02*
X7079361Y-98657008D01*
X7079361Y-98657008D02*
X7431315Y-98511224D01*
X7431315Y-98511224D02*
X7537527Y-98518772D01*
X7537527Y-98518772D02*
X7599744Y-98544543D01*
X7599744Y-98544543D02*
X7680184Y-98614309D01*
X7680184Y-98614309D02*
X7734853Y-98746292D01*
X7734853Y-98746292D02*
X7727305Y-98852503D01*
X7727305Y-98852503D02*
X7701534Y-98914720D01*
X7701534Y-98914720D02*
X7631768Y-98995161D01*
X7631768Y-98995161D02*
X7279814Y-99140945D01*
X8869861Y-98997751D02*
X8341930Y-99216427D01*
X8605895Y-99107089D02*
X8223212Y-98183209D01*
X8223212Y-98183209D02*
X8189892Y-98351638D01*
X8189892Y-98351638D02*
X8138350Y-98476073D01*
X8138350Y-98476073D02*
X8068584Y-98556513D01*
X9179116Y-98251143D02*
X9072904Y-98243595D01*
X9072904Y-98243595D02*
X9010687Y-98217824D01*
X9010687Y-98217824D02*
X8930247Y-98148058D01*
X8930247Y-98148058D02*
X8912024Y-98104064D01*
X8912024Y-98104064D02*
X8919572Y-97997853D01*
X8919572Y-97997853D02*
X8945343Y-97935635D01*
X8945343Y-97935635D02*
X9015109Y-97855195D01*
X9015109Y-97855195D02*
X9191086Y-97782303D01*
X9191086Y-97782303D02*
X9297297Y-97789851D01*
X9297297Y-97789851D02*
X9359515Y-97815622D01*
X9359515Y-97815622D02*
X9439955Y-97885388D01*
X9439955Y-97885388D02*
X9458178Y-97929382D01*
X9458178Y-97929382D02*
X9450630Y-98035594D01*
X9450630Y-98035594D02*
X9424858Y-98097811D01*
X9424858Y-98097811D02*
X9355093Y-98178251D01*
X9355093Y-98178251D02*
X9179116Y-98251143D01*
X9179116Y-98251143D02*
X9109350Y-98331584D01*
X9109350Y-98331584D02*
X9083579Y-98393801D01*
X9083579Y-98393801D02*
X9076031Y-98500013D01*
X9076031Y-98500013D02*
X9148923Y-98675990D01*
X9148923Y-98675990D02*
X9229363Y-98745755D01*
X9229363Y-98745755D02*
X9291581Y-98771526D01*
X9291581Y-98771526D02*
X9397792Y-98779075D01*
X9397792Y-98779075D02*
X9573769Y-98706183D01*
X9573769Y-98706183D02*
X9643535Y-98625742D01*
X9643535Y-98625742D02*
X9669306Y-98563525D01*
X9669306Y-98563525D02*
X9676854Y-98457313D01*
X9676854Y-98457313D02*
X9603962Y-98281336D01*
X9603962Y-98281336D02*
X9523522Y-98211571D01*
X9523522Y-98211571D02*
X9461304Y-98185800D01*
X9461304Y-98185800D02*
X9355093Y-98178251D01*
X46910187Y-134879974D02*
X46342683Y-135005703D01*
X46691510Y-135407905D02*
X45767631Y-135025222D01*
X45767631Y-135025222D02*
X45913415Y-134673267D01*
X45913415Y-134673267D02*
X45993855Y-134603502D01*
X45993855Y-134603502D02*
X46056073Y-134577731D01*
X46056073Y-134577731D02*
X46162284Y-134570182D01*
X46162284Y-134570182D02*
X46294267Y-134624852D01*
X46294267Y-134624852D02*
X46364033Y-134705292D01*
X46364033Y-134705292D02*
X46389804Y-134767509D01*
X46389804Y-134767509D02*
X46397352Y-134873721D01*
X46397352Y-134873721D02*
X46251568Y-135225675D01*
X46220080Y-134181782D02*
X46194309Y-134119565D01*
X46194309Y-134119565D02*
X46186760Y-134013353D01*
X46186760Y-134013353D02*
X46277876Y-133793382D01*
X46277876Y-133793382D02*
X46358316Y-133723617D01*
X46358316Y-133723617D02*
X46420533Y-133697845D01*
X46420533Y-133697845D02*
X46526745Y-133690297D01*
X46526745Y-133690297D02*
X46614733Y-133726743D01*
X46614733Y-133726743D02*
X46728493Y-133825407D01*
X46728493Y-133825407D02*
X47037748Y-134572014D01*
X47037748Y-134572014D02*
X47274647Y-134000089D01*
X46986742Y-132953069D02*
X47602662Y-133208192D01*
X46543673Y-133027257D02*
X47112471Y-133520573D01*
X47112471Y-133520573D02*
X47349371Y-132948648D01*
X71320819Y-141866857D02*
X70844628Y-142200190D01*
X71320819Y-142438285D02*
X70320819Y-142438285D01*
X70320819Y-142438285D02*
X70320819Y-142057333D01*
X70320819Y-142057333D02*
X70368438Y-141962095D01*
X70368438Y-141962095D02*
X70416057Y-141914476D01*
X70416057Y-141914476D02*
X70511295Y-141866857D01*
X70511295Y-141866857D02*
X70654152Y-141866857D01*
X70654152Y-141866857D02*
X70749390Y-141914476D01*
X70749390Y-141914476D02*
X70797009Y-141962095D01*
X70797009Y-141962095D02*
X70844628Y-142057333D01*
X70844628Y-142057333D02*
X70844628Y-142438285D01*
X70416057Y-141485904D02*
X70368438Y-141438285D01*
X70368438Y-141438285D02*
X70320819Y-141343047D01*
X70320819Y-141343047D02*
X70320819Y-141104952D01*
X70320819Y-141104952D02*
X70368438Y-141009714D01*
X70368438Y-141009714D02*
X70416057Y-140962095D01*
X70416057Y-140962095D02*
X70511295Y-140914476D01*
X70511295Y-140914476D02*
X70606533Y-140914476D01*
X70606533Y-140914476D02*
X70749390Y-140962095D01*
X70749390Y-140962095D02*
X71320819Y-141533523D01*
X71320819Y-141533523D02*
X71320819Y-140914476D01*
X71320819Y-140438285D02*
X71320819Y-140247809D01*
X71320819Y-140247809D02*
X71273200Y-140152571D01*
X71273200Y-140152571D02*
X71225580Y-140104952D01*
X71225580Y-140104952D02*
X71082723Y-140009714D01*
X71082723Y-140009714D02*
X70892247Y-139962095D01*
X70892247Y-139962095D02*
X70511295Y-139962095D01*
X70511295Y-139962095D02*
X70416057Y-140009714D01*
X70416057Y-140009714D02*
X70368438Y-140057333D01*
X70368438Y-140057333D02*
X70320819Y-140152571D01*
X70320819Y-140152571D02*
X70320819Y-140343047D01*
X70320819Y-140343047D02*
X70368438Y-140438285D01*
X70368438Y-140438285D02*
X70416057Y-140485904D01*
X70416057Y-140485904D02*
X70511295Y-140533523D01*
X70511295Y-140533523D02*
X70749390Y-140533523D01*
X70749390Y-140533523D02*
X70844628Y-140485904D01*
X70844628Y-140485904D02*
X70892247Y-140438285D01*
X70892247Y-140438285D02*
X70939866Y-140343047D01*
X70939866Y-140343047D02*
X70939866Y-140152571D01*
X70939866Y-140152571D02*
X70892247Y-140057333D01*
X70892247Y-140057333D02*
X70844628Y-140009714D01*
X70844628Y-140009714D02*
X70749390Y-139962095D01*
X82242819Y-10294857D02*
X81766628Y-10628190D01*
X82242819Y-10866285D02*
X81242819Y-10866285D01*
X81242819Y-10866285D02*
X81242819Y-10485333D01*
X81242819Y-10485333D02*
X81290438Y-10390095D01*
X81290438Y-10390095D02*
X81338057Y-10342476D01*
X81338057Y-10342476D02*
X81433295Y-10294857D01*
X81433295Y-10294857D02*
X81576152Y-10294857D01*
X81576152Y-10294857D02*
X81671390Y-10342476D01*
X81671390Y-10342476D02*
X81719009Y-10390095D01*
X81719009Y-10390095D02*
X81766628Y-10485333D01*
X81766628Y-10485333D02*
X81766628Y-10866285D01*
X82242819Y-9342476D02*
X82242819Y-9913904D01*
X82242819Y-9628190D02*
X81242819Y-9628190D01*
X81242819Y-9628190D02*
X81385676Y-9723428D01*
X81385676Y-9723428D02*
X81480914Y-9818666D01*
X81480914Y-9818666D02*
X81528533Y-9913904D01*
X81242819Y-9009142D02*
X81242819Y-8390095D01*
X81242819Y-8390095D02*
X81623771Y-8723428D01*
X81623771Y-8723428D02*
X81623771Y-8580571D01*
X81623771Y-8580571D02*
X81671390Y-8485333D01*
X81671390Y-8485333D02*
X81719009Y-8437714D01*
X81719009Y-8437714D02*
X81814247Y-8390095D01*
X81814247Y-8390095D02*
X82052342Y-8390095D01*
X82052342Y-8390095D02*
X82147580Y-8437714D01*
X82147580Y-8437714D02*
X82195200Y-8485333D01*
X82195200Y-8485333D02*
X82242819Y-8580571D01*
X82242819Y-8580571D02*
X82242819Y-8866285D01*
X82242819Y-8866285D02*
X82195200Y-8961523D01*
X82195200Y-8961523D02*
X82147580Y-9009142D01*
X66799619Y-29141657D02*
X66323428Y-29474990D01*
X66799619Y-29713085D02*
X65799619Y-29713085D01*
X65799619Y-29713085D02*
X65799619Y-29332133D01*
X65799619Y-29332133D02*
X65847238Y-29236895D01*
X65847238Y-29236895D02*
X65894857Y-29189276D01*
X65894857Y-29189276D02*
X65990095Y-29141657D01*
X65990095Y-29141657D02*
X66132952Y-29141657D01*
X66132952Y-29141657D02*
X66228190Y-29189276D01*
X66228190Y-29189276D02*
X66275809Y-29236895D01*
X66275809Y-29236895D02*
X66323428Y-29332133D01*
X66323428Y-29332133D02*
X66323428Y-29713085D01*
X65799619Y-28808323D02*
X65799619Y-28189276D01*
X65799619Y-28189276D02*
X66180571Y-28522609D01*
X66180571Y-28522609D02*
X66180571Y-28379752D01*
X66180571Y-28379752D02*
X66228190Y-28284514D01*
X66228190Y-28284514D02*
X66275809Y-28236895D01*
X66275809Y-28236895D02*
X66371047Y-28189276D01*
X66371047Y-28189276D02*
X66609142Y-28189276D01*
X66609142Y-28189276D02*
X66704380Y-28236895D01*
X66704380Y-28236895D02*
X66752000Y-28284514D01*
X66752000Y-28284514D02*
X66799619Y-28379752D01*
X66799619Y-28379752D02*
X66799619Y-28665466D01*
X66799619Y-28665466D02*
X66752000Y-28760704D01*
X66752000Y-28760704D02*
X66704380Y-28808323D01*
X65799619Y-27284514D02*
X65799619Y-27760704D01*
X65799619Y-27760704D02*
X66275809Y-27808323D01*
X66275809Y-27808323D02*
X66228190Y-27760704D01*
X66228190Y-27760704D02*
X66180571Y-27665466D01*
X66180571Y-27665466D02*
X66180571Y-27427371D01*
X66180571Y-27427371D02*
X66228190Y-27332133D01*
X66228190Y-27332133D02*
X66275809Y-27284514D01*
X66275809Y-27284514D02*
X66371047Y-27236895D01*
X66371047Y-27236895D02*
X66609142Y-27236895D01*
X66609142Y-27236895D02*
X66704380Y-27284514D01*
X66704380Y-27284514D02*
X66752000Y-27332133D01*
X66752000Y-27332133D02*
X66799619Y-27427371D01*
X66799619Y-27427371D02*
X66799619Y-27665466D01*
X66799619Y-27665466D02*
X66752000Y-27760704D01*
X66752000Y-27760704D02*
X66704380Y-27808323D01*
X29934936Y-21809969D02*
X30035951Y-21237550D01*
X29530875Y-21405908D02*
X30237982Y-20698802D01*
X30237982Y-20698802D02*
X30507356Y-20968176D01*
X30507356Y-20968176D02*
X30541028Y-21069191D01*
X30541028Y-21069191D02*
X30541028Y-21136534D01*
X30541028Y-21136534D02*
X30507356Y-21237550D01*
X30507356Y-21237550D02*
X30406341Y-21338565D01*
X30406341Y-21338565D02*
X30305325Y-21372237D01*
X30305325Y-21372237D02*
X30237982Y-21372237D01*
X30237982Y-21372237D02*
X30136967Y-21338565D01*
X30136967Y-21338565D02*
X29867593Y-21069191D01*
X30608371Y-22483404D02*
X30204310Y-22079343D01*
X30406341Y-22281374D02*
X31113447Y-21574267D01*
X31113447Y-21574267D02*
X30945089Y-21607939D01*
X30945089Y-21607939D02*
X30810402Y-21607939D01*
X30810402Y-21607939D02*
X30709386Y-21574267D01*
X31281806Y-23156840D02*
X30877745Y-22752779D01*
X31079776Y-22954809D02*
X31786883Y-22247702D01*
X31786883Y-22247702D02*
X31618524Y-22281374D01*
X31618524Y-22281374D02*
X31483837Y-22281374D01*
X31483837Y-22281374D02*
X31382822Y-22247702D01*
X47921625Y-20881254D02*
X48194970Y-21541168D01*
X48194970Y-21541168D02*
X48205645Y-21691374D01*
X48205645Y-21691374D02*
X48154102Y-21815809D01*
X48154102Y-21815809D02*
X48040343Y-21914472D01*
X48040343Y-21914472D02*
X47952354Y-21950918D01*
X48273579Y-20735470D02*
X48845505Y-20498571D01*
X48845505Y-20498571D02*
X48683329Y-20978086D01*
X48683329Y-20978086D02*
X48815312Y-20923417D01*
X48815312Y-20923417D02*
X48921523Y-20930965D01*
X48921523Y-20930965D02*
X48983741Y-20956736D01*
X48983741Y-20956736D02*
X49064181Y-21026502D01*
X49064181Y-21026502D02*
X49155296Y-21246473D01*
X49155296Y-21246473D02*
X49147748Y-21352685D01*
X49147748Y-21352685D02*
X49121976Y-21414902D01*
X49121976Y-21414902D02*
X49052211Y-21495342D01*
X49052211Y-21495342D02*
X48788245Y-21604680D01*
X48788245Y-21604680D02*
X48682034Y-21597132D01*
X48682034Y-21597132D02*
X48619817Y-21571361D01*
X4694643Y-71254819D02*
X4361310Y-70778628D01*
X4123215Y-71254819D02*
X4123215Y-70254819D01*
X4123215Y-70254819D02*
X4504167Y-70254819D01*
X4504167Y-70254819D02*
X4599405Y-70302438D01*
X4599405Y-70302438D02*
X4647024Y-70350057D01*
X4647024Y-70350057D02*
X4694643Y-70445295D01*
X4694643Y-70445295D02*
X4694643Y-70588152D01*
X4694643Y-70588152D02*
X4647024Y-70683390D01*
X4647024Y-70683390D02*
X4599405Y-70731009D01*
X4599405Y-70731009D02*
X4504167Y-70778628D01*
X4504167Y-70778628D02*
X4123215Y-70778628D01*
X5647024Y-71254819D02*
X5075596Y-71254819D01*
X5361310Y-71254819D02*
X5361310Y-70254819D01*
X5361310Y-70254819D02*
X5266072Y-70397676D01*
X5266072Y-70397676D02*
X5170834Y-70492914D01*
X5170834Y-70492914D02*
X5075596Y-70540533D01*
X5980358Y-70254819D02*
X6647024Y-70254819D01*
X6647024Y-70254819D02*
X6218453Y-71254819D01*
X54637788Y-7989976D02*
X54950169Y-7499786D01*
X54419111Y-7462044D02*
X55342991Y-7079361D01*
X55342991Y-7079361D02*
X55488775Y-7431315D01*
X55488775Y-7431315D02*
X55481227Y-7537527D01*
X55481227Y-7537527D02*
X55455456Y-7599744D01*
X55455456Y-7599744D02*
X55385690Y-7680184D01*
X55385690Y-7680184D02*
X55253707Y-7734853D01*
X55253707Y-7734853D02*
X55147496Y-7727305D01*
X55147496Y-7727305D02*
X55085279Y-7701534D01*
X55085279Y-7701534D02*
X55004838Y-7631768D01*
X55004838Y-7631768D02*
X54859054Y-7279814D01*
X55002248Y-8869861D02*
X54783572Y-8341930D01*
X54892910Y-8605895D02*
X55816790Y-8223212D01*
X55816790Y-8223212D02*
X55648361Y-8189892D01*
X55648361Y-8189892D02*
X55523926Y-8138350D01*
X55523926Y-8138350D02*
X55443486Y-8068584D01*
X56163027Y-9059103D02*
X56199473Y-9147091D01*
X56199473Y-9147091D02*
X56191925Y-9253303D01*
X56191925Y-9253303D02*
X56166154Y-9315520D01*
X56166154Y-9315520D02*
X56096388Y-9395961D01*
X56096388Y-9395961D02*
X55938634Y-9512847D01*
X55938634Y-9512847D02*
X55718663Y-9603962D01*
X55718663Y-9603962D02*
X55524463Y-9632860D01*
X55524463Y-9632860D02*
X55418251Y-9625312D01*
X55418251Y-9625312D02*
X55356034Y-9599540D01*
X55356034Y-9599540D02*
X55275593Y-9529775D01*
X55275593Y-9529775D02*
X55239147Y-9441786D01*
X55239147Y-9441786D02*
X55246696Y-9335575D01*
X55246696Y-9335575D02*
X55272467Y-9273358D01*
X55272467Y-9273358D02*
X55342232Y-9192917D01*
X55342232Y-9192917D02*
X55499986Y-9076031D01*
X55499986Y-9076031D02*
X55719958Y-8984916D01*
X55719958Y-8984916D02*
X55914158Y-8956018D01*
X55914158Y-8956018D02*
X56020369Y-8963566D01*
X56020369Y-8963566D02*
X56082587Y-8989337D01*
X56082587Y-8989337D02*
X56163027Y-9059103D01*
X57372791Y-14693129D02*
X57685172Y-14202939D01*
X57154114Y-14165197D02*
X58077994Y-13782514D01*
X58077994Y-13782514D02*
X58223778Y-14134468D01*
X58223778Y-14134468D02*
X58216230Y-14240680D01*
X58216230Y-14240680D02*
X58190459Y-14302897D01*
X58190459Y-14302897D02*
X58120693Y-14383337D01*
X58120693Y-14383337D02*
X57988710Y-14438006D01*
X57988710Y-14438006D02*
X57882499Y-14430458D01*
X57882499Y-14430458D02*
X57820282Y-14404687D01*
X57820282Y-14404687D02*
X57739841Y-14334921D01*
X57739841Y-14334921D02*
X57594057Y-13982967D01*
X57737251Y-15573014D02*
X57518575Y-15045083D01*
X57627913Y-15309048D02*
X58551793Y-14926365D01*
X58551793Y-14926365D02*
X58383364Y-14893045D01*
X58383364Y-14893045D02*
X58258929Y-14841503D01*
X58258929Y-14841503D02*
X58178489Y-14771737D01*
X58681185Y-16109788D02*
X58065265Y-16364911D01*
X58942024Y-15744033D02*
X58190995Y-15797407D01*
X58190995Y-15797407D02*
X58427894Y-16369332D01*
X71254819Y-149305356D02*
X70778628Y-149638689D01*
X71254819Y-149876784D02*
X70254819Y-149876784D01*
X70254819Y-149876784D02*
X70254819Y-149495832D01*
X70254819Y-149495832D02*
X70302438Y-149400594D01*
X70302438Y-149400594D02*
X70350057Y-149352975D01*
X70350057Y-149352975D02*
X70445295Y-149305356D01*
X70445295Y-149305356D02*
X70588152Y-149305356D01*
X70588152Y-149305356D02*
X70683390Y-149352975D01*
X70683390Y-149352975D02*
X70731009Y-149400594D01*
X70731009Y-149400594D02*
X70778628Y-149495832D01*
X70778628Y-149495832D02*
X70778628Y-149876784D01*
X70350057Y-148924403D02*
X70302438Y-148876784D01*
X70302438Y-148876784D02*
X70254819Y-148781546D01*
X70254819Y-148781546D02*
X70254819Y-148543451D01*
X70254819Y-148543451D02*
X70302438Y-148448213D01*
X70302438Y-148448213D02*
X70350057Y-148400594D01*
X70350057Y-148400594D02*
X70445295Y-148352975D01*
X70445295Y-148352975D02*
X70540533Y-148352975D01*
X70540533Y-148352975D02*
X70683390Y-148400594D01*
X70683390Y-148400594D02*
X71254819Y-148972022D01*
X71254819Y-148972022D02*
X71254819Y-148352975D01*
X70254819Y-147448213D02*
X70254819Y-147924403D01*
X70254819Y-147924403D02*
X70731009Y-147972022D01*
X70731009Y-147972022D02*
X70683390Y-147924403D01*
X70683390Y-147924403D02*
X70635771Y-147829165D01*
X70635771Y-147829165D02*
X70635771Y-147591070D01*
X70635771Y-147591070D02*
X70683390Y-147495832D01*
X70683390Y-147495832D02*
X70731009Y-147448213D01*
X70731009Y-147448213D02*
X70826247Y-147400594D01*
X70826247Y-147400594D02*
X71064342Y-147400594D01*
X71064342Y-147400594D02*
X71159580Y-147448213D01*
X71159580Y-147448213D02*
X71207200Y-147495832D01*
X71207200Y-147495832D02*
X71254819Y-147591070D01*
X71254819Y-147591070D02*
X71254819Y-147829165D01*
X71254819Y-147829165D02*
X71207200Y-147924403D01*
X71207200Y-147924403D02*
X71159580Y-147972022D01*
X90003333Y-30839580D02*
X89955714Y-30887200D01*
X89955714Y-30887200D02*
X89812857Y-30934819D01*
X89812857Y-30934819D02*
X89717619Y-30934819D01*
X89717619Y-30934819D02*
X89574762Y-30887200D01*
X89574762Y-30887200D02*
X89479524Y-30791961D01*
X89479524Y-30791961D02*
X89431905Y-30696723D01*
X89431905Y-30696723D02*
X89384286Y-30506247D01*
X89384286Y-30506247D02*
X89384286Y-30363390D01*
X89384286Y-30363390D02*
X89431905Y-30172914D01*
X89431905Y-30172914D02*
X89479524Y-30077676D01*
X89479524Y-30077676D02*
X89574762Y-29982438D01*
X89574762Y-29982438D02*
X89717619Y-29934819D01*
X89717619Y-29934819D02*
X89812857Y-29934819D01*
X89812857Y-29934819D02*
X89955714Y-29982438D01*
X89955714Y-29982438D02*
X90003333Y-30030057D01*
X90384286Y-30030057D02*
X90431905Y-29982438D01*
X90431905Y-29982438D02*
X90527143Y-29934819D01*
X90527143Y-29934819D02*
X90765238Y-29934819D01*
X90765238Y-29934819D02*
X90860476Y-29982438D01*
X90860476Y-29982438D02*
X90908095Y-30030057D01*
X90908095Y-30030057D02*
X90955714Y-30125295D01*
X90955714Y-30125295D02*
X90955714Y-30220533D01*
X90955714Y-30220533D02*
X90908095Y-30363390D01*
X90908095Y-30363390D02*
X90336667Y-30934819D01*
X90336667Y-30934819D02*
X90955714Y-30934819D01*
X117333825Y-126740036D02*
X117434840Y-126167617D01*
X116929764Y-126335975D02*
X117636871Y-125628869D01*
X117636871Y-125628869D02*
X117906245Y-125898243D01*
X117906245Y-125898243D02*
X117939917Y-125999258D01*
X117939917Y-125999258D02*
X117939917Y-126066601D01*
X117939917Y-126066601D02*
X117906245Y-126167617D01*
X117906245Y-126167617D02*
X117805230Y-126268632D01*
X117805230Y-126268632D02*
X117704214Y-126302304D01*
X117704214Y-126302304D02*
X117636871Y-126302304D01*
X117636871Y-126302304D02*
X117535856Y-126268632D01*
X117535856Y-126268632D02*
X117266482Y-125999258D01*
X118276634Y-126268632D02*
X118714367Y-126706365D01*
X118714367Y-126706365D02*
X118209291Y-126740036D01*
X118209291Y-126740036D02*
X118310306Y-126841052D01*
X118310306Y-126841052D02*
X118343978Y-126942067D01*
X118343978Y-126942067D02*
X118343978Y-127009410D01*
X118343978Y-127009410D02*
X118310306Y-127110426D01*
X118310306Y-127110426D02*
X118141947Y-127278784D01*
X118141947Y-127278784D02*
X118040932Y-127312456D01*
X118040932Y-127312456D02*
X117973588Y-127312456D01*
X117973588Y-127312456D02*
X117872573Y-127278784D01*
X117872573Y-127278784D02*
X117670543Y-127076754D01*
X117670543Y-127076754D02*
X117636871Y-126975739D01*
X117636871Y-126975739D02*
X117636871Y-126908395D01*
X118680695Y-128086907D02*
X118276634Y-127682846D01*
X118478665Y-127884876D02*
X119185772Y-127177769D01*
X119185772Y-127177769D02*
X119017413Y-127211441D01*
X119017413Y-127211441D02*
X118882726Y-127211441D01*
X118882726Y-127211441D02*
X118781711Y-127177769D01*
X27045036Y-118886174D02*
X26472617Y-118785159D01*
X26640975Y-119290235D02*
X25933869Y-118583128D01*
X25933869Y-118583128D02*
X26203243Y-118313754D01*
X26203243Y-118313754D02*
X26304258Y-118280082D01*
X26304258Y-118280082D02*
X26371601Y-118280082D01*
X26371601Y-118280082D02*
X26472617Y-118313754D01*
X26472617Y-118313754D02*
X26573632Y-118414769D01*
X26573632Y-118414769D02*
X26607304Y-118515785D01*
X26607304Y-118515785D02*
X26607304Y-118583128D01*
X26607304Y-118583128D02*
X26573632Y-118684143D01*
X26573632Y-118684143D02*
X26304258Y-118953517D01*
X26674647Y-117977037D02*
X26674647Y-117909693D01*
X26674647Y-117909693D02*
X26708319Y-117808678D01*
X26708319Y-117808678D02*
X26876678Y-117640319D01*
X26876678Y-117640319D02*
X26977693Y-117606647D01*
X26977693Y-117606647D02*
X27045036Y-117606647D01*
X27045036Y-117606647D02*
X27146052Y-117640319D01*
X27146052Y-117640319D02*
X27213395Y-117707663D01*
X27213395Y-117707663D02*
X27280739Y-117842350D01*
X27280739Y-117842350D02*
X27280739Y-118650472D01*
X27280739Y-118650472D02*
X27718471Y-118212739D01*
X27247067Y-117269930D02*
X27684800Y-116832197D01*
X27684800Y-116832197D02*
X27718472Y-117337273D01*
X27718472Y-117337273D02*
X27819487Y-117236258D01*
X27819487Y-117236258D02*
X27920502Y-117202586D01*
X27920502Y-117202586D02*
X27987846Y-117202586D01*
X27987846Y-117202586D02*
X28088861Y-117236258D01*
X28088861Y-117236258D02*
X28257220Y-117404617D01*
X28257220Y-117404617D02*
X28290891Y-117505632D01*
X28290891Y-117505632D02*
X28290891Y-117572975D01*
X28290891Y-117572975D02*
X28257220Y-117673991D01*
X28257220Y-117673991D02*
X28055189Y-117876021D01*
X28055189Y-117876021D02*
X27954174Y-117909693D01*
X27954174Y-117909693D02*
X27886830Y-117909693D01*
X86465580Y-20105666D02*
X86513200Y-20153285D01*
X86513200Y-20153285D02*
X86560819Y-20296142D01*
X86560819Y-20296142D02*
X86560819Y-20391380D01*
X86560819Y-20391380D02*
X86513200Y-20534237D01*
X86513200Y-20534237D02*
X86417961Y-20629475D01*
X86417961Y-20629475D02*
X86322723Y-20677094D01*
X86322723Y-20677094D02*
X86132247Y-20724713D01*
X86132247Y-20724713D02*
X85989390Y-20724713D01*
X85989390Y-20724713D02*
X85798914Y-20677094D01*
X85798914Y-20677094D02*
X85703676Y-20629475D01*
X85703676Y-20629475D02*
X85608438Y-20534237D01*
X85608438Y-20534237D02*
X85560819Y-20391380D01*
X85560819Y-20391380D02*
X85560819Y-20296142D01*
X85560819Y-20296142D02*
X85608438Y-20153285D01*
X85608438Y-20153285D02*
X85656057Y-20105666D01*
X85989390Y-19534237D02*
X85941771Y-19629475D01*
X85941771Y-19629475D02*
X85894152Y-19677094D01*
X85894152Y-19677094D02*
X85798914Y-19724713D01*
X85798914Y-19724713D02*
X85751295Y-19724713D01*
X85751295Y-19724713D02*
X85656057Y-19677094D01*
X85656057Y-19677094D02*
X85608438Y-19629475D01*
X85608438Y-19629475D02*
X85560819Y-19534237D01*
X85560819Y-19534237D02*
X85560819Y-19343761D01*
X85560819Y-19343761D02*
X85608438Y-19248523D01*
X85608438Y-19248523D02*
X85656057Y-19200904D01*
X85656057Y-19200904D02*
X85751295Y-19153285D01*
X85751295Y-19153285D02*
X85798914Y-19153285D01*
X85798914Y-19153285D02*
X85894152Y-19200904D01*
X85894152Y-19200904D02*
X85941771Y-19248523D01*
X85941771Y-19248523D02*
X85989390Y-19343761D01*
X85989390Y-19343761D02*
X85989390Y-19534237D01*
X85989390Y-19534237D02*
X86037009Y-19629475D01*
X86037009Y-19629475D02*
X86084628Y-19677094D01*
X86084628Y-19677094D02*
X86179866Y-19724713D01*
X86179866Y-19724713D02*
X86370342Y-19724713D01*
X86370342Y-19724713D02*
X86465580Y-19677094D01*
X86465580Y-19677094D02*
X86513200Y-19629475D01*
X86513200Y-19629475D02*
X86560819Y-19534237D01*
X86560819Y-19534237D02*
X86560819Y-19343761D01*
X86560819Y-19343761D02*
X86513200Y-19248523D01*
X86513200Y-19248523D02*
X86465580Y-19200904D01*
X86465580Y-19200904D02*
X86370342Y-19153285D01*
X86370342Y-19153285D02*
X86179866Y-19153285D01*
X86179866Y-19153285D02*
X86084628Y-19200904D01*
X86084628Y-19200904D02*
X86037009Y-19248523D01*
X86037009Y-19248523D02*
X85989390Y-19343761D01*
X97586649Y-9351628D02*
X97524432Y-9377399D01*
X97524432Y-9377399D02*
X97374226Y-9366724D01*
X97374226Y-9366724D02*
X97286238Y-9330278D01*
X97286238Y-9330278D02*
X97172478Y-9231615D01*
X97172478Y-9231615D02*
X97120935Y-9107180D01*
X97120935Y-9107180D02*
X97113387Y-9000969D01*
X97113387Y-9000969D02*
X97142285Y-8806768D01*
X97142285Y-8806768D02*
X97196954Y-8674786D01*
X97196954Y-8674786D02*
X97313840Y-8517032D01*
X97313840Y-8517032D02*
X97394281Y-8447266D01*
X97394281Y-8447266D02*
X97518715Y-8395724D01*
X97518715Y-8395724D02*
X97668921Y-8406398D01*
X97668921Y-8406398D02*
X97756910Y-8442845D01*
X97756910Y-8442845D02*
X97870669Y-8541508D01*
X97870669Y-8541508D02*
X97896441Y-8603725D01*
X98240847Y-8643298D02*
X98856766Y-8898420D01*
X98856766Y-8898420D02*
X98078134Y-9658292D01*
X44022034Y-141612837D02*
X43454530Y-141738566D01*
X43803357Y-142140768D02*
X42879478Y-141758085D01*
X42879478Y-141758085D02*
X43025262Y-141406130D01*
X43025262Y-141406130D02*
X43105702Y-141336365D01*
X43105702Y-141336365D02*
X43167920Y-141310594D01*
X43167920Y-141310594D02*
X43274131Y-141303045D01*
X43274131Y-141303045D02*
X43406114Y-141357715D01*
X43406114Y-141357715D02*
X43475880Y-141438155D01*
X43475880Y-141438155D02*
X43501651Y-141500372D01*
X43501651Y-141500372D02*
X43509199Y-141606584D01*
X43509199Y-141606584D02*
X43363415Y-141958538D01*
X43331927Y-140914645D02*
X43306156Y-140852428D01*
X43306156Y-140852428D02*
X43298607Y-140746216D01*
X43298607Y-140746216D02*
X43389723Y-140526245D01*
X43389723Y-140526245D02*
X43470163Y-140456480D01*
X43470163Y-140456480D02*
X43532380Y-140430708D01*
X43532380Y-140430708D02*
X43638592Y-140423160D01*
X43638592Y-140423160D02*
X43726580Y-140459606D01*
X43726580Y-140459606D02*
X43840340Y-140558270D01*
X43840340Y-140558270D02*
X44149595Y-141304877D01*
X44149595Y-141304877D02*
X44386494Y-140732952D01*
X43699514Y-139778343D02*
X43735960Y-139690354D01*
X43735960Y-139690354D02*
X43816400Y-139620589D01*
X43816400Y-139620589D02*
X43878618Y-139594817D01*
X43878618Y-139594817D02*
X43984829Y-139587269D01*
X43984829Y-139587269D02*
X44179029Y-139616167D01*
X44179029Y-139616167D02*
X44399000Y-139707282D01*
X44399000Y-139707282D02*
X44556754Y-139824168D01*
X44556754Y-139824168D02*
X44626520Y-139904609D01*
X44626520Y-139904609D02*
X44652291Y-139966826D01*
X44652291Y-139966826D02*
X44659839Y-140073038D01*
X44659839Y-140073038D02*
X44623393Y-140161026D01*
X44623393Y-140161026D02*
X44542953Y-140230792D01*
X44542953Y-140230792D02*
X44480736Y-140256563D01*
X44480736Y-140256563D02*
X44374524Y-140264111D01*
X44374524Y-140264111D02*
X44180324Y-140235213D01*
X44180324Y-140235213D02*
X43960353Y-140144098D01*
X43960353Y-140144098D02*
X43802599Y-140027212D01*
X43802599Y-140027212D02*
X43732833Y-139946771D01*
X43732833Y-139946771D02*
X43707062Y-139884554D01*
X43707062Y-139884554D02*
X43699514Y-139778343D01*
X86268989Y-10095337D02*
X86425061Y-9310709D01*
X86425061Y-9310709D02*
X86611878Y-9347869D01*
X86611878Y-9347869D02*
X86716535Y-9407528D01*
X86716535Y-9407528D02*
X86776398Y-9497119D01*
X86776398Y-9497119D02*
X86798897Y-9579277D01*
X86798897Y-9579277D02*
X86806532Y-9736162D01*
X86806532Y-9736162D02*
X86784236Y-9848252D01*
X86784236Y-9848252D02*
X86717145Y-9990273D01*
X86717145Y-9990273D02*
X86664918Y-10057568D01*
X86664918Y-10057568D02*
X86575327Y-10117430D01*
X86575327Y-10117430D02*
X86455805Y-10132497D01*
X86455805Y-10132497D02*
X86268989Y-10095337D01*
X87134963Y-9451917D02*
X87620685Y-9548533D01*
X87620685Y-9548533D02*
X87299687Y-9795415D01*
X87299687Y-9795415D02*
X87411776Y-9817711D01*
X87411776Y-9817711D02*
X87479071Y-9869939D01*
X87479071Y-9869939D02*
X87509002Y-9914734D01*
X87509002Y-9914734D02*
X87531501Y-9996892D01*
X87531501Y-9996892D02*
X87494341Y-10183709D01*
X87494341Y-10183709D02*
X87442114Y-10251003D01*
X87442114Y-10251003D02*
X87397319Y-10280934D01*
X87397319Y-10280934D02*
X87315160Y-10303434D01*
X87315160Y-10303434D02*
X87090981Y-10258841D01*
X87090981Y-10258841D02*
X87023686Y-10206614D01*
X87023686Y-10206614D02*
X86993755Y-10161819D01*
X138958071Y-58522978D02*
X138467881Y-58210596D01*
X138430140Y-58741654D02*
X138047456Y-57817775D01*
X138047456Y-57817775D02*
X138399410Y-57671990D01*
X138399410Y-57671990D02*
X138505622Y-57679539D01*
X138505622Y-57679539D02*
X138567839Y-57705310D01*
X138567839Y-57705310D02*
X138648279Y-57775075D01*
X138648279Y-57775075D02*
X138702948Y-57907058D01*
X138702948Y-57907058D02*
X138695400Y-58013270D01*
X138695400Y-58013270D02*
X138669629Y-58075487D01*
X138669629Y-58075487D02*
X138599863Y-58155927D01*
X138599863Y-58155927D02*
X138247909Y-58301712D01*
X139367284Y-57271084D02*
X139191307Y-57343976D01*
X139191307Y-57343976D02*
X139121541Y-57424416D01*
X139121541Y-57424416D02*
X139095770Y-57486634D01*
X139095770Y-57486634D02*
X139062451Y-57655062D01*
X139062451Y-57655062D02*
X139091349Y-57849263D01*
X139091349Y-57849263D02*
X139237133Y-58201217D01*
X139237133Y-58201217D02*
X139317573Y-58270982D01*
X139317573Y-58270982D02*
X139379790Y-58296753D01*
X139379790Y-58296753D02*
X139486002Y-58304302D01*
X139486002Y-58304302D02*
X139661979Y-58231410D01*
X139661979Y-58231410D02*
X139731744Y-58150969D01*
X139731744Y-58150969D02*
X139757516Y-58088752D01*
X139757516Y-58088752D02*
X139765064Y-57982540D01*
X139765064Y-57982540D02*
X139673949Y-57762569D01*
X139673949Y-57762569D02*
X139593509Y-57692804D01*
X139593509Y-57692804D02*
X139531291Y-57667032D01*
X139531291Y-57667032D02*
X139425080Y-57659484D01*
X139425080Y-57659484D02*
X139249103Y-57732376D01*
X139249103Y-57732376D02*
X139179337Y-57812817D01*
X139179337Y-57812817D02*
X139153566Y-57875034D01*
X139153566Y-57875034D02*
X139146018Y-57981245D01*
X12387162Y-44022034D02*
X12261433Y-43454530D01*
X11859231Y-43803357D02*
X12241914Y-42879478D01*
X12241914Y-42879478D02*
X12593869Y-43025262D01*
X12593869Y-43025262D02*
X12663634Y-43105702D01*
X12663634Y-43105702D02*
X12689405Y-43167920D01*
X12689405Y-43167920D02*
X12696954Y-43274131D01*
X12696954Y-43274131D02*
X12642284Y-43406114D01*
X12642284Y-43406114D02*
X12561844Y-43475880D01*
X12561844Y-43475880D02*
X12499627Y-43501651D01*
X12499627Y-43501651D02*
X12393415Y-43509199D01*
X12393415Y-43509199D02*
X12041461Y-43363415D01*
X13267047Y-44386494D02*
X12739116Y-44167818D01*
X13003082Y-44277156D02*
X13385765Y-43353276D01*
X13385765Y-43353276D02*
X13243108Y-43448813D01*
X13243108Y-43448813D02*
X13118673Y-43500356D01*
X13118673Y-43500356D02*
X13012462Y-43507904D01*
X13965239Y-43696387D02*
X14027456Y-43670616D01*
X14027456Y-43670616D02*
X14133668Y-43663068D01*
X14133668Y-43663068D02*
X14353639Y-43754183D01*
X14353639Y-43754183D02*
X14423405Y-43834623D01*
X14423405Y-43834623D02*
X14449176Y-43896841D01*
X14449176Y-43896841D02*
X14456724Y-44003052D01*
X14456724Y-44003052D02*
X14420278Y-44091041D01*
X14420278Y-44091041D02*
X14321615Y-44204800D01*
X14321615Y-44204800D02*
X13575007Y-44514055D01*
X13575007Y-44514055D02*
X14146933Y-44750955D01*
X133344025Y-107616187D02*
X133218296Y-107048683D01*
X132816094Y-107397510D02*
X133198777Y-106473631D01*
X133198777Y-106473631D02*
X133550732Y-106619415D01*
X133550732Y-106619415D02*
X133620497Y-106699855D01*
X133620497Y-106699855D02*
X133646268Y-106762073D01*
X133646268Y-106762073D02*
X133653817Y-106868284D01*
X133653817Y-106868284D02*
X133599147Y-107000267D01*
X133599147Y-107000267D02*
X133518707Y-107070033D01*
X133518707Y-107070033D02*
X133456490Y-107095804D01*
X133456490Y-107095804D02*
X133350278Y-107103352D01*
X133350278Y-107103352D02*
X132998324Y-106957568D01*
X134034668Y-106819868D02*
X134606594Y-107056768D01*
X134606594Y-107056768D02*
X134152850Y-107281161D01*
X134152850Y-107281161D02*
X134284833Y-107335830D01*
X134284833Y-107335830D02*
X134354598Y-107416270D01*
X134354598Y-107416270D02*
X134380369Y-107478487D01*
X134380369Y-107478487D02*
X134387918Y-107584699D01*
X134387918Y-107584699D02*
X134296803Y-107804670D01*
X134296803Y-107804670D02*
X134216362Y-107874436D01*
X134216362Y-107874436D02*
X134154145Y-107900207D01*
X134154145Y-107900207D02*
X134047933Y-107907755D01*
X134047933Y-107907755D02*
X133783968Y-107798417D01*
X133783968Y-107798417D02*
X133714202Y-107717977D01*
X133714202Y-107717977D02*
X133688431Y-107655759D01*
X134922102Y-107290540D02*
X134984319Y-107264769D01*
X134984319Y-107264769D02*
X135090531Y-107257221D01*
X135090531Y-107257221D02*
X135310502Y-107348336D01*
X135310502Y-107348336D02*
X135380268Y-107428776D01*
X135380268Y-107428776D02*
X135406039Y-107490994D01*
X135406039Y-107490994D02*
X135413587Y-107597205D01*
X135413587Y-107597205D02*
X135377141Y-107685194D01*
X135377141Y-107685194D02*
X135278478Y-107798953D01*
X135278478Y-107798953D02*
X134531870Y-108108208D01*
X134531870Y-108108208D02*
X135103796Y-108345108D01*
X92137337Y-9387410D02*
X91352709Y-9231338D01*
X91352709Y-9231338D02*
X91389869Y-9044521D01*
X91389869Y-9044521D02*
X91449528Y-8939864D01*
X91449528Y-8939864D02*
X91539119Y-8880001D01*
X91539119Y-8880001D02*
X91621277Y-8857502D01*
X91621277Y-8857502D02*
X91778162Y-8849867D01*
X91778162Y-8849867D02*
X91890252Y-8872163D01*
X91890252Y-8872163D02*
X92032273Y-8939254D01*
X92032273Y-8939254D02*
X92099568Y-8991481D01*
X92099568Y-8991481D02*
X92159430Y-9081072D01*
X92159430Y-9081072D02*
X92174497Y-9200594D01*
X92174497Y-9200594D02*
X92137337Y-9387410D01*
X91583101Y-8073077D02*
X91508781Y-8446709D01*
X91508781Y-8446709D02*
X91874982Y-8558393D01*
X91874982Y-8558393D02*
X91845050Y-8513597D01*
X91845050Y-8513597D02*
X91822551Y-8431439D01*
X91822551Y-8431439D02*
X91859711Y-8244623D01*
X91859711Y-8244623D02*
X91911939Y-8177328D01*
X91911939Y-8177328D02*
X91956734Y-8147397D01*
X91956734Y-8147397D02*
X92038892Y-8124898D01*
X92038892Y-8124898D02*
X92225709Y-8162058D01*
X92225709Y-8162058D02*
X92293003Y-8214285D01*
X92293003Y-8214285D02*
X92322934Y-8259080D01*
X92322934Y-8259080D02*
X92345434Y-8341239D01*
X92345434Y-8341239D02*
X92308274Y-8528055D01*
X92308274Y-8528055D02*
X92256046Y-8595350D01*
X92256046Y-8595350D02*
X92211251Y-8625281D01*
X96783865Y-7180169D02*
X97484426Y-7319519D01*
X97484426Y-7319519D02*
X97615248Y-7394093D01*
X97615248Y-7394093D02*
X97690076Y-7506081D01*
X97690076Y-7506081D02*
X97708910Y-7655483D01*
X97708910Y-7655483D02*
X97690330Y-7748891D01*
X97959741Y-6394473D02*
X97848260Y-6954922D01*
X97904000Y-6674698D02*
X96923215Y-6479607D01*
X96923215Y-6479607D02*
X97044747Y-6600886D01*
X97044747Y-6600886D02*
X97119575Y-6712874D01*
X97119575Y-6712874D02*
X97147699Y-6815572D01*
X86205389Y-5878937D02*
X86361461Y-5094309D01*
X86361461Y-5094309D02*
X86548278Y-5131469D01*
X86548278Y-5131469D02*
X86652935Y-5191128D01*
X86652935Y-5191128D02*
X86712798Y-5280719D01*
X86712798Y-5280719D02*
X86735297Y-5362877D01*
X86735297Y-5362877D02*
X86742932Y-5519762D01*
X86742932Y-5519762D02*
X86720636Y-5631852D01*
X86720636Y-5631852D02*
X86653545Y-5773873D01*
X86653545Y-5773873D02*
X86601318Y-5841168D01*
X86601318Y-5841168D02*
X86511727Y-5901030D01*
X86511727Y-5901030D02*
X86392205Y-5916097D01*
X86392205Y-5916097D02*
X86205389Y-5878937D01*
X87430335Y-5578812D02*
X87326287Y-6101898D01*
X87302975Y-5242746D02*
X87004678Y-5766035D01*
X87004678Y-5766035D02*
X87490401Y-5862651D01*
X145600225Y-55787975D02*
X145110035Y-55475593D01*
X145072294Y-56006651D02*
X144689610Y-55082772D01*
X144689610Y-55082772D02*
X145041564Y-54936987D01*
X145041564Y-54936987D02*
X145147776Y-54944536D01*
X145147776Y-54944536D02*
X145209993Y-54970307D01*
X145209993Y-54970307D02*
X145290433Y-55040072D01*
X145290433Y-55040072D02*
X145345102Y-55172055D01*
X145345102Y-55172055D02*
X145337554Y-55278267D01*
X145337554Y-55278267D02*
X145311783Y-55340484D01*
X145311783Y-55340484D02*
X145242017Y-55420924D01*
X145242017Y-55420924D02*
X144890063Y-55566709D01*
X145605941Y-54806300D02*
X145631713Y-54744082D01*
X145631713Y-54744082D02*
X145701478Y-54663642D01*
X145701478Y-54663642D02*
X145921450Y-54572527D01*
X145921450Y-54572527D02*
X146027661Y-54580075D01*
X146027661Y-54580075D02*
X146089878Y-54605847D01*
X146089878Y-54605847D02*
X146170319Y-54675612D01*
X146170319Y-54675612D02*
X146206765Y-54763601D01*
X146206765Y-54763601D02*
X146217439Y-54913806D01*
X146217439Y-54913806D02*
X145908185Y-55660414D01*
X145908185Y-55660414D02*
X146480110Y-55423514D01*
X56983333Y-32998580D02*
X56935714Y-33046200D01*
X56935714Y-33046200D02*
X56792857Y-33093819D01*
X56792857Y-33093819D02*
X56697619Y-33093819D01*
X56697619Y-33093819D02*
X56554762Y-33046200D01*
X56554762Y-33046200D02*
X56459524Y-32950961D01*
X56459524Y-32950961D02*
X56411905Y-32855723D01*
X56411905Y-32855723D02*
X56364286Y-32665247D01*
X56364286Y-32665247D02*
X56364286Y-32522390D01*
X56364286Y-32522390D02*
X56411905Y-32331914D01*
X56411905Y-32331914D02*
X56459524Y-32236676D01*
X56459524Y-32236676D02*
X56554762Y-32141438D01*
X56554762Y-32141438D02*
X56697619Y-32093819D01*
X56697619Y-32093819D02*
X56792857Y-32093819D01*
X56792857Y-32093819D02*
X56935714Y-32141438D01*
X56935714Y-32141438D02*
X56983333Y-32189057D01*
X57935714Y-33093819D02*
X57364286Y-33093819D01*
X57650000Y-33093819D02*
X57650000Y-32093819D01*
X57650000Y-32093819D02*
X57554762Y-32236676D01*
X57554762Y-32236676D02*
X57459524Y-32331914D01*
X57459524Y-32331914D02*
X57364286Y-32379533D01*
X148495832Y-83654819D02*
X148162499Y-83178628D01*
X147924404Y-83654819D02*
X147924404Y-82654819D01*
X147924404Y-82654819D02*
X148305356Y-82654819D01*
X148305356Y-82654819D02*
X148400594Y-82702438D01*
X148400594Y-82702438D02*
X148448213Y-82750057D01*
X148448213Y-82750057D02*
X148495832Y-82845295D01*
X148495832Y-82845295D02*
X148495832Y-82988152D01*
X148495832Y-82988152D02*
X148448213Y-83083390D01*
X148448213Y-83083390D02*
X148400594Y-83131009D01*
X148400594Y-83131009D02*
X148305356Y-83178628D01*
X148305356Y-83178628D02*
X147924404Y-83178628D01*
X149448213Y-83654819D02*
X148876785Y-83654819D01*
X149162499Y-83654819D02*
X149162499Y-82654819D01*
X149162499Y-82654819D02*
X149067261Y-82797676D01*
X149067261Y-82797676D02*
X148972023Y-82892914D01*
X148972023Y-82892914D02*
X148876785Y-82940533D01*
X107671417Y-20267031D02*
X107103913Y-20392760D01*
X107452741Y-20794962D02*
X106528861Y-20412278D01*
X106528861Y-20412278D02*
X106674646Y-20060324D01*
X106674646Y-20060324D02*
X106755086Y-19990559D01*
X106755086Y-19990559D02*
X106817303Y-19964788D01*
X106817303Y-19964788D02*
X106923515Y-19957239D01*
X106923515Y-19957239D02*
X107055497Y-20011908D01*
X107055497Y-20011908D02*
X107125263Y-20092349D01*
X107125263Y-20092349D02*
X107151034Y-20154566D01*
X107151034Y-20154566D02*
X107158582Y-20260778D01*
X107158582Y-20260778D02*
X107012798Y-20612732D01*
X107362162Y-19520423D02*
X107281722Y-19590189D01*
X107281722Y-19590189D02*
X107219505Y-19615960D01*
X107219505Y-19615960D02*
X107113293Y-19623508D01*
X107113293Y-19623508D02*
X107069299Y-19605285D01*
X107069299Y-19605285D02*
X106999533Y-19524845D01*
X106999533Y-19524845D02*
X106973762Y-19462628D01*
X106973762Y-19462628D02*
X106966214Y-19356416D01*
X106966214Y-19356416D02*
X107039106Y-19180439D01*
X107039106Y-19180439D02*
X107119546Y-19110674D01*
X107119546Y-19110674D02*
X107181764Y-19084902D01*
X107181764Y-19084902D02*
X107287975Y-19077354D01*
X107287975Y-19077354D02*
X107331969Y-19095577D01*
X107331969Y-19095577D02*
X107401735Y-19176017D01*
X107401735Y-19176017D02*
X107427506Y-19238235D01*
X107427506Y-19238235D02*
X107435054Y-19344446D01*
X107435054Y-19344446D02*
X107362162Y-19520423D01*
X107362162Y-19520423D02*
X107369710Y-19626635D01*
X107369710Y-19626635D02*
X107395482Y-19688852D01*
X107395482Y-19688852D02*
X107465247Y-19769292D01*
X107465247Y-19769292D02*
X107641224Y-19842185D01*
X107641224Y-19842185D02*
X107747436Y-19834636D01*
X107747436Y-19834636D02*
X107809653Y-19808865D01*
X107809653Y-19808865D02*
X107890093Y-19739100D01*
X107890093Y-19739100D02*
X107962985Y-19563122D01*
X107962985Y-19563122D02*
X107955437Y-19456911D01*
X107955437Y-19456911D02*
X107929666Y-19394694D01*
X107929666Y-19394694D02*
X107859900Y-19314253D01*
X107859900Y-19314253D02*
X107683923Y-19241361D01*
X107683923Y-19241361D02*
X107577712Y-19248909D01*
X107577712Y-19248909D02*
X107515495Y-19274681D01*
X107515495Y-19274681D02*
X107435054Y-19344446D01*
X99149414Y-10428429D02*
X99087197Y-10454200D01*
X99087197Y-10454200D02*
X98936991Y-10443525D01*
X98936991Y-10443525D02*
X98849003Y-10407079D01*
X98849003Y-10407079D02*
X98735243Y-10308416D01*
X98735243Y-10308416D02*
X98683700Y-10183981D01*
X98683700Y-10183981D02*
X98676152Y-10077770D01*
X98676152Y-10077770D02*
X98705050Y-9883569D01*
X98705050Y-9883569D02*
X98759719Y-9751587D01*
X98759719Y-9751587D02*
X98876605Y-9593833D01*
X98876605Y-9593833D02*
X98957046Y-9524067D01*
X98957046Y-9524067D02*
X99081480Y-9472525D01*
X99081480Y-9472525D02*
X99231686Y-9483199D01*
X99231686Y-9483199D02*
X99319675Y-9519646D01*
X99319675Y-9519646D02*
X99433434Y-9618309D01*
X99433434Y-9618309D02*
X99459206Y-9680526D01*
X100287548Y-9920552D02*
X100111571Y-9847660D01*
X100111571Y-9847660D02*
X100005360Y-9855208D01*
X100005360Y-9855208D02*
X99943143Y-9880979D01*
X99943143Y-9880979D02*
X99800485Y-9976516D01*
X99800485Y-9976516D02*
X99683599Y-10134270D01*
X99683599Y-10134270D02*
X99537814Y-10486224D01*
X99537814Y-10486224D02*
X99545363Y-10592436D01*
X99545363Y-10592436D02*
X99571134Y-10654653D01*
X99571134Y-10654653D02*
X99640899Y-10735093D01*
X99640899Y-10735093D02*
X99816877Y-10807985D01*
X99816877Y-10807985D02*
X99923088Y-10800437D01*
X99923088Y-10800437D02*
X99985305Y-10774666D01*
X99985305Y-10774666D02*
X100065746Y-10704900D01*
X100065746Y-10704900D02*
X100156861Y-10484929D01*
X100156861Y-10484929D02*
X100149313Y-10378718D01*
X100149313Y-10378718D02*
X100123541Y-10316500D01*
X100123541Y-10316500D02*
X100053776Y-10236060D01*
X100053776Y-10236060D02*
X99877799Y-10163168D01*
X99877799Y-10163168D02*
X99771587Y-10170716D01*
X99771587Y-10170716D02*
X99709370Y-10196487D01*
X99709370Y-10196487D02*
X99628930Y-10266253D01*
X86147980Y-15546266D02*
X86195600Y-15593885D01*
X86195600Y-15593885D02*
X86243219Y-15736742D01*
X86243219Y-15736742D02*
X86243219Y-15831980D01*
X86243219Y-15831980D02*
X86195600Y-15974837D01*
X86195600Y-15974837D02*
X86100361Y-16070075D01*
X86100361Y-16070075D02*
X86005123Y-16117694D01*
X86005123Y-16117694D02*
X85814647Y-16165313D01*
X85814647Y-16165313D02*
X85671790Y-16165313D01*
X85671790Y-16165313D02*
X85481314Y-16117694D01*
X85481314Y-16117694D02*
X85386076Y-16070075D01*
X85386076Y-16070075D02*
X85290838Y-15974837D01*
X85290838Y-15974837D02*
X85243219Y-15831980D01*
X85243219Y-15831980D02*
X85243219Y-15736742D01*
X85243219Y-15736742D02*
X85290838Y-15593885D01*
X85290838Y-15593885D02*
X85338457Y-15546266D01*
X86243219Y-15070075D02*
X86243219Y-14879599D01*
X86243219Y-14879599D02*
X86195600Y-14784361D01*
X86195600Y-14784361D02*
X86147980Y-14736742D01*
X86147980Y-14736742D02*
X86005123Y-14641504D01*
X86005123Y-14641504D02*
X85814647Y-14593885D01*
X85814647Y-14593885D02*
X85433695Y-14593885D01*
X85433695Y-14593885D02*
X85338457Y-14641504D01*
X85338457Y-14641504D02*
X85290838Y-14689123D01*
X85290838Y-14689123D02*
X85243219Y-14784361D01*
X85243219Y-14784361D02*
X85243219Y-14974837D01*
X85243219Y-14974837D02*
X85290838Y-15070075D01*
X85290838Y-15070075D02*
X85338457Y-15117694D01*
X85338457Y-15117694D02*
X85433695Y-15165313D01*
X85433695Y-15165313D02*
X85671790Y-15165313D01*
X85671790Y-15165313D02*
X85767028Y-15117694D01*
X85767028Y-15117694D02*
X85814647Y-15070075D01*
X85814647Y-15070075D02*
X85862266Y-14974837D01*
X85862266Y-14974837D02*
X85862266Y-14784361D01*
X85862266Y-14784361D02*
X85814647Y-14689123D01*
X85814647Y-14689123D02*
X85767028Y-14641504D01*
X85767028Y-14641504D02*
X85671790Y-14593885D01*
X85977333Y-30318780D02*
X85929714Y-30366400D01*
X85929714Y-30366400D02*
X85786857Y-30414019D01*
X85786857Y-30414019D02*
X85691619Y-30414019D01*
X85691619Y-30414019D02*
X85548762Y-30366400D01*
X85548762Y-30366400D02*
X85453524Y-30271161D01*
X85453524Y-30271161D02*
X85405905Y-30175923D01*
X85405905Y-30175923D02*
X85358286Y-29985447D01*
X85358286Y-29985447D02*
X85358286Y-29842590D01*
X85358286Y-29842590D02*
X85405905Y-29652114D01*
X85405905Y-29652114D02*
X85453524Y-29556876D01*
X85453524Y-29556876D02*
X85548762Y-29461638D01*
X85548762Y-29461638D02*
X85691619Y-29414019D01*
X85691619Y-29414019D02*
X85786857Y-29414019D01*
X85786857Y-29414019D02*
X85929714Y-29461638D01*
X85929714Y-29461638D02*
X85977333Y-29509257D01*
X86310667Y-29414019D02*
X86929714Y-29414019D01*
X86929714Y-29414019D02*
X86596381Y-29794971D01*
X86596381Y-29794971D02*
X86739238Y-29794971D01*
X86739238Y-29794971D02*
X86834476Y-29842590D01*
X86834476Y-29842590D02*
X86882095Y-29890209D01*
X86882095Y-29890209D02*
X86929714Y-29985447D01*
X86929714Y-29985447D02*
X86929714Y-30223542D01*
X86929714Y-30223542D02*
X86882095Y-30318780D01*
X86882095Y-30318780D02*
X86834476Y-30366400D01*
X86834476Y-30366400D02*
X86739238Y-30414019D01*
X86739238Y-30414019D02*
X86453524Y-30414019D01*
X86453524Y-30414019D02*
X86358286Y-30366400D01*
X86358286Y-30366400D02*
X86310667Y-30318780D01*
X51331905Y-26304419D02*
X51331905Y-25304419D01*
X51331905Y-25304419D02*
X51570000Y-25304419D01*
X51570000Y-25304419D02*
X51712857Y-25352038D01*
X51712857Y-25352038D02*
X51808095Y-25447276D01*
X51808095Y-25447276D02*
X51855714Y-25542514D01*
X51855714Y-25542514D02*
X51903333Y-25732990D01*
X51903333Y-25732990D02*
X51903333Y-25875847D01*
X51903333Y-25875847D02*
X51855714Y-26066323D01*
X51855714Y-26066323D02*
X51808095Y-26161561D01*
X51808095Y-26161561D02*
X51712857Y-26256800D01*
X51712857Y-26256800D02*
X51570000Y-26304419D01*
X51570000Y-26304419D02*
X51331905Y-26304419D01*
X52284286Y-25399657D02*
X52331905Y-25352038D01*
X52331905Y-25352038D02*
X52427143Y-25304419D01*
X52427143Y-25304419D02*
X52665238Y-25304419D01*
X52665238Y-25304419D02*
X52760476Y-25352038D01*
X52760476Y-25352038D02*
X52808095Y-25399657D01*
X52808095Y-25399657D02*
X52855714Y-25494895D01*
X52855714Y-25494895D02*
X52855714Y-25590133D01*
X52855714Y-25590133D02*
X52808095Y-25732990D01*
X52808095Y-25732990D02*
X52236667Y-26304419D01*
X52236667Y-26304419D02*
X52855714Y-26304419D01*
X68431580Y-29757666D02*
X68479200Y-29805285D01*
X68479200Y-29805285D02*
X68526819Y-29948142D01*
X68526819Y-29948142D02*
X68526819Y-30043380D01*
X68526819Y-30043380D02*
X68479200Y-30186237D01*
X68479200Y-30186237D02*
X68383961Y-30281475D01*
X68383961Y-30281475D02*
X68288723Y-30329094D01*
X68288723Y-30329094D02*
X68098247Y-30376713D01*
X68098247Y-30376713D02*
X67955390Y-30376713D01*
X67955390Y-30376713D02*
X67764914Y-30329094D01*
X67764914Y-30329094D02*
X67669676Y-30281475D01*
X67669676Y-30281475D02*
X67574438Y-30186237D01*
X67574438Y-30186237D02*
X67526819Y-30043380D01*
X67526819Y-30043380D02*
X67526819Y-29948142D01*
X67526819Y-29948142D02*
X67574438Y-29805285D01*
X67574438Y-29805285D02*
X67622057Y-29757666D01*
X67526819Y-28852904D02*
X67526819Y-29329094D01*
X67526819Y-29329094D02*
X68003009Y-29376713D01*
X68003009Y-29376713D02*
X67955390Y-29329094D01*
X67955390Y-29329094D02*
X67907771Y-29233856D01*
X67907771Y-29233856D02*
X67907771Y-28995761D01*
X67907771Y-28995761D02*
X67955390Y-28900523D01*
X67955390Y-28900523D02*
X68003009Y-28852904D01*
X68003009Y-28852904D02*
X68098247Y-28805285D01*
X68098247Y-28805285D02*
X68336342Y-28805285D01*
X68336342Y-28805285D02*
X68431580Y-28852904D01*
X68431580Y-28852904D02*
X68479200Y-28900523D01*
X68479200Y-28900523D02*
X68526819Y-28995761D01*
X68526819Y-28995761D02*
X68526819Y-29233856D01*
X68526819Y-29233856D02*
X68479200Y-29329094D01*
X68479200Y-29329094D02*
X68431580Y-29376713D01*
X65075600Y-32626132D02*
X65123219Y-32483275D01*
X65123219Y-32483275D02*
X65123219Y-32245180D01*
X65123219Y-32245180D02*
X65075600Y-32149942D01*
X65075600Y-32149942D02*
X65027980Y-32102323D01*
X65027980Y-32102323D02*
X64932742Y-32054704D01*
X64932742Y-32054704D02*
X64837504Y-32054704D01*
X64837504Y-32054704D02*
X64742266Y-32102323D01*
X64742266Y-32102323D02*
X64694647Y-32149942D01*
X64694647Y-32149942D02*
X64647028Y-32245180D01*
X64647028Y-32245180D02*
X64599409Y-32435656D01*
X64599409Y-32435656D02*
X64551790Y-32530894D01*
X64551790Y-32530894D02*
X64504171Y-32578513D01*
X64504171Y-32578513D02*
X64408933Y-32626132D01*
X64408933Y-32626132D02*
X64313695Y-32626132D01*
X64313695Y-32626132D02*
X64218457Y-32578513D01*
X64218457Y-32578513D02*
X64170838Y-32530894D01*
X64170838Y-32530894D02*
X64123219Y-32435656D01*
X64123219Y-32435656D02*
X64123219Y-32197561D01*
X64123219Y-32197561D02*
X64170838Y-32054704D01*
X64123219Y-31721370D02*
X65123219Y-31483275D01*
X65123219Y-31483275D02*
X64408933Y-31292799D01*
X64408933Y-31292799D02*
X65123219Y-31102323D01*
X65123219Y-31102323D02*
X64123219Y-30864228D01*
X65123219Y-29959466D02*
X65123219Y-30530894D01*
X65123219Y-30245180D02*
X64123219Y-30245180D01*
X64123219Y-30245180D02*
X64266076Y-30340418D01*
X64266076Y-30340418D02*
X64361314Y-30435656D01*
X64361314Y-30435656D02*
X64408933Y-30530894D01*
X92786267Y-29655200D02*
X92929124Y-29702819D01*
X92929124Y-29702819D02*
X93167219Y-29702819D01*
X93167219Y-29702819D02*
X93262457Y-29655200D01*
X93262457Y-29655200D02*
X93310076Y-29607580D01*
X93310076Y-29607580D02*
X93357695Y-29512342D01*
X93357695Y-29512342D02*
X93357695Y-29417104D01*
X93357695Y-29417104D02*
X93310076Y-29321866D01*
X93310076Y-29321866D02*
X93262457Y-29274247D01*
X93262457Y-29274247D02*
X93167219Y-29226628D01*
X93167219Y-29226628D02*
X92976743Y-29179009D01*
X92976743Y-29179009D02*
X92881505Y-29131390D01*
X92881505Y-29131390D02*
X92833886Y-29083771D01*
X92833886Y-29083771D02*
X92786267Y-28988533D01*
X92786267Y-28988533D02*
X92786267Y-28893295D01*
X92786267Y-28893295D02*
X92833886Y-28798057D01*
X92833886Y-28798057D02*
X92881505Y-28750438D01*
X92881505Y-28750438D02*
X92976743Y-28702819D01*
X92976743Y-28702819D02*
X93214838Y-28702819D01*
X93214838Y-28702819D02*
X93357695Y-28750438D01*
X93691029Y-28702819D02*
X93929124Y-29702819D01*
X93929124Y-29702819D02*
X94119600Y-28988533D01*
X94119600Y-28988533D02*
X94310076Y-29702819D01*
X94310076Y-29702819D02*
X94548172Y-28702819D01*
X94881505Y-28798057D02*
X94929124Y-28750438D01*
X94929124Y-28750438D02*
X95024362Y-28702819D01*
X95024362Y-28702819D02*
X95262457Y-28702819D01*
X95262457Y-28702819D02*
X95357695Y-28750438D01*
X95357695Y-28750438D02*
X95405314Y-28798057D01*
X95405314Y-28798057D02*
X95452933Y-28893295D01*
X95452933Y-28893295D02*
X95452933Y-28988533D01*
X95452933Y-28988533D02*
X95405314Y-29131390D01*
X95405314Y-29131390D02*
X94833886Y-29702819D01*
X94833886Y-29702819D02*
X95452933Y-29702819D01*
X68476019Y-13996894D02*
X67476019Y-13996894D01*
X67476019Y-13996894D02*
X67476019Y-13758799D01*
X67476019Y-13758799D02*
X67523638Y-13615942D01*
X67523638Y-13615942D02*
X67618876Y-13520704D01*
X67618876Y-13520704D02*
X67714114Y-13473085D01*
X67714114Y-13473085D02*
X67904590Y-13425466D01*
X67904590Y-13425466D02*
X68047447Y-13425466D01*
X68047447Y-13425466D02*
X68237923Y-13473085D01*
X68237923Y-13473085D02*
X68333161Y-13520704D01*
X68333161Y-13520704D02*
X68428400Y-13615942D01*
X68428400Y-13615942D02*
X68476019Y-13758799D01*
X68476019Y-13758799D02*
X68476019Y-13996894D01*
X68476019Y-12473085D02*
X68476019Y-13044513D01*
X68476019Y-12758799D02*
X67476019Y-12758799D01*
X67476019Y-12758799D02*
X67618876Y-12854037D01*
X67618876Y-12854037D02*
X67714114Y-12949275D01*
X67714114Y-12949275D02*
X67761733Y-13044513D01*
X83654819Y-5504167D02*
X83178628Y-5837500D01*
X83654819Y-6075595D02*
X82654819Y-6075595D01*
X82654819Y-6075595D02*
X82654819Y-5694643D01*
X82654819Y-5694643D02*
X82702438Y-5599405D01*
X82702438Y-5599405D02*
X82750057Y-5551786D01*
X82750057Y-5551786D02*
X82845295Y-5504167D01*
X82845295Y-5504167D02*
X82988152Y-5504167D01*
X82988152Y-5504167D02*
X83083390Y-5551786D01*
X83083390Y-5551786D02*
X83131009Y-5599405D01*
X83131009Y-5599405D02*
X83178628Y-5694643D01*
X83178628Y-5694643D02*
X83178628Y-6075595D01*
X83654819Y-5027976D02*
X83654819Y-4837500D01*
X83654819Y-4837500D02*
X83607200Y-4742262D01*
X83607200Y-4742262D02*
X83559580Y-4694643D01*
X83559580Y-4694643D02*
X83416723Y-4599405D01*
X83416723Y-4599405D02*
X83226247Y-4551786D01*
X83226247Y-4551786D02*
X82845295Y-4551786D01*
X82845295Y-4551786D02*
X82750057Y-4599405D01*
X82750057Y-4599405D02*
X82702438Y-4647024D01*
X82702438Y-4647024D02*
X82654819Y-4742262D01*
X82654819Y-4742262D02*
X82654819Y-4932738D01*
X82654819Y-4932738D02*
X82702438Y-5027976D01*
X82702438Y-5027976D02*
X82750057Y-5075595D01*
X82750057Y-5075595D02*
X82845295Y-5123214D01*
X82845295Y-5123214D02*
X83083390Y-5123214D01*
X83083390Y-5123214D02*
X83178628Y-5075595D01*
X83178628Y-5075595D02*
X83226247Y-5027976D01*
X83226247Y-5027976D02*
X83273866Y-4932738D01*
X83273866Y-4932738D02*
X83273866Y-4742262D01*
X83273866Y-4742262D02*
X83226247Y-4647024D01*
X83226247Y-4647024D02*
X83178628Y-4599405D01*
X83178628Y-4599405D02*
X83083390Y-4551786D01*
X21809969Y-124065063D02*
X21237550Y-123964048D01*
X21405908Y-124469124D02*
X20698802Y-123762017D01*
X20698802Y-123762017D02*
X20968176Y-123492643D01*
X20968176Y-123492643D02*
X21069191Y-123458971D01*
X21069191Y-123458971D02*
X21136534Y-123458971D01*
X21136534Y-123458971D02*
X21237550Y-123492643D01*
X21237550Y-123492643D02*
X21338565Y-123593658D01*
X21338565Y-123593658D02*
X21372237Y-123694674D01*
X21372237Y-123694674D02*
X21372237Y-123762017D01*
X21372237Y-123762017D02*
X21338565Y-123863032D01*
X21338565Y-123863032D02*
X21069191Y-124132406D01*
X22483404Y-123391628D02*
X22079343Y-123795689D01*
X22281374Y-123593658D02*
X21574267Y-122886552D01*
X21574267Y-122886552D02*
X21607939Y-123054910D01*
X21607939Y-123054910D02*
X21607939Y-123189597D01*
X21607939Y-123189597D02*
X21574267Y-123290613D01*
X22820122Y-123054910D02*
X22954809Y-122920223D01*
X22954809Y-122920223D02*
X22988481Y-122819208D01*
X22988481Y-122819208D02*
X22988481Y-122751864D01*
X22988481Y-122751864D02*
X22954809Y-122583506D01*
X22954809Y-122583506D02*
X22853794Y-122415147D01*
X22853794Y-122415147D02*
X22584420Y-122145773D01*
X22584420Y-122145773D02*
X22483405Y-122112101D01*
X22483405Y-122112101D02*
X22416061Y-122112101D01*
X22416061Y-122112101D02*
X22315046Y-122145773D01*
X22315046Y-122145773D02*
X22180359Y-122280460D01*
X22180359Y-122280460D02*
X22146687Y-122381475D01*
X22146687Y-122381475D02*
X22146687Y-122448819D01*
X22146687Y-122448819D02*
X22180359Y-122549834D01*
X22180359Y-122549834D02*
X22348718Y-122718193D01*
X22348718Y-122718193D02*
X22449733Y-122751864D01*
X22449733Y-122751864D02*
X22517076Y-122751864D01*
X22517076Y-122751864D02*
X22618092Y-122718193D01*
X22618092Y-122718193D02*
X22752779Y-122583506D01*
X22752779Y-122583506D02*
X22786450Y-122482490D01*
X22786450Y-122482490D02*
X22786450Y-122415147D01*
X22786450Y-122415147D02*
X22752779Y-122314132D01*
X91782895Y-21468019D02*
X91782895Y-22277542D01*
X91782895Y-22277542D02*
X91830514Y-22372780D01*
X91830514Y-22372780D02*
X91878133Y-22420400D01*
X91878133Y-22420400D02*
X91973371Y-22468019D01*
X91973371Y-22468019D02*
X92163847Y-22468019D01*
X92163847Y-22468019D02*
X92259085Y-22420400D01*
X92259085Y-22420400D02*
X92306704Y-22372780D01*
X92306704Y-22372780D02*
X92354323Y-22277542D01*
X92354323Y-22277542D02*
X92354323Y-21468019D01*
X92782895Y-21563257D02*
X92830514Y-21515638D01*
X92830514Y-21515638D02*
X92925752Y-21468019D01*
X92925752Y-21468019D02*
X93163847Y-21468019D01*
X93163847Y-21468019D02*
X93259085Y-21515638D01*
X93259085Y-21515638D02*
X93306704Y-21563257D01*
X93306704Y-21563257D02*
X93354323Y-21658495D01*
X93354323Y-21658495D02*
X93354323Y-21753733D01*
X93354323Y-21753733D02*
X93306704Y-21896590D01*
X93306704Y-21896590D02*
X92735276Y-22468019D01*
X92735276Y-22468019D02*
X93354323Y-22468019D01*
X56818311Y-10299924D02*
X56957662Y-11000485D01*
X56957662Y-11000485D02*
X56938828Y-11149887D01*
X56938828Y-11149887D02*
X56864000Y-11261875D01*
X56864000Y-11261875D02*
X56733177Y-11336450D01*
X56733177Y-11336450D02*
X56639769Y-11355030D01*
X57257228Y-10309722D02*
X57294642Y-10253728D01*
X57294642Y-10253728D02*
X57378760Y-10188444D01*
X57378760Y-10188444D02*
X57612281Y-10141994D01*
X57612281Y-10141994D02*
X57714979Y-10170118D01*
X57714979Y-10170118D02*
X57770973Y-10207532D01*
X57770973Y-10207532D02*
X57836257Y-10291650D01*
X57836257Y-10291650D02*
X57854837Y-10385058D01*
X57854837Y-10385058D02*
X57836003Y-10534460D01*
X57836003Y-10534460D02*
X57387034Y-11206389D01*
X57387034Y-11206389D02*
X57994187Y-11085619D01*
D11*
X88231200Y-32035764D02*
X88231200Y-32251436D01*
X87511200Y-32035764D02*
X87511200Y-32251436D01*
X34677807Y-28670883D02*
X34342274Y-28335350D01*
X35416734Y-27931956D02*
X35081201Y-27596423D01*
D12*
X84577600Y-38803500D02*
X69150600Y-38803500D01*
X84577600Y-34103500D02*
X84577600Y-38803500D01*
X69150600Y-38803500D02*
X69150600Y-34103500D01*
X69150600Y-18676500D02*
X84577600Y-18676500D01*
D13*
X85214100Y-31570000D02*
G75*
G03*
X85014100Y-31570000I-100000J0D01*
G01*
X85014100Y-31570000D02*
G75*
G03*
X85214100Y-31570000I100000J0D01*
G01*
D11*
X47154220Y-26769600D02*
X47435380Y-26769600D01*
X47154220Y-27789600D02*
X47435380Y-27789600D01*
X131583134Y-29901645D02*
X131247601Y-30237178D01*
X130844207Y-29162718D02*
X130508674Y-29498251D01*
X70701842Y-16867500D02*
X71176358Y-16867500D01*
X70701842Y-17912500D02*
X71176358Y-17912500D01*
X124098355Y-131583134D02*
X123762822Y-131247601D01*
X124837282Y-130844207D02*
X124501749Y-130508674D01*
X141100242Y-81247500D02*
X141574758Y-81247500D01*
X141100242Y-82292500D02*
X141574758Y-82292500D01*
X109404527Y-12588654D02*
X109222937Y-13027050D01*
X108439073Y-12188750D02*
X108257483Y-12627146D01*
X12899758Y-72752500D02*
X12425242Y-72752500D01*
X12899758Y-71707500D02*
X12425242Y-71707500D01*
X68386600Y-19377742D02*
X68386600Y-19852258D01*
X67341600Y-19377742D02*
X67341600Y-19852258D01*
X93402402Y-12584363D02*
X95363972Y-12974544D01*
X93402402Y-12584363D02*
X94184714Y-8651414D01*
X95363972Y-12974544D02*
X96146284Y-9041595D01*
X97605927Y-137856349D02*
X97787517Y-138294745D01*
X96640473Y-138256253D02*
X96822063Y-138694649D01*
X99625219Y-145462066D02*
X99443629Y-145023670D01*
X100590673Y-145062162D02*
X100409083Y-144623766D01*
X70749900Y-13140458D02*
X70749900Y-12665942D01*
X71794900Y-13140458D02*
X71794900Y-12665942D01*
X16143651Y-97605927D02*
X15705255Y-97787517D01*
X15743747Y-96640473D02*
X15305351Y-96822063D01*
X141411346Y-109404527D02*
X140972950Y-109222937D01*
X141811250Y-108439073D02*
X141372854Y-108257483D01*
X125329117Y-34677807D02*
X125664650Y-34342274D01*
X126068044Y-35416734D02*
X126403577Y-35081201D01*
X19394563Y-48545673D02*
X18956167Y-48364083D01*
X19794467Y-47580219D02*
X19356071Y-47398629D01*
X8537934Y-99625219D02*
X8976330Y-99443629D01*
X8937838Y-100590673D02*
X9376234Y-100409083D01*
X48545673Y-134605437D02*
X48364083Y-135043833D01*
X47580219Y-134205533D02*
X47398629Y-134643929D01*
X72752500Y-141100242D02*
X72752500Y-141574758D01*
X71707500Y-141100242D02*
X71707500Y-141574758D01*
X81247500Y-12899758D02*
X81247500Y-12425242D01*
X82292500Y-12899758D02*
X82292500Y-12425242D01*
X66854500Y-31347542D02*
X66854500Y-31822058D01*
X65809500Y-31347542D02*
X65809500Y-31822058D01*
X29901645Y-22416866D02*
X30237178Y-22752399D01*
X29162718Y-23155793D02*
X29498251Y-23491326D01*
X45705312Y-12292865D02*
X44550463Y-12771219D01*
X45548365Y-12671768D02*
X40032804Y-14956388D01*
X40032804Y-14956388D02*
X42948852Y-21996350D01*
X45542953Y-12684834D02*
X44850043Y-12971846D01*
X44850043Y-12971846D02*
X45538874Y-14634830D01*
X43464224Y-13545872D02*
X43751237Y-14238781D01*
X43751237Y-14238781D02*
X41025792Y-15367697D01*
X41025792Y-15367697D02*
X42192977Y-18185530D01*
X46183666Y-13447714D02*
X45705312Y-12292865D01*
X46231783Y-14347817D02*
X45542953Y-12684834D01*
X45538874Y-14634830D02*
X46231783Y-14347817D01*
X46805808Y-15733636D02*
X46112899Y-16020649D01*
X46112899Y-16020649D02*
X46495582Y-16944528D01*
X47188492Y-16657516D02*
X46805808Y-15733636D01*
X46495582Y-16944528D02*
X47188492Y-16657516D01*
X47762517Y-18043335D02*
X47069607Y-18330348D01*
X47069607Y-18330348D02*
X47758438Y-19993331D01*
X46085606Y-19874446D02*
X43360161Y-21003362D01*
X43360161Y-21003362D02*
X42192977Y-18185530D01*
X48451347Y-19706318D02*
X47762517Y-18043335D01*
X47758438Y-19993331D02*
X48451347Y-19706318D01*
X46372618Y-20567356D02*
X46085606Y-19874446D01*
X48464413Y-19711730D02*
X45548365Y-12671768D01*
X42948852Y-21996350D02*
X48464413Y-19711730D01*
X5100243Y-71707500D02*
X5574759Y-71707500D01*
X5100243Y-72752500D02*
X5574759Y-72752500D01*
X54374781Y-8537934D02*
X54556371Y-8976330D01*
X53409327Y-8937838D02*
X53590917Y-9376234D01*
X56394073Y-16143651D02*
X56212483Y-15705255D01*
X57359527Y-15743747D02*
X57177937Y-15305351D01*
X71707500Y-148899757D02*
X71707500Y-148425241D01*
X72752500Y-148899757D02*
X72752500Y-148425241D01*
X89441600Y-32187636D02*
X89441600Y-31971964D01*
X90161600Y-32187636D02*
X90161600Y-31971964D01*
X119322193Y-125329117D02*
X119657726Y-125664650D01*
X118583266Y-126068044D02*
X118918799Y-126403577D01*
X28670883Y-119322193D02*
X28335350Y-119657726D01*
X27931956Y-118583266D02*
X27596423Y-118918799D01*
X87622000Y-19654564D02*
X87622000Y-19870236D01*
X86902000Y-19654564D02*
X86902000Y-19870236D01*
X96536766Y-10989098D02*
X96644361Y-10729340D01*
X97479123Y-11379436D02*
X97586718Y-11119678D01*
X44595473Y-141411346D02*
X44777063Y-140972950D01*
X45560927Y-141811250D02*
X45742517Y-141372854D01*
D12*
X86774576Y-7945337D02*
X87951518Y-8179446D01*
X87748624Y-9199463D02*
X86571682Y-8965354D01*
D13*
X85890422Y-8279765D02*
G75*
G03*
X85690422Y-8279765I-100000J0D01*
G01*
X85690422Y-8279765D02*
G75*
G03*
X85890422Y-8279765I100000J0D01*
G01*
D11*
X137846349Y-56394073D02*
X138284745Y-56212483D01*
X138246253Y-57359527D02*
X138684649Y-57177937D01*
X12588654Y-44595473D02*
X13027050Y-44777063D01*
X12188750Y-45560927D02*
X12627146Y-45742517D01*
X134605437Y-105454327D02*
X135043833Y-105635917D01*
X134205533Y-106419781D02*
X134643929Y-106601371D01*
D12*
X92489337Y-9384491D02*
X92723446Y-8207549D01*
X93743463Y-8410443D02*
X93509354Y-9587385D01*
D13*
X92923765Y-10368645D02*
G75*
G03*
X92723765Y-10368645I-100000J0D01*
G01*
X92723765Y-10368645D02*
G75*
G03*
X92923765Y-10368645I100000J0D01*
G01*
D14*
X96050135Y-7316744D02*
X96396225Y-5576831D01*
X96050135Y-7316744D02*
X95348873Y-7177254D01*
X96864442Y-3222946D02*
X97169953Y-1687036D01*
X97169953Y-1687036D02*
X89327573Y-106698D01*
X88905114Y-5895511D02*
X88203853Y-5756021D01*
X89788319Y-922256D02*
X96428235Y-2243017D01*
X88203853Y-5756021D02*
X88549943Y-4016108D01*
X89327573Y-106698D02*
X89018160Y-1662224D01*
D12*
X87071909Y-6522937D02*
X88248851Y-6757046D01*
X88045957Y-7777063D02*
X86869015Y-7542954D01*
D13*
X86187755Y-6857365D02*
G75*
G03*
X85987755Y-6857365I-100000J0D01*
G01*
X85987755Y-6857365D02*
G75*
G03*
X86187755Y-6857365I100000J0D01*
G01*
D11*
X145452066Y-54374781D02*
X145013670Y-54556371D01*
X145052162Y-53409327D02*
X144613766Y-53590917D01*
X57510000Y-30884964D02*
X57510000Y-31100636D01*
X56790000Y-30884964D02*
X56790000Y-31100636D01*
X148899757Y-82292500D02*
X148425241Y-82292500D01*
X148899757Y-81247500D02*
X148425241Y-81247500D01*
X105454327Y-19394563D02*
X105635917Y-18956167D01*
X106419781Y-19794467D02*
X106601371Y-19356071D01*
X98330536Y-11696661D02*
X98413070Y-11497406D01*
X98995730Y-11972194D02*
X99078264Y-11772939D01*
X86650400Y-15534180D02*
X86650400Y-15253020D01*
X87670400Y-15534180D02*
X87670400Y-15253020D01*
X86654000Y-32003020D02*
X86654000Y-32284180D01*
X85634000Y-32003020D02*
X85634000Y-32284180D01*
X50585000Y-26544600D02*
X50585000Y-28014600D01*
X50585000Y-28014600D02*
X52870000Y-28014600D01*
X52870000Y-26544600D02*
X50585000Y-26544600D01*
X67699200Y-31692636D02*
X67699200Y-31476964D01*
X68419200Y-31692636D02*
X68419200Y-31476964D01*
X58861600Y-29592800D02*
X58861600Y-29712800D01*
X58861600Y-30722800D02*
X58861600Y-31862800D01*
X58861600Y-32872800D02*
X58861600Y-32992800D01*
X58861600Y-32992800D02*
X63261600Y-32992800D01*
X63261600Y-29592800D02*
X58861600Y-29592800D01*
X63261600Y-29712800D02*
X63261600Y-29592800D01*
X63261600Y-31862800D02*
X63261600Y-30722800D01*
X63261600Y-32992800D02*
X63261600Y-32872800D01*
X96327400Y-33445400D02*
X96327400Y-33325400D01*
X96327400Y-32315400D02*
X96327400Y-31175400D01*
X96327400Y-30165400D02*
X96327400Y-30045400D01*
X96327400Y-30045400D02*
X91927400Y-30045400D01*
X91927400Y-33445400D02*
X96327400Y-33445400D01*
X91927400Y-33325400D02*
X91927400Y-33445400D01*
X91927400Y-31175400D02*
X91927400Y-32315400D01*
X91927400Y-30045400D02*
X91927400Y-30165400D01*
X68810200Y-14388200D02*
X70280200Y-14388200D01*
X70280200Y-14388200D02*
X70280200Y-12103200D01*
X68810200Y-12103200D02*
X68810200Y-14388200D01*
X82292500Y-5100243D02*
X82292500Y-5574759D01*
X81247500Y-5100243D02*
X81247500Y-5574759D01*
X22416866Y-124098355D02*
X22752399Y-123762822D01*
X23155793Y-124837282D02*
X23491326Y-124501749D01*
X96644800Y-20923200D02*
X90634800Y-20923200D01*
X94394800Y-14103200D02*
X90634800Y-14103200D01*
X90634800Y-20923200D02*
X90634800Y-19663200D01*
X90634800Y-14103200D02*
X90634800Y-15363200D01*
X71259703Y-8566476D02*
X71015841Y-7340495D01*
X70918700Y-8338625D02*
X69754010Y-2483336D01*
X69754010Y-2483336D02*
X57376500Y-4945376D01*
X70906941Y-8330768D02*
X70760623Y-7595179D01*
X70760623Y-7595179D02*
X68995210Y-7946341D01*
X70467988Y-6124001D02*
X69732399Y-6270318D01*
X69732399Y-6270318D02*
X69156882Y-3377002D01*
X69156882Y-3377002D02*
X63713524Y-4459753D01*
X70033722Y-8810339D02*
X71259703Y-8566476D01*
X69141527Y-8681930D02*
X70906941Y-8330768D01*
X68995210Y-7946341D02*
X69141527Y-8681930D01*
X67670349Y-8974566D02*
X67524032Y-8238977D01*
X67524032Y-8238977D02*
X61639320Y-9409519D01*
X61785638Y-10145108D02*
X67670349Y-8974566D01*
X61639320Y-9409519D02*
X61785638Y-10145108D01*
X60314460Y-10437743D02*
X60168142Y-9702154D01*
X60168142Y-9702154D02*
X58402728Y-10053317D01*
X58845682Y-8435821D02*
X58270166Y-5542504D01*
X58270166Y-5542504D02*
X63713524Y-4459753D01*
X58549046Y-10788906D02*
X60314460Y-10437743D01*
X58402728Y-10053317D02*
X58549046Y-10788906D01*
X58110093Y-8582139D02*
X58845682Y-8435821D01*
X58541189Y-10800664D02*
X70918700Y-8338625D01*
X57376500Y-4945376D02*
X58541189Y-10800664D01*
%LPC*%
D15*
X79214100Y-28081400D02*
X78555500Y-28740000D01*
X77814100Y-28740000D01*
X77814100Y-27340000D01*
X79214100Y-27340000D01*
X79214100Y-28081400D01*
G36*
X79214100Y-28081400D02*
G01*
X78555500Y-28740000D01*
X77814100Y-28740000D01*
X77814100Y-27340000D01*
X79214100Y-27340000D01*
X79214100Y-28081400D01*
G37*
D16*
X87871200Y-31663600D03*
X87871200Y-32623600D03*
D17*
X35462867Y-28717016D03*
X34296141Y-27550290D03*
D18*
X83864100Y-32340000D03*
X83864100Y-31490000D03*
X83864100Y-30640000D03*
X83864100Y-29790000D03*
X83864100Y-28940000D03*
X83864100Y-28090000D03*
X83864100Y-27240000D03*
X83864100Y-26390000D03*
X83864100Y-25540000D03*
X83864100Y-24690000D03*
X83864100Y-23840000D03*
X83864100Y-22990000D03*
X83864100Y-22140000D03*
X83864100Y-21290000D03*
X83864100Y-20440000D03*
D19*
X82814100Y-19390000D03*
X81964100Y-19390000D03*
X81114100Y-19390000D03*
X80264100Y-19390000D03*
X79414100Y-19390000D03*
X78564100Y-19390000D03*
X77714100Y-19390000D03*
X76864100Y-19390000D03*
X76014100Y-19390000D03*
X75164100Y-19390000D03*
X74314100Y-19390000D03*
X73464100Y-19390000D03*
X72614100Y-19390000D03*
X71764100Y-19390000D03*
X70914100Y-19390000D03*
D18*
X69864100Y-20440000D03*
X69864100Y-21290000D03*
X69864100Y-22140000D03*
X69864100Y-22990000D03*
X69864100Y-23840000D03*
X69864100Y-24690000D03*
X69864100Y-25540000D03*
X69864100Y-26390000D03*
X69864100Y-27240000D03*
X69864100Y-28090000D03*
X69864100Y-28940000D03*
X69864100Y-29790000D03*
X69864100Y-30640000D03*
X69864100Y-31490000D03*
X69864100Y-32340000D03*
D19*
X70914100Y-33390000D03*
X71764100Y-33390000D03*
X72614100Y-33390000D03*
X73464100Y-33390000D03*
X74314100Y-33390000D03*
X75164100Y-33390000D03*
X76014100Y-33390000D03*
X76864100Y-33390000D03*
X77714100Y-33390000D03*
X78564100Y-33390000D03*
X79414100Y-33390000D03*
X80264100Y-33390000D03*
X81114100Y-33390000D03*
X81964100Y-33390000D03*
X82814100Y-33390000D03*
D20*
X76864100Y-28040000D03*
X75214100Y-28040000D03*
X78514100Y-26390000D03*
X76864100Y-26390000D03*
X75214100Y-26390000D03*
X78514100Y-24740000D03*
X76864100Y-24740000D03*
X75214100Y-24740000D03*
D21*
X83864100Y-33390000D03*
X83864100Y-19390000D03*
X69864100Y-19390000D03*
X69864100Y-33390000D03*
D22*
X46519800Y-27279600D03*
X48069800Y-27279600D03*
D23*
X131629267Y-29116585D03*
X130462541Y-30283311D03*
D24*
X70114100Y-17390000D03*
X71764100Y-17390000D03*
D17*
X124883415Y-131629267D03*
X123716689Y-130462541D03*
D24*
X140512500Y-81770000D03*
X142162500Y-81770000D03*
D25*
X109146719Y-11845699D03*
X108515291Y-13370101D03*
D26*
X13487500Y-72230000D03*
X11837500Y-72230000D03*
D27*
X116391000Y-111017000D03*
D28*
X67864100Y-18790000D03*
X67864100Y-20440000D03*
D29*
X94521701Y-12083096D03*
X95165499Y-8846504D03*
D30*
X96898281Y-137513298D03*
X97529709Y-139037700D03*
D31*
X100332865Y-145805117D03*
X99701437Y-144280715D03*
D32*
X71272400Y-13728200D03*
X71272400Y-12078200D03*
D33*
X16486702Y-96898281D03*
X14962300Y-97529709D03*
D34*
X142154301Y-109146719D03*
X140629899Y-108515291D03*
D35*
X125282984Y-35462867D03*
X126449710Y-34296141D03*
D34*
X20137518Y-48287865D03*
X18613116Y-47656437D03*
D36*
X8194883Y-100332865D03*
X9719285Y-99701437D03*
D25*
X48287865Y-133862482D03*
X47656437Y-135386884D03*
D28*
X72230000Y-140512500D03*
X72230000Y-142162500D03*
D32*
X81770000Y-13487500D03*
X81770000Y-11837500D03*
D28*
X66332000Y-30759800D03*
X66332000Y-32409800D03*
D37*
X29116585Y-22370733D03*
X30283311Y-23537459D03*
D38*
X44255291Y-15978301D03*
D39*
X45212000Y-18288000D03*
D24*
X4512501Y-72230000D03*
X6162501Y-72230000D03*
D30*
X53667135Y-8194883D03*
X54298563Y-9719285D03*
D31*
X57101719Y-16486702D03*
X56470291Y-14962300D03*
D27*
X37609000Y-111017000D03*
D32*
X72230000Y-149487499D03*
X72230000Y-147837499D03*
D40*
X89801600Y-32559800D03*
X89801600Y-31599800D03*
D37*
X118537133Y-125282984D03*
X119703859Y-126449710D03*
D23*
X28717016Y-118537133D03*
X27550290Y-119703859D03*
D16*
X87262000Y-19282400D03*
X87262000Y-20242400D03*
D41*
X96765162Y-11770395D03*
X97358322Y-10338381D03*
D42*
X44853281Y-142154301D03*
X45484709Y-140629899D03*
D43*
X86614282Y-8443640D03*
X87908918Y-8701160D03*
D36*
X137503298Y-57101719D03*
X139027700Y-56470291D03*
D27*
X116391000Y-42983000D03*
D44*
X11845699Y-44853281D03*
X13370101Y-45484709D03*
X133862482Y-105712135D03*
X135386884Y-106343563D03*
D45*
X92987640Y-9544785D03*
X93245160Y-8250149D03*
D46*
X93452738Y-6534996D03*
X92815228Y-6408187D03*
X92177717Y-6281378D03*
X91540207Y-6154570D03*
X90902696Y-6027761D03*
D47*
X96225534Y-4384623D03*
D48*
X94556122Y-6754473D03*
X89799313Y-5808284D03*
D47*
X89163880Y-2979972D03*
D43*
X86911615Y-7021240D03*
X88206251Y-7278760D03*
D33*
X145795117Y-53667135D03*
X144270715Y-54298563D03*
D16*
X57150000Y-30512800D03*
X57150000Y-31472800D03*
D26*
X149487499Y-81770000D03*
X147837499Y-81770000D03*
D42*
X105712135Y-20137518D03*
X106343563Y-18613116D03*
D49*
X98520712Y-12178262D03*
X98888088Y-11291338D03*
D50*
X87160400Y-16168600D03*
X87160400Y-14618600D03*
D51*
X86144000Y-31368600D03*
X86144000Y-32918600D03*
D52*
X51282500Y-27279600D03*
X52857500Y-27279600D03*
D40*
X68059200Y-32064800D03*
X68059200Y-31104800D03*
D53*
X58986600Y-30217800D03*
X63136600Y-30217800D03*
X58986600Y-32367800D03*
X63136600Y-32367800D03*
X96202400Y-32820400D03*
X92052400Y-32820400D03*
X96202400Y-30670400D03*
X92052400Y-30670400D03*
D54*
X69545200Y-13690700D03*
X69545200Y-12115700D03*
D28*
X81770000Y-4512501D03*
X81770000Y-6162501D03*
D35*
X22370733Y-124883415D03*
X23537459Y-123716689D03*
D27*
X37609000Y-42983000D03*
D55*
X95694800Y-19813200D03*
X95694800Y-17513200D03*
D56*
X89394800Y-17513200D03*
D55*
X95694800Y-15213200D03*
D57*
X67927967Y-6425324D03*
D58*
X65476004Y-6913050D03*
X63024041Y-7400776D03*
X60572077Y-7888501D03*
D59*
X103506527Y-134600185D03*
D60*
X101267130Y-140560898D03*
X104777870Y-139106702D03*
D61*
X102901552Y-142860476D03*
X100796794Y-137779139D03*
X103143448Y-136807123D03*
X105248206Y-141888460D03*
D59*
X19399815Y-103506527D03*
D60*
X13439102Y-101267130D03*
X14893298Y-104777870D03*
D61*
X11139524Y-102901552D03*
X16220861Y-100796794D03*
X17192877Y-103143448D03*
X12111540Y-105248206D03*
D59*
X120062741Y-30472436D03*
D60*
X126426702Y-30260302D03*
X123739698Y-27573298D03*
D61*
X127925769Y-27870283D03*
X124036682Y-31759369D03*
X122240631Y-29963318D03*
X126129717Y-26074231D03*
D59*
X13650001Y-79450000D03*
D60*
X9000000Y-75100001D03*
X9000000Y-78899999D03*
D61*
X6250001Y-75730000D03*
X11750000Y-75730000D03*
X11750000Y-78270000D03*
X6250001Y-78270000D03*
D59*
X136475334Y-98979517D03*
D60*
X139106702Y-104777870D03*
X140560898Y-101267130D03*
D61*
X141888460Y-105248206D03*
X136807123Y-103143448D03*
X137779139Y-100796794D03*
X142860476Y-102901552D03*
D59*
X140349999Y-74550000D03*
D60*
X145000000Y-78899999D03*
X145000000Y-75100001D03*
D61*
X147749999Y-78270000D03*
X142250000Y-78270000D03*
X142250000Y-75730000D03*
X147749999Y-75730000D03*
D59*
X50493473Y-19399815D03*
D60*
X52732870Y-13439102D03*
X49222130Y-14893298D03*
D61*
X51098448Y-11139524D03*
X53203206Y-16220861D03*
X50856552Y-17192877D03*
X48751794Y-12111540D03*
D59*
X134590185Y-50493473D03*
D60*
X140550898Y-52732870D03*
X139096702Y-49222130D03*
D61*
X142850476Y-51098448D03*
X137769139Y-53203206D03*
X136797123Y-50856552D03*
X141878460Y-48751794D03*
D59*
X74550000Y-13650001D03*
D60*
X78899999Y-9000000D03*
X75100001Y-9000000D03*
D61*
X78270000Y-6250001D03*
X78270000Y-11750000D03*
X75730000Y-11750000D03*
X75730000Y-6250001D03*
D59*
X30472436Y-33937259D03*
D60*
X30260302Y-27573298D03*
X27573298Y-30260302D03*
D61*
X27870283Y-26074231D03*
X31759369Y-29963318D03*
X29963318Y-31759369D03*
X26074231Y-27870283D03*
D59*
X55020483Y-136475334D03*
D60*
X49222130Y-139106702D03*
X52732870Y-140560898D03*
D61*
X48751794Y-141888460D03*
X50856552Y-136807123D03*
X53203206Y-137779139D03*
X51098448Y-142860476D03*
D59*
X17524666Y-55020483D03*
D60*
X14893298Y-49222130D03*
X13439102Y-52732870D03*
D61*
X12111540Y-48751794D03*
X17192877Y-50856552D03*
X16220861Y-53203206D03*
X11139524Y-51098448D03*
D59*
X98979517Y-17524666D03*
D60*
X104777870Y-14893298D03*
X101267130Y-13439102D03*
D61*
X105248206Y-12111540D03*
X103143448Y-17192877D03*
X100796794Y-16220861D03*
X102901552Y-11139524D03*
D59*
X33937259Y-123527564D03*
D60*
X27573298Y-123739698D03*
X30260302Y-126426702D03*
D61*
X26074231Y-126129717D03*
X29963318Y-122240631D03*
X31759369Y-124036682D03*
X27870283Y-127925769D03*
D59*
X79450000Y-140349999D03*
D60*
X75100001Y-145000000D03*
X78899999Y-145000000D03*
D61*
X75730000Y-147749999D03*
X75730000Y-142250000D03*
X78270000Y-142250000D03*
X78270000Y-147749999D03*
D59*
X123527564Y-120062741D03*
D60*
X123739698Y-126426702D03*
X126426702Y-123739698D03*
D61*
X126129717Y-127925769D03*
X122240631Y-124036682D03*
X124036682Y-122240631D03*
X127925769Y-126129717D03*
%LPD*%
M02*
