M48
; DRILL file {KiCad 7.0.10} date Mon Mar 10 14:08:13 2025
; FORMAT={-:-/ absolute / metric / decimal}
; #@! TF.CreationDate,2025-03-10T14:08:13+08:00
; #@! TF.GenerationSoftware,Kicad,Pcbnew,7.0.10
; #@! TF.FileFunction,Plated,1,2,PTH
FMAT,2
METRIC
; #@! TA.AperFunction,Plated,PTH,ViaDrill
T1C0.400
; #@! TA.AperFunction,Plated,PTH,ComponentDrill
T2C0.700
; #@! TA.AperFunction,Plated,PTH,ComponentDrill
T3C0.950
; #@! TA.AperFunction,Plated,PTH,ComponentDrill
T4C0.991
; #@! TA.AperFunction,Plated,PTH,ComponentDrill
T5C1.000
; #@! TA.AperFunction,Plated,PTH,ComponentDrill
T6C2.489
; #@! TA.AperFunction,Plated,PTH,ComponentDrill
T7C3.200
%
G90
G05
T1
X14.151Y-74.866
X17.564Y-75.679
X18.206Y-98.641
X20.434Y-51.067
X20.866Y-99.352
X23.304Y-53.886
X30.264Y-119.875
X33.972Y-30.416
X34.48Y-118.554
X36.97Y-34.938
X44.856Y-27.534
X50.495Y-29.464
X54.305Y-21.641
X55.728Y-30.328
X65.249Y-17.48
X65.301Y-20.136
X65.683Y-24.046
X65.684Y-21.793
X66.229Y-17.48
X66.281Y-20.138
X66.497Y-22.542
X66.548Y-26.247
X66.657Y-24.787
X67.361Y-23.304
X67.408Y-25.483
X68.326Y-14.935
X69.786Y-15.938
X71.018Y-21.895
X71.069Y-26.247
X71.076Y-22.873
X71.31Y-20.561
X71.768Y-32.144
X71.898Y-25.49
X71.933Y-24.384
X71.984Y-23.317
X72.208Y-15.96
X73.101Y-17.678
X77.425Y-15.904
X79.197Y-17.634
X81.216Y-14.821
X82.283Y-23.914
X82.639Y-31.534
X83.299Y-11.773
X83.858Y-17.92
X85.382Y-10.96
X85.992Y-14.618
X85.992Y-18.529
X85.992Y-21.323
X86.347Y-11.671
X87.16Y-17.412
X87.414Y-4.254
X88.836Y-9.266
X88.887Y-14.567
X89.243Y-7.861
X94.983Y-10.35
X97.472Y-19.85
X98.438Y-133.744
X98.742Y-136.233
X105.397Y-21.679
X105.448Y-30.823
X119.393Y-119.748
X120.078Y-123.126
X121.602Y-40.018
X123.33Y-34.531
X131.661Y-55.461
X132.194Y-100.647
X133.803Y-103.221
X136.099Y-55.867
X136.284Y-77.051
X140.195Y-78.372
T2
X89.799Y-5.808
X94.556Y-6.754
T3
X60.572Y-7.889
X63.024Y-7.401
X65.476Y-6.913
X67.928Y-6.425
T4
X6.25Y-75.73
X6.25Y-78.27
X11.14Y-51.098
X11.14Y-102.902
X11.75Y-75.73
X11.75Y-78.27
X12.112Y-48.752
X12.112Y-105.248
X16.221Y-53.203
X16.221Y-100.797
X17.193Y-50.857
X17.193Y-103.143
X26.074Y-27.87
X26.074Y-126.13
X27.87Y-26.074
X27.87Y-127.926
X29.963Y-31.759
X29.963Y-122.241
X31.759Y-29.963
X31.759Y-124.037
X48.752Y-12.112
X48.752Y-141.888
X50.857Y-17.193
X50.857Y-136.807
X51.098Y-11.14
X51.098Y-142.86
X53.203Y-16.221
X53.203Y-137.779
X75.73Y-6.25
X75.73Y-11.75
X75.73Y-142.25
X75.73Y-147.75
X78.27Y-6.25
X78.27Y-11.75
X78.27Y-142.25
X78.27Y-147.75
X100.797Y-16.221
X100.797Y-137.779
X102.902Y-11.14
X102.902Y-142.86
X103.143Y-17.193
X103.143Y-136.807
X105.248Y-12.112
X105.248Y-141.888
X122.241Y-29.963
X122.241Y-124.037
X124.037Y-31.759
X124.037Y-122.241
X126.13Y-26.074
X126.13Y-127.926
X127.926Y-27.87
X127.926Y-126.13
X136.797Y-50.857
X136.807Y-103.143
X137.769Y-53.203
X137.779Y-100.797
X141.878Y-48.752
X141.888Y-105.248
X142.25Y-75.73
X142.25Y-78.27
X142.85Y-51.098
X142.86Y-102.902
X147.75Y-75.73
X147.75Y-78.27
T5
X44.255Y-15.978
X45.212Y-18.288
T6
X9.0Y-75.1
X9.0Y-78.9
X13.439Y-52.733
X13.439Y-101.267
X14.893Y-49.222
X14.893Y-104.778
X27.573Y-30.26
X27.573Y-123.74
X30.26Y-27.573
X30.26Y-126.427
X49.222Y-14.893
X49.222Y-139.107
X52.733Y-13.439
X52.733Y-140.561
X75.1Y-9.0
X75.1Y-145.0
X78.9Y-9.0
X78.9Y-145.0
X101.267Y-13.439
X101.267Y-140.561
X104.778Y-14.893
X104.778Y-139.107
X123.74Y-27.573
X123.74Y-126.427
X126.427Y-30.26
X126.427Y-123.74
X139.097Y-49.222
X139.107Y-104.778
X140.551Y-52.733
X140.561Y-101.267
X145.0Y-75.1
X145.0Y-78.9
T7
X37.609Y-42.983
X37.609Y-111.017
X116.391Y-42.983
X116.391Y-111.017
T2
X89.086Y-3.372G85X89.242Y-2.588
G05
X96.147Y-4.777G85X96.304Y-3.992
G05
M30
