G04 #@! TF.GenerationSoftware,KiCad,Pcbnew,7.0.10*
G04 #@! TF.CreationDate,2025-03-10T14:08:09+08:00*
G04 #@! TF.ProjectId,line_sensor,6c696e65-5f73-4656-9e73-6f722e6b6963,rev?*
G04 #@! TF.SameCoordinates,Original*
G04 #@! TF.FileFunction,Copper,L1,Top*
G04 #@! TF.FilePolarity,Positive*
%FSLAX46Y46*%
G04 Gerber Fmt 4.6, Leading zero omitted, Abs format (unit mm)*
G04 Created by KiCad (PCBNEW 7.0.10) date 2025-03-10 14:08:09*
%MOMM*%
%LPD*%
G01*
G04 APERTURE LIST*
G04 Aperture macros list*
%AMRoundRect*
0 Rectangle with rounded corners*
0 $1 Rounding radius*
0 $2 $3 $4 $5 $6 $7 $8 $9 X,Y pos of 4 corners*
0 Add a 4 corners polygon primitive as box body*
4,1,4,$2,$3,$4,$5,$6,$7,$8,$9,$2,$3,0*
0 Add four circle primitives for the rounded corners*
1,1,$1+$1,$2,$3*
1,1,$1+$1,$4,$5*
1,1,$1+$1,$6,$7*
1,1,$1+$1,$8,$9*
0 Add four rect primitives between the rounded corners*
20,1,$1+$1,$2,$3,$4,$5,0*
20,1,$1+$1,$4,$5,$6,$7,0*
20,1,$1+$1,$6,$7,$8,$9,0*
20,1,$1+$1,$8,$9,$2,$3,0*%
%AMHorizOval*
0 Thick line with rounded ends*
0 $1 width*
0 $2 $3 position (X,Y) of the first rounded end (center of the circle)*
0 $4 $5 position (X,Y) of the second rounded end (center of the circle)*
0 Add line between two ends*
20,1,$1,$2,$3,$4,$5,0*
0 Add two circle primitives to create the rounded ends*
1,1,$1,$2,$3*
1,1,$1,$4,$5*%
%AMRotRect*
0 Rectangle, with rotation*
0 The origin of the aperture is its center*
0 $1 length*
0 $2 width*
0 $3 Rotation angle, in degrees counterclockwise*
0 Add horizontal line*
21,1,$1,$2,0,0,$3*%
%AMFreePoly0*
4,1,15,0.000002,0.605000,0.600000,0.605000,0.603536,0.603536,0.605000,0.600000,0.605000,-0.600000,0.603536,-0.603536,0.600000,-0.605000,-0.600000,-0.605000,-0.603536,-0.603536,-0.605000,-0.600000,-0.605001,0.000000,-0.603536,0.003536,-0.003536,0.603536,0.000000,0.605001,0.000002,0.605000,0.000002,0.605000,$1*%
G04 Aperture macros list end*
G04 #@! TA.AperFunction,SMDPad,CuDef*
%ADD10RoundRect,0.140000X-0.170000X0.140000X-0.170000X-0.140000X0.170000X-0.140000X0.170000X0.140000X0*%
G04 #@! TD*
G04 #@! TA.AperFunction,SMDPad,CuDef*
%ADD11RoundRect,0.200000X0.335876X0.053033X0.053033X0.335876X-0.335876X-0.053033X-0.053033X-0.335876X0*%
G04 #@! TD*
G04 #@! TA.AperFunction,SMDPad,CuDef*
%ADD12R,0.800000X0.400000*%
G04 #@! TD*
G04 #@! TA.AperFunction,SMDPad,CuDef*
%ADD13R,0.400000X0.800000*%
G04 #@! TD*
G04 #@! TA.AperFunction,SMDPad,CuDef*
%ADD14FreePoly0,180.000000*%
G04 #@! TD*
G04 #@! TA.AperFunction,SMDPad,CuDef*
%ADD15R,1.200000X1.200000*%
G04 #@! TD*
G04 #@! TA.AperFunction,SMDPad,CuDef*
%ADD16R,0.800000X0.800000*%
G04 #@! TD*
G04 #@! TA.AperFunction,SMDPad,CuDef*
%ADD17RoundRect,0.225000X-0.225000X-0.250000X0.225000X-0.250000X0.225000X0.250000X-0.225000X0.250000X0*%
G04 #@! TD*
G04 #@! TA.AperFunction,SMDPad,CuDef*
%ADD18RoundRect,0.200000X-0.053033X0.335876X-0.335876X0.053033X0.053033X-0.335876X0.335876X-0.053033X0*%
G04 #@! TD*
G04 #@! TA.AperFunction,SMDPad,CuDef*
%ADD19RoundRect,0.200000X-0.200000X-0.275000X0.200000X-0.275000X0.200000X0.275000X-0.200000X0.275000X0*%
G04 #@! TD*
G04 #@! TA.AperFunction,SMDPad,CuDef*
%ADD20RoundRect,0.200000X-0.177530X0.290014X-0.330604X-0.079538X0.177530X-0.290014X0.330604X0.079538X0*%
G04 #@! TD*
G04 #@! TA.AperFunction,SMDPad,CuDef*
%ADD21RoundRect,0.200000X0.200000X0.275000X-0.200000X0.275000X-0.200000X-0.275000X0.200000X-0.275000X0*%
G04 #@! TD*
G04 #@! TA.AperFunction,ComponentPad*
%ADD22C,6.400000*%
G04 #@! TD*
G04 #@! TA.AperFunction,SMDPad,CuDef*
%ADD23RoundRect,0.200000X-0.275000X0.200000X-0.275000X-0.200000X0.275000X-0.200000X0.275000X0.200000X0*%
G04 #@! TD*
G04 #@! TA.AperFunction,SMDPad,CuDef*
%ADD24RoundRect,0.225000X0.323899X-0.293836X0.411690X0.147518X-0.323899X0.293836X-0.411690X-0.147518X0*%
G04 #@! TD*
G04 #@! TA.AperFunction,SMDPad,CuDef*
%ADD25RoundRect,0.200000X-0.330604X0.079538X-0.177530X-0.290014X0.330604X-0.079538X0.177530X0.290014X0*%
G04 #@! TD*
G04 #@! TA.AperFunction,SMDPad,CuDef*
%ADD26RoundRect,0.200000X0.330604X-0.079538X0.177530X0.290014X-0.330604X0.079538X-0.177530X-0.290014X0*%
G04 #@! TD*
G04 #@! TA.AperFunction,SMDPad,CuDef*
%ADD27RoundRect,0.200000X0.275000X-0.200000X0.275000X0.200000X-0.275000X0.200000X-0.275000X-0.200000X0*%
G04 #@! TD*
G04 #@! TA.AperFunction,SMDPad,CuDef*
%ADD28RoundRect,0.200000X0.079538X0.330604X-0.290014X0.177530X-0.079538X-0.330604X0.290014X-0.177530X0*%
G04 #@! TD*
G04 #@! TA.AperFunction,SMDPad,CuDef*
%ADD29RoundRect,0.200000X0.290014X0.177530X-0.079538X0.330604X-0.290014X-0.177530X0.079538X-0.330604X0*%
G04 #@! TD*
G04 #@! TA.AperFunction,SMDPad,CuDef*
%ADD30RoundRect,0.200000X0.053033X-0.335876X0.335876X-0.053033X-0.053033X0.335876X-0.335876X0.053033X0*%
G04 #@! TD*
G04 #@! TA.AperFunction,SMDPad,CuDef*
%ADD31RoundRect,0.200000X-0.079538X-0.330604X0.290014X-0.177530X0.079538X0.330604X-0.290014X0.177530X0*%
G04 #@! TD*
G04 #@! TA.AperFunction,SMDPad,CuDef*
%ADD32RoundRect,0.200000X-0.335876X-0.053033X-0.053033X-0.335876X0.335876X0.053033X0.053033X0.335876X0*%
G04 #@! TD*
G04 #@! TA.AperFunction,ComponentPad*
%ADD33RoundRect,0.250000X-0.922520X0.267315X-0.463300X-0.841340X0.922520X-0.267315X0.463300X0.841340X0*%
G04 #@! TD*
G04 #@! TA.AperFunction,ComponentPad*
%ADD34HorizOval,1.700000X-0.138582X-0.057403X0.138582X0.057403X0*%
G04 #@! TD*
G04 #@! TA.AperFunction,SMDPad,CuDef*
%ADD35RoundRect,0.140000X0.170000X-0.140000X0.170000X0.140000X-0.170000X0.140000X-0.170000X-0.140000X0*%
G04 #@! TD*
G04 #@! TA.AperFunction,SMDPad,CuDef*
%ADD36RoundRect,0.225000X0.144866X-0.303544X0.317074X0.112202X-0.144866X0.303544X-0.317074X-0.112202X0*%
G04 #@! TD*
G04 #@! TA.AperFunction,SMDPad,CuDef*
%ADD37RoundRect,0.200000X0.177530X-0.290014X0.330604X0.079538X-0.177530X0.290014X-0.330604X-0.079538X0*%
G04 #@! TD*
G04 #@! TA.AperFunction,SMDPad,CuDef*
%ADD38RotRect,0.480000X0.400000X348.750000*%
G04 #@! TD*
G04 #@! TA.AperFunction,SMDPad,CuDef*
%ADD39RoundRect,0.200000X-0.290014X-0.177530X0.079538X-0.330604X0.290014X0.177530X-0.079538X0.330604X0*%
G04 #@! TD*
G04 #@! TA.AperFunction,SMDPad,CuDef*
%ADD40RotRect,0.480000X0.400000X78.750000*%
G04 #@! TD*
G04 #@! TA.AperFunction,SMDPad,CuDef*
%ADD41RotRect,1.250000X0.400000X78.750000*%
G04 #@! TD*
G04 #@! TA.AperFunction,ComponentPad*
%ADD42HorizOval,1.300000X0.087791X0.441353X-0.087791X-0.441353X0*%
G04 #@! TD*
G04 #@! TA.AperFunction,ComponentPad*
%ADD43C,1.200000*%
G04 #@! TD*
G04 #@! TA.AperFunction,SMDPad,CuDef*
%ADD44RoundRect,0.140000X0.103484X-0.194399X0.210635X0.064287X-0.103484X0.194399X-0.210635X-0.064287X0*%
G04 #@! TD*
G04 #@! TA.AperFunction,SMDPad,CuDef*
%ADD45RoundRect,0.225000X0.250000X-0.225000X0.250000X0.225000X-0.250000X0.225000X-0.250000X-0.225000X0*%
G04 #@! TD*
G04 #@! TA.AperFunction,SMDPad,CuDef*
%ADD46RoundRect,0.225000X-0.250000X0.225000X-0.250000X-0.225000X0.250000X-0.225000X0.250000X0.225000X0*%
G04 #@! TD*
G04 #@! TA.AperFunction,SMDPad,CuDef*
%ADD47RoundRect,0.218750X-0.218750X-0.256250X0.218750X-0.256250X0.218750X0.256250X-0.218750X0.256250X0*%
G04 #@! TD*
G04 #@! TA.AperFunction,SMDPad,CuDef*
%ADD48R,1.050000X0.650000*%
G04 #@! TD*
G04 #@! TA.AperFunction,SMDPad,CuDef*
%ADD49RoundRect,0.218750X0.256250X-0.218750X0.256250X0.218750X-0.256250X0.218750X-0.256250X-0.218750X0*%
G04 #@! TD*
G04 #@! TA.AperFunction,SMDPad,CuDef*
%ADD50R,2.000000X1.500000*%
G04 #@! TD*
G04 #@! TA.AperFunction,SMDPad,CuDef*
%ADD51R,2.000000X3.800000*%
G04 #@! TD*
G04 #@! TA.AperFunction,ComponentPad*
%ADD52RoundRect,0.250000X0.447031X0.828124X-0.729912X0.594015X-0.447031X-0.828124X0.729912X-0.594015X0*%
G04 #@! TD*
G04 #@! TA.AperFunction,ComponentPad*
%ADD53HorizOval,1.700000X-0.024386X0.122598X0.024386X-0.122598X0*%
G04 #@! TD*
G04 #@! TA.AperFunction,ComponentPad*
%ADD54C,2.489200*%
G04 #@! TD*
G04 #@! TA.AperFunction,ComponentPad*
%ADD55C,1.498600*%
G04 #@! TD*
G04 #@! TA.AperFunction,ViaPad*
%ADD56C,0.800000*%
G04 #@! TD*
G04 #@! TA.AperFunction,Conductor*
%ADD57C,0.500000*%
G04 #@! TD*
G04 #@! TA.AperFunction,Conductor*
%ADD58C,0.700000*%
G04 #@! TD*
G04 #@! TA.AperFunction,Conductor*
%ADD59C,0.300000*%
G04 #@! TD*
G04 APERTURE END LIST*
D10*
X87871200Y-31663600D03*
X87871200Y-32623600D03*
D11*
X35462867Y-28717016D03*
X34296141Y-27550290D03*
D12*
X83864100Y-32340000D03*
X83864100Y-31490000D03*
X83864100Y-30640000D03*
X83864100Y-29790000D03*
X83864100Y-28940000D03*
X83864100Y-28090000D03*
X83864100Y-27240000D03*
X83864100Y-26390000D03*
X83864100Y-25540000D03*
X83864100Y-24690000D03*
X83864100Y-23840000D03*
X83864100Y-22990000D03*
X83864100Y-22140000D03*
X83864100Y-21290000D03*
X83864100Y-20440000D03*
D13*
X82814100Y-19390000D03*
X81964100Y-19390000D03*
X81114100Y-19390000D03*
X80264100Y-19390000D03*
X79414100Y-19390000D03*
X78564100Y-19390000D03*
X77714100Y-19390000D03*
X76864100Y-19390000D03*
X76014100Y-19390000D03*
X75164100Y-19390000D03*
X74314100Y-19390000D03*
X73464100Y-19390000D03*
X72614100Y-19390000D03*
X71764100Y-19390000D03*
X70914100Y-19390000D03*
D12*
X69864100Y-20440000D03*
X69864100Y-21290000D03*
X69864100Y-22140000D03*
X69864100Y-22990000D03*
X69864100Y-23840000D03*
X69864100Y-24690000D03*
X69864100Y-25540000D03*
X69864100Y-26390000D03*
X69864100Y-27240000D03*
X69864100Y-28090000D03*
X69864100Y-28940000D03*
X69864100Y-29790000D03*
X69864100Y-30640000D03*
X69864100Y-31490000D03*
X69864100Y-32340000D03*
D13*
X70914100Y-33390000D03*
X71764100Y-33390000D03*
X72614100Y-33390000D03*
X73464100Y-33390000D03*
X74314100Y-33390000D03*
X75164100Y-33390000D03*
X76014100Y-33390000D03*
X76864100Y-33390000D03*
X77714100Y-33390000D03*
X78564100Y-33390000D03*
X79414100Y-33390000D03*
X80264100Y-33390000D03*
X81114100Y-33390000D03*
X81964100Y-33390000D03*
X82814100Y-33390000D03*
D14*
X78514100Y-28040000D03*
D15*
X76864100Y-28040000D03*
X75214100Y-28040000D03*
X78514100Y-26390000D03*
X76864100Y-26390000D03*
X75214100Y-26390000D03*
X78514100Y-24740000D03*
X76864100Y-24740000D03*
X75214100Y-24740000D03*
D16*
X83864100Y-33390000D03*
X83864100Y-19390000D03*
X69864100Y-19390000D03*
X69864100Y-33390000D03*
D17*
X46519800Y-27279600D03*
X48069800Y-27279600D03*
D18*
X131629267Y-29116585D03*
X130462541Y-30283311D03*
D19*
X70114100Y-17390000D03*
X71764100Y-17390000D03*
D11*
X124883415Y-131629267D03*
X123716689Y-130462541D03*
D19*
X140512500Y-81770000D03*
X142162500Y-81770000D03*
D20*
X109146719Y-11845699D03*
X108515291Y-13370101D03*
D21*
X13487500Y-72230000D03*
X11837500Y-72230000D03*
D22*
X116391000Y-111017000D03*
D23*
X67864100Y-18790000D03*
X67864100Y-20440000D03*
D24*
X94521701Y-12083096D03*
X95165499Y-8846504D03*
D25*
X96898281Y-137513298D03*
X97529709Y-139037700D03*
D26*
X100332865Y-145805117D03*
X99701437Y-144280715D03*
D27*
X71272400Y-13728200D03*
X71272400Y-12078200D03*
D28*
X16486702Y-96898281D03*
X14962300Y-97529709D03*
D29*
X142154301Y-109146719D03*
X140629899Y-108515291D03*
D30*
X125282984Y-35462867D03*
X126449710Y-34296141D03*
D29*
X20137518Y-48287865D03*
X18613116Y-47656437D03*
D31*
X8194883Y-100332865D03*
X9719285Y-99701437D03*
D20*
X48287865Y-133862482D03*
X47656437Y-135386884D03*
D23*
X72230000Y-140512500D03*
X72230000Y-142162500D03*
D27*
X81770000Y-13487500D03*
X81770000Y-11837500D03*
D23*
X66332000Y-30759800D03*
X66332000Y-32409800D03*
D32*
X29116585Y-22370733D03*
X30283311Y-23537459D03*
D33*
X44255291Y-15978301D03*
D34*
X45212000Y-18288000D03*
D19*
X4512501Y-72230000D03*
X6162501Y-72230000D03*
D25*
X53667135Y-8194883D03*
X54298563Y-9719285D03*
D26*
X57101719Y-16486702D03*
X56470291Y-14962300D03*
D22*
X37609000Y-111017000D03*
D27*
X72230000Y-149487499D03*
X72230000Y-147837499D03*
D35*
X89801600Y-32559800D03*
X89801600Y-31599800D03*
D32*
X118537133Y-125282984D03*
X119703859Y-126449710D03*
D18*
X28717016Y-118537133D03*
X27550290Y-119703859D03*
D10*
X87262000Y-19282400D03*
X87262000Y-20242400D03*
D36*
X96765162Y-11770395D03*
X97358322Y-10338381D03*
D37*
X44853281Y-142154301D03*
X45484709Y-140629899D03*
D38*
X86614282Y-8443640D03*
X87908918Y-8701160D03*
D31*
X137503298Y-57101719D03*
X139027700Y-56470291D03*
D22*
X116391000Y-42983000D03*
D39*
X11845699Y-44853281D03*
X13370101Y-45484709D03*
X133862482Y-105712135D03*
X135386884Y-106343563D03*
D40*
X92987640Y-9544785D03*
X93245160Y-8250149D03*
D41*
X93452738Y-6534996D03*
X92815228Y-6408187D03*
X92177717Y-6281378D03*
X91540207Y-6154570D03*
X90902696Y-6027761D03*
D42*
X96225534Y-4384623D03*
D43*
X94556122Y-6754473D03*
X89799313Y-5808284D03*
D42*
X89163880Y-2979972D03*
D38*
X86911615Y-7021240D03*
X88206251Y-7278760D03*
D28*
X145795117Y-53667135D03*
X144270715Y-54298563D03*
D10*
X57150000Y-30512800D03*
X57150000Y-31472800D03*
D21*
X149487499Y-81770000D03*
X147837499Y-81770000D03*
D37*
X105712135Y-20137518D03*
X106343563Y-18613116D03*
D44*
X98520712Y-12178262D03*
X98888088Y-11291338D03*
D45*
X87160400Y-16168600D03*
X87160400Y-14618600D03*
D46*
X86144000Y-31368600D03*
X86144000Y-32918600D03*
D47*
X51282500Y-27279600D03*
X52857500Y-27279600D03*
D35*
X68059200Y-32064800D03*
X68059200Y-31104800D03*
D48*
X58986600Y-30217800D03*
X63136600Y-30217800D03*
X58986600Y-32367800D03*
X63136600Y-32367800D03*
X96202400Y-32820400D03*
X92052400Y-32820400D03*
X96202400Y-30670400D03*
X92052400Y-30670400D03*
D49*
X69545200Y-13690700D03*
X69545200Y-12115700D03*
D23*
X81770000Y-4512501D03*
X81770000Y-6162501D03*
D30*
X22370733Y-124883415D03*
X23537459Y-123716689D03*
D22*
X37609000Y-42983000D03*
D50*
X95694800Y-19813200D03*
X95694800Y-17513200D03*
D51*
X89394800Y-17513200D03*
D50*
X95694800Y-15213200D03*
D52*
X67927967Y-6425324D03*
D53*
X65476004Y-6913050D03*
X63024041Y-7400776D03*
X60572077Y-7888501D03*
D54*
X101267130Y-140560898D03*
X104777870Y-139106702D03*
D55*
X102901552Y-142860476D03*
X100796794Y-137779139D03*
X103143448Y-136807123D03*
X105248206Y-141888460D03*
D54*
X13439102Y-101267130D03*
X14893298Y-104777870D03*
D55*
X11139524Y-102901552D03*
X16220861Y-100796794D03*
X17192877Y-103143448D03*
X12111540Y-105248206D03*
D54*
X126426702Y-30260302D03*
X123739698Y-27573298D03*
D55*
X127925769Y-27870283D03*
X124036682Y-31759369D03*
X122240631Y-29963318D03*
X126129717Y-26074231D03*
D54*
X9000000Y-75100001D03*
X9000000Y-78899999D03*
D55*
X6250001Y-75730000D03*
X11750000Y-75730000D03*
X11750000Y-78270000D03*
X6250001Y-78270000D03*
D54*
X139106702Y-104777870D03*
X140560898Y-101267130D03*
D55*
X141888460Y-105248206D03*
X136807123Y-103143448D03*
X137779139Y-100796794D03*
X142860476Y-102901552D03*
D54*
X145000000Y-78899999D03*
X145000000Y-75100001D03*
D55*
X147749999Y-78270000D03*
X142250000Y-78270000D03*
X142250000Y-75730000D03*
X147749999Y-75730000D03*
D54*
X52732870Y-13439102D03*
X49222130Y-14893298D03*
D55*
X51098448Y-11139524D03*
X53203206Y-16220861D03*
X50856552Y-17192877D03*
X48751794Y-12111540D03*
D54*
X140550898Y-52732870D03*
X139096702Y-49222130D03*
D55*
X142850476Y-51098448D03*
X137769139Y-53203206D03*
X136797123Y-50856552D03*
X141878460Y-48751794D03*
D54*
X78899999Y-9000000D03*
X75100001Y-9000000D03*
D55*
X78270000Y-6250001D03*
X78270000Y-11750000D03*
X75730000Y-11750000D03*
X75730000Y-6250001D03*
D54*
X30260302Y-27573298D03*
X27573298Y-30260302D03*
D55*
X27870283Y-26074231D03*
X31759369Y-29963318D03*
X29963318Y-31759369D03*
X26074231Y-27870283D03*
D54*
X49222130Y-139106702D03*
X52732870Y-140560898D03*
D55*
X48751794Y-141888460D03*
X50856552Y-136807123D03*
X53203206Y-137779139D03*
X51098448Y-142860476D03*
D54*
X14893298Y-49222130D03*
X13439102Y-52732870D03*
D55*
X12111540Y-48751794D03*
X17192877Y-50856552D03*
X16220861Y-53203206D03*
X11139524Y-51098448D03*
D54*
X104777870Y-14893298D03*
X101267130Y-13439102D03*
D55*
X105248206Y-12111540D03*
X103143448Y-17192877D03*
X100796794Y-16220861D03*
X102901552Y-11139524D03*
D54*
X27573298Y-123739698D03*
X30260302Y-126426702D03*
D55*
X26074231Y-126129717D03*
X29963318Y-122240631D03*
X31759369Y-124036682D03*
X27870283Y-127925769D03*
D54*
X75100001Y-145000000D03*
X78899999Y-145000000D03*
D55*
X75730000Y-147749999D03*
X75730000Y-142250000D03*
X78270000Y-142250000D03*
X78270000Y-147749999D03*
D54*
X123739698Y-126426702D03*
X126426702Y-123739698D03*
D55*
X126129717Y-127925769D03*
X122240631Y-124036682D03*
X124036682Y-122240631D03*
X127925769Y-126129717D03*
D56*
X55727600Y-30327600D03*
X82638800Y-31534000D03*
X88887200Y-14566800D03*
X87414000Y-4254400D03*
X68326000Y-14935200D03*
X71767600Y-32143600D03*
X83858000Y-17919600D03*
X71310400Y-20561200D03*
X44856400Y-27533600D03*
X97472400Y-19850000D03*
X94983200Y-10350400D03*
X81216400Y-14820800D03*
X33972400Y-30416400D03*
X18205600Y-98640800D03*
X36969600Y-34937600D03*
X17564000Y-75679200D03*
X136099200Y-55867200D03*
X123329600Y-34531200D03*
X20866000Y-99352000D03*
X82283200Y-23914000D03*
X121602400Y-40017600D03*
X136283600Y-77050800D03*
X20434200Y-51066600D03*
X131660800Y-55460800D03*
X119392600Y-119748200D03*
X54305200Y-21640800D03*
X98742400Y-136232800D03*
X87160000Y-17411600D03*
X98437600Y-133743600D03*
X50495200Y-29464000D03*
X34480400Y-118554400D03*
X14151461Y-74866400D03*
X105448000Y-30822800D03*
X133802588Y-103220988D03*
X120078400Y-123126400D03*
X132194200Y-100647400D03*
X140195200Y-78371600D03*
X30264000Y-119875200D03*
X105397200Y-21678800D03*
X23304400Y-53886000D03*
X88836400Y-9266400D03*
X86347200Y-11671200D03*
X89242800Y-7861200D03*
X85382000Y-10960000D03*
X65248609Y-17480000D03*
X65301197Y-20135600D03*
X66228612Y-17480000D03*
X66281200Y-20138424D03*
X83299200Y-11772800D03*
X85991600Y-21323200D03*
X85991600Y-18529200D03*
X85991600Y-14617600D03*
X65682779Y-24046397D03*
X71983600Y-23317200D03*
X79197200Y-17633600D03*
X72208499Y-15960099D03*
X69786400Y-15938400D03*
X77424620Y-15903829D03*
X66656886Y-24786800D03*
X71932800Y-24384000D03*
X66497200Y-22542400D03*
X71018400Y-21894800D03*
X71898189Y-25489504D03*
X67408000Y-25482868D03*
X71075948Y-22873112D03*
X67360800Y-23304400D03*
X66548000Y-26246800D03*
X71069200Y-26246800D03*
X65684400Y-21793200D03*
X73101200Y-17678400D03*
D57*
X83864100Y-31490000D02*
X83864100Y-33390000D01*
X78514100Y-24740000D02*
X78514100Y-28040000D01*
X68326000Y-14909900D02*
X69545200Y-13690700D01*
D58*
X89163880Y-4216400D02*
X89163880Y-5172851D01*
D57*
X85379200Y-19390000D02*
X86526600Y-20537400D01*
X87452000Y-4216400D02*
X89163880Y-4216400D01*
X63136600Y-30217800D02*
X58986600Y-30217800D01*
X68326000Y-14935200D02*
X68326000Y-14909900D01*
X95694800Y-19813200D02*
X97435600Y-19813200D01*
X83864100Y-17925700D02*
X83864100Y-19390000D01*
X82682800Y-31490000D02*
X82638800Y-31534000D01*
X94983200Y-10350400D02*
X97346303Y-10350400D01*
X69864100Y-19390000D02*
X70914100Y-19390000D01*
X68229000Y-30640000D02*
X68059200Y-30809800D01*
D58*
X94556122Y-6754473D02*
X94556122Y-6739078D01*
D57*
X75214100Y-24740000D02*
X78514100Y-24740000D01*
X70914100Y-19390000D02*
X70914100Y-20164900D01*
D58*
X89163880Y-2979972D02*
X89163880Y-4216400D01*
D57*
X98422168Y-10439981D02*
X99000980Y-11018793D01*
X78514100Y-28040000D02*
X75214100Y-28040000D01*
X55837400Y-30217800D02*
X55727600Y-30327600D01*
X58986600Y-30217800D02*
X57150000Y-30217800D01*
X83864100Y-33390000D02*
X69864100Y-33390000D01*
X69864100Y-29790000D02*
X69864100Y-30640000D01*
X75214100Y-24740000D02*
X75214100Y-24464900D01*
X88734800Y-14566800D02*
X88887200Y-14566800D01*
X45110400Y-27279600D02*
X44856400Y-27533600D01*
X69864100Y-30640000D02*
X70924400Y-30640000D01*
X57150000Y-30217800D02*
X55837400Y-30217800D01*
X80708400Y-31534000D02*
X82638800Y-31534000D01*
X97358322Y-10338381D02*
X97459922Y-10439981D01*
X83864100Y-19390000D02*
X85379200Y-19390000D01*
X90018790Y-6027761D02*
X89799313Y-5808284D01*
X86526600Y-20537400D02*
X87262000Y-20537400D01*
X86911615Y-7021240D02*
X86911615Y-4756785D01*
X75214100Y-28040000D02*
X75214100Y-24740000D01*
X89737800Y-32918600D02*
X89801600Y-32854800D01*
X87160400Y-14618600D02*
X88835400Y-14618600D01*
X71764100Y-32147100D02*
X71767600Y-32143600D01*
X87414000Y-4254400D02*
X87452000Y-4216400D01*
X87871200Y-32918600D02*
X89737800Y-32918600D01*
X78514100Y-28040000D02*
X78514100Y-29339700D01*
X86911615Y-4756785D02*
X87414000Y-4254400D01*
X78514100Y-29339700D02*
X80708400Y-31534000D01*
X97346303Y-10350400D02*
X97358322Y-10338381D01*
X75214100Y-26390000D02*
X78514100Y-26390000D01*
X89801600Y-32854800D02*
X92018000Y-32854800D01*
X94983200Y-10350400D02*
X93793255Y-10350400D01*
X92052400Y-32820400D02*
X96202400Y-32820400D01*
X70914100Y-20164900D02*
X71310400Y-20561200D01*
D58*
X96225534Y-5069666D02*
X96225534Y-4384623D01*
D57*
X71767600Y-31486500D02*
X71767600Y-32143600D01*
X85672600Y-33390000D02*
X86144000Y-32918600D01*
D58*
X89163880Y-5172851D02*
X89799313Y-5808284D01*
X94556122Y-6739078D02*
X96225534Y-5069666D01*
D57*
X76864100Y-24740000D02*
X76864100Y-28040000D01*
X92018000Y-32854800D02*
X92052400Y-32820400D01*
X86614282Y-7318573D02*
X86911615Y-7021240D01*
X70924400Y-30640000D02*
X71767600Y-31483200D01*
X93793255Y-10350400D02*
X92987640Y-9544785D01*
X90902696Y-6027761D02*
X90018790Y-6027761D01*
X83858000Y-17919600D02*
X83864100Y-17925700D01*
X57188000Y-30340800D02*
X57188000Y-30365600D01*
X71764100Y-33390000D02*
X71764100Y-32147100D01*
X46382300Y-27279600D02*
X45110400Y-27279600D01*
X86144000Y-32918600D02*
X87871200Y-32918600D01*
X71767600Y-31483200D02*
X71767600Y-32143600D01*
X75214100Y-28040000D02*
X71767600Y-31486500D01*
X97459922Y-10439981D02*
X98422168Y-10439981D01*
X86614282Y-8443640D02*
X86614282Y-7318573D01*
X69864100Y-30640000D02*
X68229000Y-30640000D01*
X97435600Y-19813200D02*
X97472400Y-19850000D01*
X88835400Y-14618600D02*
X88887200Y-14566800D01*
X83864100Y-33390000D02*
X85672600Y-33390000D01*
X87515600Y-4356000D02*
X87414000Y-4254400D01*
X83864100Y-31490000D02*
X82682800Y-31490000D01*
D59*
X69864100Y-32340000D02*
X68079000Y-32340000D01*
X63136600Y-32367800D02*
X66290000Y-32367800D01*
X66290000Y-32367800D02*
X66332000Y-32409800D01*
X68079000Y-32340000D02*
X68059200Y-32359800D01*
X58978400Y-32359600D02*
X58986600Y-32367800D01*
X57150000Y-31767800D02*
X57741800Y-32359600D01*
X68059200Y-32359800D02*
X66382000Y-32359800D01*
X57741800Y-32359600D02*
X58978400Y-32359600D01*
X66382000Y-32359800D02*
X66332000Y-32409800D01*
X58986600Y-32367800D02*
X63136600Y-32367800D01*
X83864100Y-29790000D02*
X88286800Y-29790000D01*
X91418000Y-31304800D02*
X92052400Y-30670400D01*
X89801600Y-31304800D02*
X91418000Y-31304800D01*
X88286800Y-29790000D02*
X89801600Y-31304800D01*
X92052400Y-30670400D02*
X96202400Y-30670400D01*
D57*
X87262000Y-18987400D02*
X87920600Y-18987400D01*
X50380800Y-134048400D02*
X52006400Y-134048400D01*
X118491688Y-125221112D02*
X120078400Y-123634400D01*
X140512500Y-81770000D02*
X140425000Y-81682500D01*
X72059600Y-14935200D02*
X79832000Y-14935200D01*
X20218357Y-50850757D02*
X20218357Y-48321350D01*
X70114100Y-17390000D02*
X70114100Y-16880700D01*
X79832000Y-14935200D02*
X80429000Y-14338200D01*
X52006400Y-134048400D02*
X53632000Y-132422800D01*
X56506863Y-21640800D02*
X59357663Y-18790000D01*
X105678650Y-21397350D02*
X105397200Y-21678800D01*
X86144000Y-31368600D02*
X87871200Y-31368600D01*
X80429000Y-14338200D02*
X80733800Y-14338200D01*
X28864061Y-118475261D02*
X30264000Y-119875200D01*
X87160400Y-16168600D02*
X88050200Y-16168600D01*
X48321350Y-133781643D02*
X48588107Y-134048400D01*
X72230000Y-140425000D02*
X72230000Y-136492000D01*
X14151461Y-74866400D02*
X13575000Y-74289939D01*
X50901600Y-29870400D02*
X53390800Y-29870400D01*
X68893600Y-17390000D02*
X70114100Y-17390000D01*
X70114100Y-16880700D02*
X71920000Y-15074800D01*
X95694800Y-17513200D02*
X97194800Y-17513200D01*
X133802588Y-105652241D02*
X133862482Y-105712135D01*
X82283200Y-29959100D02*
X82964100Y-30640000D01*
X80429000Y-14338200D02*
X81192200Y-13575000D01*
X13575000Y-74289939D02*
X13575000Y-72230000D01*
X87160400Y-16168600D02*
X87160400Y-17411200D01*
X71920000Y-15074800D02*
X72059600Y-14935200D01*
X118475261Y-125221112D02*
X118491688Y-125221112D01*
X60299600Y-18790000D02*
X59357663Y-18790000D01*
X59357663Y-18790000D02*
X57135204Y-16567541D01*
X28778888Y-118475261D02*
X28864061Y-118475261D01*
X67864100Y-18419500D02*
X68893600Y-17390000D01*
X123329600Y-34531200D02*
X124351317Y-34531200D01*
X82283200Y-23914000D02*
X82283200Y-29959100D01*
X89394800Y-17513200D02*
X95694800Y-17513200D01*
X83864100Y-30640000D02*
X85415400Y-30640000D01*
X48588107Y-134048400D02*
X50380800Y-134048400D01*
X54305200Y-21640800D02*
X56506863Y-21640800D01*
X71920000Y-15074800D02*
X71272400Y-14427200D01*
X50495200Y-29464000D02*
X50901600Y-29870400D01*
X67864100Y-18790000D02*
X67864100Y-18419500D01*
X67864100Y-18790000D02*
X60299600Y-18790000D01*
X80733800Y-14338200D02*
X81216400Y-14820800D01*
X136268779Y-55867200D02*
X137503298Y-57101719D01*
X81192200Y-13575000D02*
X81770000Y-13575000D01*
X35524739Y-28778888D02*
X35524739Y-28864061D01*
X87920600Y-18987400D02*
X89394800Y-17513200D01*
X97542741Y-137432459D02*
X96864796Y-137432459D01*
X16567541Y-97002741D02*
X16567541Y-96864796D01*
X87160400Y-17411200D02*
X87160000Y-17411600D01*
X120078400Y-123634400D02*
X120078400Y-123126400D01*
X133802588Y-103220988D02*
X133802588Y-105652241D01*
X18205600Y-98640800D02*
X16567541Y-97002741D01*
X140425000Y-78601400D02*
X140195200Y-78371600D01*
X101360400Y-21678800D02*
X105397200Y-21678800D01*
X88050200Y-16168600D02*
X89394800Y-17513200D01*
X64160400Y-28600400D02*
X66319800Y-30759800D01*
X140425000Y-81682500D02*
X140425000Y-78601400D01*
X98742400Y-136232800D02*
X97542741Y-137432459D01*
X124351317Y-34531200D02*
X125282984Y-35462867D01*
X97194800Y-17513200D02*
X101360400Y-21678800D01*
X53390800Y-29870400D02*
X54660800Y-28600400D01*
X85415400Y-30640000D02*
X86144000Y-31368600D01*
X35524739Y-28864061D02*
X33972400Y-30416400D01*
X71272400Y-14427200D02*
X71272400Y-13728200D01*
X136099200Y-55867200D02*
X136268779Y-55867200D01*
X66319800Y-30759800D02*
X66332000Y-30759800D01*
X105678650Y-20218357D02*
X105678650Y-21397350D01*
X20434200Y-51066600D02*
X20218357Y-50850757D01*
X54660800Y-28600400D02*
X64160400Y-28600400D01*
X82964100Y-30640000D02*
X83864100Y-30640000D01*
X96765162Y-11770395D02*
X97727408Y-11770395D01*
X99207593Y-12450807D02*
X101333200Y-10325200D01*
X94770205Y-12534800D02*
X95694800Y-13459395D01*
X84061200Y-7658000D02*
X84061200Y-4914800D01*
X95694800Y-12840757D02*
X96765162Y-11770395D01*
X97727408Y-11770395D02*
X98407820Y-12450807D01*
X92994696Y-11968696D02*
X91122400Y-10096400D01*
X91122400Y-10096400D02*
X86499600Y-10096400D01*
X95694800Y-13459395D02*
X95694800Y-15213200D01*
X95694800Y-13459395D02*
X95694800Y-12840757D01*
X98407820Y-12450807D02*
X99207593Y-12450807D01*
X101333200Y-10325200D02*
X101333200Y-8826400D01*
X94204101Y-11968696D02*
X92994696Y-11968696D01*
X94204101Y-11968696D02*
X94770205Y-12534800D01*
X86499600Y-10096400D02*
X84061200Y-7658000D01*
D59*
X81114800Y-16903600D02*
X86347200Y-11671200D01*
X92799091Y-7494774D02*
X92799091Y-6424324D01*
X92799091Y-6424324D02*
X92815228Y-6408187D01*
X76864100Y-18411100D02*
X78371600Y-16903600D01*
X87908918Y-8701160D02*
X91592705Y-8701160D01*
X76864100Y-19390000D02*
X76864100Y-18411100D01*
X78371600Y-16903600D02*
X81114800Y-16903600D01*
X88836400Y-9266400D02*
X88836400Y-8751960D01*
X91592705Y-8701160D02*
X92799091Y-7494774D01*
X76014100Y-18346700D02*
X77937200Y-16423600D01*
X88206251Y-7278760D02*
X89801600Y-7278760D01*
X89801600Y-7302400D02*
X89242800Y-7861200D01*
X92167139Y-6791261D02*
X92167139Y-6281378D01*
X80915978Y-16423600D02*
X85382000Y-11957578D01*
X76014100Y-19390000D02*
X76014100Y-18346700D01*
X89801600Y-7278760D02*
X89801600Y-7302400D01*
X77937200Y-16423600D02*
X80915978Y-16423600D01*
X85382000Y-11957578D02*
X85382000Y-10960000D01*
X89801600Y-7278760D02*
X91679640Y-7278760D01*
X91679640Y-7278760D02*
X92167139Y-6791261D01*
X65278000Y-17450609D02*
X65278000Y-9693355D01*
X65301197Y-20190797D02*
X68138000Y-23027600D01*
X69164100Y-28090000D02*
X69864100Y-28090000D01*
X65248609Y-17480000D02*
X65278000Y-17450609D01*
X65301197Y-20135600D02*
X65301197Y-20190797D01*
X68138000Y-23027600D02*
X68138000Y-27063900D01*
X65278000Y-9693355D02*
X63022396Y-7437751D01*
X68138000Y-27063900D02*
X69164100Y-28090000D01*
X66243200Y-7718866D02*
X65474359Y-6950025D01*
X66228612Y-17480000D02*
X66243200Y-17465412D01*
X66243200Y-17465412D02*
X66243200Y-7718866D01*
X69164100Y-27240000D02*
X69864100Y-27240000D01*
X66281200Y-20138424D02*
X66315624Y-20138424D01*
X66315624Y-20138424D02*
X68618000Y-22440800D01*
X68618000Y-22440800D02*
X68618000Y-26693900D01*
X68618000Y-26693900D02*
X69164100Y-27240000D01*
D57*
X147749999Y-81682500D02*
X147837499Y-81770000D01*
X147749999Y-78270000D02*
X147749999Y-81682500D01*
X142850476Y-51098448D02*
X142850476Y-52878324D01*
X142850476Y-52878324D02*
X144270715Y-54298563D01*
X127925769Y-27870283D02*
X130338797Y-30283311D01*
X130338797Y-30283311D02*
X130462541Y-30283311D01*
X105248206Y-12111540D02*
X105248206Y-12131806D01*
X106567340Y-13450940D02*
X108481806Y-13450940D01*
X105248206Y-12131806D02*
X106567340Y-13450940D01*
D59*
X135369200Y-53853622D02*
X133009600Y-51494022D01*
X139230000Y-61201200D02*
X135369200Y-57340400D01*
X141363600Y-78270000D02*
X139230000Y-76136400D01*
X133009600Y-46635644D02*
X111913956Y-25540000D01*
X135369200Y-57340400D02*
X135369200Y-53853622D01*
X111913956Y-25540000D02*
X83864100Y-25540000D01*
X139230000Y-76136400D02*
X139230000Y-61201200D01*
X142250000Y-81682500D02*
X142250000Y-78270000D01*
X133009600Y-51494022D02*
X133009600Y-46635644D01*
X142162500Y-81770000D02*
X142250000Y-81682500D01*
X142250000Y-78270000D02*
X141363600Y-78270000D01*
X78270000Y-11750000D02*
X81770000Y-11750000D01*
X85174800Y-22140000D02*
X83864100Y-22140000D01*
X83276400Y-11750000D02*
X83299200Y-11772800D01*
X85991600Y-14617600D02*
X85991600Y-18529200D01*
X85991600Y-21323200D02*
X85174800Y-22140000D01*
X81770000Y-11750000D02*
X83276400Y-11750000D01*
X21780400Y-50928621D02*
X18935600Y-53773421D01*
X80843234Y-21864400D02*
X81964100Y-20743534D01*
X11750000Y-75730000D02*
X11750000Y-72230000D01*
X21780400Y-45014422D02*
X21780400Y-50928621D01*
X11750000Y-63194221D02*
X11750000Y-72230000D01*
X65146402Y-24556800D02*
X42238021Y-24556800D01*
X81964100Y-20743534D02*
X81964100Y-19390000D01*
X71983600Y-23317200D02*
X73436400Y-21864400D01*
X73436400Y-21864400D02*
X80843234Y-21864400D01*
X65682779Y-24046397D02*
X65656805Y-24046397D01*
X18935600Y-53773421D02*
X18935600Y-56008621D01*
X65656805Y-24046397D02*
X65146402Y-24556800D01*
X18935600Y-56008621D02*
X11750000Y-63194221D01*
X42238021Y-24556800D02*
X21780400Y-45014422D01*
X75730000Y-142250000D02*
X79105600Y-138874400D01*
X79105600Y-138874400D02*
X92798800Y-138874400D01*
X137310000Y-61996489D02*
X133449200Y-58135689D01*
X100349578Y-135420000D02*
X102963177Y-132806400D01*
X133449200Y-54648910D02*
X131089600Y-52289310D01*
X131822019Y-102811536D02*
X134140034Y-100493522D01*
X102963177Y-132806400D02*
X108398778Y-132806400D01*
X133449200Y-58135689D02*
X133449200Y-54648910D01*
X92798800Y-138874400D02*
X96253200Y-135420000D01*
X121280631Y-119924547D02*
X121280631Y-119245725D01*
X134140034Y-100493522D02*
X134140034Y-96411100D01*
X134140034Y-96411100D02*
X137310000Y-93241134D01*
X131089600Y-52289310D02*
X131089600Y-47430932D01*
X72230000Y-142250000D02*
X75730000Y-142250000D01*
X131089600Y-47430932D02*
X112598668Y-28940000D01*
X121280631Y-119245725D02*
X131822019Y-108704337D01*
X112598668Y-28940000D02*
X83864100Y-28940000D01*
X96253200Y-135420000D02*
X100349578Y-135420000D01*
X108398778Y-132806400D02*
X121280631Y-119924547D01*
X137310000Y-93241134D02*
X137310000Y-61996489D01*
X131822019Y-108704337D02*
X131822019Y-102811536D01*
D57*
X81770000Y-6250001D02*
X78270000Y-6250001D01*
X54332048Y-9800124D02*
X52968972Y-11163200D01*
X52968972Y-11163200D02*
X51122124Y-11163200D01*
X51122124Y-11163200D02*
X51098448Y-11139524D01*
X30345183Y-23599331D02*
X27870283Y-26074231D01*
X13450940Y-45518194D02*
X13450940Y-47412394D01*
X13450940Y-47412394D02*
X12111540Y-48751794D01*
D59*
X133489600Y-51295200D02*
X133489600Y-46436822D01*
X139027700Y-56470291D02*
X139027700Y-54461767D01*
X111742778Y-24690000D02*
X83864100Y-24690000D01*
X133489600Y-46436822D02*
X111742778Y-24690000D01*
X137769139Y-53203206D02*
X135397606Y-53203206D01*
X139027700Y-54461767D02*
X137769139Y-53203206D01*
X135397606Y-53203206D02*
X133489600Y-51295200D01*
X69786400Y-15938400D02*
X68897600Y-15938400D01*
X54552467Y-14871600D02*
X56426945Y-14871600D01*
X66626000Y-18210000D02*
X61237600Y-18210000D01*
X79197200Y-17633600D02*
X79414100Y-17850500D01*
X72208499Y-15960099D02*
X72280998Y-15887600D01*
X77408391Y-15887600D02*
X77424620Y-15903829D01*
X79414100Y-17850500D02*
X79414100Y-19390000D01*
X68897600Y-15938400D02*
X66626000Y-18210000D01*
X53203206Y-16220861D02*
X54552467Y-14871600D01*
X61237600Y-18210000D02*
X57909061Y-14881461D01*
X57909061Y-14881461D02*
X56436806Y-14881461D01*
X72280998Y-15887600D02*
X77408391Y-15887600D01*
X82814100Y-20572356D02*
X82814100Y-19390000D01*
X19415600Y-56207444D02*
X14881461Y-60741582D01*
X81042056Y-22344400D02*
X82814100Y-20572356D01*
X14881461Y-60741582D02*
X14881461Y-97563194D01*
X16220861Y-100796794D02*
X16214794Y-100796794D01*
X42436843Y-25036800D02*
X22260400Y-45213244D01*
X22260400Y-45213244D02*
X22260400Y-51138000D01*
X19415600Y-53982800D02*
X19415600Y-56207444D01*
X66656886Y-24786800D02*
X66406886Y-25036800D01*
X74316356Y-22344400D02*
X81042056Y-22344400D01*
X66406886Y-25036800D02*
X42436843Y-25036800D01*
X16214794Y-100796794D02*
X14881461Y-99463461D01*
X14881461Y-99463461D02*
X14881461Y-97563194D01*
X71932800Y-24384000D02*
X72276756Y-24384000D01*
X22260400Y-51138000D02*
X19415600Y-53982800D01*
X72276756Y-24384000D02*
X74316356Y-22344400D01*
X134620034Y-100692344D02*
X134620034Y-96609922D01*
X132302019Y-108903159D02*
X132302019Y-103010359D01*
X137790000Y-61797667D02*
X133929200Y-57936867D01*
X100796794Y-135651606D02*
X103162000Y-133286400D01*
X121760631Y-119444547D02*
X132302019Y-108903159D01*
X133929200Y-54450088D02*
X131569600Y-52090488D01*
X132302019Y-103010359D02*
X134620034Y-100692344D01*
X103162000Y-133286400D02*
X108597600Y-133286400D01*
X133929200Y-57936867D02*
X133929200Y-54450088D01*
X99457394Y-139118539D02*
X100796794Y-137779139D01*
X100796794Y-137779139D02*
X100796794Y-135651606D01*
X131569600Y-52090488D02*
X131569600Y-47232110D01*
X137790000Y-93439956D02*
X137790000Y-61797667D01*
X134620034Y-96609922D02*
X137790000Y-93439956D01*
X121760631Y-120123369D02*
X121760631Y-119444547D01*
X131569600Y-47232110D02*
X112427490Y-28090000D01*
X97563194Y-139118539D02*
X99457394Y-139118539D01*
X108597600Y-133286400D02*
X121760631Y-120123369D01*
X112427490Y-28090000D02*
X83864100Y-28090000D01*
D57*
X6250001Y-72230000D02*
X6250001Y-75730000D01*
X11139524Y-101004724D02*
X11139524Y-102901552D01*
X9800124Y-99667952D02*
X9802752Y-99667952D01*
X9802752Y-99667952D02*
X11139524Y-101004724D01*
X23599331Y-123654817D02*
X26074231Y-126129717D01*
X47412394Y-140549060D02*
X48751794Y-141888460D01*
X45518194Y-140549060D02*
X47412394Y-140549060D01*
D59*
X121043600Y-33312000D02*
X111571600Y-23840000D01*
X126449710Y-34296141D02*
X126449710Y-34172397D01*
X126449710Y-34172397D02*
X124036682Y-31759369D01*
X111571600Y-23840000D02*
X83864100Y-23840000D01*
X122484051Y-33312000D02*
X121043600Y-33312000D01*
X124036682Y-31759369D02*
X122484051Y-33312000D01*
X31759369Y-29963318D02*
X34234269Y-27488418D01*
X64888605Y-22593200D02*
X63885005Y-23596800D01*
X79488100Y-20866000D02*
X80264100Y-20090000D01*
X38125887Y-23596800D02*
X34234269Y-27488418D01*
X63885005Y-23596800D02*
X38125887Y-23596800D01*
X66446400Y-22593200D02*
X64888605Y-22593200D01*
X66497200Y-22542400D02*
X66446400Y-22593200D01*
X80264100Y-20090000D02*
X80264100Y-19390000D01*
X71018400Y-21894800D02*
X72047200Y-20866000D01*
X72047200Y-20866000D02*
X79488100Y-20866000D01*
X74515178Y-22824400D02*
X81240878Y-22824400D01*
X18935600Y-97167600D02*
X18935600Y-100418800D01*
X67408000Y-25482868D02*
X67374068Y-25516800D01*
X19895600Y-54181622D02*
X19895600Y-56406267D01*
X42635665Y-25516800D02*
X22740400Y-45412066D01*
X73472000Y-24241600D02*
X73472000Y-23867578D01*
X19895600Y-56406267D02*
X15361461Y-60940404D01*
X73472000Y-23867578D02*
X74515178Y-22824400D01*
X29963318Y-122240631D02*
X27488418Y-119765731D01*
X71898189Y-25489504D02*
X72224096Y-25489504D01*
X81240878Y-22824400D02*
X83625278Y-20440000D01*
X22740400Y-51336822D02*
X19895600Y-54181622D01*
X18935600Y-100418800D02*
X20916800Y-102400000D01*
X22740400Y-45412066D02*
X22740400Y-51336822D01*
X20916800Y-113194113D02*
X27488418Y-119765731D01*
X20916800Y-102400000D02*
X20916800Y-113194113D01*
X15361461Y-93593461D02*
X18935600Y-97167600D01*
X83625278Y-20440000D02*
X83864100Y-20440000D01*
X67374068Y-25516800D02*
X42635665Y-25516800D01*
X15361461Y-60940404D02*
X15361461Y-93593461D01*
X72224096Y-25489504D02*
X73472000Y-24241600D01*
X135100034Y-96808744D02*
X138270000Y-93638778D01*
X138270000Y-61598844D02*
X134409200Y-57738045D01*
X134409200Y-57738045D02*
X134409200Y-54251266D01*
X119765731Y-126511582D02*
X122240631Y-124036682D01*
X134409200Y-54251266D02*
X132049600Y-51891666D01*
X112256312Y-27240000D02*
X83864100Y-27240000D01*
X138270000Y-93638778D02*
X138270000Y-61598844D01*
X135100034Y-100891166D02*
X135100034Y-96808744D01*
X132782019Y-103209181D02*
X135100034Y-100891166D01*
X122240631Y-124036682D02*
X122240631Y-119643369D01*
X132049600Y-51891666D02*
X132049600Y-47033288D01*
X122240631Y-119643369D02*
X132782019Y-109101981D01*
X132049600Y-47033288D02*
X112256312Y-27240000D01*
X132782019Y-109101981D02*
X132782019Y-103209181D01*
D57*
X75730000Y-147749999D02*
X72230000Y-147749999D01*
X101007352Y-142860476D02*
X99667952Y-144199876D01*
X102901552Y-142860476D02*
X101007352Y-142860476D01*
X126129717Y-127925769D02*
X123654817Y-130400669D01*
X140629899Y-106506767D02*
X140629899Y-108515291D01*
X141888460Y-105248206D02*
X140629899Y-106506767D01*
D59*
X106377048Y-18532277D02*
X107378400Y-19533629D01*
X103143448Y-17192877D02*
X105037648Y-17192877D01*
X105037648Y-17192877D02*
X106377048Y-18532277D01*
X107378400Y-21628000D02*
X106016400Y-22990000D01*
X107378400Y-19533629D02*
X107378400Y-21628000D01*
X106016400Y-22990000D02*
X83864100Y-22990000D01*
X42039199Y-24076800D02*
X17192877Y-48923122D01*
X65392400Y-23304400D02*
X64620000Y-24076800D01*
X17192877Y-48923122D02*
X17192877Y-50856552D01*
X81114100Y-20866700D02*
X81114100Y-19390000D01*
X67360800Y-23304400D02*
X65392400Y-23304400D01*
X72564660Y-21384400D02*
X80596400Y-21384400D01*
X71075948Y-22873112D02*
X72564660Y-21384400D01*
X64620000Y-24076800D02*
X42039199Y-24076800D01*
X80596400Y-21384400D02*
X81114100Y-20866700D01*
D57*
X47622952Y-135467723D02*
X47622952Y-135233338D01*
D59*
X66548000Y-26246800D02*
X66226400Y-26246800D01*
X23220400Y-51535644D02*
X20375600Y-54380444D01*
X23220400Y-45610888D02*
X23220400Y-51535644D01*
X42834487Y-25996800D02*
X23220400Y-45610888D01*
X19415600Y-96968778D02*
X19415600Y-100219978D01*
X15841461Y-93394639D02*
X19415600Y-96968778D01*
X19415600Y-100219978D02*
X21396800Y-102201178D01*
X15841461Y-61139226D02*
X15841461Y-93394639D01*
X83454100Y-21290000D02*
X83864100Y-21290000D01*
X21396800Y-109241571D02*
X47622952Y-135467723D01*
X71073200Y-26250800D02*
X72529600Y-26250800D01*
X50856552Y-136807123D02*
X48962352Y-136807123D01*
X48962352Y-136807123D02*
X47622952Y-135467723D01*
X81439700Y-23304400D02*
X83454100Y-21290000D01*
X20375600Y-54380444D02*
X20375600Y-56605087D01*
X66226400Y-26246800D02*
X65976400Y-25996800D01*
X20375600Y-56605087D02*
X15841461Y-61139226D01*
X73952000Y-24828400D02*
X73952000Y-24066400D01*
X71069200Y-26246800D02*
X71073200Y-26250800D01*
X21396800Y-102201178D02*
X21396800Y-109241571D01*
X65976400Y-25996800D02*
X42834487Y-25996800D01*
X74714000Y-23304400D02*
X81439700Y-23304400D01*
X73952000Y-24066400D02*
X74714000Y-23304400D01*
X72529600Y-26250800D02*
X73952000Y-24828400D01*
X134889200Y-54052444D02*
X132529600Y-51692844D01*
X112085134Y-26390000D02*
X83864100Y-26390000D01*
X132529600Y-51692844D02*
X132529600Y-46834466D01*
X135580034Y-101916359D02*
X135580034Y-97007566D01*
X138750000Y-93837600D02*
X138750000Y-61400022D01*
X132529600Y-46834466D02*
X112085134Y-26390000D01*
X136807123Y-103143448D02*
X135580034Y-101916359D01*
X135580034Y-97007566D02*
X138750000Y-93837600D01*
X136807123Y-104923324D02*
X136807123Y-103143448D01*
X135386884Y-106343563D02*
X136807123Y-104923324D01*
X135467723Y-106377048D02*
X135420369Y-106377048D01*
X138750000Y-61400022D02*
X134889200Y-57539222D01*
X134889200Y-57539222D02*
X134889200Y-54052444D01*
X71764100Y-17390000D02*
X71764100Y-19390000D01*
X42334196Y-17899396D02*
X44255291Y-15978301D01*
X71764100Y-17390000D02*
X72812800Y-17390000D01*
X72812800Y-17390000D02*
X73101200Y-17678400D01*
X65009783Y-21793200D02*
X63686183Y-23116800D01*
X45722800Y-23116800D02*
X42334196Y-19728196D01*
X42334196Y-19728196D02*
X42334196Y-17899396D01*
X65684400Y-21793200D02*
X65009783Y-21793200D01*
X63686183Y-23116800D02*
X45722800Y-23116800D01*
X67864100Y-20440000D02*
X69864100Y-20440000D01*
X56865200Y-22636800D02*
X48494000Y-22636800D01*
X66829700Y-19405600D02*
X60096400Y-19405600D01*
X45212000Y-19354800D02*
X45212000Y-18288000D01*
X60096400Y-19405600D02*
X56865200Y-22636800D01*
X67864100Y-20440000D02*
X66829700Y-19405600D01*
X48494000Y-22636800D02*
X45212000Y-19354800D01*
D57*
X93379091Y-7735018D02*
X93379091Y-7178670D01*
X94376177Y-8732104D02*
X94847899Y-8732104D01*
X93379091Y-7735018D02*
X93245160Y-7868949D01*
X93379091Y-7735018D02*
X94376177Y-8732104D01*
X93245160Y-7868949D02*
X93245160Y-8250149D01*
X69545200Y-12115700D02*
X71234900Y-12115700D01*
D59*
X48207300Y-27279600D02*
X51282500Y-27279600D01*
X66488644Y-28940000D02*
X64828244Y-27279600D01*
X64828244Y-27279600D02*
X52857500Y-27279600D01*
X69864100Y-28940000D02*
X66488644Y-28940000D01*
G04 #@! TA.AperFunction,Conductor*
G36*
X78744570Y-320358D02*
G01*
X78747258Y-320419D01*
X80489617Y-379940D01*
X80492322Y-380064D01*
X82232804Y-479226D01*
X82235454Y-479407D01*
X83973323Y-618171D01*
X83976015Y-618417D01*
X85632875Y-788747D01*
X85697549Y-815184D01*
X85737664Y-872390D01*
X85741144Y-939424D01*
X84695809Y-5566108D01*
X84661834Y-5627161D01*
X84600245Y-5660154D01*
X84558331Y-5661675D01*
X82627202Y-5401976D01*
X82563384Y-5373532D01*
X82525075Y-5315101D01*
X82524438Y-5245234D01*
X82556050Y-5191399D01*
X82600072Y-5147378D01*
X82688019Y-5001896D01*
X82738590Y-4839607D01*
X82745000Y-4769073D01*
X82745000Y-4762501D01*
X80795001Y-4762501D01*
X80795001Y-4769083D01*
X80801408Y-4839603D01*
X80801409Y-4839608D01*
X80851981Y-5001897D01*
X80939927Y-5147378D01*
X80980750Y-5188201D01*
X81014235Y-5249524D01*
X81009251Y-5319216D01*
X80967379Y-5375149D01*
X80909086Y-5398843D01*
X80144330Y-5498462D01*
X80128313Y-5499501D01*
X79334769Y-5499501D01*
X79267730Y-5479816D01*
X79233196Y-5446628D01*
X79231058Y-5443575D01*
X79155273Y-5367790D01*
X79076425Y-5288942D01*
X78897287Y-5163508D01*
X78897288Y-5163508D01*
X78897286Y-5163507D01*
X78794428Y-5115544D01*
X78699090Y-5071087D01*
X78699086Y-5071086D01*
X78699082Y-5071084D01*
X78487859Y-5014488D01*
X78487849Y-5014486D01*
X78270001Y-4995427D01*
X78269999Y-4995427D01*
X78052150Y-5014486D01*
X78052140Y-5014488D01*
X77840917Y-5071084D01*
X77840908Y-5071088D01*
X77642713Y-5163507D01*
X77558665Y-5222359D01*
X77463575Y-5288942D01*
X77463573Y-5288943D01*
X77463570Y-5288946D01*
X77308945Y-5443571D01*
X77308942Y-5443574D01*
X77308941Y-5443576D01*
X77270509Y-5498462D01*
X77183506Y-5622714D01*
X77112382Y-5775242D01*
X77066210Y-5827681D01*
X76999016Y-5846833D01*
X76932135Y-5826617D01*
X76887618Y-5775242D01*
X76870449Y-5738424D01*
X76816493Y-5622714D01*
X76691059Y-5443576D01*
X76536425Y-5288942D01*
X76357287Y-5163508D01*
X76357288Y-5163508D01*
X76357286Y-5163507D01*
X76254428Y-5115544D01*
X76159090Y-5071087D01*
X76159086Y-5071086D01*
X76159082Y-5071084D01*
X75947859Y-5014488D01*
X75947849Y-5014486D01*
X75730001Y-4995427D01*
X75729999Y-4995427D01*
X75512150Y-5014486D01*
X75512140Y-5014488D01*
X75300917Y-5071084D01*
X75300908Y-5071088D01*
X75102713Y-5163507D01*
X75018665Y-5222359D01*
X74923575Y-5288942D01*
X74923573Y-5288943D01*
X74923570Y-5288946D01*
X74768945Y-5443571D01*
X74768942Y-5443574D01*
X74768941Y-5443576D01*
X74730509Y-5498462D01*
X74643506Y-5622714D01*
X74551087Y-5820909D01*
X74551083Y-5820918D01*
X74494487Y-6032141D01*
X74494485Y-6032151D01*
X74485271Y-6137468D01*
X74459818Y-6202537D01*
X74403227Y-6243515D01*
X74377760Y-6249621D01*
X69513488Y-6883246D01*
X69444468Y-6872386D01*
X69392275Y-6825935D01*
X69375854Y-6784476D01*
X69300799Y-6407148D01*
X69300798Y-6407147D01*
X68374241Y-6591450D01*
X68402967Y-6493619D01*
X68402967Y-6357029D01*
X68364486Y-6225973D01*
X68290640Y-6111066D01*
X68278643Y-6100671D01*
X69203252Y-5916755D01*
X69203253Y-5916754D01*
X69100836Y-5401868D01*
X69100834Y-5401860D01*
X69070507Y-5303173D01*
X69070506Y-5303171D01*
X68983947Y-5150698D01*
X68983942Y-5150693D01*
X68864565Y-5022301D01*
X68864562Y-5022298D01*
X68718790Y-4924896D01*
X68554476Y-4863735D01*
X68554477Y-4863735D01*
X68380485Y-4842114D01*
X68277706Y-4851860D01*
X68277687Y-4851863D01*
X67885405Y-4929892D01*
X67885404Y-4929893D01*
X68094083Y-5978997D01*
X68063166Y-5964878D01*
X67961942Y-5950324D01*
X67893992Y-5950324D01*
X67792768Y-5964878D01*
X67668522Y-6021619D01*
X67603903Y-6077610D01*
X67395012Y-5027438D01*
X67395011Y-5027437D01*
X67002721Y-5105471D01*
X66904022Y-5135802D01*
X66904020Y-5135803D01*
X66751557Y-5222355D01*
X66751552Y-5222359D01*
X66623156Y-5341740D01*
X66623153Y-5341743D01*
X66525750Y-5487517D01*
X66525749Y-5487518D01*
X66462290Y-5658003D01*
X66420456Y-5713964D01*
X66355007Y-5738424D01*
X66286725Y-5723617D01*
X66277189Y-5717848D01*
X66103679Y-5601912D01*
X66038042Y-5573031D01*
X65887383Y-5506739D01*
X65887381Y-5506738D01*
X65657848Y-5450570D01*
X65422055Y-5435115D01*
X65187147Y-5460840D01*
X64960284Y-5526965D01*
X64960280Y-5526966D01*
X64960278Y-5526967D01*
X64960276Y-5526968D01*
X64748339Y-5631481D01*
X64557779Y-5771205D01*
X64557771Y-5771212D01*
X64394363Y-5941909D01*
X64263078Y-6138390D01*
X64263077Y-6138393D01*
X64185885Y-6313823D01*
X64140869Y-6367256D01*
X64074109Y-6387869D01*
X64006803Y-6369117D01*
X63986640Y-6353454D01*
X63848197Y-6220923D01*
X63651716Y-6089638D01*
X63646116Y-6087174D01*
X63435420Y-5994465D01*
X63435418Y-5994464D01*
X63205885Y-5938296D01*
X62970092Y-5922841D01*
X62735184Y-5948566D01*
X62508321Y-6014691D01*
X62508317Y-6014692D01*
X62508315Y-6014693D01*
X62508313Y-6014694D01*
X62296376Y-6119207D01*
X62105816Y-6258931D01*
X62105808Y-6258938D01*
X61942400Y-6429635D01*
X61811115Y-6626116D01*
X61811114Y-6626119D01*
X61733922Y-6801549D01*
X61688906Y-6854982D01*
X61622146Y-6875595D01*
X61554840Y-6856843D01*
X61534677Y-6841180D01*
X61396233Y-6708648D01*
X61366639Y-6688874D01*
X61230151Y-6597675D01*
X61199752Y-6577363D01*
X61199750Y-6577362D01*
X60983456Y-6482190D01*
X60983454Y-6482189D01*
X60753921Y-6426021D01*
X60518128Y-6410566D01*
X60283220Y-6436291D01*
X60056357Y-6502416D01*
X60056353Y-6502417D01*
X60056351Y-6502418D01*
X60056349Y-6502419D01*
X59844412Y-6606932D01*
X59653852Y-6746656D01*
X59653844Y-6746663D01*
X59490436Y-6917360D01*
X59359151Y-7113841D01*
X59263977Y-7330140D01*
X59207809Y-7559672D01*
X59192354Y-7795465D01*
X59192354Y-7795466D01*
X59211634Y-7971531D01*
X59234949Y-8088742D01*
X59228722Y-8158334D01*
X59185858Y-8213511D01*
X59129349Y-8235894D01*
X54822973Y-8796847D01*
X54759504Y-8788447D01*
X54688837Y-8759176D01*
X54634433Y-8715335D01*
X54612368Y-8649041D01*
X54621728Y-8597162D01*
X54676980Y-8463771D01*
X54676981Y-8463768D01*
X54702558Y-8295719D01*
X54687173Y-8126424D01*
X54666110Y-8058825D01*
X54666106Y-8058815D01*
X54663588Y-8052737D01*
X53566589Y-8507128D01*
X53566585Y-8507128D01*
X52862024Y-8798968D01*
X52864539Y-8805040D01*
X52897450Y-8867750D01*
X52897452Y-8867753D01*
X53006284Y-8998340D01*
X53143202Y-9099086D01*
X53143203Y-9099087D01*
X53204623Y-9124528D01*
X53259027Y-9168369D01*
X53281092Y-9234663D01*
X53263813Y-9302362D01*
X53219096Y-9346520D01*
X51914977Y-10098234D01*
X51847065Y-10114658D01*
X51781929Y-10092378D01*
X51725739Y-10053033D01*
X51725735Y-10053031D01*
X51656579Y-10020783D01*
X51527538Y-9960610D01*
X51527534Y-9960609D01*
X51527530Y-9960607D01*
X51316307Y-9904011D01*
X51316297Y-9904009D01*
X51098449Y-9884950D01*
X51098447Y-9884950D01*
X50880598Y-9904009D01*
X50880588Y-9904011D01*
X50669365Y-9960607D01*
X50669356Y-9960611D01*
X50471161Y-10053030D01*
X50362455Y-10129148D01*
X50292023Y-10178465D01*
X50292021Y-10178466D01*
X50292018Y-10178469D01*
X50137393Y-10333094D01*
X50011954Y-10512237D01*
X49919535Y-10710432D01*
X49919531Y-10710441D01*
X49862935Y-10921664D01*
X49862933Y-10921674D01*
X49843402Y-11144918D01*
X49841530Y-11144754D01*
X49824189Y-11203812D01*
X49771385Y-11249567D01*
X49702227Y-11259511D01*
X49638671Y-11230486D01*
X49632193Y-11224455D01*
X49558220Y-11150482D01*
X49544811Y-11141093D01*
X49439934Y-11067657D01*
X49379080Y-11025046D01*
X49279982Y-10978836D01*
X49180884Y-10932626D01*
X49180880Y-10932625D01*
X49180876Y-10932623D01*
X48969653Y-10876027D01*
X48969643Y-10876025D01*
X48751795Y-10856966D01*
X48751793Y-10856966D01*
X48533944Y-10876025D01*
X48533934Y-10876027D01*
X48322711Y-10932623D01*
X48322702Y-10932627D01*
X48124507Y-11025046D01*
X48041470Y-11083190D01*
X47945369Y-11150481D01*
X47945367Y-11150482D01*
X47945364Y-11150485D01*
X47790739Y-11305110D01*
X47790736Y-11305113D01*
X47790735Y-11305115D01*
X47772821Y-11330699D01*
X47665300Y-11484253D01*
X47572881Y-11682448D01*
X47572877Y-11682457D01*
X47516281Y-11893680D01*
X47516279Y-11893690D01*
X47497220Y-12111539D01*
X47497220Y-12111540D01*
X47516279Y-12329389D01*
X47516281Y-12329399D01*
X47562266Y-12501019D01*
X47560603Y-12570869D01*
X47521440Y-12628731D01*
X47504416Y-12640543D01*
X44242910Y-14520522D01*
X44228438Y-14527652D01*
X42999376Y-15036747D01*
X42999351Y-15036759D01*
X42908421Y-15085787D01*
X42908418Y-15085789D01*
X42775678Y-15200503D01*
X42690197Y-15318880D01*
X42672969Y-15342738D01*
X42661317Y-15370869D01*
X42644084Y-15412472D01*
X42600242Y-15466875D01*
X42591448Y-15472449D01*
X30426477Y-22484514D01*
X30364552Y-22501083D01*
X30276460Y-22501083D01*
X30209421Y-22481398D01*
X30163666Y-22428594D01*
X30152460Y-22377083D01*
X30152460Y-22232705D01*
X30111779Y-22067654D01*
X30032779Y-21917134D01*
X29987448Y-21862739D01*
X29987434Y-21862724D01*
X29982790Y-21858080D01*
X29982789Y-21858080D01*
X29116585Y-22724286D01*
X28603933Y-23236938D01*
X28608569Y-23241575D01*
X28608587Y-23241591D01*
X28662984Y-23286926D01*
X28813509Y-23365928D01*
X28978557Y-23406608D01*
X29060839Y-23406608D01*
X29127878Y-23426293D01*
X29173633Y-23479097D01*
X29183577Y-23548255D01*
X29159117Y-23606222D01*
X28770973Y-24110701D01*
X28760376Y-24122768D01*
X28088831Y-24794313D01*
X28027508Y-24827798D01*
X27990343Y-24830160D01*
X27870285Y-24819657D01*
X27870282Y-24819657D01*
X27652433Y-24838716D01*
X27652423Y-24838718D01*
X27441200Y-24895314D01*
X27441191Y-24895318D01*
X27242996Y-24987737D01*
X27123484Y-25071421D01*
X27063858Y-25113172D01*
X27063856Y-25113173D01*
X27063853Y-25113176D01*
X26909228Y-25267801D01*
X26783789Y-25446944D01*
X26691370Y-25645139D01*
X26691366Y-25645148D01*
X26634770Y-25856371D01*
X26634768Y-25856381D01*
X26615709Y-26074230D01*
X26615709Y-26074231D01*
X26634768Y-26292080D01*
X26634770Y-26292090D01*
X26691366Y-26503313D01*
X26691371Y-26503327D01*
X26711693Y-26546907D01*
X26722185Y-26615984D01*
X26693665Y-26679768D01*
X26635188Y-26718007D01*
X26565321Y-26718561D01*
X26546907Y-26711693D01*
X26503327Y-26691371D01*
X26503313Y-26691366D01*
X26292090Y-26634770D01*
X26292080Y-26634768D01*
X26074232Y-26615709D01*
X26074230Y-26615709D01*
X25856381Y-26634768D01*
X25856371Y-26634770D01*
X25645148Y-26691366D01*
X25645139Y-26691370D01*
X25446944Y-26783789D01*
X25348753Y-26852544D01*
X25267806Y-26909224D01*
X25267804Y-26909225D01*
X25267801Y-26909228D01*
X25113176Y-27063853D01*
X25113173Y-27063856D01*
X25113172Y-27063858D01*
X25077363Y-27114999D01*
X24987737Y-27242996D01*
X24895318Y-27441191D01*
X24895314Y-27441200D01*
X24838718Y-27652423D01*
X24838716Y-27652433D01*
X24819657Y-27870282D01*
X24819657Y-27870283D01*
X24838716Y-28088132D01*
X24838718Y-28088142D01*
X24895314Y-28299365D01*
X24895316Y-28299369D01*
X24895317Y-28299373D01*
X24913270Y-28337873D01*
X24987737Y-28497569D01*
X25000084Y-28515202D01*
X25113172Y-28676708D01*
X25113176Y-28676712D01*
X25117975Y-28681511D01*
X25151460Y-28742834D01*
X25146476Y-28812526D01*
X25128572Y-28844806D01*
X13124474Y-44446790D01*
X13073649Y-44485737D01*
X12967167Y-44529844D01*
X12897698Y-44537313D01*
X12835219Y-44506038D01*
X12805153Y-44462735D01*
X12749903Y-44329349D01*
X12749902Y-44329348D01*
X12649156Y-44192430D01*
X12518567Y-44083597D01*
X12455864Y-44050687D01*
X12449784Y-44048168D01*
X12157944Y-44752733D01*
X12157944Y-44752735D01*
X11703553Y-45849732D01*
X11703554Y-45849733D01*
X11709620Y-45852246D01*
X11777242Y-45873319D01*
X11946535Y-45888704D01*
X12114584Y-45863127D01*
X12114587Y-45863126D01*
X12211968Y-45822790D01*
X12281437Y-45815321D01*
X12343917Y-45846596D01*
X12379569Y-45906685D01*
X12379174Y-45969525D01*
X11987571Y-47427102D01*
X11951166Y-47486738D01*
X11898319Y-47512658D01*
X11898915Y-47514879D01*
X11893686Y-47516279D01*
X11893686Y-47516280D01*
X11891171Y-47516954D01*
X11682457Y-47572877D01*
X11682450Y-47572879D01*
X11682450Y-47572880D01*
X11675420Y-47576158D01*
X11484253Y-47665300D01*
X11409448Y-47717680D01*
X11305115Y-47790735D01*
X11305113Y-47790736D01*
X11305110Y-47790739D01*
X11150485Y-47945364D01*
X11025046Y-48124507D01*
X10932627Y-48322702D01*
X10932623Y-48322711D01*
X10876027Y-48533934D01*
X10876025Y-48533944D01*
X10856966Y-48751793D01*
X10856966Y-48751794D01*
X10876025Y-48969643D01*
X10876027Y-48969653D01*
X10932623Y-49180876D01*
X10932625Y-49180880D01*
X10932626Y-49180884D01*
X10978836Y-49279982D01*
X11025046Y-49379080D01*
X11025047Y-49379081D01*
X11150481Y-49558219D01*
X11150485Y-49558223D01*
X11224455Y-49632193D01*
X11257940Y-49693516D01*
X11252956Y-49763208D01*
X11211084Y-49819141D01*
X11145620Y-49843558D01*
X11141420Y-49843708D01*
X10921674Y-49862933D01*
X10921664Y-49862935D01*
X10710441Y-49919531D01*
X10710432Y-49919535D01*
X10512237Y-50011954D01*
X10392725Y-50095638D01*
X10333099Y-50137389D01*
X10333097Y-50137390D01*
X10333094Y-50137393D01*
X10178469Y-50292018D01*
X10178466Y-50292021D01*
X10178465Y-50292023D01*
X10143490Y-50341972D01*
X10053030Y-50471161D01*
X9960611Y-50669356D01*
X9960607Y-50669365D01*
X9904011Y-50880588D01*
X9904009Y-50880598D01*
X9884950Y-51098447D01*
X9884950Y-51098448D01*
X9904009Y-51316297D01*
X9904011Y-51316307D01*
X9960607Y-51527530D01*
X9960609Y-51527534D01*
X9960610Y-51527538D01*
X9973453Y-51555079D01*
X10053030Y-51725734D01*
X10053031Y-51725735D01*
X10178465Y-51904873D01*
X10333099Y-52059507D01*
X10512237Y-52184941D01*
X10592993Y-52222598D01*
X10645433Y-52268770D01*
X10664585Y-52335963D01*
X10660342Y-52367154D01*
X5562802Y-71340606D01*
X5530730Y-71396113D01*
X5424828Y-71502015D01*
X5363505Y-71535500D01*
X5293813Y-71530516D01*
X5249466Y-71502015D01*
X5147378Y-71399927D01*
X5001896Y-71311980D01*
X5001897Y-71311980D01*
X4839606Y-71261409D01*
X4839607Y-71261409D01*
X4769073Y-71255000D01*
X4762501Y-71255000D01*
X4762501Y-73204999D01*
X4769082Y-73204999D01*
X4839603Y-73198591D01*
X4839608Y-73198590D01*
X5001897Y-73148018D01*
X5147378Y-73060072D01*
X5147378Y-73060071D01*
X5239000Y-72968449D01*
X5300323Y-72934963D01*
X5370014Y-72939947D01*
X5425948Y-72981818D01*
X5449643Y-73040112D01*
X5498462Y-73414882D01*
X5499501Y-73430899D01*
X5499501Y-74665231D01*
X5479816Y-74732270D01*
X5446630Y-74766802D01*
X5443581Y-74768936D01*
X5443572Y-74768944D01*
X5288946Y-74923570D01*
X5163507Y-75102713D01*
X5071088Y-75300908D01*
X5071084Y-75300917D01*
X5014488Y-75512140D01*
X5014486Y-75512150D01*
X4995427Y-75729999D01*
X4995427Y-75730000D01*
X5014486Y-75947849D01*
X5014488Y-75947859D01*
X5071084Y-76159082D01*
X5071086Y-76159086D01*
X5071087Y-76159090D01*
X5095487Y-76211416D01*
X5163507Y-76357286D01*
X5177950Y-76377912D01*
X5288942Y-76536425D01*
X5443576Y-76691059D01*
X5622714Y-76816493D01*
X5721470Y-76862544D01*
X5775242Y-76887618D01*
X5827681Y-76933790D01*
X5846833Y-77000984D01*
X5826617Y-77067865D01*
X5775242Y-77112382D01*
X5622714Y-77183506D01*
X5522001Y-77254027D01*
X5443576Y-77308941D01*
X5443574Y-77308942D01*
X5443571Y-77308945D01*
X5288946Y-77463570D01*
X5288943Y-77463573D01*
X5288942Y-77463575D01*
X5261338Y-77502998D01*
X5163507Y-77642713D01*
X5071088Y-77840908D01*
X5071084Y-77840917D01*
X5014488Y-78052140D01*
X5014486Y-78052150D01*
X4995427Y-78269999D01*
X4995427Y-78270000D01*
X5014486Y-78487849D01*
X5014488Y-78487859D01*
X5071084Y-78699082D01*
X5071086Y-78699086D01*
X5071087Y-78699090D01*
X5092263Y-78744501D01*
X5163507Y-78897286D01*
X5175500Y-78914414D01*
X5288942Y-79076425D01*
X5443576Y-79231059D01*
X5622714Y-79356493D01*
X5820911Y-79448914D01*
X6032147Y-79505514D01*
X6195548Y-79519809D01*
X6260615Y-79545261D01*
X6301594Y-79601852D01*
X6307700Y-79627320D01*
X8841897Y-99082082D01*
X8831037Y-99151102D01*
X8818818Y-99171581D01*
X8814645Y-99177252D01*
X8814641Y-99177260D01*
X8759176Y-99311163D01*
X8715335Y-99365567D01*
X8649040Y-99387631D01*
X8597163Y-99378271D01*
X8463774Y-99323020D01*
X8463768Y-99323018D01*
X8295718Y-99297441D01*
X8126426Y-99312826D01*
X8058812Y-99333894D01*
X8052737Y-99336409D01*
X8052737Y-99336410D01*
X8521524Y-100468164D01*
X8798968Y-101137974D01*
X8805037Y-101135462D01*
X8805038Y-101135461D01*
X8867750Y-101102549D01*
X8867753Y-101102547D01*
X8998340Y-100993715D01*
X9099086Y-100856797D01*
X9099087Y-100856797D01*
X9154337Y-100723410D01*
X9198177Y-100669006D01*
X9264471Y-100646941D01*
X9316351Y-100656301D01*
X9324085Y-100659505D01*
X9327902Y-100661086D01*
X9382304Y-100704928D01*
X9387878Y-100713721D01*
X10142158Y-102022293D01*
X10158582Y-102090205D01*
X10136302Y-102155341D01*
X10053033Y-102274260D01*
X10053031Y-102274264D01*
X9997879Y-102392538D01*
X9967621Y-102457428D01*
X9960611Y-102472460D01*
X9960607Y-102472469D01*
X9904011Y-102683692D01*
X9904009Y-102683702D01*
X9884950Y-102901551D01*
X9884950Y-102901552D01*
X9904009Y-103119401D01*
X9904011Y-103119411D01*
X9960607Y-103330634D01*
X9960609Y-103330638D01*
X9960610Y-103330642D01*
X10001521Y-103418375D01*
X10053030Y-103528838D01*
X10053031Y-103528839D01*
X10178465Y-103707977D01*
X10333099Y-103862611D01*
X10512237Y-103988045D01*
X10710434Y-104080466D01*
X10710440Y-104080467D01*
X10710441Y-104080468D01*
X10761284Y-104094091D01*
X10921670Y-104137066D01*
X11103342Y-104152960D01*
X11144918Y-104156598D01*
X11144754Y-104158469D01*
X11203813Y-104175811D01*
X11249568Y-104228615D01*
X11259512Y-104297773D01*
X11230487Y-104361329D01*
X11224455Y-104367807D01*
X11150485Y-104441776D01*
X11150482Y-104441779D01*
X11150481Y-104441781D01*
X11121784Y-104482764D01*
X11025046Y-104620919D01*
X10932627Y-104819114D01*
X10932623Y-104819123D01*
X10876027Y-105030346D01*
X10876025Y-105030356D01*
X10856966Y-105248205D01*
X10856966Y-105248206D01*
X10876025Y-105466055D01*
X10876027Y-105466065D01*
X10932623Y-105677288D01*
X10932625Y-105677292D01*
X10932626Y-105677296D01*
X10965157Y-105747059D01*
X11025046Y-105875492D01*
X11025047Y-105875493D01*
X11150481Y-106054631D01*
X11305115Y-106209265D01*
X11484253Y-106334699D01*
X11682450Y-106427120D01*
X11893686Y-106483720D01*
X12067969Y-106498968D01*
X12111539Y-106502780D01*
X12111540Y-106502780D01*
X12111541Y-106502780D01*
X12147849Y-106499603D01*
X12329394Y-106483720D01*
X12540630Y-106427120D01*
X12548336Y-106423526D01*
X12617408Y-106413031D01*
X12681194Y-106441546D01*
X12708175Y-106473981D01*
X14580439Y-109722102D01*
X22030613Y-122647136D01*
X22496086Y-123454667D01*
X22512510Y-123522579D01*
X22509052Y-123546266D01*
X22501083Y-123578599D01*
X22501083Y-123723540D01*
X22481398Y-123790579D01*
X22428594Y-123836334D01*
X22377083Y-123847540D01*
X22232705Y-123847540D01*
X22067654Y-123888220D01*
X21917134Y-123967220D01*
X21862726Y-124012562D01*
X21858079Y-124017209D01*
X22370733Y-124529862D01*
X23236938Y-125396067D01*
X23236939Y-125396067D01*
X23241575Y-125391430D01*
X23241591Y-125391412D01*
X23286926Y-125337015D01*
X23365928Y-125186490D01*
X23406608Y-125021442D01*
X23406608Y-124877065D01*
X23426293Y-124810026D01*
X23479097Y-124764271D01*
X23530608Y-124753065D01*
X23566730Y-124753065D01*
X23633769Y-124772750D01*
X23642343Y-124778786D01*
X23720918Y-124839241D01*
X23732981Y-124849835D01*
X24794313Y-125911166D01*
X24827798Y-125972489D01*
X24830160Y-126009653D01*
X24819657Y-126129713D01*
X24819657Y-126129717D01*
X24838716Y-126347566D01*
X24838718Y-126347576D01*
X24895314Y-126558799D01*
X24895316Y-126558803D01*
X24895317Y-126558807D01*
X24941527Y-126657905D01*
X24987737Y-126757003D01*
X25008789Y-126787068D01*
X25113172Y-126936142D01*
X25267806Y-127090776D01*
X25446944Y-127216210D01*
X25645141Y-127308631D01*
X25856377Y-127365231D01*
X26003160Y-127378073D01*
X26074230Y-127384291D01*
X26074231Y-127384291D01*
X26074232Y-127384291D01*
X26110540Y-127381114D01*
X26292085Y-127365231D01*
X26503321Y-127308631D01*
X26546906Y-127288306D01*
X26615982Y-127277814D01*
X26679766Y-127306333D01*
X26718007Y-127364809D01*
X26718562Y-127434676D01*
X26711694Y-127453091D01*
X26691370Y-127496677D01*
X26691366Y-127496686D01*
X26634770Y-127707909D01*
X26634768Y-127707919D01*
X26615709Y-127925768D01*
X26615709Y-127925769D01*
X26634768Y-128143618D01*
X26634770Y-128143628D01*
X26691366Y-128354851D01*
X26691368Y-128354855D01*
X26691369Y-128354859D01*
X26737579Y-128453957D01*
X26783789Y-128553055D01*
X26783790Y-128553056D01*
X26909224Y-128732194D01*
X27063858Y-128886828D01*
X27242996Y-129012262D01*
X27441193Y-129104683D01*
X27652429Y-129161283D01*
X27826712Y-129176531D01*
X27870282Y-129180343D01*
X27870283Y-129180343D01*
X27870284Y-129180343D01*
X27906592Y-129177166D01*
X28088137Y-129161283D01*
X28299373Y-129104683D01*
X28497570Y-129012262D01*
X28676708Y-128886828D01*
X28732316Y-128831219D01*
X28793635Y-128797737D01*
X28863327Y-128802721D01*
X28895604Y-128820622D01*
X44419029Y-140764279D01*
X44460158Y-140820760D01*
X44466002Y-140843898D01*
X44474376Y-140898920D01*
X44474378Y-140898926D01*
X44529844Y-141032834D01*
X44537313Y-141102303D01*
X44506038Y-141164782D01*
X44462735Y-141194847D01*
X44329349Y-141250096D01*
X44329348Y-141250097D01*
X44192430Y-141350843D01*
X44083595Y-141481433D01*
X44050695Y-141544120D01*
X44050684Y-141544142D01*
X44048168Y-141550214D01*
X44729261Y-141832332D01*
X44729267Y-141832334D01*
X45849732Y-142296444D01*
X45852250Y-142290369D01*
X45852252Y-142290362D01*
X45873319Y-142222761D01*
X45873319Y-142222757D01*
X45888704Y-142053464D01*
X45863127Y-141885415D01*
X45863126Y-141885412D01*
X45807874Y-141752021D01*
X45800405Y-141682551D01*
X45831680Y-141620072D01*
X45874976Y-141590010D01*
X45922501Y-141570324D01*
X45991965Y-141562856D01*
X46002095Y-141565126D01*
X47420451Y-141946192D01*
X47480084Y-141982595D01*
X47510571Y-142045462D01*
X47511802Y-142055134D01*
X47516279Y-142106310D01*
X47516281Y-142106319D01*
X47572877Y-142317542D01*
X47572879Y-142317546D01*
X47572880Y-142317550D01*
X47582188Y-142337510D01*
X47665300Y-142515746D01*
X47678275Y-142534276D01*
X47790735Y-142694885D01*
X47945369Y-142849519D01*
X48124507Y-142974953D01*
X48322704Y-143067374D01*
X48533940Y-143123974D01*
X48708223Y-143139222D01*
X48751793Y-143143034D01*
X48751794Y-143143034D01*
X48751795Y-143143034D01*
X48788103Y-143139857D01*
X48969648Y-143123974D01*
X49180884Y-143067374D01*
X49379081Y-142974953D01*
X49558219Y-142849519D01*
X49632193Y-142775545D01*
X49693516Y-142742060D01*
X49763208Y-142747044D01*
X49819141Y-142788916D01*
X49843558Y-142854380D01*
X49843708Y-142858579D01*
X49862933Y-143078325D01*
X49862935Y-143078335D01*
X49919531Y-143289558D01*
X49919533Y-143289562D01*
X49919534Y-143289566D01*
X49949593Y-143354028D01*
X50011954Y-143487762D01*
X50037041Y-143523590D01*
X50137389Y-143666901D01*
X50292023Y-143821535D01*
X50471161Y-143946969D01*
X50669358Y-144039390D01*
X50880594Y-144095990D01*
X51054877Y-144111238D01*
X51098447Y-144115050D01*
X51098448Y-144115050D01*
X51098449Y-144115050D01*
X51134757Y-144111873D01*
X51316302Y-144095990D01*
X51527538Y-144039390D01*
X51725735Y-143946969D01*
X51904873Y-143821535D01*
X52059507Y-143666901D01*
X52184941Y-143487763D01*
X52249307Y-143349729D01*
X52295478Y-143297291D01*
X52362671Y-143278139D01*
X52393851Y-143282380D01*
X71290677Y-148359333D01*
X71350310Y-148395737D01*
X71364616Y-148414934D01*
X71399528Y-148472684D01*
X71399531Y-148472688D01*
X71502015Y-148575172D01*
X71535500Y-148636495D01*
X71530516Y-148706187D01*
X71502015Y-148750534D01*
X71399928Y-148852620D01*
X71399927Y-148852621D01*
X71311980Y-148998103D01*
X71261409Y-149160392D01*
X71255000Y-149230926D01*
X71255000Y-149237499D01*
X73204999Y-149237499D01*
X73204999Y-149230916D01*
X73198591Y-149160396D01*
X73198590Y-149160391D01*
X73148018Y-148998102D01*
X73060072Y-148852621D01*
X72957984Y-148750533D01*
X72924499Y-148689210D01*
X72929483Y-148619518D01*
X72957982Y-148575173D01*
X72995188Y-148537967D01*
X73056509Y-148504484D01*
X73066819Y-148502694D01*
X73075717Y-148501535D01*
X73091709Y-148500499D01*
X74665231Y-148500499D01*
X74732270Y-148520184D01*
X74766803Y-148553371D01*
X74768941Y-148556424D01*
X74923575Y-148711058D01*
X75102713Y-148836492D01*
X75300910Y-148928913D01*
X75512146Y-148985513D01*
X75656049Y-148998103D01*
X75729999Y-149004573D01*
X75730000Y-149004573D01*
X75730001Y-149004573D01*
X75766309Y-149001396D01*
X75947854Y-148985513D01*
X76159090Y-148928913D01*
X76357287Y-148836492D01*
X76536425Y-148711058D01*
X76691059Y-148556424D01*
X76816493Y-148377286D01*
X76887619Y-148224755D01*
X76933790Y-148172318D01*
X77000984Y-148153166D01*
X77067865Y-148173382D01*
X77112380Y-148224755D01*
X77183507Y-148377286D01*
X77308941Y-148556424D01*
X77463575Y-148711058D01*
X77642713Y-148836492D01*
X77840910Y-148928913D01*
X78052146Y-148985513D01*
X78196049Y-148998103D01*
X78269999Y-149004573D01*
X78270000Y-149004573D01*
X78270001Y-149004573D01*
X78306309Y-149001396D01*
X78487854Y-148985513D01*
X78699090Y-148928913D01*
X78897287Y-148836492D01*
X79076425Y-148711058D01*
X79231059Y-148556424D01*
X79356493Y-148377286D01*
X79448914Y-148179089D01*
X79505514Y-147967853D01*
X79523720Y-147759759D01*
X79549172Y-147694691D01*
X79605763Y-147653712D01*
X79631221Y-147647608D01*
X89138329Y-146409202D01*
X99527754Y-146409202D01*
X99530269Y-146415274D01*
X99563180Y-146477984D01*
X99563182Y-146477987D01*
X99672014Y-146608574D01*
X99808932Y-146709320D01*
X99808932Y-146709321D01*
X99965980Y-146774371D01*
X99965987Y-146774373D01*
X100134035Y-146799949D01*
X100303327Y-146784566D01*
X100370956Y-146763492D01*
X100446308Y-146732279D01*
X100197565Y-146131757D01*
X100197564Y-146131756D01*
X99527754Y-146409202D01*
X89138329Y-146409202D01*
X99031070Y-145120563D01*
X99100085Y-145131423D01*
X99120568Y-145143646D01*
X99177256Y-145185357D01*
X99311164Y-145240823D01*
X99365566Y-145284664D01*
X99387631Y-145350958D01*
X99378271Y-145402836D01*
X99323020Y-145536224D01*
X99323018Y-145536231D01*
X99297441Y-145704280D01*
X99312825Y-145873571D01*
X99333899Y-145941200D01*
X99336409Y-145947261D01*
X99336410Y-145947262D01*
X99352938Y-145940416D01*
X100659504Y-145940416D01*
X100908248Y-146540936D01*
X100908249Y-146540937D01*
X100983607Y-146509722D01*
X100983617Y-146509717D01*
X101046322Y-146476809D01*
X101046331Y-146476803D01*
X101176909Y-146367980D01*
X101176912Y-146367976D01*
X101277658Y-146231057D01*
X101277659Y-146231056D01*
X101342709Y-146074008D01*
X101342711Y-146074002D01*
X101368288Y-145905953D01*
X101352903Y-145736658D01*
X101331840Y-145669059D01*
X101331836Y-145669049D01*
X101329318Y-145662971D01*
X100659505Y-145940415D01*
X100659504Y-145940416D01*
X99352938Y-145940416D01*
X100468164Y-145478476D01*
X101137975Y-145201030D01*
X101135466Y-145194971D01*
X101135459Y-145194958D01*
X101102549Y-145132249D01*
X101102547Y-145132246D01*
X100993715Y-145001659D01*
X100856797Y-144900913D01*
X100856797Y-144900912D01*
X100723410Y-144845663D01*
X100669006Y-144801823D01*
X100646941Y-144735529D01*
X100656300Y-144683651D01*
X100672796Y-144643827D01*
X100716636Y-144589426D01*
X100725391Y-144583875D01*
X102005445Y-143846034D01*
X102073348Y-143829613D01*
X102138483Y-143851893D01*
X102274265Y-143946969D01*
X102472462Y-144039390D01*
X102683698Y-144095990D01*
X102857981Y-144111238D01*
X102901551Y-144115050D01*
X102901552Y-144115050D01*
X102901553Y-144115050D01*
X102937861Y-144111873D01*
X103119406Y-144095990D01*
X103330642Y-144039390D01*
X103528839Y-143946969D01*
X103707977Y-143821535D01*
X103862611Y-143666901D01*
X103988045Y-143487763D01*
X104080466Y-143289566D01*
X104137066Y-143078330D01*
X104156126Y-142860476D01*
X104156598Y-142855082D01*
X104158469Y-142855245D01*
X104175811Y-142796187D01*
X104228615Y-142750432D01*
X104297773Y-142740488D01*
X104361329Y-142769513D01*
X104367807Y-142775545D01*
X104441781Y-142849519D01*
X104620919Y-142974953D01*
X104819116Y-143067374D01*
X105030352Y-143123974D01*
X105204635Y-143139222D01*
X105248205Y-143143034D01*
X105248206Y-143143034D01*
X105248207Y-143143034D01*
X105284515Y-143139857D01*
X105466060Y-143123974D01*
X105677296Y-143067374D01*
X105875493Y-142974953D01*
X106054631Y-142849519D01*
X106209265Y-142694885D01*
X106334699Y-142515747D01*
X106427120Y-142317550D01*
X106483720Y-142106314D01*
X106502780Y-141888460D01*
X106483720Y-141670606D01*
X106427120Y-141459370D01*
X106415615Y-141434699D01*
X106405123Y-141365623D01*
X106433642Y-141301839D01*
X106466062Y-141274871D01*
X121697118Y-132495472D01*
X124370763Y-132495472D01*
X124375399Y-132500109D01*
X124375417Y-132500125D01*
X124429814Y-132545460D01*
X124580339Y-132624462D01*
X124745387Y-132665142D01*
X124915377Y-132665142D01*
X125080427Y-132624461D01*
X125230947Y-132545461D01*
X125285348Y-132500125D01*
X125285363Y-132500111D01*
X125343034Y-132442439D01*
X125343034Y-132442438D01*
X124883415Y-131982820D01*
X124370763Y-132495472D01*
X121697118Y-132495472D01*
X123428522Y-131497466D01*
X123496427Y-131481044D01*
X123520115Y-131484502D01*
X123578600Y-131498917D01*
X123723540Y-131498917D01*
X123790579Y-131518602D01*
X123836334Y-131571406D01*
X123847540Y-131622917D01*
X123847540Y-131767294D01*
X123888220Y-131932345D01*
X123967220Y-132082865D01*
X124012551Y-132137260D01*
X124012565Y-132137275D01*
X124017209Y-132141919D01*
X124529862Y-131629267D01*
X125236968Y-131629267D01*
X125696586Y-132088885D01*
X125754267Y-132031205D01*
X125754273Y-132031198D01*
X125799608Y-131976801D01*
X125878610Y-131826276D01*
X125919290Y-131661228D01*
X125919290Y-131491239D01*
X125878609Y-131326188D01*
X125799609Y-131175668D01*
X125754278Y-131121273D01*
X125754264Y-131121258D01*
X125749620Y-131116614D01*
X125749619Y-131116614D01*
X125236968Y-131629266D01*
X125236968Y-131629267D01*
X124529862Y-131629267D01*
X124883415Y-131275714D01*
X125396066Y-130763061D01*
X125396066Y-130763060D01*
X125391431Y-130758425D01*
X125391412Y-130758408D01*
X125337015Y-130713073D01*
X125186490Y-130634071D01*
X125021443Y-130593392D01*
X124877065Y-130593392D01*
X124810026Y-130573707D01*
X124764271Y-130520903D01*
X124753065Y-130469392D01*
X124753065Y-130448493D01*
X124772750Y-130381454D01*
X124778762Y-130372913D01*
X124890061Y-130228256D01*
X124900620Y-130216232D01*
X125911168Y-129205683D01*
X125972489Y-129172200D01*
X126009650Y-129169838D01*
X126129717Y-129180343D01*
X126129718Y-129180343D01*
X126166026Y-129177166D01*
X126347571Y-129161283D01*
X126558807Y-129104683D01*
X126757004Y-129012262D01*
X126936142Y-128886828D01*
X127090776Y-128732194D01*
X127216210Y-128553056D01*
X127308631Y-128354859D01*
X127365231Y-128143623D01*
X127384291Y-127925769D01*
X127365231Y-127707915D01*
X127308631Y-127496679D01*
X127288305Y-127453091D01*
X127277814Y-127384016D01*
X127306333Y-127320232D01*
X127364810Y-127281992D01*
X127434677Y-127281437D01*
X127453088Y-127288304D01*
X127496679Y-127308631D01*
X127707915Y-127365231D01*
X127854698Y-127378073D01*
X127925768Y-127384291D01*
X127925769Y-127384291D01*
X127925770Y-127384291D01*
X127962078Y-127381114D01*
X128143623Y-127365231D01*
X128354859Y-127308631D01*
X128553056Y-127216210D01*
X128732194Y-127090776D01*
X128886828Y-126936142D01*
X129012262Y-126757004D01*
X129104683Y-126558807D01*
X129161283Y-126347571D01*
X129180343Y-126129717D01*
X129176843Y-126089718D01*
X129174798Y-126066335D01*
X129161283Y-125911863D01*
X129114394Y-125736869D01*
X129104685Y-125700634D01*
X129104684Y-125700633D01*
X129104683Y-125700627D01*
X129012262Y-125502430D01*
X128886828Y-125323292D01*
X128837842Y-125274306D01*
X128804357Y-125212983D01*
X128809341Y-125143291D01*
X128827237Y-125111024D01*
X140343440Y-110143170D01*
X142012155Y-110143170D01*
X142012156Y-110143171D01*
X142018222Y-110145684D01*
X142085844Y-110166757D01*
X142255137Y-110182142D01*
X142423186Y-110156565D01*
X142423192Y-110156563D01*
X142580240Y-110091513D01*
X142580241Y-110091512D01*
X142717160Y-109990766D01*
X142717164Y-109990763D01*
X142825987Y-109860185D01*
X142825995Y-109860173D01*
X142858897Y-109797481D01*
X142858909Y-109797455D01*
X142890121Y-109722103D01*
X142890120Y-109722102D01*
X142289600Y-109473358D01*
X142289599Y-109473359D01*
X142012155Y-110143170D01*
X140343440Y-110143170D01*
X140777552Y-109578945D01*
X140834027Y-109537821D01*
X140857155Y-109531979D01*
X140898926Y-109525622D01*
X141032834Y-109470154D01*
X141102302Y-109462686D01*
X141164782Y-109493961D01*
X141194847Y-109537264D01*
X141250096Y-109670651D01*
X141350843Y-109807569D01*
X141481433Y-109916404D01*
X141544127Y-109949308D01*
X141544148Y-109949318D01*
X141550213Y-109951830D01*
X141849611Y-109229024D01*
X141939746Y-109011418D01*
X142480940Y-109011418D01*
X143081462Y-109260162D01*
X143112679Y-109184800D01*
X143133748Y-109117189D01*
X143133749Y-109117182D01*
X143149134Y-108947889D01*
X143123557Y-108779841D01*
X143123555Y-108779834D01*
X143058505Y-108622786D01*
X142957758Y-108485868D01*
X142827169Y-108377035D01*
X142764466Y-108344125D01*
X142758386Y-108341606D01*
X142480940Y-109011418D01*
X141939746Y-109011418D01*
X142296445Y-108150265D01*
X142290379Y-108147753D01*
X142222757Y-108126680D01*
X142053464Y-108111295D01*
X141885415Y-108136872D01*
X141757313Y-108189933D01*
X141687843Y-108197401D01*
X141625364Y-108166125D01*
X141589712Y-108106036D01*
X141590107Y-108043203D01*
X141984239Y-106576214D01*
X142020640Y-106516586D01*
X142083507Y-106486099D01*
X142093146Y-106484872D01*
X142106314Y-106483720D01*
X142317550Y-106427120D01*
X142515747Y-106334699D01*
X142694885Y-106209265D01*
X142849519Y-106054631D01*
X142974953Y-105875493D01*
X143067374Y-105677296D01*
X143123974Y-105466060D01*
X143143034Y-105248206D01*
X143123974Y-105030352D01*
X143067374Y-104819116D01*
X142974953Y-104620919D01*
X142849519Y-104441781D01*
X142775545Y-104367807D01*
X142742060Y-104306484D01*
X142747044Y-104236792D01*
X142788916Y-104180859D01*
X142854380Y-104156442D01*
X142858579Y-104156291D01*
X142860470Y-104156125D01*
X142860476Y-104156126D01*
X143078330Y-104137066D01*
X143289566Y-104080466D01*
X143487763Y-103988045D01*
X143666901Y-103862611D01*
X143821535Y-103707977D01*
X143946969Y-103528839D01*
X144039390Y-103330642D01*
X144095990Y-103119406D01*
X144115050Y-102901552D01*
X144095990Y-102683698D01*
X144039390Y-102472462D01*
X143946969Y-102274265D01*
X143821535Y-102095127D01*
X143666901Y-101940493D01*
X143487763Y-101815059D01*
X143487764Y-101815059D01*
X143487762Y-101815058D01*
X143382745Y-101766088D01*
X143330306Y-101719915D01*
X143311154Y-101652722D01*
X143315394Y-101621548D01*
X148403690Y-82682504D01*
X148440092Y-82622875D01*
X148459284Y-82608572D01*
X148472684Y-82600472D01*
X148575174Y-82497981D01*
X148636493Y-82464499D01*
X148706185Y-82469483D01*
X148750533Y-82497984D01*
X148852621Y-82600072D01*
X148998103Y-82688019D01*
X148998102Y-82688019D01*
X149160393Y-82738590D01*
X149160392Y-82738590D01*
X149230907Y-82744998D01*
X149230925Y-82744999D01*
X149237498Y-82744998D01*
X149237499Y-82744998D01*
X149237499Y-82020000D01*
X149737499Y-82020000D01*
X149737499Y-82744999D01*
X149744080Y-82744999D01*
X149814601Y-82738591D01*
X149814606Y-82738590D01*
X149976895Y-82688018D01*
X150122376Y-82600072D01*
X150242571Y-82479877D01*
X150330518Y-82334395D01*
X150381089Y-82172106D01*
X150387499Y-82101572D01*
X150387499Y-82020000D01*
X149737499Y-82020000D01*
X149237499Y-82020000D01*
X149237499Y-80795000D01*
X149737499Y-80795000D01*
X149737499Y-81520000D01*
X150387498Y-81520000D01*
X150387498Y-81438417D01*
X150381090Y-81367897D01*
X150381089Y-81367892D01*
X150330517Y-81205603D01*
X150242571Y-81060122D01*
X150122376Y-80939927D01*
X149976894Y-80851980D01*
X149976895Y-80851980D01*
X149814604Y-80801409D01*
X149814605Y-80801409D01*
X149744071Y-80795000D01*
X149737499Y-80795000D01*
X149237499Y-80795000D01*
X149237498Y-80794999D01*
X149230935Y-80795000D01*
X149230916Y-80795001D01*
X149160396Y-80801408D01*
X149160391Y-80801409D01*
X148998102Y-80851981D01*
X148852623Y-80939926D01*
X148772461Y-81020088D01*
X148711137Y-81053572D01*
X148641446Y-81048588D01*
X148585512Y-81006716D01*
X148561825Y-80948469D01*
X148501542Y-80486959D01*
X148500499Y-80470905D01*
X148500499Y-79334768D01*
X148520184Y-79267729D01*
X148553378Y-79233191D01*
X148556424Y-79231059D01*
X148711058Y-79076425D01*
X148836492Y-78897287D01*
X148928913Y-78699090D01*
X148985513Y-78487854D01*
X149004573Y-78270000D01*
X148985513Y-78052146D01*
X148928913Y-77840910D01*
X148836492Y-77642713D01*
X148711058Y-77463575D01*
X148556424Y-77308941D01*
X148377286Y-77183507D01*
X148224755Y-77112380D01*
X148172318Y-77066210D01*
X148153166Y-76999016D01*
X148173382Y-76932135D01*
X148224755Y-76887619D01*
X148377286Y-76816493D01*
X148556424Y-76691059D01*
X148711058Y-76536425D01*
X148836492Y-76357287D01*
X148928913Y-76159090D01*
X148985513Y-75947854D01*
X149004573Y-75730000D01*
X148985513Y-75512146D01*
X148928913Y-75300910D01*
X148836492Y-75102713D01*
X148711058Y-74923575D01*
X148556424Y-74768941D01*
X148377286Y-74643507D01*
X148377287Y-74643507D01*
X148377285Y-74643506D01*
X148250063Y-74584182D01*
X148179089Y-74551086D01*
X148179085Y-74551085D01*
X148179081Y-74551083D01*
X147967858Y-74494487D01*
X147967848Y-74494485D01*
X147815164Y-74481127D01*
X147750096Y-74455674D01*
X147709117Y-74399083D01*
X147703020Y-74373677D01*
X145159519Y-54901292D01*
X145170355Y-54832270D01*
X145174467Y-54824322D01*
X145175353Y-54822749D01*
X145175357Y-54822744D01*
X145230824Y-54688833D01*
X145274664Y-54634433D01*
X145340958Y-54612368D01*
X145392837Y-54621728D01*
X145526228Y-54676980D01*
X145526231Y-54676981D01*
X145694280Y-54702557D01*
X145863573Y-54687173D01*
X145931190Y-54666104D01*
X145937261Y-54663589D01*
X145937262Y-54663588D01*
X145580561Y-53802434D01*
X146121756Y-53802434D01*
X146399202Y-54472244D01*
X146405271Y-54469732D01*
X146405272Y-54469731D01*
X146467984Y-54436819D01*
X146467987Y-54436817D01*
X146598574Y-54327985D01*
X146699320Y-54191067D01*
X146699321Y-54191067D01*
X146764371Y-54034019D01*
X146764373Y-54034012D01*
X146789950Y-53865964D01*
X146774565Y-53696668D01*
X146753500Y-53629064D01*
X146722278Y-53553689D01*
X146121757Y-53802433D01*
X146121756Y-53802434D01*
X145580561Y-53802434D01*
X145468476Y-53531836D01*
X145191031Y-52862024D01*
X145184958Y-52864539D01*
X145184958Y-52864540D01*
X145122249Y-52897450D01*
X145122246Y-52897452D01*
X144991659Y-53006284D01*
X144890913Y-53143201D01*
X144856592Y-53226061D01*
X144812751Y-53280464D01*
X144746457Y-53302529D01*
X144678757Y-53285250D01*
X144634581Y-53240499D01*
X144578537Y-53143201D01*
X144306364Y-52670680D01*
X145652971Y-52670680D01*
X145930415Y-53340493D01*
X145930416Y-53340494D01*
X146530936Y-53091749D01*
X146499722Y-53016392D01*
X146499717Y-53016382D01*
X146466809Y-52953677D01*
X146466803Y-52953668D01*
X146357980Y-52823090D01*
X146357976Y-52823087D01*
X146221057Y-52722341D01*
X146221056Y-52722340D01*
X146064008Y-52657290D01*
X146064002Y-52657288D01*
X145895952Y-52631711D01*
X145726660Y-52647096D01*
X145659046Y-52668164D01*
X145652971Y-52670679D01*
X145652971Y-52670680D01*
X144306364Y-52670680D01*
X143880395Y-51931153D01*
X143863991Y-51863237D01*
X143886269Y-51798141D01*
X143936969Y-51725735D01*
X144029390Y-51527538D01*
X144085990Y-51316302D01*
X144105050Y-51098448D01*
X144104039Y-51086898D01*
X144092695Y-50957234D01*
X144085990Y-50880594D01*
X144043015Y-50720208D01*
X144029392Y-50669365D01*
X144029391Y-50669364D01*
X144029390Y-50669358D01*
X143936969Y-50471161D01*
X143811535Y-50292023D01*
X143656901Y-50137389D01*
X143477763Y-50011955D01*
X143477764Y-50011955D01*
X143477762Y-50011954D01*
X143378664Y-49965744D01*
X143279566Y-49919534D01*
X143279562Y-49919533D01*
X143279558Y-49919531D01*
X143068335Y-49862935D01*
X143068325Y-49862933D01*
X142845082Y-49843402D01*
X142845245Y-49841530D01*
X142786187Y-49824189D01*
X142740432Y-49771385D01*
X142730488Y-49702227D01*
X142759513Y-49638671D01*
X142765545Y-49632193D01*
X142795760Y-49601978D01*
X142839519Y-49558219D01*
X142964953Y-49379081D01*
X143057374Y-49180884D01*
X143113974Y-48969648D01*
X143133034Y-48751794D01*
X143113974Y-48533940D01*
X143069757Y-48368918D01*
X143057376Y-48322711D01*
X143057375Y-48322710D01*
X143057374Y-48322704D01*
X142964953Y-48124507D01*
X142839519Y-47945369D01*
X142684885Y-47790735D01*
X142505747Y-47665301D01*
X142505748Y-47665301D01*
X142505746Y-47665300D01*
X142406648Y-47619090D01*
X142307550Y-47572880D01*
X142307546Y-47572879D01*
X142307542Y-47572877D01*
X142096319Y-47516281D01*
X142096309Y-47516279D01*
X141878461Y-47497220D01*
X141878459Y-47497220D01*
X141660610Y-47516279D01*
X141660600Y-47516281D01*
X141472630Y-47566647D01*
X141402780Y-47564984D01*
X141344918Y-47525821D01*
X141333087Y-47508763D01*
X140187671Y-45520203D01*
X131515466Y-30464357D01*
X131498917Y-30402467D01*
X131498917Y-30276460D01*
X131518602Y-30209421D01*
X131571406Y-30163666D01*
X131622917Y-30152460D01*
X131767295Y-30152460D01*
X131932345Y-30111779D01*
X132082865Y-30032779D01*
X132137271Y-29987439D01*
X132137276Y-29987434D01*
X132141919Y-29982790D01*
X131629267Y-29470138D01*
X131275714Y-29116585D01*
X131982820Y-29116585D01*
X132495472Y-29629237D01*
X132495473Y-29629237D01*
X132500109Y-29624600D01*
X132500125Y-29624582D01*
X132545460Y-29570185D01*
X132624462Y-29419660D01*
X132665142Y-29254612D01*
X132665142Y-29084623D01*
X132624461Y-28919572D01*
X132545461Y-28769052D01*
X132500130Y-28714657D01*
X132500116Y-28714642D01*
X132442439Y-28656965D01*
X132442438Y-28656965D01*
X131982820Y-29116584D01*
X131982820Y-29116585D01*
X131275714Y-29116585D01*
X130763061Y-28603931D01*
X130763061Y-28603932D01*
X130758421Y-28608574D01*
X130713071Y-28662987D01*
X130634071Y-28813509D01*
X130593392Y-28978557D01*
X130593392Y-29050617D01*
X130573707Y-29117656D01*
X130520903Y-29163411D01*
X130451745Y-29173355D01*
X130393919Y-29149003D01*
X129850495Y-28732138D01*
X129838287Y-28721433D01*
X129367233Y-28250379D01*
X131116613Y-28250379D01*
X131629267Y-28763031D01*
X131629268Y-28763031D01*
X132088885Y-28303412D01*
X132088885Y-28303411D01*
X132031217Y-28245743D01*
X132031198Y-28245726D01*
X131976801Y-28200391D01*
X131826276Y-28121389D01*
X131661229Y-28080710D01*
X131491239Y-28080710D01*
X131326188Y-28121390D01*
X131175668Y-28200390D01*
X131121260Y-28245732D01*
X131116613Y-28250379D01*
X129367233Y-28250379D01*
X129205685Y-28088831D01*
X129172200Y-28027508D01*
X129169838Y-27990346D01*
X129180343Y-27870283D01*
X129161283Y-27652429D01*
X129104683Y-27441193D01*
X129012262Y-27242996D01*
X128886828Y-27063858D01*
X128732194Y-26909224D01*
X128588883Y-26808876D01*
X128553055Y-26783789D01*
X128420944Y-26722185D01*
X128354859Y-26691369D01*
X128354855Y-26691368D01*
X128354851Y-26691366D01*
X128143628Y-26634770D01*
X128143618Y-26634768D01*
X127925770Y-26615709D01*
X127925768Y-26615709D01*
X127707919Y-26634768D01*
X127707909Y-26634770D01*
X127496686Y-26691366D01*
X127496677Y-26691370D01*
X127453091Y-26711694D01*
X127384014Y-26722185D01*
X127320230Y-26693664D01*
X127281991Y-26635187D01*
X127281438Y-26565320D01*
X127288307Y-26546905D01*
X127304463Y-26512260D01*
X127308631Y-26503321D01*
X127365231Y-26292085D01*
X127384291Y-26074231D01*
X127365231Y-25856377D01*
X127308631Y-25645141D01*
X127216210Y-25446944D01*
X127090776Y-25267806D01*
X126936142Y-25113172D01*
X126792831Y-25012824D01*
X126757003Y-24987737D01*
X126606447Y-24917532D01*
X126558807Y-24895317D01*
X126558803Y-24895316D01*
X126558799Y-24895314D01*
X126347576Y-24838718D01*
X126347566Y-24838716D01*
X126129718Y-24819657D01*
X126129716Y-24819657D01*
X125911867Y-24838716D01*
X125911857Y-24838718D01*
X125700634Y-24895314D01*
X125700625Y-24895318D01*
X125502430Y-24987738D01*
X125323289Y-25113173D01*
X125317488Y-25118975D01*
X125256163Y-25152457D01*
X125186471Y-25147469D01*
X125154338Y-25129675D01*
X109572063Y-13176371D01*
X109530853Y-13119949D01*
X109527885Y-13108235D01*
X109527638Y-13108305D01*
X109525622Y-13101079D01*
X109525622Y-13101074D01*
X109502563Y-13045407D01*
X109470156Y-12967166D01*
X109462687Y-12897697D01*
X109493962Y-12835218D01*
X109537265Y-12805153D01*
X109670650Y-12749903D01*
X109670651Y-12749902D01*
X109807569Y-12649156D01*
X109916404Y-12518566D01*
X109949311Y-12455868D01*
X109949316Y-12455856D01*
X109951831Y-12449785D01*
X109220785Y-12146975D01*
X109220782Y-12146975D01*
X108166789Y-11710398D01*
X109473358Y-11710398D01*
X109473359Y-11710399D01*
X110143170Y-11987842D01*
X110145688Y-11981767D01*
X110145690Y-11981760D01*
X110166757Y-11914159D01*
X110166757Y-11914155D01*
X110182142Y-11744862D01*
X110156565Y-11576813D01*
X110156563Y-11576807D01*
X110091513Y-11419759D01*
X110091512Y-11419758D01*
X109990766Y-11282839D01*
X109990763Y-11282835D01*
X109860185Y-11174012D01*
X109860176Y-11174006D01*
X109797472Y-11141097D01*
X109797463Y-11141093D01*
X109722102Y-11109877D01*
X109473358Y-11710398D01*
X108166789Y-11710398D01*
X108150266Y-11703554D01*
X108147749Y-11709631D01*
X108147748Y-11709636D01*
X108126681Y-11777236D01*
X108126680Y-11777242D01*
X108111295Y-11946535D01*
X108136928Y-12114950D01*
X108127555Y-12184188D01*
X108082237Y-12237368D01*
X108015362Y-12257604D01*
X107966684Y-12248084D01*
X106427959Y-11607515D01*
X106373633Y-11563578D01*
X106363233Y-11545444D01*
X106334700Y-11484255D01*
X106321724Y-11465723D01*
X106209265Y-11305115D01*
X106145762Y-11241612D01*
X108341606Y-11241612D01*
X109011418Y-11519057D01*
X109260163Y-10918537D01*
X109184800Y-10887321D01*
X109184789Y-10887316D01*
X109117189Y-10866251D01*
X109117182Y-10866250D01*
X108947889Y-10850865D01*
X108779841Y-10876442D01*
X108779834Y-10876444D01*
X108622786Y-10941494D01*
X108622786Y-10941495D01*
X108485868Y-11042241D01*
X108377033Y-11172831D01*
X108344133Y-11235518D01*
X108344122Y-11235540D01*
X108341606Y-11241612D01*
X106145762Y-11241612D01*
X106054631Y-11150481D01*
X105875493Y-11025047D01*
X105875494Y-11025047D01*
X105875492Y-11025046D01*
X105776394Y-10978836D01*
X105677296Y-10932626D01*
X105677292Y-10932625D01*
X105677288Y-10932623D01*
X105466065Y-10876027D01*
X105466055Y-10876025D01*
X105248207Y-10856966D01*
X105248205Y-10856966D01*
X105030356Y-10876025D01*
X105030346Y-10876027D01*
X104852393Y-10923709D01*
X104782543Y-10922046D01*
X104772644Y-10918410D01*
X104078474Y-10629428D01*
X104024148Y-10585491D01*
X104013748Y-10567357D01*
X103988046Y-10512239D01*
X103982592Y-10504450D01*
X103862611Y-10333099D01*
X103707977Y-10178465D01*
X103528839Y-10053031D01*
X103528840Y-10053031D01*
X103528838Y-10053030D01*
X103390049Y-9988312D01*
X103330642Y-9960610D01*
X103330638Y-9960609D01*
X103330634Y-9960607D01*
X103119411Y-9904011D01*
X103119401Y-9904009D01*
X102901553Y-9884950D01*
X102901551Y-9884950D01*
X102683702Y-9904009D01*
X102683692Y-9904011D01*
X102512888Y-9949777D01*
X102443038Y-9948114D01*
X102433139Y-9944478D01*
X100817789Y-9272010D01*
X100763463Y-9228073D01*
X100741516Y-9161739D01*
X100743933Y-9132821D01*
X100750794Y-9099086D01*
X101679531Y-4532510D01*
X101712179Y-4470744D01*
X101773042Y-4436430D01*
X101841230Y-4439922D01*
X102683784Y-4728607D01*
X102686375Y-4729528D01*
X104322235Y-5331971D01*
X104324819Y-5332956D01*
X105946595Y-5972501D01*
X105949167Y-5973550D01*
X107555885Y-6649813D01*
X107558390Y-6650901D01*
X109149421Y-7363617D01*
X109151871Y-7364749D01*
X110726208Y-8113471D01*
X110728632Y-8114658D01*
X112285496Y-8899012D01*
X112288002Y-8900311D01*
X113826539Y-9719863D01*
X113828989Y-9721203D01*
X114883118Y-10313911D01*
X115348551Y-10575611D01*
X115350941Y-10576990D01*
X116850662Y-11465767D01*
X116852993Y-11467185D01*
X116880357Y-11484255D01*
X118332048Y-12389842D01*
X118334426Y-12391363D01*
X119113689Y-12902481D01*
X119792103Y-13347452D01*
X119794392Y-13348991D01*
X120349732Y-13731597D01*
X121229936Y-14338022D01*
X121232242Y-14339650D01*
X122644868Y-15361077D01*
X122647136Y-15362757D01*
X123229624Y-15804471D01*
X124036147Y-16416077D01*
X124038318Y-16417762D01*
X125403032Y-17502459D01*
X125405208Y-17504229D01*
X125996995Y-17996984D01*
X126744854Y-18619692D01*
X126747002Y-18621523D01*
X127463824Y-19246559D01*
X128022951Y-19734093D01*
X128060848Y-19767137D01*
X128062954Y-19769015D01*
X129309045Y-20906506D01*
X129350449Y-20944301D01*
X129352499Y-20946216D01*
X130440994Y-21986247D01*
X130612894Y-22150493D01*
X130614912Y-22152466D01*
X131847533Y-23385087D01*
X131849506Y-23387105D01*
X132981889Y-24572256D01*
X133053771Y-24647487D01*
X133055689Y-24649540D01*
X133691724Y-25346300D01*
X134230983Y-25937044D01*
X134232862Y-25939151D01*
X135378476Y-27252997D01*
X135380307Y-27255145D01*
X136212924Y-28255100D01*
X136472195Y-28566479D01*
X136495758Y-28594777D01*
X136497536Y-28596962D01*
X137577075Y-29955187D01*
X137582214Y-29961652D01*
X137583931Y-29963865D01*
X137717002Y-30139344D01*
X138637242Y-31352863D01*
X138638922Y-31355131D01*
X139660349Y-32767757D01*
X139661977Y-32770063D01*
X140449400Y-33912979D01*
X140560392Y-34074081D01*
X140650990Y-34205580D01*
X140652565Y-34207923D01*
X141608636Y-35665573D01*
X141610157Y-35667951D01*
X142532809Y-37146998D01*
X142534247Y-37149362D01*
X143382515Y-38580729D01*
X143422977Y-38649004D01*
X143424388Y-38651448D01*
X144278781Y-40170983D01*
X144280136Y-40173460D01*
X145099688Y-41711997D01*
X145100987Y-41714503D01*
X145885314Y-43271312D01*
X145886545Y-43273828D01*
X146629382Y-44835789D01*
X146635223Y-44848070D01*
X146636399Y-44850616D01*
X147225224Y-46165079D01*
X147349080Y-46441568D01*
X147350204Y-46444157D01*
X148026440Y-48050811D01*
X148027506Y-48053425D01*
X148667033Y-49675154D01*
X148668038Y-49677792D01*
X149270459Y-51313590D01*
X149271404Y-51316250D01*
X149836423Y-52965311D01*
X149837308Y-52967991D01*
X150364667Y-54629566D01*
X150365490Y-54632266D01*
X150854872Y-56305349D01*
X150855634Y-56308067D01*
X151306824Y-57991927D01*
X151307523Y-57994662D01*
X151720249Y-59688293D01*
X151720886Y-59691043D01*
X152094951Y-61393620D01*
X152095526Y-61396384D01*
X152430751Y-63107101D01*
X152431262Y-63109877D01*
X152727450Y-64827733D01*
X152727898Y-64830520D01*
X152984911Y-66554708D01*
X152985295Y-66557505D01*
X153202986Y-68287037D01*
X153203307Y-68289841D01*
X153381576Y-70023924D01*
X153381833Y-70026735D01*
X153520586Y-71764463D01*
X153520778Y-71767280D01*
X153619932Y-73507619D01*
X153620061Y-73510438D01*
X153679578Y-75252675D01*
X153679642Y-75255498D01*
X153699483Y-76998589D01*
X153699483Y-77001411D01*
X153679642Y-78744501D01*
X153679578Y-78747324D01*
X153620061Y-80489561D01*
X153619932Y-80492380D01*
X153520778Y-82232719D01*
X153520586Y-82235536D01*
X153381833Y-83973264D01*
X153381576Y-83976075D01*
X153203307Y-85710158D01*
X153202986Y-85712962D01*
X152985295Y-87442494D01*
X152984911Y-87445291D01*
X152727898Y-89169479D01*
X152727450Y-89172266D01*
X152431262Y-90890122D01*
X152430751Y-90892898D01*
X152095526Y-92603615D01*
X152094951Y-92606379D01*
X151720886Y-94308956D01*
X151720249Y-94311706D01*
X151307523Y-96005337D01*
X151306824Y-96008072D01*
X150855634Y-97691932D01*
X150854872Y-97694650D01*
X150365490Y-99367733D01*
X150364667Y-99370433D01*
X149837308Y-101032008D01*
X149836423Y-101034688D01*
X149271404Y-102683749D01*
X149270459Y-102686409D01*
X148668038Y-104322207D01*
X148667033Y-104324845D01*
X148027506Y-105946574D01*
X148026440Y-105949188D01*
X147350204Y-107555842D01*
X147349080Y-107558431D01*
X146636407Y-109149366D01*
X146635223Y-109151929D01*
X145886555Y-110726152D01*
X145885314Y-110728687D01*
X145100987Y-112285496D01*
X145099688Y-112288002D01*
X144280136Y-113826539D01*
X144278781Y-113829016D01*
X143424388Y-115348551D01*
X143422977Y-115350995D01*
X142534276Y-116850589D01*
X142532809Y-116853001D01*
X141610157Y-118332048D01*
X141608636Y-118334426D01*
X140652565Y-119792076D01*
X140650990Y-119794419D01*
X139661977Y-121229936D01*
X139660349Y-121232242D01*
X138638922Y-122644868D01*
X138637242Y-122647136D01*
X137583945Y-124036117D01*
X137582214Y-124038347D01*
X136497540Y-125403032D01*
X136495758Y-125405222D01*
X135380307Y-126744854D01*
X135378476Y-126747002D01*
X134232862Y-128060848D01*
X134230983Y-128062955D01*
X133055698Y-129350449D01*
X133053771Y-129352512D01*
X131849506Y-130612894D01*
X131847533Y-130614912D01*
X130614912Y-131847533D01*
X130612894Y-131849506D01*
X129352512Y-133053771D01*
X129350449Y-133055698D01*
X128062955Y-134230983D01*
X128060848Y-134232862D01*
X126747002Y-135378476D01*
X126744854Y-135380307D01*
X125405222Y-136495758D01*
X125403032Y-136497540D01*
X124038347Y-137582214D01*
X124036117Y-137583945D01*
X122647136Y-138637242D01*
X122644868Y-138638922D01*
X121232242Y-139660349D01*
X121229936Y-139661977D01*
X119794419Y-140650990D01*
X119792076Y-140652565D01*
X118334426Y-141608636D01*
X118332048Y-141610157D01*
X116853001Y-142532809D01*
X116850598Y-142534270D01*
X116309261Y-142855082D01*
X115350995Y-143422977D01*
X115348551Y-143424388D01*
X113829016Y-144278781D01*
X113826539Y-144280136D01*
X112288002Y-145099688D01*
X112285496Y-145100987D01*
X110728687Y-145885314D01*
X110726152Y-145886555D01*
X109151929Y-146635223D01*
X109149366Y-146636407D01*
X107558431Y-147349080D01*
X107555842Y-147350204D01*
X105949188Y-148026440D01*
X105946574Y-148027506D01*
X104324845Y-148667033D01*
X104322207Y-148668038D01*
X102686409Y-149270459D01*
X102683749Y-149271404D01*
X101034688Y-149836423D01*
X101032008Y-149837308D01*
X99370433Y-150364667D01*
X99367733Y-150365490D01*
X97694650Y-150854872D01*
X97691932Y-150855634D01*
X96008072Y-151306824D01*
X96005337Y-151307523D01*
X94311706Y-151720249D01*
X94308956Y-151720886D01*
X92606379Y-152094951D01*
X92603615Y-152095526D01*
X90892898Y-152430751D01*
X90890122Y-152431262D01*
X89172266Y-152727450D01*
X89169479Y-152727898D01*
X87445291Y-152984911D01*
X87442494Y-152985295D01*
X85712962Y-153202986D01*
X85710158Y-153203307D01*
X83976075Y-153381576D01*
X83973264Y-153381833D01*
X82235536Y-153520586D01*
X82232719Y-153520778D01*
X80492380Y-153619932D01*
X80489561Y-153620061D01*
X78747324Y-153679578D01*
X78744501Y-153679642D01*
X77001411Y-153699483D01*
X76998589Y-153699483D01*
X75255498Y-153679642D01*
X75252675Y-153679578D01*
X73510438Y-153620061D01*
X73507619Y-153619932D01*
X71767280Y-153520778D01*
X71764463Y-153520586D01*
X70026735Y-153381833D01*
X70023924Y-153381576D01*
X68289841Y-153203307D01*
X68287037Y-153202986D01*
X66557505Y-152985295D01*
X66554708Y-152984911D01*
X64830520Y-152727898D01*
X64827733Y-152727450D01*
X63109877Y-152431262D01*
X63107101Y-152430751D01*
X61396384Y-152095526D01*
X61393620Y-152094951D01*
X59691043Y-151720886D01*
X59688293Y-151720249D01*
X57994662Y-151307523D01*
X57991927Y-151306824D01*
X56308067Y-150855634D01*
X56305349Y-150854872D01*
X54632266Y-150365490D01*
X54629566Y-150364667D01*
X52967991Y-149837308D01*
X52965311Y-149836423D01*
X52676592Y-149737499D01*
X71255001Y-149737499D01*
X71255001Y-149744081D01*
X71261408Y-149814601D01*
X71261409Y-149814606D01*
X71311981Y-149976895D01*
X71399927Y-150122376D01*
X71520122Y-150242571D01*
X71665604Y-150330518D01*
X71665603Y-150330518D01*
X71827894Y-150381089D01*
X71827892Y-150381089D01*
X71898418Y-150387498D01*
X71979999Y-150387497D01*
X71980000Y-150387497D01*
X71980000Y-149737499D01*
X72480000Y-149737499D01*
X72480000Y-150387498D01*
X72561581Y-150387498D01*
X72632102Y-150381090D01*
X72632107Y-150381089D01*
X72794396Y-150330517D01*
X72939877Y-150242571D01*
X73060072Y-150122376D01*
X73148019Y-149976894D01*
X73198590Y-149814605D01*
X73205000Y-149744071D01*
X73205000Y-149737499D01*
X72480000Y-149737499D01*
X71980000Y-149737499D01*
X71255001Y-149737499D01*
X52676592Y-149737499D01*
X51316250Y-149271404D01*
X51313590Y-149270459D01*
X49677792Y-148668038D01*
X49675154Y-148667033D01*
X48053425Y-148027506D01*
X48050811Y-148026440D01*
X46444157Y-147350204D01*
X46441568Y-147349080D01*
X46438918Y-147347893D01*
X44850616Y-146636399D01*
X44848088Y-146635231D01*
X43273828Y-145886545D01*
X43271331Y-145885323D01*
X42210670Y-145350958D01*
X41714503Y-145100987D01*
X41711997Y-145099688D01*
X40173460Y-144280136D01*
X40170983Y-144278781D01*
X38651448Y-143424388D01*
X38649031Y-143422992D01*
X38072731Y-143081461D01*
X44739835Y-143081461D01*
X44815204Y-143112681D01*
X44882810Y-143133748D01*
X44882817Y-143133749D01*
X45052110Y-143149134D01*
X45220158Y-143123557D01*
X45220165Y-143123555D01*
X45377213Y-143058505D01*
X45377213Y-143058504D01*
X45514131Y-142957758D01*
X45622966Y-142827168D01*
X45655873Y-142764470D01*
X45655878Y-142764458D01*
X45658393Y-142758387D01*
X44988579Y-142480940D01*
X44739835Y-143081461D01*
X38072731Y-143081461D01*
X37149362Y-142534247D01*
X37146998Y-142532809D01*
X36701879Y-142255137D01*
X43817857Y-142255137D01*
X43843434Y-142423186D01*
X43843436Y-142423192D01*
X43908486Y-142580240D01*
X43908487Y-142580241D01*
X44009233Y-142717160D01*
X44009236Y-142717164D01*
X44139814Y-142825987D01*
X44139826Y-142825995D01*
X44202518Y-142858897D01*
X44202537Y-142858906D01*
X44277895Y-142890121D01*
X44277896Y-142890120D01*
X44526640Y-142289600D01*
X44526639Y-142289599D01*
X43856828Y-142012156D01*
X43854311Y-142018233D01*
X43854310Y-142018238D01*
X43833243Y-142085838D01*
X43833242Y-142085844D01*
X43817857Y-142255137D01*
X36701879Y-142255137D01*
X35667951Y-141610157D01*
X35665573Y-141608636D01*
X34320280Y-140726260D01*
X34207916Y-140652560D01*
X34205580Y-140650990D01*
X34172119Y-140627937D01*
X33646479Y-140265792D01*
X32770063Y-139661977D01*
X32767757Y-139660349D01*
X31355131Y-138638922D01*
X31352863Y-138637242D01*
X30191317Y-137756414D01*
X29963865Y-137583931D01*
X29961652Y-137582214D01*
X29943264Y-137567599D01*
X28596962Y-136497536D01*
X28594777Y-136495758D01*
X27255145Y-135380307D01*
X27252997Y-135378476D01*
X25939151Y-134232862D01*
X25937044Y-134230983D01*
X25458252Y-133793919D01*
X24649540Y-133055689D01*
X24647487Y-133053771D01*
X24490344Y-132903625D01*
X23387105Y-131849506D01*
X23385087Y-131847533D01*
X22152466Y-130614912D01*
X22150493Y-130612894D01*
X20946228Y-129352512D01*
X20944301Y-129350449D01*
X20931644Y-129336584D01*
X19769015Y-128062954D01*
X19767137Y-128060848D01*
X18621523Y-126747002D01*
X18619692Y-126744854D01*
X18007523Y-126009653D01*
X17746846Y-125696586D01*
X21911114Y-125696586D01*
X21968794Y-125754267D01*
X21968801Y-125754273D01*
X22023198Y-125799608D01*
X22173723Y-125878610D01*
X22338771Y-125919290D01*
X22508761Y-125919290D01*
X22673811Y-125878609D01*
X22824331Y-125799609D01*
X22878737Y-125754269D01*
X22878742Y-125754264D01*
X22883385Y-125749620D01*
X22370733Y-125236968D01*
X21911114Y-125696586D01*
X17746846Y-125696586D01*
X17504229Y-125405208D01*
X17502459Y-125403032D01*
X17493238Y-125391430D01*
X17114862Y-124915376D01*
X21334858Y-124915376D01*
X21375538Y-125080427D01*
X21454538Y-125230947D01*
X21499869Y-125285342D01*
X21557560Y-125343033D01*
X22017180Y-124883415D01*
X22017180Y-124883414D01*
X21504527Y-124370761D01*
X21504527Y-124370762D01*
X21499887Y-124375404D01*
X21454537Y-124429817D01*
X21375537Y-124580339D01*
X21334858Y-124745387D01*
X21334858Y-124915376D01*
X17114862Y-124915376D01*
X16417762Y-124038318D01*
X16416077Y-124036147D01*
X15836114Y-123271351D01*
X15362757Y-122647136D01*
X15361077Y-122644868D01*
X14339650Y-121232242D01*
X14338022Y-121229936D01*
X13349009Y-119794419D01*
X13347434Y-119792076D01*
X13310576Y-119735882D01*
X12777201Y-118922684D01*
X12391363Y-118334426D01*
X12389842Y-118332048D01*
X11467190Y-116853001D01*
X11465767Y-116850662D01*
X10576990Y-115350941D01*
X10575611Y-115348551D01*
X10330959Y-114913438D01*
X9721203Y-113828989D01*
X9719863Y-113826539D01*
X8900311Y-112288002D01*
X8899012Y-112285496D01*
X8769978Y-112029377D01*
X8114658Y-110728632D01*
X8113471Y-110726208D01*
X7364749Y-109151871D01*
X7363617Y-109149421D01*
X6650901Y-107558390D01*
X6649813Y-107555885D01*
X5973550Y-105949167D01*
X5972493Y-105946574D01*
X5970826Y-105942347D01*
X5332956Y-104324819D01*
X5331961Y-104322207D01*
X5322963Y-104297773D01*
X4729528Y-102686375D01*
X4728595Y-102683749D01*
X4728578Y-102683698D01*
X4163558Y-101034634D01*
X4162708Y-101032061D01*
X4123412Y-100908249D01*
X7459062Y-100908249D01*
X7490279Y-100983612D01*
X7523190Y-101046322D01*
X7523196Y-101046331D01*
X7632019Y-101176909D01*
X7632023Y-101176912D01*
X7768942Y-101277658D01*
X7768943Y-101277659D01*
X7925991Y-101342709D01*
X7925997Y-101342711D01*
X8094046Y-101368287D01*
X8263339Y-101352903D01*
X8330956Y-101331834D01*
X8337027Y-101329319D01*
X8337028Y-101329318D01*
X8059583Y-100659505D01*
X8059582Y-100659504D01*
X7459062Y-100908249D01*
X4123412Y-100908249D01*
X3877688Y-100134035D01*
X7200049Y-100134035D01*
X7215434Y-100303331D01*
X7236499Y-100370935D01*
X7267720Y-100446309D01*
X7868241Y-100197565D01*
X7868242Y-100197564D01*
X7590797Y-99527754D01*
X7584724Y-99530269D01*
X7584724Y-99530270D01*
X7522015Y-99563180D01*
X7522012Y-99563182D01*
X7391425Y-99672014D01*
X7290679Y-99808932D01*
X7290678Y-99808932D01*
X7225628Y-99965980D01*
X7225626Y-99965987D01*
X7200049Y-100134035D01*
X3877688Y-100134035D01*
X3706853Y-99595778D01*
X3635332Y-99370433D01*
X3634509Y-99367733D01*
X3438542Y-98697766D01*
X3145113Y-97694600D01*
X3144378Y-97691980D01*
X2693158Y-96008008D01*
X2692493Y-96005404D01*
X2279747Y-94311695D01*
X2279113Y-94308956D01*
X2268474Y-94260533D01*
X1905035Y-92606320D01*
X1904484Y-92603672D01*
X1569241Y-90892860D01*
X1568737Y-90890122D01*
X1272549Y-89172266D01*
X1272101Y-89169479D01*
X1015088Y-87445291D01*
X1014704Y-87442494D01*
X816350Y-85866589D01*
X797006Y-85712908D01*
X796698Y-85710210D01*
X618417Y-83976015D01*
X618171Y-83973323D01*
X479407Y-82235454D01*
X479226Y-82232804D01*
X380064Y-80492322D01*
X379940Y-80489617D01*
X320419Y-78747258D01*
X320358Y-78744570D01*
X300516Y-77001405D01*
X300516Y-76998589D01*
X300676Y-76984574D01*
X320358Y-75255427D01*
X320419Y-75252743D01*
X379940Y-73510378D01*
X380064Y-73507681D01*
X438615Y-72480000D01*
X3612502Y-72480000D01*
X3612502Y-72561582D01*
X3618909Y-72632102D01*
X3618910Y-72632107D01*
X3669482Y-72794396D01*
X3757428Y-72939877D01*
X3877623Y-73060072D01*
X4023105Y-73148019D01*
X4023104Y-73148019D01*
X4185395Y-73198590D01*
X4185394Y-73198590D01*
X4255909Y-73204998D01*
X4255927Y-73204999D01*
X4262500Y-73204998D01*
X4262501Y-73204998D01*
X4262501Y-72480000D01*
X3612502Y-72480000D01*
X438615Y-72480000D01*
X467102Y-71980000D01*
X3612501Y-71980000D01*
X4262501Y-71980000D01*
X4262501Y-71255000D01*
X4262500Y-71254999D01*
X4255937Y-71255000D01*
X4255918Y-71255001D01*
X4185398Y-71261408D01*
X4185393Y-71261409D01*
X4023104Y-71311981D01*
X3877623Y-71399927D01*
X3757428Y-71520122D01*
X3669481Y-71665604D01*
X3618910Y-71827893D01*
X3612501Y-71898427D01*
X3612501Y-71980000D01*
X467102Y-71980000D01*
X479227Y-71767189D01*
X479406Y-71764551D01*
X618172Y-70026668D01*
X618416Y-70023992D01*
X796699Y-68289779D01*
X797005Y-68287101D01*
X1014708Y-66557470D01*
X1015088Y-66554708D01*
X1214772Y-65215116D01*
X1272107Y-64830476D01*
X1272541Y-64827777D01*
X1568746Y-63109824D01*
X1569238Y-63107154D01*
X1904488Y-61396310D01*
X1905031Y-61393697D01*
X2279120Y-59691012D01*
X2279750Y-59688293D01*
X2330102Y-59481674D01*
X2692498Y-57994573D01*
X2693153Y-57992012D01*
X3144384Y-56307996D01*
X3145106Y-56305422D01*
X3634509Y-54632263D01*
X3635332Y-54629566D01*
X3686619Y-54467974D01*
X4162716Y-52967912D01*
X4163549Y-52965392D01*
X4728617Y-51316187D01*
X4729517Y-51313651D01*
X5331982Y-49677734D01*
X5332944Y-49675209D01*
X5972513Y-48053374D01*
X5973537Y-48050863D01*
X6649827Y-46444081D01*
X6650887Y-46441641D01*
X7273339Y-45052110D01*
X10850865Y-45052110D01*
X10876442Y-45220158D01*
X10876444Y-45220165D01*
X10941494Y-45377213D01*
X11042241Y-45514131D01*
X11172831Y-45622966D01*
X11235525Y-45655870D01*
X11235546Y-45655880D01*
X11241611Y-45658392D01*
X11519058Y-44988580D01*
X10918537Y-44739835D01*
X10918536Y-44739836D01*
X10887324Y-44815190D01*
X10887316Y-44815210D01*
X10866251Y-44882810D01*
X10866250Y-44882817D01*
X10850865Y-45052110D01*
X7273339Y-45052110D01*
X7363632Y-44850545D01*
X7364733Y-44848162D01*
X7635940Y-44277895D01*
X11109878Y-44277895D01*
X11710398Y-44526640D01*
X11710399Y-44526639D01*
X11987843Y-43856827D01*
X11981777Y-43854315D01*
X11914155Y-43833242D01*
X11744862Y-43817857D01*
X11576813Y-43843434D01*
X11576807Y-43843436D01*
X11419759Y-43908486D01*
X11419758Y-43908487D01*
X11282839Y-44009233D01*
X11282835Y-44009236D01*
X11174012Y-44139814D01*
X11174006Y-44139823D01*
X11141097Y-44202527D01*
X11141097Y-44202528D01*
X11109878Y-44277895D01*
X7635940Y-44277895D01*
X8113488Y-43273756D01*
X8114641Y-43271401D01*
X8899037Y-41714454D01*
X8900311Y-41711997D01*
X9026126Y-41475806D01*
X9719878Y-40173430D01*
X9721183Y-40171046D01*
X10575626Y-38651421D01*
X10576968Y-38649096D01*
X11465790Y-37149298D01*
X11467161Y-37147045D01*
X12389844Y-35667947D01*
X12391363Y-35665573D01*
X12544760Y-35431700D01*
X13347479Y-34207855D01*
X13348963Y-34205647D01*
X14338032Y-32770048D01*
X14339650Y-32767757D01*
X14485684Y-32565794D01*
X15361085Y-31355119D01*
X15362757Y-31352863D01*
X16416110Y-29963809D01*
X16417729Y-29961723D01*
X17502505Y-28596909D01*
X17504194Y-28594834D01*
X18619716Y-27255116D01*
X18621497Y-27253026D01*
X19767178Y-25939104D01*
X19768976Y-25937088D01*
X20944353Y-24649493D01*
X20946174Y-24647544D01*
X22150535Y-23387061D01*
X22152422Y-23385131D01*
X23028793Y-22508760D01*
X28080710Y-22508760D01*
X28121390Y-22673811D01*
X28200390Y-22824331D01*
X28245721Y-22878726D01*
X28245736Y-22878742D01*
X28250378Y-22883385D01*
X28763032Y-22370733D01*
X28303412Y-21911113D01*
X28245744Y-21968782D01*
X28245725Y-21968803D01*
X28200391Y-22023199D01*
X28121389Y-22173723D01*
X28080710Y-22338771D01*
X28080710Y-22508760D01*
X23028793Y-22508760D01*
X23385131Y-22152422D01*
X23387061Y-22150535D01*
X24007668Y-21557560D01*
X28656965Y-21557560D01*
X29116585Y-22017179D01*
X29116586Y-22017179D01*
X29629236Y-21504527D01*
X29629236Y-21504526D01*
X29624601Y-21499891D01*
X29624582Y-21499874D01*
X29570185Y-21454539D01*
X29419660Y-21375537D01*
X29254613Y-21334858D01*
X29084623Y-21334858D01*
X28919572Y-21375538D01*
X28769052Y-21454538D01*
X28714652Y-21499874D01*
X28714647Y-21499878D01*
X28656965Y-21557560D01*
X24007668Y-21557560D01*
X24647544Y-20946174D01*
X24649493Y-20944353D01*
X25937088Y-19768976D01*
X25939104Y-19767178D01*
X27253026Y-18621497D01*
X27255116Y-18619716D01*
X28594834Y-17504194D01*
X28596909Y-17502505D01*
X29961723Y-16417729D01*
X29963809Y-16416110D01*
X31352875Y-15362747D01*
X31355131Y-15361077D01*
X31360662Y-15357078D01*
X32767771Y-14339639D01*
X32770063Y-14338022D01*
X32822863Y-14301645D01*
X34205647Y-13348963D01*
X34207855Y-13347479D01*
X35665576Y-12391360D01*
X35667951Y-12389842D01*
X37147045Y-11467161D01*
X37149298Y-11465790D01*
X38649096Y-10576968D01*
X38651421Y-10575626D01*
X40171046Y-9721183D01*
X40173430Y-9719878D01*
X41712010Y-8900304D01*
X41714454Y-8899037D01*
X43271401Y-8114641D01*
X43273756Y-8113488D01*
X43314637Y-8094046D01*
X52631711Y-8094046D01*
X52647095Y-8263337D01*
X52668169Y-8330966D01*
X52670679Y-8337027D01*
X52670680Y-8337028D01*
X53340493Y-8059583D01*
X53340494Y-8059582D01*
X53091749Y-7459062D01*
X53016387Y-7490279D01*
X52953677Y-7523190D01*
X52953668Y-7523196D01*
X52823090Y-7632019D01*
X52823087Y-7632023D01*
X52722341Y-7768942D01*
X52722340Y-7768943D01*
X52657290Y-7925991D01*
X52657288Y-7925997D01*
X52631711Y-8094046D01*
X43314637Y-8094046D01*
X44848162Y-7364733D01*
X44850545Y-7363632D01*
X45064654Y-7267720D01*
X53553689Y-7267720D01*
X53802433Y-7868241D01*
X53802434Y-7868242D01*
X54472245Y-7590796D01*
X54469736Y-7584737D01*
X54469729Y-7584724D01*
X54436819Y-7522015D01*
X54436817Y-7522012D01*
X54327985Y-7391425D01*
X54191067Y-7290679D01*
X54191067Y-7290678D01*
X54034019Y-7225628D01*
X54034012Y-7225626D01*
X53865963Y-7200049D01*
X53696670Y-7215434D01*
X53629058Y-7236501D01*
X53629057Y-7236502D01*
X53553690Y-7267719D01*
X53553689Y-7267720D01*
X45064654Y-7267720D01*
X46441641Y-6650887D01*
X46444081Y-6649827D01*
X48050863Y-5973537D01*
X48053374Y-5972513D01*
X49675209Y-5332944D01*
X49677734Y-5331982D01*
X51313651Y-4729517D01*
X51316187Y-4728617D01*
X52676591Y-4262501D01*
X80795000Y-4262501D01*
X81520000Y-4262501D01*
X81520000Y-3612501D01*
X82020000Y-3612501D01*
X82020000Y-4262501D01*
X82744999Y-4262501D01*
X82744999Y-4255918D01*
X82738591Y-4185398D01*
X82738590Y-4185393D01*
X82688018Y-4023104D01*
X82600072Y-3877623D01*
X82479877Y-3757428D01*
X82334395Y-3669481D01*
X82334396Y-3669481D01*
X82172105Y-3618910D01*
X82172106Y-3618910D01*
X82101572Y-3612501D01*
X82020000Y-3612501D01*
X81520000Y-3612501D01*
X81519999Y-3612500D01*
X81438417Y-3612501D01*
X81367897Y-3618909D01*
X81367892Y-3618910D01*
X81205603Y-3669482D01*
X81060122Y-3757428D01*
X80939927Y-3877623D01*
X80851980Y-4023105D01*
X80801409Y-4185394D01*
X80795000Y-4255928D01*
X80795000Y-4262501D01*
X52676591Y-4262501D01*
X52965392Y-4163549D01*
X52967912Y-4162716D01*
X54629568Y-3635331D01*
X54632266Y-3634509D01*
X56305422Y-3145106D01*
X56307996Y-3144384D01*
X57992012Y-2693153D01*
X57994573Y-2692498D01*
X59688323Y-2279742D01*
X59691012Y-2279120D01*
X61393697Y-1905031D01*
X61396310Y-1904488D01*
X63107154Y-1569238D01*
X63109824Y-1568746D01*
X64827777Y-1272541D01*
X64830476Y-1272107D01*
X66554742Y-1015083D01*
X66557470Y-1014708D01*
X68287101Y-797005D01*
X68289779Y-796699D01*
X70023992Y-618416D01*
X70026668Y-618172D01*
X71764551Y-479406D01*
X71767189Y-479227D01*
X73507681Y-380064D01*
X73510378Y-379940D01*
X75252743Y-320419D01*
X75255427Y-320358D01*
X76998594Y-300516D01*
X77001406Y-300516D01*
X78744570Y-320358D01*
G37*
G04 #@! TD.AperFunction*
G04 #@! TA.AperFunction,Conductor*
G36*
X50702149Y-28721328D02*
G01*
X50744105Y-28750494D01*
X55494286Y-33790451D01*
X55525942Y-33852738D01*
X55518898Y-33922252D01*
X55475390Y-33976922D01*
X55409232Y-33999392D01*
X55404049Y-33999500D01*
X47489937Y-33999500D01*
X47487065Y-33999467D01*
X47444380Y-33998477D01*
X47420388Y-34005662D01*
X47407609Y-34008761D01*
X47374566Y-34014939D01*
X47374443Y-34014986D01*
X47361606Y-34020767D01*
X47361987Y-34021560D01*
X47353192Y-34025787D01*
X47322907Y-34046735D01*
X47317650Y-34050178D01*
X47279048Y-34074080D01*
X47271555Y-34080911D01*
X47258566Y-34091247D01*
X46771993Y-34427835D01*
X46771972Y-34427850D01*
X46771971Y-34427851D01*
X45707016Y-35204857D01*
X45540994Y-35332517D01*
X44661944Y-36008446D01*
X43938386Y-36594388D01*
X43637476Y-36838067D01*
X43273666Y-37148171D01*
X42634174Y-37693259D01*
X41652795Y-38573382D01*
X40693831Y-39477989D01*
X40269887Y-39898554D01*
X40260416Y-39906611D01*
X40190864Y-39976163D01*
X40190862Y-39976167D01*
X40190860Y-39976169D01*
X40147645Y-40060983D01*
X40143215Y-40069678D01*
X40141962Y-40069039D01*
X40108354Y-40118176D01*
X40043992Y-40145366D01*
X39975147Y-40133442D01*
X39951837Y-40118538D01*
X39787082Y-39985122D01*
X39461793Y-39773877D01*
X39116197Y-39597787D01*
X38754094Y-39458788D01*
X38754087Y-39458786D01*
X38379433Y-39358398D01*
X38379429Y-39358397D01*
X38379428Y-39358397D01*
X37996339Y-39297722D01*
X37609001Y-39277422D01*
X37608999Y-39277422D01*
X37221660Y-39297722D01*
X36838572Y-39358397D01*
X36838570Y-39358397D01*
X36463905Y-39458788D01*
X36101802Y-39597787D01*
X35756206Y-39773877D01*
X35430917Y-39985122D01*
X35129488Y-40229215D01*
X35129480Y-40229222D01*
X34855222Y-40503480D01*
X34855215Y-40503488D01*
X34611122Y-40804917D01*
X34399877Y-41130206D01*
X34223787Y-41475802D01*
X34084788Y-41837905D01*
X33984397Y-42212570D01*
X33984397Y-42212572D01*
X33923722Y-42595660D01*
X33903422Y-42982999D01*
X33903422Y-42983000D01*
X33923722Y-43370339D01*
X33984397Y-43753427D01*
X33984397Y-43753429D01*
X34084788Y-44128094D01*
X34097678Y-44161673D01*
X34223786Y-44490194D01*
X34223788Y-44490198D01*
X34223795Y-44490216D01*
X34224813Y-44492504D01*
X34224887Y-44493063D01*
X34224950Y-44493225D01*
X34224911Y-44493239D01*
X34234083Y-44561756D01*
X34204441Y-44625026D01*
X34145298Y-44662227D01*
X34075432Y-44661546D01*
X34023830Y-44630585D01*
X31527041Y-42133089D01*
X31484278Y-42090314D01*
X31470149Y-42073413D01*
X31464592Y-42065417D01*
X31455534Y-42058542D01*
X31449747Y-42054149D01*
X31440244Y-42045858D01*
X31437832Y-42043855D01*
X31437830Y-42043853D01*
X31433350Y-42040783D01*
X31423361Y-42033938D01*
X31418482Y-42030418D01*
X31388773Y-42007867D01*
X31380177Y-42003258D01*
X31380631Y-42002411D01*
X31369738Y-41996898D01*
X31368516Y-41996358D01*
X31335336Y-41988549D01*
X31322969Y-41984951D01*
X31298883Y-41976564D01*
X31298882Y-41976563D01*
X31298877Y-41976562D01*
X31296050Y-41976502D01*
X31270254Y-41973233D01*
X31259162Y-41970623D01*
X31259160Y-41970623D01*
X31237107Y-41973696D01*
X31217405Y-41974855D01*
X31203709Y-41974568D01*
X31203707Y-41974568D01*
X31189644Y-41978814D01*
X31170933Y-41982916D01*
X31147891Y-41986128D01*
X31147889Y-41986128D01*
X31138801Y-41991189D01*
X31114334Y-42001553D01*
X31112586Y-42002080D01*
X31112580Y-42002083D01*
X31090818Y-42017207D01*
X31080384Y-42023715D01*
X31049738Y-42040780D01*
X31049378Y-42041078D01*
X31040863Y-42050225D01*
X31034416Y-42056408D01*
X31011265Y-42086909D01*
X31007893Y-42091154D01*
X30993793Y-42108130D01*
X30977947Y-42127208D01*
X30974671Y-42133089D01*
X30965123Y-42147700D01*
X30552353Y-42691510D01*
X29677118Y-43908989D01*
X28833766Y-45148828D01*
X28022915Y-46410113D01*
X27245095Y-47692020D01*
X26500802Y-48993736D01*
X25790565Y-50314336D01*
X25114884Y-51652886D01*
X24474160Y-53008591D01*
X23868890Y-54380406D01*
X23868879Y-54380432D01*
X23728211Y-54723076D01*
X23299412Y-55767554D01*
X22782701Y-57125523D01*
X22766168Y-57168974D01*
X22269490Y-58583780D01*
X22159051Y-58926603D01*
X21809710Y-60011028D01*
X21387171Y-61449662D01*
X21002105Y-62898880D01*
X20654818Y-64357546D01*
X20345526Y-65824729D01*
X20074430Y-67299493D01*
X19841722Y-68780802D01*
X19647566Y-70267592D01*
X19492076Y-71758997D01*
X19375371Y-73253887D01*
X19297522Y-74751340D01*
X19258586Y-76250266D01*
X19258586Y-77749733D01*
X19297522Y-79248659D01*
X19375371Y-80746112D01*
X19492076Y-82241002D01*
X19647566Y-83732407D01*
X19841722Y-85219197D01*
X20074430Y-86700506D01*
X20345526Y-88175270D01*
X20654818Y-89642453D01*
X21002105Y-91101119D01*
X21387171Y-92550337D01*
X21809710Y-93988971D01*
X21913237Y-94310339D01*
X22269490Y-95416220D01*
X22766168Y-96831026D01*
X23299417Y-98232457D01*
X23868879Y-99619568D01*
X23868889Y-99619592D01*
X23868890Y-99619593D01*
X24474160Y-100991408D01*
X24655942Y-101376040D01*
X25111584Y-102340132D01*
X25114884Y-102347113D01*
X25686056Y-103478627D01*
X25790574Y-103685680D01*
X26249741Y-104539446D01*
X26500802Y-105006263D01*
X27245095Y-106307979D01*
X28022915Y-107589886D01*
X28292474Y-108009187D01*
X28833774Y-108851184D01*
X29351789Y-109612734D01*
X29677118Y-110091010D01*
X30342804Y-111017000D01*
X30552361Y-111308500D01*
X30625106Y-111404339D01*
X30987527Y-111881815D01*
X30997077Y-111896429D01*
X31009839Y-111919333D01*
X31015545Y-111924070D01*
X31032196Y-111941462D01*
X31034418Y-111943593D01*
X31058591Y-111960393D01*
X31067016Y-111966798D01*
X31096280Y-111991092D01*
X31096282Y-111991092D01*
X31096285Y-111991095D01*
X31096455Y-111991189D01*
X31110495Y-111996908D01*
X31112578Y-111997914D01*
X31112583Y-111997918D01*
X31148680Y-112008816D01*
X31152055Y-112009835D01*
X31155606Y-112010966D01*
X31202807Y-112026779D01*
X31253506Y-112024427D01*
X31256645Y-112024322D01*
X31298877Y-112023438D01*
X31298886Y-112023434D01*
X31299149Y-112023388D01*
X31314845Y-112021619D01*
X31315030Y-112021575D01*
X31315034Y-112021575D01*
X31350719Y-112005811D01*
X31360012Y-112002147D01*
X31388772Y-111992133D01*
X31388778Y-111992127D01*
X31394276Y-111989180D01*
X31411933Y-111978772D01*
X31417801Y-111976181D01*
X31437029Y-111956946D01*
X31449747Y-111945849D01*
X31464593Y-111934582D01*
X31470152Y-111926583D01*
X31484276Y-111909685D01*
X34023834Y-109369408D01*
X34085151Y-109335917D01*
X34154843Y-109340891D01*
X34210783Y-109382755D01*
X34235209Y-109448215D01*
X34224941Y-109506771D01*
X34224950Y-109506775D01*
X34224932Y-109506820D01*
X34224814Y-109507496D01*
X34223789Y-109509797D01*
X34084788Y-109871905D01*
X33984397Y-110246570D01*
X33984397Y-110246572D01*
X33923722Y-110629662D01*
X33903422Y-111017000D01*
X33923722Y-111404338D01*
X33984398Y-111787433D01*
X34048530Y-112026779D01*
X34084788Y-112162094D01*
X34223787Y-112524197D01*
X34399877Y-112869793D01*
X34611122Y-113195082D01*
X34781157Y-113405057D01*
X34855219Y-113496516D01*
X35129484Y-113770781D01*
X35129488Y-113770784D01*
X35430917Y-114014877D01*
X35503531Y-114062033D01*
X35756211Y-114226125D01*
X36074958Y-114388534D01*
X36099521Y-114401050D01*
X36101806Y-114402214D01*
X36463913Y-114541214D01*
X36838567Y-114641602D01*
X37221662Y-114702278D01*
X37587576Y-114721455D01*
X37608999Y-114722578D01*
X37609000Y-114722578D01*
X37609001Y-114722578D01*
X37629301Y-114721514D01*
X37996338Y-114702278D01*
X38379433Y-114641602D01*
X38754087Y-114541214D01*
X39116194Y-114402214D01*
X39116198Y-114402211D01*
X39119225Y-114401050D01*
X39119540Y-114401870D01*
X39185099Y-114393073D01*
X39248379Y-114422695D01*
X39285599Y-114481825D01*
X39284942Y-114551692D01*
X39253993Y-114603309D01*
X36729863Y-117128152D01*
X36728042Y-117129714D01*
X36689335Y-117168690D01*
X36689050Y-117168976D01*
X36666882Y-117191152D01*
X36665290Y-117192903D01*
X36655238Y-117203026D01*
X36655234Y-117203032D01*
X36646489Y-117220343D01*
X36638124Y-117234488D01*
X36622326Y-117257558D01*
X36622324Y-117257563D01*
X36621030Y-117263069D01*
X36615028Y-117279547D01*
X36612318Y-117287990D01*
X36607546Y-117318816D01*
X36605717Y-117328213D01*
X36596618Y-117366925D01*
X36596609Y-117367128D01*
X36597609Y-117381156D01*
X36604631Y-117424514D01*
X36605034Y-117427187D01*
X36612156Y-117478191D01*
X36636028Y-117521036D01*
X36637993Y-117524706D01*
X36656487Y-117560691D01*
X36658816Y-117563873D01*
X36666685Y-117576148D01*
X36666839Y-117576333D01*
X36695511Y-117600135D01*
X36703683Y-117607558D01*
X37219263Y-118119556D01*
X38273933Y-119113659D01*
X38304332Y-119142312D01*
X39415676Y-120136433D01*
X39834931Y-120492239D01*
X40552543Y-121101250D01*
X41148124Y-121580565D01*
X41714181Y-122036120D01*
X41982316Y-122240631D01*
X42899786Y-122940401D01*
X43346153Y-123262804D01*
X44108544Y-123813467D01*
X45048326Y-124455665D01*
X45249166Y-124592909D01*
X45339649Y-124654740D01*
X46592261Y-125463645D01*
X47865527Y-126239630D01*
X49158584Y-126982170D01*
X50465045Y-127687785D01*
X50470581Y-127690775D01*
X51800519Y-128364908D01*
X53147667Y-129004197D01*
X54510928Y-129608120D01*
X54510937Y-129608123D01*
X54510958Y-129608133D01*
X55600056Y-130057027D01*
X55889562Y-130176353D01*
X56722585Y-130494564D01*
X57282467Y-130708437D01*
X58688786Y-131204048D01*
X58688795Y-131204051D01*
X58688801Y-131204053D01*
X60107508Y-131662830D01*
X60107519Y-131662833D01*
X60107543Y-131662841D01*
X61537774Y-132084504D01*
X62090179Y-132231832D01*
X62978507Y-132468752D01*
X63493627Y-132591850D01*
X64428767Y-132815322D01*
X65887565Y-133123980D01*
X67353911Y-133394516D01*
X68826810Y-133626747D01*
X70182935Y-133804481D01*
X70305268Y-133820514D01*
X70690138Y-133860784D01*
X71788258Y-133975685D01*
X73274797Y-134092156D01*
X74763865Y-134169847D01*
X76254453Y-134208706D01*
X76254458Y-134208706D01*
X77745542Y-134208706D01*
X77745547Y-134208706D01*
X79236135Y-134169847D01*
X80725203Y-134092156D01*
X82211742Y-133975685D01*
X83597401Y-133830698D01*
X83694731Y-133820514D01*
X83694733Y-133820513D01*
X83694740Y-133820513D01*
X85173190Y-133626747D01*
X86646089Y-133394516D01*
X88112435Y-133123980D01*
X89571233Y-132815322D01*
X91021492Y-132468752D01*
X92462226Y-132084504D01*
X93892457Y-131662841D01*
X95311214Y-131204048D01*
X96717533Y-130708437D01*
X97877460Y-130265349D01*
X98110437Y-130176353D01*
X98110448Y-130176348D01*
X98110457Y-130176345D01*
X99489042Y-129608133D01*
X100068384Y-129351485D01*
X100852332Y-129004197D01*
X101099659Y-128886828D01*
X102199458Y-128364919D01*
X102199480Y-128364908D01*
X103529418Y-127690775D01*
X103529427Y-127690770D01*
X103529447Y-127690760D01*
X104841416Y-126982170D01*
X106134473Y-126239630D01*
X107407739Y-125463645D01*
X108660351Y-124654740D01*
X109891456Y-123813467D01*
X111100220Y-122940396D01*
X112285819Y-122036120D01*
X113447451Y-121101254D01*
X113448366Y-121100478D01*
X113810229Y-120793378D01*
X114584324Y-120136433D01*
X115695668Y-119142312D01*
X116780726Y-118119566D01*
X117268239Y-117635439D01*
X117288176Y-117620440D01*
X117293258Y-117616220D01*
X117293265Y-117616217D01*
X117316171Y-117588638D01*
X117324148Y-117579919D01*
X117343514Y-117560689D01*
X117343994Y-117559754D01*
X117358898Y-117537201D01*
X117365050Y-117529795D01*
X117372686Y-117507018D01*
X117379962Y-117489768D01*
X117387025Y-117476027D01*
X117389092Y-117463262D01*
X117393928Y-117443670D01*
X117400767Y-117423278D01*
X117400207Y-117411136D01*
X117401671Y-117385595D01*
X117402244Y-117382062D01*
X117398457Y-117357605D01*
X117397129Y-117344343D01*
X117395595Y-117311053D01*
X117395595Y-117311050D01*
X117395505Y-117310846D01*
X117391468Y-117297033D01*
X117390667Y-117297291D01*
X117387682Y-117287995D01*
X117387682Y-117287993D01*
X117371193Y-117255351D01*
X117368457Y-117249567D01*
X117350230Y-117208270D01*
X117334868Y-117192903D01*
X117310848Y-117168875D01*
X117310558Y-117168584D01*
X117271960Y-117129716D01*
X117270131Y-117128148D01*
X116993890Y-116851829D01*
X114746001Y-114603304D01*
X114712527Y-114541980D01*
X114717521Y-114472289D01*
X114759401Y-114416361D01*
X114824868Y-114391954D01*
X114880517Y-114401721D01*
X114880775Y-114401050D01*
X114883802Y-114402211D01*
X114883806Y-114402214D01*
X115245913Y-114541214D01*
X115620567Y-114641602D01*
X116003662Y-114702278D01*
X116369576Y-114721455D01*
X116390999Y-114722578D01*
X116391000Y-114722578D01*
X116391001Y-114722578D01*
X116411301Y-114721514D01*
X116778338Y-114702278D01*
X117161433Y-114641602D01*
X117536087Y-114541214D01*
X117898194Y-114402214D01*
X118243789Y-114226125D01*
X118569084Y-114014876D01*
X118870516Y-113770781D01*
X119144781Y-113496516D01*
X119388876Y-113195084D01*
X119600125Y-112869789D01*
X119776214Y-112524194D01*
X119915214Y-112162087D01*
X120015602Y-111787433D01*
X120076278Y-111404338D01*
X120096578Y-111017000D01*
X120076278Y-110629662D01*
X120015602Y-110246567D01*
X119915214Y-109871913D01*
X119776214Y-109509806D01*
X119776210Y-109509799D01*
X119776209Y-109509795D01*
X119775190Y-109507505D01*
X119775114Y-109506943D01*
X119775050Y-109506775D01*
X119775090Y-109506759D01*
X119765914Y-109438254D01*
X119795551Y-109374981D01*
X119854690Y-109337775D01*
X119924557Y-109338449D01*
X119976168Y-109369413D01*
X121600211Y-110993916D01*
X122515719Y-111909683D01*
X122529847Y-111926583D01*
X122535405Y-111934580D01*
X122535408Y-111934583D01*
X122550243Y-111945844D01*
X122559758Y-111954145D01*
X122562164Y-111956143D01*
X122562170Y-111956147D01*
X122576644Y-111966064D01*
X122581501Y-111969568D01*
X122611228Y-111992133D01*
X122611229Y-111992133D01*
X122611230Y-111992134D01*
X122619828Y-111996745D01*
X122619371Y-111997597D01*
X122630230Y-112003086D01*
X122631477Y-112003637D01*
X122631480Y-112003639D01*
X122664667Y-112011449D01*
X122677012Y-112015041D01*
X122701123Y-112023438D01*
X122703934Y-112023496D01*
X122729748Y-112026766D01*
X122740838Y-112029377D01*
X122762897Y-112026302D01*
X122782595Y-112025143D01*
X122796291Y-112025431D01*
X122810355Y-112021184D01*
X122829059Y-112017082D01*
X122852110Y-112013871D01*
X122861190Y-112008814D01*
X122885681Y-111998442D01*
X122887417Y-111997918D01*
X122909179Y-111982792D01*
X122919618Y-111976281D01*
X122950265Y-111959217D01*
X122950614Y-111958927D01*
X122959160Y-111949750D01*
X122965574Y-111943598D01*
X122965582Y-111943593D01*
X122988747Y-111913071D01*
X122992061Y-111908896D01*
X123022050Y-111872795D01*
X123022051Y-111872789D01*
X123025324Y-111866917D01*
X123034871Y-111852303D01*
X123447639Y-111308500D01*
X124322888Y-110091001D01*
X125166226Y-108851184D01*
X125977084Y-107589886D01*
X125996939Y-107557164D01*
X126754904Y-106307979D01*
X126960810Y-105947864D01*
X127499198Y-105006263D01*
X128209426Y-103685680D01*
X128885123Y-102347099D01*
X129525832Y-100991424D01*
X130131121Y-99619568D01*
X130700583Y-98232457D01*
X131233832Y-96831026D01*
X131730510Y-95416220D01*
X132190282Y-93988994D01*
X132229973Y-93853859D01*
X132536436Y-92810433D01*
X132612836Y-92550310D01*
X132997890Y-91101139D01*
X133345181Y-89642457D01*
X133654478Y-88175249D01*
X133925570Y-86700504D01*
X134158275Y-85219216D01*
X134352436Y-83732386D01*
X134507922Y-82241014D01*
X134624629Y-80746109D01*
X134702477Y-79248676D01*
X134741414Y-77749727D01*
X134741414Y-76250273D01*
X134702477Y-74751324D01*
X134624629Y-73253891D01*
X134507922Y-71758986D01*
X134352436Y-70267614D01*
X134158275Y-68780784D01*
X133925570Y-67299496D01*
X133654478Y-65824751D01*
X133345181Y-64357543D01*
X132997890Y-62898861D01*
X132612836Y-61449690D01*
X132586050Y-61358490D01*
X132190289Y-60011028D01*
X132190282Y-60011006D01*
X131730510Y-58583780D01*
X131233832Y-57168974D01*
X130700583Y-55767543D01*
X130131121Y-54380432D01*
X129705232Y-53415177D01*
X129525839Y-53008591D01*
X129514856Y-52985352D01*
X128885123Y-51652901D01*
X128209426Y-50314320D01*
X127499198Y-48993737D01*
X127106775Y-48307417D01*
X126754904Y-47692020D01*
X125977084Y-46410113D01*
X125442113Y-45577961D01*
X125166226Y-45148816D01*
X124322888Y-43908999D01*
X123935649Y-43370338D01*
X123865363Y-43272567D01*
X123447639Y-42691500D01*
X123034876Y-42147700D01*
X123012470Y-42118181D01*
X123002923Y-42103572D01*
X122990162Y-42080668D01*
X122984450Y-42075926D01*
X122967808Y-42058542D01*
X122965582Y-42056407D01*
X122941408Y-42039606D01*
X122932972Y-42033192D01*
X122931829Y-42032243D01*
X122903720Y-42008908D01*
X122903719Y-42008907D01*
X122903717Y-42008906D01*
X122903541Y-42008808D01*
X122889513Y-42003095D01*
X122887415Y-42002080D01*
X122847972Y-41990172D01*
X122844427Y-41989044D01*
X122813888Y-41978814D01*
X122797193Y-41973221D01*
X122797191Y-41973221D01*
X122797189Y-41973220D01*
X122746500Y-41975570D01*
X122743362Y-41975676D01*
X122701118Y-41976562D01*
X122700810Y-41976618D01*
X122685143Y-41978382D01*
X122684968Y-41978423D01*
X122649299Y-41994179D01*
X122639982Y-41997852D01*
X122611227Y-42007866D01*
X122605793Y-42010780D01*
X122588081Y-42021219D01*
X122582205Y-42023814D01*
X122582196Y-42023820D01*
X122562965Y-42043056D01*
X122550251Y-42054149D01*
X122535409Y-42065415D01*
X122535404Y-42065420D01*
X122529844Y-42073420D01*
X122515721Y-42090313D01*
X119976170Y-44630583D01*
X119914851Y-44664076D01*
X119845159Y-44659102D01*
X119789219Y-44617238D01*
X119764793Y-44551778D01*
X119775064Y-44493230D01*
X119775050Y-44493225D01*
X119775079Y-44493149D01*
X119775197Y-44492477D01*
X119776206Y-44490209D01*
X119776214Y-44490194D01*
X119915214Y-44128087D01*
X120015602Y-43753433D01*
X120076278Y-43370338D01*
X120096578Y-42983000D01*
X120076278Y-42595662D01*
X120015602Y-42212567D01*
X119915214Y-41837913D01*
X119776214Y-41475806D01*
X119600125Y-41130211D01*
X119388876Y-40804916D01*
X119144781Y-40503484D01*
X118870516Y-40229219D01*
X118751928Y-40133188D01*
X118569082Y-39985122D01*
X118243793Y-39773877D01*
X117898197Y-39597787D01*
X117536094Y-39458788D01*
X117536087Y-39458786D01*
X117161433Y-39358398D01*
X117161429Y-39358397D01*
X117161428Y-39358397D01*
X116778339Y-39297722D01*
X116391001Y-39277422D01*
X116390999Y-39277422D01*
X116003660Y-39297722D01*
X115620572Y-39358397D01*
X115620570Y-39358397D01*
X115245905Y-39458788D01*
X114883802Y-39597787D01*
X114538206Y-39773877D01*
X114212912Y-39985126D01*
X114048161Y-40118538D01*
X113983674Y-40145430D01*
X113914885Y-40133188D01*
X113863635Y-40085699D01*
X113852933Y-40062119D01*
X113852355Y-40060985D01*
X113852355Y-40060983D01*
X113809140Y-39976169D01*
X113741831Y-39908860D01*
X113741829Y-39908858D01*
X113739573Y-39906603D01*
X113730110Y-39898552D01*
X113306167Y-39477991D01*
X113115066Y-39297722D01*
X112347218Y-38573396D01*
X112347204Y-38573383D01*
X111365824Y-37693260D01*
X111365795Y-37693235D01*
X110362524Y-36838068D01*
X109951462Y-36505188D01*
X109338055Y-36008446D01*
X108893670Y-35666744D01*
X108292984Y-35204857D01*
X107228029Y-34427850D01*
X107228027Y-34427849D01*
X107228007Y-34427834D01*
X106709394Y-34069083D01*
X106696399Y-34058742D01*
X106687005Y-34050178D01*
X106675933Y-34040084D01*
X106670376Y-34037931D01*
X106653906Y-34029201D01*
X106646804Y-34025787D01*
X106617209Y-34016923D01*
X106607996Y-34013764D01*
X106571174Y-33999500D01*
X106570984Y-33999464D01*
X106556112Y-33998467D01*
X106512977Y-33999467D01*
X106510105Y-33999500D01*
X102108470Y-33999500D01*
X102041431Y-33979815D01*
X101995676Y-33927011D01*
X101984477Y-33876819D01*
X101983558Y-33790451D01*
X101944139Y-30085140D01*
X101963109Y-30017898D01*
X102015424Y-29971584D01*
X102068746Y-29959826D01*
X112103874Y-30009752D01*
X112170813Y-30029769D01*
X112189375Y-30044536D01*
X116358394Y-34069083D01*
X122397125Y-39898552D01*
X122415200Y-39916000D01*
X122663697Y-40155000D01*
X128681851Y-45943162D01*
X128683575Y-45944853D01*
X130390527Y-47651804D01*
X130422741Y-47707844D01*
X130434995Y-47754277D01*
X130439100Y-47785918D01*
X130439100Y-52203804D01*
X130437332Y-52219815D01*
X130437574Y-52219838D01*
X130436840Y-52227604D01*
X130439039Y-52297572D01*
X130439100Y-52301467D01*
X130439100Y-52330230D01*
X130439101Y-52330248D01*
X130439653Y-52334621D01*
X130440568Y-52346251D01*
X130442002Y-52391877D01*
X130442003Y-52391880D01*
X130447923Y-52412258D01*
X130451868Y-52431306D01*
X130454528Y-52452364D01*
X130454531Y-52452375D01*
X130471337Y-52494824D01*
X130475120Y-52505873D01*
X130487854Y-52549705D01*
X130487855Y-52549707D01*
X130498660Y-52567976D01*
X130507217Y-52585444D01*
X130512826Y-52599610D01*
X130515032Y-52605182D01*
X130541866Y-52642116D01*
X130548278Y-52651878D01*
X130571519Y-52691175D01*
X130571523Y-52691179D01*
X130586525Y-52706181D01*
X130599163Y-52720979D01*
X130611633Y-52738143D01*
X130611636Y-52738147D01*
X130646813Y-52767247D01*
X130655454Y-52775110D01*
X132132210Y-54251866D01*
X132164425Y-54307908D01*
X132183557Y-54380406D01*
X132321200Y-54902000D01*
X132781706Y-55688483D01*
X132798700Y-55751136D01*
X132798700Y-58050183D01*
X132796932Y-58066194D01*
X132797174Y-58066217D01*
X132796440Y-58073983D01*
X132798639Y-58143951D01*
X132798700Y-58147846D01*
X132798700Y-58176609D01*
X132798701Y-58176627D01*
X132799253Y-58181000D01*
X132800168Y-58192630D01*
X132801602Y-58238256D01*
X132801603Y-58238259D01*
X132807523Y-58258637D01*
X132811468Y-58277685D01*
X132814128Y-58298743D01*
X132814131Y-58298754D01*
X132830937Y-58341203D01*
X132834720Y-58352252D01*
X132847454Y-58396084D01*
X132847455Y-58396086D01*
X132858260Y-58414355D01*
X132866817Y-58431823D01*
X132872426Y-58445989D01*
X132874632Y-58451561D01*
X132901466Y-58488495D01*
X132907878Y-58498257D01*
X132931119Y-58537554D01*
X132931123Y-58537558D01*
X132946125Y-58552560D01*
X132958763Y-58567358D01*
X132971233Y-58584522D01*
X132971236Y-58584526D01*
X133006413Y-58613626D01*
X133015054Y-58621489D01*
X136584237Y-62190672D01*
X136603561Y-62215697D01*
X136642505Y-62282206D01*
X136659500Y-62344862D01*
X136659500Y-80603816D01*
X136657522Y-80625878D01*
X133939164Y-95660743D01*
X133907866Y-95723211D01*
X133904824Y-95726362D01*
X133740518Y-95890669D01*
X133727945Y-95900743D01*
X133728099Y-95900930D01*
X133722092Y-95905899D01*
X133674167Y-95956933D01*
X133671461Y-95959725D01*
X133651124Y-95980063D01*
X133651111Y-95980078D01*
X133648407Y-95983563D01*
X133640840Y-95992422D01*
X133609586Y-96025707D01*
X133599356Y-96044313D01*
X133588680Y-96060564D01*
X133575674Y-96077332D01*
X133575670Y-96077338D01*
X133557542Y-96119230D01*
X133552403Y-96129719D01*
X133530406Y-96169730D01*
X133530406Y-96169731D01*
X133525125Y-96190299D01*
X133518825Y-96208701D01*
X133510398Y-96228173D01*
X133503257Y-96273262D01*
X133500888Y-96284700D01*
X133489534Y-96328917D01*
X133489534Y-96350144D01*
X133488007Y-96369544D01*
X133484687Y-96390503D01*
X133488984Y-96435958D01*
X133489534Y-96447628D01*
X133489534Y-98136467D01*
X133487556Y-98158529D01*
X133138419Y-100089555D01*
X133120504Y-100134856D01*
X132287519Y-101422195D01*
X132271093Y-101442513D01*
X131422502Y-102291105D01*
X131409929Y-102301179D01*
X131410084Y-102301366D01*
X131404077Y-102306335D01*
X131356152Y-102357369D01*
X131353446Y-102360161D01*
X131333109Y-102380499D01*
X131333096Y-102380514D01*
X131330392Y-102383999D01*
X131322825Y-102392858D01*
X131291571Y-102426143D01*
X131281341Y-102444749D01*
X131270665Y-102461000D01*
X131257661Y-102477765D01*
X131257655Y-102477775D01*
X131239527Y-102519667D01*
X131234389Y-102530155D01*
X131212392Y-102570167D01*
X131212390Y-102570173D01*
X131207111Y-102590732D01*
X131200812Y-102609130D01*
X131192384Y-102628607D01*
X131192383Y-102628610D01*
X131185240Y-102673700D01*
X131182873Y-102685131D01*
X131171520Y-102729352D01*
X131171519Y-102729361D01*
X131171519Y-102750580D01*
X131169992Y-102769980D01*
X131166672Y-102790939D01*
X131170969Y-102836394D01*
X131171519Y-102848064D01*
X131171519Y-103110305D01*
X131151834Y-103177344D01*
X131151626Y-103177668D01*
X121484051Y-118118464D01*
X121467625Y-118138782D01*
X120881114Y-118725294D01*
X120868541Y-118735368D01*
X120868696Y-118735555D01*
X120862689Y-118740524D01*
X120814764Y-118791558D01*
X120812058Y-118794350D01*
X120791721Y-118814688D01*
X120791708Y-118814703D01*
X120789004Y-118818188D01*
X120781437Y-118827047D01*
X120750183Y-118860332D01*
X120739953Y-118878938D01*
X120729277Y-118895189D01*
X120716271Y-118911957D01*
X120716267Y-118911963D01*
X120698139Y-118953855D01*
X120693000Y-118964344D01*
X120671003Y-119004355D01*
X120671003Y-119004356D01*
X120665722Y-119024924D01*
X120659422Y-119043326D01*
X120650995Y-119062798D01*
X120643854Y-119107887D01*
X120641485Y-119119325D01*
X120630131Y-119163542D01*
X120630131Y-119184769D01*
X120628604Y-119204169D01*
X120625284Y-119225128D01*
X120629581Y-119270583D01*
X120630131Y-119282253D01*
X120630131Y-119401541D01*
X120610446Y-119468580D01*
X120610238Y-119468904D01*
X120294197Y-119957331D01*
X120262817Y-119990401D01*
X110607529Y-126982162D01*
X103561431Y-132084509D01*
X103495388Y-132132333D01*
X103429545Y-132155709D01*
X103422661Y-132155900D01*
X103048682Y-132155900D01*
X103032671Y-132154132D01*
X103032649Y-132154374D01*
X103024882Y-132153640D01*
X103024881Y-132153640D01*
X102959051Y-132155709D01*
X102954915Y-132155839D01*
X102951020Y-132155900D01*
X102922252Y-132155900D01*
X102922249Y-132155900D01*
X102922234Y-132155901D01*
X102917864Y-132156453D01*
X102906236Y-132157368D01*
X102860612Y-132158802D01*
X102860602Y-132158804D01*
X102840226Y-132164723D01*
X102821185Y-132168666D01*
X102800130Y-132171326D01*
X102800114Y-132171330D01*
X102757663Y-132188137D01*
X102746617Y-132191919D01*
X102702776Y-132204656D01*
X102684504Y-132215462D01*
X102667038Y-132224019D01*
X102647305Y-132231832D01*
X102610370Y-132258666D01*
X102600611Y-132265076D01*
X102561309Y-132288320D01*
X102546303Y-132303326D01*
X102531513Y-132315958D01*
X102514344Y-132328432D01*
X102514342Y-132328434D01*
X102485233Y-132363619D01*
X102477373Y-132372256D01*
X101003198Y-133846431D01*
X100941875Y-133879916D01*
X100938059Y-133880684D01*
X76974457Y-138310930D01*
X76924165Y-138309851D01*
X53300792Y-132885600D01*
X53256088Y-132865375D01*
X34242924Y-119175897D01*
X34214547Y-119147441D01*
X34153960Y-119062798D01*
X26699824Y-108648931D01*
X22067847Y-102177786D01*
X22044833Y-102111815D01*
X22044739Y-102109504D01*
X22044397Y-102098609D01*
X22038476Y-102078231D01*
X22034531Y-102059182D01*
X22031871Y-102038120D01*
X22015063Y-101995669D01*
X22011280Y-101984620D01*
X21998543Y-101940778D01*
X21987740Y-101922512D01*
X21979178Y-101905034D01*
X21971368Y-101885307D01*
X21971365Y-101885303D01*
X21969900Y-101883287D01*
X21944530Y-101848367D01*
X21938131Y-101838626D01*
X21914881Y-101799313D01*
X21914879Y-101799311D01*
X21914878Y-101799309D01*
X21899875Y-101784307D01*
X21887235Y-101769508D01*
X21874761Y-101752338D01*
X21839580Y-101723234D01*
X21830940Y-101715372D01*
X21507115Y-101391547D01*
X21493965Y-101376040D01*
X20425762Y-99883697D01*
X20404170Y-99831228D01*
X20067675Y-97740151D01*
X20066100Y-97720450D01*
X20066100Y-97054280D01*
X20067868Y-97038267D01*
X20067626Y-97038245D01*
X20068358Y-97030489D01*
X20068360Y-97030482D01*
X20066161Y-96960514D01*
X20066100Y-96956619D01*
X20066100Y-96927855D01*
X20066099Y-96927848D01*
X20065549Y-96923494D01*
X20064630Y-96911832D01*
X20063197Y-96866209D01*
X20057276Y-96845831D01*
X20053331Y-96826782D01*
X20050671Y-96805720D01*
X20033863Y-96763269D01*
X20030080Y-96752220D01*
X20017343Y-96708378D01*
X20006540Y-96690112D01*
X19997978Y-96672634D01*
X19990168Y-96652907D01*
X19990165Y-96652903D01*
X19963330Y-96615967D01*
X19956931Y-96606226D01*
X19933681Y-96566913D01*
X19933679Y-96566911D01*
X19933678Y-96566909D01*
X19918675Y-96551907D01*
X19906035Y-96537108D01*
X19893562Y-96519940D01*
X19892714Y-96519037D01*
X19892273Y-96518166D01*
X19888977Y-96513629D01*
X19889709Y-96513097D01*
X19861175Y-96456691D01*
X19860685Y-96453858D01*
X16854964Y-77775452D01*
X16853609Y-77748393D01*
X16943386Y-76239019D01*
X17664377Y-64117349D01*
X17673396Y-64077751D01*
X20331624Y-57582635D01*
X20358695Y-57541936D01*
X20775113Y-57125518D01*
X20787679Y-57115452D01*
X20787525Y-57115265D01*
X20793533Y-57110292D01*
X20793540Y-57110289D01*
X20816827Y-57085489D01*
X20841465Y-57059254D01*
X20844178Y-57056454D01*
X20864511Y-57036122D01*
X20867206Y-57032647D01*
X20874799Y-57023756D01*
X20906045Y-56990483D01*
X20906044Y-56990483D01*
X20906048Y-56990480D01*
X20916274Y-56971876D01*
X20926947Y-56955628D01*
X20939963Y-56938850D01*
X20958091Y-56896957D01*
X20963227Y-56886469D01*
X20985227Y-56846455D01*
X20990504Y-56825895D01*
X20996806Y-56807490D01*
X21005236Y-56788013D01*
X21012379Y-56742907D01*
X21014743Y-56731492D01*
X21026100Y-56687264D01*
X21026100Y-56666042D01*
X21027627Y-56646642D01*
X21030947Y-56625682D01*
X21026650Y-56580227D01*
X21026100Y-56568557D01*
X21026100Y-55910148D01*
X21035339Y-55863180D01*
X21872876Y-53816741D01*
X21899949Y-53776038D01*
X23619911Y-52056076D01*
X23632486Y-52046003D01*
X23632331Y-52045816D01*
X23638333Y-52040849D01*
X23638340Y-52040846D01*
X23686312Y-51989759D01*
X23688961Y-51987026D01*
X23709311Y-51966678D01*
X23712008Y-51963200D01*
X23719596Y-51954316D01*
X23724934Y-51948632D01*
X23750848Y-51921037D01*
X23761070Y-51902440D01*
X23771755Y-51886175D01*
X23784763Y-51869407D01*
X23802891Y-51827514D01*
X23808027Y-51817026D01*
X23830027Y-51777012D01*
X23835304Y-51756452D01*
X23841606Y-51738047D01*
X23850036Y-51718570D01*
X23857179Y-51673464D01*
X23859543Y-51662049D01*
X23870900Y-51617821D01*
X23870900Y-51596599D01*
X23872427Y-51577199D01*
X23875747Y-51556239D01*
X23871450Y-51510784D01*
X23870900Y-51499114D01*
X23870900Y-50336727D01*
X23888129Y-50273672D01*
X29697052Y-40437796D01*
X29716589Y-40412727D01*
X39583505Y-30647010D01*
X39644998Y-30613844D01*
X39649555Y-30612966D01*
X50632735Y-28713357D01*
X50702149Y-28721328D01*
G37*
G04 #@! TD.AperFunction*
M02*
