G04 #@! TF.GenerationSoftware,KiCad,Pcbnew,7.0.10*
G04 #@! TF.CreationDate,2025-03-10T14:08:10+08:00*
G04 #@! TF.ProjectId,line_sensor,6c696e65-5f73-4656-9e73-6f722e6b6963,rev?*
G04 #@! TF.SameCoordinates,Original*
G04 #@! TF.FileFunction,Soldermask,Bot*
G04 #@! TF.FilePolarity,Negative*
%FSLAX46Y46*%
G04 Gerber Fmt 4.6, Leading zero omitted, Abs format (unit mm)*
G04 Created by KiCad (PCBNEW 7.0.10) date 2025-03-10 14:08:10*
%MOMM*%
%LPD*%
G01*
G04 APERTURE LIST*
G04 Aperture macros list*
%AMRoundRect*
0 Rectangle with rounded corners*
0 $1 Rounding radius*
0 $2 $3 $4 $5 $6 $7 $8 $9 X,Y pos of 4 corners*
0 Add a 4 corners polygon primitive as box body*
4,1,4,$2,$3,$4,$5,$6,$7,$8,$9,$2,$3,0*
0 Add four circle primitives for the rounded corners*
1,1,$1+$1,$2,$3*
1,1,$1+$1,$4,$5*
1,1,$1+$1,$6,$7*
1,1,$1+$1,$8,$9*
0 Add four rect primitives between the rounded corners*
20,1,$1+$1,$2,$3,$4,$5,0*
20,1,$1+$1,$4,$5,$6,$7,0*
20,1,$1+$1,$6,$7,$8,$9,0*
20,1,$1+$1,$8,$9,$2,$3,0*%
%AMHorizOval*
0 Thick line with rounded ends*
0 $1 width*
0 $2 $3 position (X,Y) of the first rounded end (center of the circle)*
0 $4 $5 position (X,Y) of the second rounded end (center of the circle)*
0 Add line between two ends*
20,1,$1,$2,$3,$4,$5,0*
0 Add two circle primitives to create the rounded ends*
1,1,$1,$2,$3*
1,1,$1,$4,$5*%
G04 Aperture macros list end*
%ADD10C,6.400000*%
%ADD11RoundRect,0.250000X-0.922520X0.267315X-0.463300X-0.841340X0.922520X-0.267315X0.463300X0.841340X0*%
%ADD12HorizOval,1.700000X-0.138582X-0.057403X0.138582X0.057403X0*%
%ADD13HorizOval,1.300000X0.087791X0.441353X-0.087791X-0.441353X0*%
%ADD14C,1.200000*%
%ADD15RoundRect,0.250000X0.447031X0.828124X-0.729912X0.594015X-0.447031X-0.828124X0.729912X-0.594015X0*%
%ADD16HorizOval,1.700000X-0.024386X0.122598X0.024386X-0.122598X0*%
%ADD17C,0.990600*%
%ADD18C,2.489200*%
%ADD19C,1.498600*%
G04 APERTURE END LIST*
D10*
X116391000Y-111017000D03*
D11*
X44255291Y-15978301D03*
D12*
X45212000Y-18288000D03*
D10*
X37609000Y-111017000D03*
X116391000Y-42983000D03*
D13*
X96225534Y-4384623D03*
D14*
X94556122Y-6754473D03*
X89799313Y-5808284D03*
D13*
X89163880Y-2979972D03*
D10*
X37609000Y-42983000D03*
D15*
X67927967Y-6425324D03*
D16*
X65476004Y-6913050D03*
X63024041Y-7400776D03*
X60572077Y-7888501D03*
D17*
X103506527Y-134600185D03*
D18*
X101267130Y-140560898D03*
X104777870Y-139106702D03*
D19*
X102901552Y-142860476D03*
X100796794Y-137779139D03*
X103143448Y-136807123D03*
X105248206Y-141888460D03*
D17*
X19399815Y-103506527D03*
D18*
X13439102Y-101267130D03*
X14893298Y-104777870D03*
D19*
X11139524Y-102901552D03*
X16220861Y-100796794D03*
X17192877Y-103143448D03*
X12111540Y-105248206D03*
D17*
X120062741Y-30472436D03*
D18*
X126426702Y-30260302D03*
X123739698Y-27573298D03*
D19*
X127925769Y-27870283D03*
X124036682Y-31759369D03*
X122240631Y-29963318D03*
X126129717Y-26074231D03*
D17*
X13650001Y-79450000D03*
D18*
X9000000Y-75100001D03*
X9000000Y-78899999D03*
D19*
X6250001Y-75730000D03*
X11750000Y-75730000D03*
X11750000Y-78270000D03*
X6250001Y-78270000D03*
D17*
X136475334Y-98979517D03*
D18*
X139106702Y-104777870D03*
X140560898Y-101267130D03*
D19*
X141888460Y-105248206D03*
X136807123Y-103143448D03*
X137779139Y-100796794D03*
X142860476Y-102901552D03*
D17*
X140349999Y-74550000D03*
D18*
X145000000Y-78899999D03*
X145000000Y-75100001D03*
D19*
X147749999Y-78270000D03*
X142250000Y-78270000D03*
X142250000Y-75730000D03*
X147749999Y-75730000D03*
D17*
X50493473Y-19399815D03*
D18*
X52732870Y-13439102D03*
X49222130Y-14893298D03*
D19*
X51098448Y-11139524D03*
X53203206Y-16220861D03*
X50856552Y-17192877D03*
X48751794Y-12111540D03*
D17*
X134590185Y-50493473D03*
D18*
X140550898Y-52732870D03*
X139096702Y-49222130D03*
D19*
X142850476Y-51098448D03*
X137769139Y-53203206D03*
X136797123Y-50856552D03*
X141878460Y-48751794D03*
D17*
X74550000Y-13650001D03*
D18*
X78899999Y-9000000D03*
X75100001Y-9000000D03*
D19*
X78270000Y-6250001D03*
X78270000Y-11750000D03*
X75730000Y-11750000D03*
X75730000Y-6250001D03*
D17*
X30472436Y-33937259D03*
D18*
X30260302Y-27573298D03*
X27573298Y-30260302D03*
D19*
X27870283Y-26074231D03*
X31759369Y-29963318D03*
X29963318Y-31759369D03*
X26074231Y-27870283D03*
D17*
X55020483Y-136475334D03*
D18*
X49222130Y-139106702D03*
X52732870Y-140560898D03*
D19*
X48751794Y-141888460D03*
X50856552Y-136807123D03*
X53203206Y-137779139D03*
X51098448Y-142860476D03*
D17*
X17524666Y-55020483D03*
D18*
X14893298Y-49222130D03*
X13439102Y-52732870D03*
D19*
X12111540Y-48751794D03*
X17192877Y-50856552D03*
X16220861Y-53203206D03*
X11139524Y-51098448D03*
D17*
X98979517Y-17524666D03*
D18*
X104777870Y-14893298D03*
X101267130Y-13439102D03*
D19*
X105248206Y-12111540D03*
X103143448Y-17192877D03*
X100796794Y-16220861D03*
X102901552Y-11139524D03*
D17*
X33937259Y-123527564D03*
D18*
X27573298Y-123739698D03*
X30260302Y-126426702D03*
D19*
X26074231Y-126129717D03*
X29963318Y-122240631D03*
X31759369Y-124036682D03*
X27870283Y-127925769D03*
D17*
X79450000Y-140349999D03*
D18*
X75100001Y-145000000D03*
X78899999Y-145000000D03*
D19*
X75730000Y-147749999D03*
X75730000Y-142250000D03*
X78270000Y-142250000D03*
X78270000Y-147749999D03*
D17*
X123527564Y-120062741D03*
D18*
X123739698Y-126426702D03*
X126426702Y-123739698D03*
D19*
X126129717Y-127925769D03*
X122240631Y-124036682D03*
X124036682Y-122240631D03*
X127925769Y-126129717D03*
M02*
