%TF.GenerationSoftware,KiCad,Pcbnew,7.0.10*%
%TF.CreationDate,2025-03-10T14:08:14+08:00*%
%TF.ProjectId,line_sensor,6c696e65-5f73-4656-9e73-6f722e6b6963,rev?*%
%TF.SameCoordinates,Original*%
%TF.FileFunction,Drillmap*%
%TF.FilePolarity,Positive*%
%FSLAX45Y45*%
G04 Gerber Fmt 4.5, Leading zero omitted, Abs format (unit mm)*
G04 Created by KiCad (PCBNEW 7.0.10) date 2025-03-10 14:08:14*
%MOMM*%
%LPD*%
G01*
G04 APERTURE LIST*
%ADD10C,0.100000*%
%ADD11C,0.200000*%
G04 APERTURE END LIST*
D10*
X4748500Y-3430000D02*
X10651500Y-3430000D01*
X3124500Y-4227600D02*
X3478000Y-4581200D01*
X3124500Y-11172400D02*
X3478000Y-10818800D01*
X15400000Y-7700000D02*
G75*
G03*
X0Y-7700000I-7700000J0D01*
G01*
X0Y-7700000D02*
G75*
G03*
X15400000Y-7700000I7700000J0D01*
G01*
X4043700Y-11384500D02*
G75*
G03*
X3478000Y-10818800I-282850J282850D01*
G01*
X4748500Y-3430000D02*
G75*
G03*
X4043753Y-4015553I2960770J-4280340D01*
G01*
X3690200Y-11738100D02*
G75*
G03*
X11709800Y-11738100I4009800J4037892D01*
G01*
X11922000Y-10818800D02*
G75*
G03*
X11356300Y-11384500I-282850J-282850D01*
G01*
X4043700Y-11384500D02*
X3690200Y-11738100D01*
X11922000Y-4581200D02*
X12275500Y-4227600D01*
X3478000Y-4581200D02*
G75*
G03*
X4043700Y-4015500I282850J282850D01*
G01*
X12275500Y-11172400D02*
G75*
G03*
X12275500Y-4227600I-4574718J3472400D01*
G01*
X11922000Y-10818800D02*
X12275500Y-11172400D01*
X3124500Y-4227600D02*
G75*
G03*
X3124500Y-11172400I4574718J-3472400D01*
G01*
X11356247Y-4015553D02*
G75*
G03*
X10651500Y-3430000I-3665527J-3694797D01*
G01*
X11356300Y-4015500D02*
G75*
G03*
X11922000Y-4581200I282850J-282850D01*
G01*
X11356300Y-11384500D02*
X11709800Y-11738100D01*
D11*
D10*
X1315470Y-7895470D02*
X1414530Y-7994530D01*
X1414530Y-7895470D02*
X1315470Y-7994530D01*
X1702937Y-5452518D02*
X1801997Y-5551578D01*
X1801997Y-5452518D02*
X1702937Y-5551578D01*
X1890451Y-10301123D02*
X1989511Y-10400183D01*
X1989511Y-10301123D02*
X1890451Y-10400183D01*
X2997714Y-3344196D02*
X3096774Y-3443256D01*
X3096774Y-3344196D02*
X2997714Y-3443256D01*
X3344196Y-12303226D02*
X3443256Y-12402286D01*
X3443256Y-12303226D02*
X3344196Y-12402286D01*
X4999817Y-1890451D02*
X5098877Y-1989511D01*
X5098877Y-1890451D02*
X4999817Y-1989511D01*
X5452518Y-13598003D02*
X5551578Y-13697063D01*
X5551578Y-13598003D02*
X5452518Y-13697063D01*
X7405470Y-1315470D02*
X7504530Y-1414530D01*
X7504530Y-1315470D02*
X7405470Y-1414530D01*
X7895470Y-13985470D02*
X7994530Y-14084530D01*
X7994530Y-13985470D02*
X7895470Y-14084530D01*
X9848422Y-1702937D02*
X9947482Y-1801997D01*
X9947482Y-1702937D02*
X9848422Y-1801997D01*
X10301123Y-13410488D02*
X10400183Y-13509548D01*
X10400183Y-13410488D02*
X10301123Y-13509548D01*
X11956744Y-2997714D02*
X12055804Y-3096774D01*
X12055804Y-2997714D02*
X11956744Y-3096774D01*
X12303226Y-11956744D02*
X12402286Y-12055804D01*
X12402286Y-11956744D02*
X12303226Y-12055804D01*
X13409488Y-4999817D02*
X13508548Y-5098877D01*
X13508548Y-4999817D02*
X13409488Y-5098877D01*
X13598003Y-9848422D02*
X13697063Y-9947482D01*
X13697063Y-9848422D02*
X13598003Y-9947482D01*
X13985470Y-7405470D02*
X14084530Y-7504530D01*
X14084530Y-7405470D02*
X13985470Y-7504530D01*
D11*
X255777Y-15716484D02*
X255777Y-15516484D01*
X255777Y-15516484D02*
X303396Y-15516484D01*
X303396Y-15516484D02*
X331967Y-15526008D01*
X331967Y-15526008D02*
X351015Y-15545055D01*
X351015Y-15545055D02*
X360539Y-15564103D01*
X360539Y-15564103D02*
X370062Y-15602198D01*
X370062Y-15602198D02*
X370062Y-15630769D01*
X370062Y-15630769D02*
X360539Y-15668865D01*
X360539Y-15668865D02*
X351015Y-15687912D01*
X351015Y-15687912D02*
X331967Y-15706960D01*
X331967Y-15706960D02*
X303396Y-15716484D01*
X303396Y-15716484D02*
X255777Y-15716484D01*
X455777Y-15716484D02*
X455777Y-15583150D01*
X455777Y-15621246D02*
X465301Y-15602198D01*
X465301Y-15602198D02*
X474824Y-15592674D01*
X474824Y-15592674D02*
X493872Y-15583150D01*
X493872Y-15583150D02*
X512920Y-15583150D01*
X579586Y-15716484D02*
X579586Y-15583150D01*
X579586Y-15516484D02*
X570063Y-15526008D01*
X570063Y-15526008D02*
X579586Y-15535531D01*
X579586Y-15535531D02*
X589110Y-15526008D01*
X589110Y-15526008D02*
X579586Y-15516484D01*
X579586Y-15516484D02*
X579586Y-15535531D01*
X703396Y-15716484D02*
X684348Y-15706960D01*
X684348Y-15706960D02*
X674824Y-15687912D01*
X674824Y-15687912D02*
X674824Y-15516484D01*
X808158Y-15716484D02*
X789110Y-15706960D01*
X789110Y-15706960D02*
X779586Y-15687912D01*
X779586Y-15687912D02*
X779586Y-15516484D01*
X1036729Y-15716484D02*
X1036729Y-15516484D01*
X1036729Y-15516484D02*
X1103396Y-15659341D01*
X1103396Y-15659341D02*
X1170063Y-15516484D01*
X1170063Y-15516484D02*
X1170063Y-15716484D01*
X1351015Y-15716484D02*
X1351015Y-15611722D01*
X1351015Y-15611722D02*
X1341491Y-15592674D01*
X1341491Y-15592674D02*
X1322444Y-15583150D01*
X1322444Y-15583150D02*
X1284348Y-15583150D01*
X1284348Y-15583150D02*
X1265301Y-15592674D01*
X1351015Y-15706960D02*
X1331967Y-15716484D01*
X1331967Y-15716484D02*
X1284348Y-15716484D01*
X1284348Y-15716484D02*
X1265301Y-15706960D01*
X1265301Y-15706960D02*
X1255777Y-15687912D01*
X1255777Y-15687912D02*
X1255777Y-15668865D01*
X1255777Y-15668865D02*
X1265301Y-15649817D01*
X1265301Y-15649817D02*
X1284348Y-15640293D01*
X1284348Y-15640293D02*
X1331967Y-15640293D01*
X1331967Y-15640293D02*
X1351015Y-15630769D01*
X1446253Y-15583150D02*
X1446253Y-15783150D01*
X1446253Y-15592674D02*
X1465301Y-15583150D01*
X1465301Y-15583150D02*
X1503396Y-15583150D01*
X1503396Y-15583150D02*
X1522443Y-15592674D01*
X1522443Y-15592674D02*
X1531967Y-15602198D01*
X1531967Y-15602198D02*
X1541491Y-15621246D01*
X1541491Y-15621246D02*
X1541491Y-15678388D01*
X1541491Y-15678388D02*
X1531967Y-15697436D01*
X1531967Y-15697436D02*
X1522443Y-15706960D01*
X1522443Y-15706960D02*
X1503396Y-15716484D01*
X1503396Y-15716484D02*
X1465301Y-15716484D01*
X1465301Y-15716484D02*
X1446253Y-15706960D01*
X1627205Y-15697436D02*
X1636729Y-15706960D01*
X1636729Y-15706960D02*
X1627205Y-15716484D01*
X1627205Y-15716484D02*
X1617682Y-15706960D01*
X1617682Y-15706960D02*
X1627205Y-15697436D01*
X1627205Y-15697436D02*
X1627205Y-15716484D01*
X1627205Y-15592674D02*
X1636729Y-15602198D01*
X1636729Y-15602198D02*
X1627205Y-15611722D01*
X1627205Y-15611722D02*
X1617682Y-15602198D01*
X1617682Y-15602198D02*
X1627205Y-15592674D01*
X1627205Y-15592674D02*
X1627205Y-15611722D01*
D10*
X-104060Y-15995470D02*
X-5000Y-16094530D01*
X-5000Y-15995470D02*
X-104060Y-16094530D01*
D11*
X293872Y-15936484D02*
X312920Y-15936484D01*
X312920Y-15936484D02*
X331967Y-15946008D01*
X331967Y-15946008D02*
X341491Y-15955531D01*
X341491Y-15955531D02*
X351015Y-15974579D01*
X351015Y-15974579D02*
X360539Y-16012674D01*
X360539Y-16012674D02*
X360539Y-16060293D01*
X360539Y-16060293D02*
X351015Y-16098388D01*
X351015Y-16098388D02*
X341491Y-16117436D01*
X341491Y-16117436D02*
X331967Y-16126960D01*
X331967Y-16126960D02*
X312920Y-16136484D01*
X312920Y-16136484D02*
X293872Y-16136484D01*
X293872Y-16136484D02*
X274824Y-16126960D01*
X274824Y-16126960D02*
X265301Y-16117436D01*
X265301Y-16117436D02*
X255777Y-16098388D01*
X255777Y-16098388D02*
X246253Y-16060293D01*
X246253Y-16060293D02*
X246253Y-16012674D01*
X246253Y-16012674D02*
X255777Y-15974579D01*
X255777Y-15974579D02*
X265301Y-15955531D01*
X265301Y-15955531D02*
X274824Y-15946008D01*
X274824Y-15946008D02*
X293872Y-15936484D01*
X446253Y-16117436D02*
X455777Y-16126960D01*
X455777Y-16126960D02*
X446253Y-16136484D01*
X446253Y-16136484D02*
X436729Y-16126960D01*
X436729Y-16126960D02*
X446253Y-16117436D01*
X446253Y-16117436D02*
X446253Y-16136484D01*
X551015Y-16136484D02*
X589110Y-16136484D01*
X589110Y-16136484D02*
X608158Y-16126960D01*
X608158Y-16126960D02*
X617682Y-16117436D01*
X617682Y-16117436D02*
X636729Y-16088865D01*
X636729Y-16088865D02*
X646253Y-16050769D01*
X646253Y-16050769D02*
X646253Y-15974579D01*
X646253Y-15974579D02*
X636729Y-15955531D01*
X636729Y-15955531D02*
X627205Y-15946008D01*
X627205Y-15946008D02*
X608158Y-15936484D01*
X608158Y-15936484D02*
X570063Y-15936484D01*
X570063Y-15936484D02*
X551015Y-15946008D01*
X551015Y-15946008D02*
X541491Y-15955531D01*
X541491Y-15955531D02*
X531967Y-15974579D01*
X531967Y-15974579D02*
X531967Y-16022198D01*
X531967Y-16022198D02*
X541491Y-16041246D01*
X541491Y-16041246D02*
X551015Y-16050769D01*
X551015Y-16050769D02*
X570063Y-16060293D01*
X570063Y-16060293D02*
X608158Y-16060293D01*
X608158Y-16060293D02*
X627205Y-16050769D01*
X627205Y-16050769D02*
X636729Y-16041246D01*
X636729Y-16041246D02*
X646253Y-16022198D01*
X741491Y-16136484D02*
X779586Y-16136484D01*
X779586Y-16136484D02*
X798634Y-16126960D01*
X798634Y-16126960D02*
X808158Y-16117436D01*
X808158Y-16117436D02*
X827205Y-16088865D01*
X827205Y-16088865D02*
X836729Y-16050769D01*
X836729Y-16050769D02*
X836729Y-15974579D01*
X836729Y-15974579D02*
X827205Y-15955531D01*
X827205Y-15955531D02*
X817682Y-15946008D01*
X817682Y-15946008D02*
X798634Y-15936484D01*
X798634Y-15936484D02*
X760539Y-15936484D01*
X760539Y-15936484D02*
X741491Y-15946008D01*
X741491Y-15946008D02*
X731967Y-15955531D01*
X731967Y-15955531D02*
X722443Y-15974579D01*
X722443Y-15974579D02*
X722443Y-16022198D01*
X722443Y-16022198D02*
X731967Y-16041246D01*
X731967Y-16041246D02*
X741491Y-16050769D01*
X741491Y-16050769D02*
X760539Y-16060293D01*
X760539Y-16060293D02*
X798634Y-16060293D01*
X798634Y-16060293D02*
X817682Y-16050769D01*
X817682Y-16050769D02*
X827205Y-16041246D01*
X827205Y-16041246D02*
X836729Y-16022198D01*
X1027205Y-16136484D02*
X912920Y-16136484D01*
X970062Y-16136484D02*
X970062Y-15936484D01*
X970062Y-15936484D02*
X951015Y-15965055D01*
X951015Y-15965055D02*
X931967Y-15984103D01*
X931967Y-15984103D02*
X912920Y-15993627D01*
X1112920Y-16136484D02*
X1112920Y-16003150D01*
X1112920Y-16022198D02*
X1122444Y-16012674D01*
X1122444Y-16012674D02*
X1141491Y-16003150D01*
X1141491Y-16003150D02*
X1170063Y-16003150D01*
X1170063Y-16003150D02*
X1189110Y-16012674D01*
X1189110Y-16012674D02*
X1198634Y-16031722D01*
X1198634Y-16031722D02*
X1198634Y-16136484D01*
X1198634Y-16031722D02*
X1208158Y-16012674D01*
X1208158Y-16012674D02*
X1227205Y-16003150D01*
X1227205Y-16003150D02*
X1255777Y-16003150D01*
X1255777Y-16003150D02*
X1274825Y-16012674D01*
X1274825Y-16012674D02*
X1284348Y-16031722D01*
X1284348Y-16031722D02*
X1284348Y-16136484D01*
X1379586Y-16136484D02*
X1379586Y-16003150D01*
X1379586Y-16022198D02*
X1389110Y-16012674D01*
X1389110Y-16012674D02*
X1408158Y-16003150D01*
X1408158Y-16003150D02*
X1436729Y-16003150D01*
X1436729Y-16003150D02*
X1455777Y-16012674D01*
X1455777Y-16012674D02*
X1465301Y-16031722D01*
X1465301Y-16031722D02*
X1465301Y-16136484D01*
X1465301Y-16031722D02*
X1474824Y-16012674D01*
X1474824Y-16012674D02*
X1493872Y-16003150D01*
X1493872Y-16003150D02*
X1522443Y-16003150D01*
X1522443Y-16003150D02*
X1541491Y-16012674D01*
X1541491Y-16012674D02*
X1551015Y-16031722D01*
X1551015Y-16031722D02*
X1551015Y-16136484D01*
X1941491Y-15926960D02*
X1770063Y-16184103D01*
X2198634Y-15936484D02*
X2217682Y-15936484D01*
X2217682Y-15936484D02*
X2236729Y-15946008D01*
X2236729Y-15946008D02*
X2246253Y-15955531D01*
X2246253Y-15955531D02*
X2255777Y-15974579D01*
X2255777Y-15974579D02*
X2265301Y-16012674D01*
X2265301Y-16012674D02*
X2265301Y-16060293D01*
X2265301Y-16060293D02*
X2255777Y-16098388D01*
X2255777Y-16098388D02*
X2246253Y-16117436D01*
X2246253Y-16117436D02*
X2236729Y-16126960D01*
X2236729Y-16126960D02*
X2217682Y-16136484D01*
X2217682Y-16136484D02*
X2198634Y-16136484D01*
X2198634Y-16136484D02*
X2179587Y-16126960D01*
X2179587Y-16126960D02*
X2170063Y-16117436D01*
X2170063Y-16117436D02*
X2160539Y-16098388D01*
X2160539Y-16098388D02*
X2151015Y-16060293D01*
X2151015Y-16060293D02*
X2151015Y-16012674D01*
X2151015Y-16012674D02*
X2160539Y-15974579D01*
X2160539Y-15974579D02*
X2170063Y-15955531D01*
X2170063Y-15955531D02*
X2179587Y-15946008D01*
X2179587Y-15946008D02*
X2198634Y-15936484D01*
X2351015Y-16117436D02*
X2360539Y-16126960D01*
X2360539Y-16126960D02*
X2351015Y-16136484D01*
X2351015Y-16136484D02*
X2341491Y-16126960D01*
X2341491Y-16126960D02*
X2351015Y-16117436D01*
X2351015Y-16117436D02*
X2351015Y-16136484D01*
X2484348Y-15936484D02*
X2503396Y-15936484D01*
X2503396Y-15936484D02*
X2522444Y-15946008D01*
X2522444Y-15946008D02*
X2531968Y-15955531D01*
X2531968Y-15955531D02*
X2541491Y-15974579D01*
X2541491Y-15974579D02*
X2551015Y-16012674D01*
X2551015Y-16012674D02*
X2551015Y-16060293D01*
X2551015Y-16060293D02*
X2541491Y-16098388D01*
X2541491Y-16098388D02*
X2531968Y-16117436D01*
X2531968Y-16117436D02*
X2522444Y-16126960D01*
X2522444Y-16126960D02*
X2503396Y-16136484D01*
X2503396Y-16136484D02*
X2484348Y-16136484D01*
X2484348Y-16136484D02*
X2465301Y-16126960D01*
X2465301Y-16126960D02*
X2455777Y-16117436D01*
X2455777Y-16117436D02*
X2446253Y-16098388D01*
X2446253Y-16098388D02*
X2436729Y-16060293D01*
X2436729Y-16060293D02*
X2436729Y-16012674D01*
X2436729Y-16012674D02*
X2446253Y-15974579D01*
X2446253Y-15974579D02*
X2455777Y-15955531D01*
X2455777Y-15955531D02*
X2465301Y-15946008D01*
X2465301Y-15946008D02*
X2484348Y-15936484D01*
X2617682Y-15936484D02*
X2741491Y-15936484D01*
X2741491Y-15936484D02*
X2674825Y-16012674D01*
X2674825Y-16012674D02*
X2703396Y-16012674D01*
X2703396Y-16012674D02*
X2722444Y-16022198D01*
X2722444Y-16022198D02*
X2731968Y-16031722D01*
X2731968Y-16031722D02*
X2741491Y-16050769D01*
X2741491Y-16050769D02*
X2741491Y-16098388D01*
X2741491Y-16098388D02*
X2731968Y-16117436D01*
X2731968Y-16117436D02*
X2722444Y-16126960D01*
X2722444Y-16126960D02*
X2703396Y-16136484D01*
X2703396Y-16136484D02*
X2646253Y-16136484D01*
X2646253Y-16136484D02*
X2627206Y-16126960D01*
X2627206Y-16126960D02*
X2617682Y-16117436D01*
X2836729Y-16136484D02*
X2874825Y-16136484D01*
X2874825Y-16136484D02*
X2893872Y-16126960D01*
X2893872Y-16126960D02*
X2903396Y-16117436D01*
X2903396Y-16117436D02*
X2922444Y-16088865D01*
X2922444Y-16088865D02*
X2931967Y-16050769D01*
X2931967Y-16050769D02*
X2931967Y-15974579D01*
X2931967Y-15974579D02*
X2922444Y-15955531D01*
X2922444Y-15955531D02*
X2912920Y-15946008D01*
X2912920Y-15946008D02*
X2893872Y-15936484D01*
X2893872Y-15936484D02*
X2855777Y-15936484D01*
X2855777Y-15936484D02*
X2836729Y-15946008D01*
X2836729Y-15946008D02*
X2827206Y-15955531D01*
X2827206Y-15955531D02*
X2817682Y-15974579D01*
X2817682Y-15974579D02*
X2817682Y-16022198D01*
X2817682Y-16022198D02*
X2827206Y-16041246D01*
X2827206Y-16041246D02*
X2836729Y-16050769D01*
X2836729Y-16050769D02*
X2855777Y-16060293D01*
X2855777Y-16060293D02*
X2893872Y-16060293D01*
X2893872Y-16060293D02*
X2912920Y-16050769D01*
X2912920Y-16050769D02*
X2922444Y-16041246D01*
X2922444Y-16041246D02*
X2931967Y-16022198D01*
X3055777Y-15936484D02*
X3074825Y-15936484D01*
X3074825Y-15936484D02*
X3093872Y-15946008D01*
X3093872Y-15946008D02*
X3103396Y-15955531D01*
X3103396Y-15955531D02*
X3112920Y-15974579D01*
X3112920Y-15974579D02*
X3122444Y-16012674D01*
X3122444Y-16012674D02*
X3122444Y-16060293D01*
X3122444Y-16060293D02*
X3112920Y-16098388D01*
X3112920Y-16098388D02*
X3103396Y-16117436D01*
X3103396Y-16117436D02*
X3093872Y-16126960D01*
X3093872Y-16126960D02*
X3074825Y-16136484D01*
X3074825Y-16136484D02*
X3055777Y-16136484D01*
X3055777Y-16136484D02*
X3036729Y-16126960D01*
X3036729Y-16126960D02*
X3027206Y-16117436D01*
X3027206Y-16117436D02*
X3017682Y-16098388D01*
X3017682Y-16098388D02*
X3008158Y-16060293D01*
X3008158Y-16060293D02*
X3008158Y-16012674D01*
X3008158Y-16012674D02*
X3017682Y-15974579D01*
X3017682Y-15974579D02*
X3027206Y-15955531D01*
X3027206Y-15955531D02*
X3036729Y-15946008D01*
X3036729Y-15946008D02*
X3055777Y-15936484D01*
X3198634Y-15936484D02*
X3198634Y-15974579D01*
X3274825Y-15936484D02*
X3274825Y-15974579D01*
X3570063Y-16212674D02*
X3560539Y-16203150D01*
X3560539Y-16203150D02*
X3541491Y-16174579D01*
X3541491Y-16174579D02*
X3531968Y-16155531D01*
X3531968Y-16155531D02*
X3522444Y-16126960D01*
X3522444Y-16126960D02*
X3512920Y-16079341D01*
X3512920Y-16079341D02*
X3512920Y-16041246D01*
X3512920Y-16041246D02*
X3522444Y-15993627D01*
X3522444Y-15993627D02*
X3531968Y-15965055D01*
X3531968Y-15965055D02*
X3541491Y-15946008D01*
X3541491Y-15946008D02*
X3560539Y-15917436D01*
X3560539Y-15917436D02*
X3570063Y-15907912D01*
X3751015Y-16136484D02*
X3636729Y-16136484D01*
X3693872Y-16136484D02*
X3693872Y-15936484D01*
X3693872Y-15936484D02*
X3674825Y-15965055D01*
X3674825Y-15965055D02*
X3655777Y-15984103D01*
X3655777Y-15984103D02*
X3636729Y-15993627D01*
X3922444Y-15936484D02*
X3884348Y-15936484D01*
X3884348Y-15936484D02*
X3865301Y-15946008D01*
X3865301Y-15946008D02*
X3855777Y-15955531D01*
X3855777Y-15955531D02*
X3836729Y-15984103D01*
X3836729Y-15984103D02*
X3827206Y-16022198D01*
X3827206Y-16022198D02*
X3827206Y-16098388D01*
X3827206Y-16098388D02*
X3836729Y-16117436D01*
X3836729Y-16117436D02*
X3846253Y-16126960D01*
X3846253Y-16126960D02*
X3865301Y-16136484D01*
X3865301Y-16136484D02*
X3903396Y-16136484D01*
X3903396Y-16136484D02*
X3922444Y-16126960D01*
X3922444Y-16126960D02*
X3931968Y-16117436D01*
X3931968Y-16117436D02*
X3941491Y-16098388D01*
X3941491Y-16098388D02*
X3941491Y-16050769D01*
X3941491Y-16050769D02*
X3931968Y-16031722D01*
X3931968Y-16031722D02*
X3922444Y-16022198D01*
X3922444Y-16022198D02*
X3903396Y-16012674D01*
X3903396Y-16012674D02*
X3865301Y-16012674D01*
X3865301Y-16012674D02*
X3846253Y-16022198D01*
X3846253Y-16022198D02*
X3836729Y-16031722D01*
X3836729Y-16031722D02*
X3827206Y-16050769D01*
X4179587Y-16136484D02*
X4179587Y-15936484D01*
X4265301Y-16136484D02*
X4265301Y-16031722D01*
X4265301Y-16031722D02*
X4255777Y-16012674D01*
X4255777Y-16012674D02*
X4236730Y-16003150D01*
X4236730Y-16003150D02*
X4208158Y-16003150D01*
X4208158Y-16003150D02*
X4189110Y-16012674D01*
X4189110Y-16012674D02*
X4179587Y-16022198D01*
X4389111Y-16136484D02*
X4370063Y-16126960D01*
X4370063Y-16126960D02*
X4360539Y-16117436D01*
X4360539Y-16117436D02*
X4351015Y-16098388D01*
X4351015Y-16098388D02*
X4351015Y-16041246D01*
X4351015Y-16041246D02*
X4360539Y-16022198D01*
X4360539Y-16022198D02*
X4370063Y-16012674D01*
X4370063Y-16012674D02*
X4389111Y-16003150D01*
X4389111Y-16003150D02*
X4417682Y-16003150D01*
X4417682Y-16003150D02*
X4436730Y-16012674D01*
X4436730Y-16012674D02*
X4446253Y-16022198D01*
X4446253Y-16022198D02*
X4455777Y-16041246D01*
X4455777Y-16041246D02*
X4455777Y-16098388D01*
X4455777Y-16098388D02*
X4446253Y-16117436D01*
X4446253Y-16117436D02*
X4436730Y-16126960D01*
X4436730Y-16126960D02*
X4417682Y-16136484D01*
X4417682Y-16136484D02*
X4389111Y-16136484D01*
X4570063Y-16136484D02*
X4551015Y-16126960D01*
X4551015Y-16126960D02*
X4541492Y-16107912D01*
X4541492Y-16107912D02*
X4541492Y-15936484D01*
X4722444Y-16126960D02*
X4703396Y-16136484D01*
X4703396Y-16136484D02*
X4665301Y-16136484D01*
X4665301Y-16136484D02*
X4646253Y-16126960D01*
X4646253Y-16126960D02*
X4636730Y-16107912D01*
X4636730Y-16107912D02*
X4636730Y-16031722D01*
X4636730Y-16031722D02*
X4646253Y-16012674D01*
X4646253Y-16012674D02*
X4665301Y-16003150D01*
X4665301Y-16003150D02*
X4703396Y-16003150D01*
X4703396Y-16003150D02*
X4722444Y-16012674D01*
X4722444Y-16012674D02*
X4731968Y-16031722D01*
X4731968Y-16031722D02*
X4731968Y-16050769D01*
X4731968Y-16050769D02*
X4636730Y-16069817D01*
X4808158Y-16126960D02*
X4827206Y-16136484D01*
X4827206Y-16136484D02*
X4865301Y-16136484D01*
X4865301Y-16136484D02*
X4884349Y-16126960D01*
X4884349Y-16126960D02*
X4893873Y-16107912D01*
X4893873Y-16107912D02*
X4893873Y-16098388D01*
X4893873Y-16098388D02*
X4884349Y-16079341D01*
X4884349Y-16079341D02*
X4865301Y-16069817D01*
X4865301Y-16069817D02*
X4836730Y-16069817D01*
X4836730Y-16069817D02*
X4817682Y-16060293D01*
X4817682Y-16060293D02*
X4808158Y-16041246D01*
X4808158Y-16041246D02*
X4808158Y-16031722D01*
X4808158Y-16031722D02*
X4817682Y-16012674D01*
X4817682Y-16012674D02*
X4836730Y-16003150D01*
X4836730Y-16003150D02*
X4865301Y-16003150D01*
X4865301Y-16003150D02*
X4884349Y-16012674D01*
X4960539Y-16212674D02*
X4970063Y-16203150D01*
X4970063Y-16203150D02*
X4989111Y-16174579D01*
X4989111Y-16174579D02*
X4998634Y-16155531D01*
X4998634Y-16155531D02*
X5008158Y-16126960D01*
X5008158Y-16126960D02*
X5017682Y-16079341D01*
X5017682Y-16079341D02*
X5017682Y-16041246D01*
X5017682Y-16041246D02*
X5008158Y-15993627D01*
X5008158Y-15993627D02*
X4998634Y-15965055D01*
X4998634Y-15965055D02*
X4989111Y-15946008D01*
X4989111Y-15946008D02*
X4970063Y-15917436D01*
X4970063Y-15917436D02*
X4960539Y-15907912D01*
X5322444Y-16212674D02*
X5312920Y-16203150D01*
X5312920Y-16203150D02*
X5293873Y-16174579D01*
X5293873Y-16174579D02*
X5284349Y-16155531D01*
X5284349Y-16155531D02*
X5274825Y-16126960D01*
X5274825Y-16126960D02*
X5265301Y-16079341D01*
X5265301Y-16079341D02*
X5265301Y-16041246D01*
X5265301Y-16041246D02*
X5274825Y-15993627D01*
X5274825Y-15993627D02*
X5284349Y-15965055D01*
X5284349Y-15965055D02*
X5293873Y-15946008D01*
X5293873Y-15946008D02*
X5312920Y-15917436D01*
X5312920Y-15917436D02*
X5322444Y-15907912D01*
X5398634Y-16003150D02*
X5398634Y-16136484D01*
X5398634Y-16022198D02*
X5408158Y-16012674D01*
X5408158Y-16012674D02*
X5427206Y-16003150D01*
X5427206Y-16003150D02*
X5455777Y-16003150D01*
X5455777Y-16003150D02*
X5474825Y-16012674D01*
X5474825Y-16012674D02*
X5484349Y-16031722D01*
X5484349Y-16031722D02*
X5484349Y-16136484D01*
X5608158Y-16136484D02*
X5589111Y-16126960D01*
X5589111Y-16126960D02*
X5579587Y-16117436D01*
X5579587Y-16117436D02*
X5570063Y-16098388D01*
X5570063Y-16098388D02*
X5570063Y-16041246D01*
X5570063Y-16041246D02*
X5579587Y-16022198D01*
X5579587Y-16022198D02*
X5589111Y-16012674D01*
X5589111Y-16012674D02*
X5608158Y-16003150D01*
X5608158Y-16003150D02*
X5636730Y-16003150D01*
X5636730Y-16003150D02*
X5655777Y-16012674D01*
X5655777Y-16012674D02*
X5665301Y-16022198D01*
X5665301Y-16022198D02*
X5674825Y-16041246D01*
X5674825Y-16041246D02*
X5674825Y-16098388D01*
X5674825Y-16098388D02*
X5665301Y-16117436D01*
X5665301Y-16117436D02*
X5655777Y-16126960D01*
X5655777Y-16126960D02*
X5636730Y-16136484D01*
X5636730Y-16136484D02*
X5608158Y-16136484D01*
X5731968Y-16003150D02*
X5808158Y-16003150D01*
X5760539Y-15936484D02*
X5760539Y-16107912D01*
X5760539Y-16107912D02*
X5770063Y-16126960D01*
X5770063Y-16126960D02*
X5789111Y-16136484D01*
X5789111Y-16136484D02*
X5808158Y-16136484D01*
X6027206Y-16003150D02*
X6027206Y-16203150D01*
X6027206Y-16012674D02*
X6046253Y-16003150D01*
X6046253Y-16003150D02*
X6084349Y-16003150D01*
X6084349Y-16003150D02*
X6103396Y-16012674D01*
X6103396Y-16012674D02*
X6112920Y-16022198D01*
X6112920Y-16022198D02*
X6122444Y-16041246D01*
X6122444Y-16041246D02*
X6122444Y-16098388D01*
X6122444Y-16098388D02*
X6112920Y-16117436D01*
X6112920Y-16117436D02*
X6103396Y-16126960D01*
X6103396Y-16126960D02*
X6084349Y-16136484D01*
X6084349Y-16136484D02*
X6046253Y-16136484D01*
X6046253Y-16136484D02*
X6027206Y-16126960D01*
X6236730Y-16136484D02*
X6217682Y-16126960D01*
X6217682Y-16126960D02*
X6208158Y-16107912D01*
X6208158Y-16107912D02*
X6208158Y-15936484D01*
X6398634Y-16136484D02*
X6398634Y-16031722D01*
X6398634Y-16031722D02*
X6389111Y-16012674D01*
X6389111Y-16012674D02*
X6370063Y-16003150D01*
X6370063Y-16003150D02*
X6331968Y-16003150D01*
X6331968Y-16003150D02*
X6312920Y-16012674D01*
X6398634Y-16126960D02*
X6379587Y-16136484D01*
X6379587Y-16136484D02*
X6331968Y-16136484D01*
X6331968Y-16136484D02*
X6312920Y-16126960D01*
X6312920Y-16126960D02*
X6303396Y-16107912D01*
X6303396Y-16107912D02*
X6303396Y-16088865D01*
X6303396Y-16088865D02*
X6312920Y-16069817D01*
X6312920Y-16069817D02*
X6331968Y-16060293D01*
X6331968Y-16060293D02*
X6379587Y-16060293D01*
X6379587Y-16060293D02*
X6398634Y-16050769D01*
X6465301Y-16003150D02*
X6541492Y-16003150D01*
X6493873Y-15936484D02*
X6493873Y-16107912D01*
X6493873Y-16107912D02*
X6503396Y-16126960D01*
X6503396Y-16126960D02*
X6522444Y-16136484D01*
X6522444Y-16136484D02*
X6541492Y-16136484D01*
X6684349Y-16126960D02*
X6665301Y-16136484D01*
X6665301Y-16136484D02*
X6627206Y-16136484D01*
X6627206Y-16136484D02*
X6608158Y-16126960D01*
X6608158Y-16126960D02*
X6598634Y-16107912D01*
X6598634Y-16107912D02*
X6598634Y-16031722D01*
X6598634Y-16031722D02*
X6608158Y-16012674D01*
X6608158Y-16012674D02*
X6627206Y-16003150D01*
X6627206Y-16003150D02*
X6665301Y-16003150D01*
X6665301Y-16003150D02*
X6684349Y-16012674D01*
X6684349Y-16012674D02*
X6693873Y-16031722D01*
X6693873Y-16031722D02*
X6693873Y-16050769D01*
X6693873Y-16050769D02*
X6598634Y-16069817D01*
X6865301Y-16136484D02*
X6865301Y-15936484D01*
X6865301Y-16126960D02*
X6846254Y-16136484D01*
X6846254Y-16136484D02*
X6808158Y-16136484D01*
X6808158Y-16136484D02*
X6789111Y-16126960D01*
X6789111Y-16126960D02*
X6779587Y-16117436D01*
X6779587Y-16117436D02*
X6770063Y-16098388D01*
X6770063Y-16098388D02*
X6770063Y-16041246D01*
X6770063Y-16041246D02*
X6779587Y-16022198D01*
X6779587Y-16022198D02*
X6789111Y-16012674D01*
X6789111Y-16012674D02*
X6808158Y-16003150D01*
X6808158Y-16003150D02*
X6846254Y-16003150D01*
X6846254Y-16003150D02*
X6865301Y-16012674D01*
X6941492Y-16212674D02*
X6951015Y-16203150D01*
X6951015Y-16203150D02*
X6970063Y-16174579D01*
X6970063Y-16174579D02*
X6979587Y-16155531D01*
X6979587Y-16155531D02*
X6989111Y-16126960D01*
X6989111Y-16126960D02*
X6998634Y-16079341D01*
X6998634Y-16079341D02*
X6998634Y-16041246D01*
X6998634Y-16041246D02*
X6989111Y-15993627D01*
X6989111Y-15993627D02*
X6979587Y-15965055D01*
X6979587Y-15965055D02*
X6970063Y-15946008D01*
X6970063Y-15946008D02*
X6951015Y-15917436D01*
X6951015Y-15917436D02*
X6941492Y-15907912D01*
M02*
